<svg width="67" height="48" viewBox="0 0 67 48" fill="none" xmlns="http://www.w3.org/2000/svg">
<rect width="67" height="48" rx="8" fill="#F6F8F9"/>
<path d="M18.972 23.848C19.4853 24.0813 19.8773 24.3987 20.148 24.8C20.428 25.192 20.568 25.654 20.568 26.186C20.568 26.7833 20.4 27.306 20.064 27.754C19.7373 28.202 19.2707 28.5473 18.664 28.79C18.0573 29.0233 17.3527 29.14 16.55 29.14C15.7473 29.14 15.0427 29.0233 14.436 28.79C13.8387 28.5473 13.3767 28.202 13.05 27.754C12.7233 27.306 12.56 26.7833 12.56 26.186C12.56 25.654 12.6953 25.192 12.966 24.8C13.2367 24.3987 13.624 24.0813 14.128 23.848C13.736 23.6333 13.4327 23.3533 13.218 23.008C13.0127 22.6533 12.91 22.2473 12.91 21.79C12.91 21.2393 13.0593 20.7587 13.358 20.348C13.666 19.9373 14.0953 19.62 14.646 19.396C15.1967 19.172 15.8313 19.06 16.55 19.06C17.278 19.06 17.9173 19.172 18.468 19.396C19.0187 19.62 19.448 19.9373 19.756 20.348C20.064 20.7587 20.218 21.2393 20.218 21.79C20.218 22.2473 20.1107 22.6487 19.896 22.994C19.6813 23.3393 19.3733 23.624 18.972 23.848ZM16.55 20.488C15.9807 20.488 15.528 20.6093 15.192 20.852C14.8653 21.0947 14.702 21.4353 14.702 21.874C14.702 22.294 14.8653 22.63 15.192 22.882C15.528 23.1247 15.9807 23.246 16.55 23.246C17.1287 23.246 17.586 23.1247 17.922 22.882C18.258 22.63 18.426 22.294 18.426 21.874C18.426 21.4353 18.2533 21.0947 17.908 20.852C17.572 20.6093 17.1193 20.488 16.55 20.488ZM16.55 27.712C17.222 27.712 17.754 27.572 18.146 27.292C18.538 27.012 18.734 26.6247 18.734 26.13C18.734 25.6447 18.538 25.262 18.146 24.982C17.754 24.702 17.222 24.562 16.55 24.562C15.878 24.562 15.3507 24.702 14.968 24.982C14.5853 25.262 14.394 25.6447 14.394 26.13C14.394 26.6247 14.5853 27.012 14.968 27.292C15.3507 27.572 15.878 27.712 16.55 27.712ZM32.366 24.8H29.888V27.25H28.39V24.8H25.912V23.4H28.39V20.95H29.888V23.4H32.366V24.8ZM41.1329 19.2V29H39.3129V20.726H37.2409V19.2H41.1329ZM47.2401 21.706H53.6941V23.106H47.2401V21.706ZM47.2401 25.094H53.6941V26.494H47.2401V25.094Z" fill="black"/>
</svg>
