<svg width="263" height="263" viewBox="0 0 263 263" fill="none" xmlns="http://www.w3.org/2000/svg">
<path d="M1.70779 0.853896C1.70779 1.32549 1.32549 1.70779 0.853896 1.70779C0.382302 1.70779 0 1.32549 0 0.853896C0 0.382302 0.382302 0 0.853896 0C1.32549 0 1.70779 0.382302 1.70779 0.853896Z" fill="#2D47A3"/>
<path d="M1.70779 77.7045C1.70779 78.1761 1.32549 78.5584 0.853896 78.5584C0.382302 78.5584 0 78.1761 0 77.7045C0 77.2329 0.382302 76.8507 0.853896 76.8507C1.32549 76.8507 1.70779 77.2329 1.70779 77.7045Z" fill="#2D47A3"/>
<path d="M1.70779 154.555C1.70779 155.027 1.32549 155.409 0.853896 155.409C0.382302 155.409 0 155.027 0 154.555C0 154.084 0.382302 153.701 0.853896 153.701C1.32549 153.701 1.70779 154.084 1.70779 154.555Z" fill="#2D47A3"/>
<path d="M1.70779 16.224C1.70779 16.6956 1.32549 17.0779 0.853896 17.0779C0.382302 17.0779 0 16.6956 0 16.224C0 15.7524 0.382302 15.3701 0.853896 15.3701C1.32549 15.3701 1.70779 15.7524 1.70779 16.224Z" fill="#2D47A3"/>
<path d="M1.70779 93.0747C1.70779 93.5463 1.32549 93.9286 0.853896 93.9286C0.382302 93.9286 0 93.5463 0 93.0747C0 92.6031 0.382302 92.2208 0.853896 92.2208C1.32549 92.2208 1.70779 92.6031 1.70779 93.0747Z" fill="#2D47A3"/>
<path d="M1.70779 169.925C1.70779 170.397 1.32549 170.779 0.853896 170.779C0.382302 170.779 0 170.397 0 169.925C0 169.454 0.382302 169.071 0.853896 169.071C1.32549 169.071 1.70779 169.454 1.70779 169.925Z" fill="#2D47A3"/>
<path d="M1.70779 231.406C1.70779 231.877 1.32549 232.26 0.853896 232.26C0.382302 232.26 0 231.877 0 231.406C0 230.934 0.382302 230.552 0.853896 230.552C1.32549 230.552 1.70779 230.934 1.70779 231.406Z" fill="#2D47A3"/>
<path d="M1.70779 31.5942C1.70779 32.0658 1.32549 32.4481 0.853896 32.4481C0.382302 32.4481 0 32.0658 0 31.5942C0 31.1226 0.382302 30.7403 0.853896 30.7403C1.32549 30.7403 1.70779 31.1226 1.70779 31.5942Z" fill="#2D47A3"/>
<path d="M1.70779 108.445C1.70779 108.916 1.32549 109.299 0.853896 109.299C0.382302 109.299 0 108.916 0 108.445C0 107.973 0.382302 107.591 0.853896 107.591C1.32549 107.591 1.70779 107.973 1.70779 108.445Z" fill="#2D47A3"/>
<path d="M1.70779 185.295C1.70779 185.767 1.32549 186.149 0.853896 186.149C0.382302 186.149 0 185.767 0 185.295C0 184.824 0.382302 184.442 0.853896 184.442C1.32549 184.442 1.70779 184.824 1.70779 185.295Z" fill="#2D47A3"/>
<path d="M1.70779 246.776C1.70779 247.248 1.32549 247.63 0.853896 247.63C0.382302 247.63 0 247.248 0 246.776C0 246.304 0.382302 245.922 0.853896 245.922C1.32549 245.922 1.70779 246.304 1.70779 246.776Z" fill="#2D47A3"/>
<path d="M1.70779 262.146C1.70779 262.618 1.32549 263 0.853896 263C0.382302 263 0 262.618 0 262.146C0 261.675 0.382302 261.292 0.853896 261.292C1.32549 261.292 1.70779 261.675 1.70779 262.146Z" fill="#2D47A3"/>
<path d="M1.70779 46.9643C1.70779 47.4359 1.32549 47.8182 0.853896 47.8182C0.382302 47.8182 0 47.4359 0 46.9643C0 46.4927 0.382302 46.1104 0.853896 46.1104C1.32549 46.1104 1.70779 46.4927 1.70779 46.9643Z" fill="#2D47A3"/>
<path d="M1.70779 123.815C1.70779 124.287 1.32549 124.669 0.853896 124.669C0.382302 124.669 0 124.287 0 123.815C0 123.343 0.382302 122.961 0.853896 122.961C1.32549 122.961 1.70779 123.343 1.70779 123.815Z" fill="#2D47A3"/>
<path d="M1.70779 200.666C1.70779 201.137 1.32549 201.519 0.853896 201.519C0.382302 201.519 0 201.137 0 200.666C0 200.194 0.382302 199.812 0.853896 199.812C1.32549 199.812 1.70779 200.194 1.70779 200.666Z" fill="#2D47A3"/>
<path d="M1.70779 62.3344C1.70779 62.806 1.32549 63.1883 0.853896 63.1883C0.382302 63.1883 0 62.806 0 62.3344C0 61.8628 0.382302 61.4805 0.853896 61.4805C1.32549 61.4805 1.70779 61.8628 1.70779 62.3344Z" fill="#2D47A3"/>
<path d="M1.70779 139.185C1.70779 139.657 1.32549 140.039 0.853896 140.039C0.382302 140.039 0 139.657 0 139.185C0 138.713 0.382302 138.331 0.853896 138.331C1.32549 138.331 1.70779 138.713 1.70779 139.185Z" fill="#2D47A3"/>
<path d="M1.70779 216.036C1.70779 216.507 1.32549 216.89 0.853896 216.89C0.382302 216.89 0 216.507 0 216.036C0 215.564 0.382302 215.182 0.853896 215.182C1.32549 215.182 1.70779 215.564 1.70779 216.036Z" fill="#2D47A3"/>
<path d="M93.9286 0.853896C93.9286 1.32549 93.5463 1.70779 93.0747 1.70779C92.6031 1.70779 92.2208 1.32549 92.2208 0.853896C92.2208 0.382302 92.6031 0 93.0747 0C93.5463 0 93.9286 0.382302 93.9286 0.853896Z" fill="#2D47A3"/>
<path d="M93.9286 77.7045C93.9286 78.1761 93.5463 78.5584 93.0747 78.5584C92.6031 78.5584 92.2208 78.1761 92.2208 77.7045C92.2208 77.2329 92.6031 76.8507 93.0747 76.8507C93.5463 76.8507 93.9286 77.2329 93.9286 77.7045Z" fill="#2D47A3"/>
<path d="M93.9286 154.555C93.9286 155.027 93.5463 155.409 93.0747 155.409C92.6031 155.409 92.2208 155.027 92.2208 154.555C92.2208 154.084 92.6031 153.701 93.0747 153.701C93.5463 153.701 93.9286 154.084 93.9286 154.555Z" fill="#2D47A3"/>
<path d="M93.9286 16.224C93.9286 16.6956 93.5463 17.0779 93.0747 17.0779C92.6031 17.0779 92.2208 16.6956 92.2208 16.224C92.2208 15.7524 92.6031 15.3701 93.0747 15.3701C93.5463 15.3701 93.9286 15.7524 93.9286 16.224Z" fill="#2D47A3"/>
<path d="M93.9286 93.0747C93.9286 93.5463 93.5463 93.9286 93.0747 93.9286C92.6031 93.9286 92.2208 93.5463 92.2208 93.0747C92.2208 92.6031 92.6031 92.2208 93.0747 92.2208C93.5463 92.2208 93.9286 92.6031 93.9286 93.0747Z" fill="#2D47A3"/>
<path d="M93.9286 169.925C93.9286 170.397 93.5463 170.779 93.0747 170.779C92.6031 170.779 92.2208 170.397 92.2208 169.925C92.2208 169.454 92.6031 169.071 93.0747 169.071C93.5463 169.071 93.9286 169.454 93.9286 169.925Z" fill="#2D47A3"/>
<path d="M93.9286 231.406C93.9286 231.877 93.5463 232.26 93.0747 232.26C92.6031 232.26 92.2208 231.877 92.2208 231.406C92.2208 230.934 92.6031 230.552 93.0747 230.552C93.5463 230.552 93.9286 230.934 93.9286 231.406Z" fill="#2D47A3"/>
<path d="M93.9286 31.5942C93.9286 32.0658 93.5463 32.4481 93.0747 32.4481C92.6031 32.4481 92.2208 32.0658 92.2208 31.5942C92.2208 31.1226 92.6031 30.7403 93.0747 30.7403C93.5463 30.7403 93.9286 31.1226 93.9286 31.5942Z" fill="#2D47A3"/>
<path d="M93.9286 108.445C93.9286 108.916 93.5463 109.299 93.0747 109.299C92.6031 109.299 92.2208 108.916 92.2208 108.445C92.2208 107.973 92.6031 107.591 93.0747 107.591C93.5463 107.591 93.9286 107.973 93.9286 108.445Z" fill="#2D47A3"/>
<path d="M93.9286 185.295C93.9286 185.767 93.5463 186.149 93.0747 186.149C92.6031 186.149 92.2208 185.767 92.2208 185.295C92.2208 184.824 92.6031 184.442 93.0747 184.442C93.5463 184.442 93.9286 184.824 93.9286 185.295Z" fill="#2D47A3"/>
<path d="M93.9286 246.776C93.9286 247.248 93.5463 247.63 93.0747 247.63C92.6031 247.63 92.2208 247.248 92.2208 246.776C92.2208 246.304 92.6031 245.922 93.0747 245.922C93.5463 245.922 93.9286 246.304 93.9286 246.776Z" fill="#2D47A3"/>
<path d="M93.9286 262.146C93.9286 262.618 93.5463 263 93.0747 263C92.6031 263 92.2208 262.618 92.2208 262.146C92.2208 261.675 92.6031 261.292 93.0747 261.292C93.5463 261.292 93.9286 261.675 93.9286 262.146Z" fill="#2D47A3"/>
<path d="M93.9286 46.9643C93.9286 47.4359 93.5463 47.8182 93.0747 47.8182C92.6031 47.8182 92.2208 47.4359 92.2208 46.9643C92.2208 46.4927 92.6031 46.1104 93.0747 46.1104C93.5463 46.1104 93.9286 46.4927 93.9286 46.9643Z" fill="#2D47A3"/>
<path d="M93.9286 123.815C93.9286 124.287 93.5463 124.669 93.0747 124.669C92.6031 124.669 92.2208 124.287 92.2208 123.815C92.2208 123.343 92.6031 122.961 93.0747 122.961C93.5463 122.961 93.9286 123.343 93.9286 123.815Z" fill="#2D47A3"/>
<path d="M93.9286 200.666C93.9286 201.137 93.5463 201.519 93.0747 201.519C92.6031 201.519 92.2208 201.137 92.2208 200.666C92.2208 200.194 92.6031 199.812 93.0747 199.812C93.5463 199.812 93.9286 200.194 93.9286 200.666Z" fill="#2D47A3"/>
<path d="M93.9286 62.3344C93.9286 62.806 93.5463 63.1883 93.0747 63.1883C92.6031 63.1883 92.2208 62.806 92.2208 62.3344C92.2208 61.8628 92.6031 61.4805 93.0747 61.4805C93.5463 61.4805 93.9286 61.8628 93.9286 62.3344Z" fill="#2D47A3"/>
<path d="M93.9286 139.185C93.9286 139.657 93.5463 140.039 93.0747 140.039C92.6031 140.039 92.2208 139.657 92.2208 139.185C92.2208 138.713 92.6031 138.331 93.0747 138.331C93.5463 138.331 93.9286 138.713 93.9286 139.185Z" fill="#2D47A3"/>
<path d="M93.9286 216.036C93.9286 216.507 93.5463 216.89 93.0747 216.89C92.6031 216.89 92.2208 216.507 92.2208 216.036C92.2208 215.564 92.6031 215.182 93.0747 215.182C93.5463 215.182 93.9286 215.564 93.9286 216.036Z" fill="#2D47A3"/>
<path d="M186.149 0.853896C186.149 1.32549 185.767 1.70779 185.295 1.70779C184.824 1.70779 184.442 1.32549 184.442 0.853896C184.442 0.382302 184.824 0 185.295 0C185.767 0 186.149 0.382302 186.149 0.853896Z" fill="#2D47A3"/>
<path d="M186.149 77.7045C186.149 78.1761 185.767 78.5584 185.295 78.5584C184.824 78.5584 184.442 78.1761 184.442 77.7045C184.442 77.2329 184.824 76.8507 185.295 76.8507C185.767 76.8507 186.149 77.2329 186.149 77.7045Z" fill="#2D47A3"/>
<path d="M186.149 154.555C186.149 155.027 185.767 155.409 185.295 155.409C184.824 155.409 184.442 155.027 184.442 154.555C184.442 154.084 184.824 153.701 185.295 153.701C185.767 153.701 186.149 154.084 186.149 154.555Z" fill="#2D47A3"/>
<path d="M186.149 16.224C186.149 16.6956 185.767 17.0779 185.295 17.0779C184.824 17.0779 184.442 16.6956 184.442 16.224C184.442 15.7524 184.824 15.3701 185.295 15.3701C185.767 15.3701 186.149 15.7524 186.149 16.224Z" fill="#2D47A3"/>
<path d="M186.149 93.0747C186.149 93.5463 185.767 93.9286 185.295 93.9286C184.824 93.9286 184.442 93.5463 184.442 93.0747C184.442 92.6031 184.824 92.2208 185.295 92.2208C185.767 92.2208 186.149 92.6031 186.149 93.0747Z" fill="#2D47A3"/>
<path d="M186.149 169.925C186.149 170.397 185.767 170.779 185.295 170.779C184.824 170.779 184.442 170.397 184.442 169.925C184.442 169.454 184.824 169.071 185.295 169.071C185.767 169.071 186.149 169.454 186.149 169.925Z" fill="#2D47A3"/>
<path d="M186.149 231.406C186.149 231.877 185.767 232.26 185.295 232.26C184.824 232.26 184.442 231.877 184.442 231.406C184.442 230.934 184.824 230.552 185.295 230.552C185.767 230.552 186.149 230.934 186.149 231.406Z" fill="#2D47A3"/>
<path d="M186.149 31.5942C186.149 32.0658 185.767 32.4481 185.295 32.4481C184.824 32.4481 184.442 32.0658 184.442 31.5942C184.442 31.1226 184.824 30.7403 185.295 30.7403C185.767 30.7403 186.149 31.1226 186.149 31.5942Z" fill="#2D47A3"/>
<path d="M186.149 108.445C186.149 108.916 185.767 109.299 185.295 109.299C184.824 109.299 184.442 108.916 184.442 108.445C184.442 107.973 184.824 107.591 185.295 107.591C185.767 107.591 186.149 107.973 186.149 108.445Z" fill="#2D47A3"/>
<path d="M186.149 185.295C186.149 185.767 185.767 186.149 185.295 186.149C184.824 186.149 184.442 185.767 184.442 185.295C184.442 184.824 184.824 184.442 185.295 184.442C185.767 184.442 186.149 184.824 186.149 185.295Z" fill="#2D47A3"/>
<path d="M186.149 246.776C186.149 247.248 185.767 247.63 185.295 247.63C184.824 247.63 184.442 247.248 184.442 246.776C184.442 246.304 184.824 245.922 185.295 245.922C185.767 245.922 186.149 246.304 186.149 246.776Z" fill="#2D47A3"/>
<path d="M186.149 262.146C186.149 262.618 185.767 263 185.295 263C184.824 263 184.442 262.618 184.442 262.146C184.442 261.675 184.824 261.292 185.295 261.292C185.767 261.292 186.149 261.675 186.149 262.146Z" fill="#2D47A3"/>
<path d="M186.149 46.9643C186.149 47.4359 185.767 47.8182 185.295 47.8182C184.824 47.8182 184.442 47.4359 184.442 46.9643C184.442 46.4927 184.824 46.1104 185.295 46.1104C185.767 46.1104 186.149 46.4927 186.149 46.9643Z" fill="#2D47A3"/>
<path d="M186.149 123.815C186.149 124.287 185.767 124.669 185.295 124.669C184.824 124.669 184.442 124.287 184.442 123.815C184.442 123.343 184.824 122.961 185.295 122.961C185.767 122.961 186.149 123.343 186.149 123.815Z" fill="#2D47A3"/>
<path d="M186.149 200.666C186.149 201.137 185.767 201.519 185.295 201.519C184.824 201.519 184.442 201.137 184.442 200.666C184.442 200.194 184.824 199.812 185.295 199.812C185.767 199.812 186.149 200.194 186.149 200.666Z" fill="#2D47A3"/>
<path d="M186.149 62.3344C186.149 62.806 185.767 63.1883 185.295 63.1883C184.824 63.1883 184.442 62.806 184.442 62.3344C184.442 61.8628 184.824 61.4805 185.295 61.4805C185.767 61.4805 186.149 61.8628 186.149 62.3344Z" fill="#2D47A3"/>
<path d="M186.149 139.185C186.149 139.657 185.767 140.039 185.295 140.039C184.824 140.039 184.442 139.657 184.442 139.185C184.442 138.713 184.824 138.331 185.295 138.331C185.767 138.331 186.149 138.713 186.149 139.185Z" fill="#2D47A3"/>
<path d="M186.149 216.036C186.149 216.507 185.767 216.89 185.295 216.89C184.824 216.89 184.442 216.507 184.442 216.036C184.442 215.564 184.824 215.182 185.295 215.182C185.767 215.182 186.149 215.564 186.149 216.036Z" fill="#2D47A3"/>
<path d="M47.8182 0.853896C47.8182 1.32549 47.4359 1.70779 46.9643 1.70779C46.4927 1.70779 46.1104 1.32549 46.1104 0.853896C46.1104 0.382302 46.4927 0 46.9643 0C47.4359 0 47.8182 0.382302 47.8182 0.853896Z" fill="#2D47A3"/>
<path d="M47.8182 77.7045C47.8182 78.1761 47.4359 78.5584 46.9643 78.5584C46.4927 78.5584 46.1104 78.1761 46.1104 77.7045C46.1104 77.2329 46.4927 76.8507 46.9643 76.8507C47.4359 76.8507 47.8182 77.2329 47.8182 77.7045Z" fill="#2D47A3"/>
<path d="M47.8182 154.555C47.8182 155.027 47.4359 155.409 46.9643 155.409C46.4927 155.409 46.1104 155.027 46.1104 154.555C46.1104 154.084 46.4927 153.701 46.9643 153.701C47.4359 153.701 47.8182 154.084 47.8182 154.555Z" fill="#2D47A3"/>
<path d="M47.8182 16.224C47.8182 16.6956 47.4359 17.0779 46.9643 17.0779C46.4927 17.0779 46.1104 16.6956 46.1104 16.224C46.1104 15.7524 46.4927 15.3701 46.9643 15.3701C47.4359 15.3701 47.8182 15.7524 47.8182 16.224Z" fill="#2D47A3"/>
<path d="M47.8182 93.0747C47.8182 93.5463 47.4359 93.9286 46.9643 93.9286C46.4927 93.9286 46.1104 93.5463 46.1104 93.0747C46.1104 92.6031 46.4927 92.2208 46.9643 92.2208C47.4359 92.2208 47.8182 92.6031 47.8182 93.0747Z" fill="#2D47A3"/>
<path d="M47.8182 169.925C47.8182 170.397 47.4359 170.779 46.9643 170.779C46.4927 170.779 46.1104 170.397 46.1104 169.925C46.1104 169.454 46.4927 169.071 46.9643 169.071C47.4359 169.071 47.8182 169.454 47.8182 169.925Z" fill="#2D47A3"/>
<path d="M47.8182 231.406C47.8182 231.877 47.4359 232.26 46.9643 232.26C46.4927 232.26 46.1104 231.877 46.1104 231.406C46.1104 230.934 46.4927 230.552 46.9643 230.552C47.4359 230.552 47.8182 230.934 47.8182 231.406Z" fill="#2D47A3"/>
<path d="M47.8182 31.5942C47.8182 32.0658 47.4359 32.4481 46.9643 32.4481C46.4927 32.4481 46.1104 32.0658 46.1104 31.5942C46.1104 31.1226 46.4927 30.7403 46.9643 30.7403C47.4359 30.7403 47.8182 31.1226 47.8182 31.5942Z" fill="#2D47A3"/>
<path d="M47.8182 108.445C47.8182 108.916 47.4359 109.299 46.9643 109.299C46.4927 109.299 46.1104 108.916 46.1104 108.445C46.1104 107.973 46.4927 107.591 46.9643 107.591C47.4359 107.591 47.8182 107.973 47.8182 108.445Z" fill="#2D47A3"/>
<path d="M47.8182 185.295C47.8182 185.767 47.4359 186.149 46.9643 186.149C46.4927 186.149 46.1104 185.767 46.1104 185.295C46.1104 184.824 46.4927 184.442 46.9643 184.442C47.4359 184.442 47.8182 184.824 47.8182 185.295Z" fill="#2D47A3"/>
<path d="M47.8182 246.776C47.8182 247.248 47.4359 247.63 46.9643 247.63C46.4927 247.63 46.1104 247.248 46.1104 246.776C46.1104 246.304 46.4927 245.922 46.9643 245.922C47.4359 245.922 47.8182 246.304 47.8182 246.776Z" fill="#2D47A3"/>
<path d="M47.8182 262.146C47.8182 262.618 47.4359 263 46.9643 263C46.4927 263 46.1104 262.618 46.1104 262.146C46.1104 261.675 46.4927 261.292 46.9643 261.292C47.4359 261.292 47.8182 261.675 47.8182 262.146Z" fill="#2D47A3"/>
<path d="M47.8182 46.9643C47.8182 47.4359 47.4359 47.8182 46.9643 47.8182C46.4927 47.8182 46.1104 47.4359 46.1104 46.9643C46.1104 46.4927 46.4927 46.1104 46.9643 46.1104C47.4359 46.1104 47.8182 46.4927 47.8182 46.9643Z" fill="#2D47A3"/>
<path d="M47.8182 123.815C47.8182 124.287 47.4359 124.669 46.9643 124.669C46.4927 124.669 46.1104 124.287 46.1104 123.815C46.1104 123.343 46.4927 122.961 46.9643 122.961C47.4359 122.961 47.8182 123.343 47.8182 123.815Z" fill="#2D47A3"/>
<path d="M47.8182 200.666C47.8182 201.137 47.4359 201.519 46.9643 201.519C46.4927 201.519 46.1104 201.137 46.1104 200.666C46.1104 200.194 46.4927 199.812 46.9643 199.812C47.4359 199.812 47.8182 200.194 47.8182 200.666Z" fill="#2D47A3"/>
<path d="M47.8182 62.3344C47.8182 62.806 47.4359 63.1883 46.9643 63.1883C46.4927 63.1883 46.1104 62.806 46.1104 62.3344C46.1104 61.8628 46.4927 61.4805 46.9643 61.4805C47.4359 61.4805 47.8182 61.8628 47.8182 62.3344Z" fill="#2D47A3"/>
<path d="M47.8182 139.185C47.8182 139.657 47.4359 140.039 46.9643 140.039C46.4927 140.039 46.1104 139.657 46.1104 139.185C46.1104 138.713 46.4927 138.331 46.9643 138.331C47.4359 138.331 47.8182 138.713 47.8182 139.185Z" fill="#2D47A3"/>
<path d="M47.8182 216.036C47.8182 216.507 47.4359 216.89 46.9643 216.89C46.4927 216.89 46.1104 216.507 46.1104 216.036C46.1104 215.564 46.4927 215.182 46.9643 215.182C47.4359 215.182 47.8182 215.564 47.8182 216.036Z" fill="#2D47A3"/>
<path d="M140.039 0.853896C140.039 1.32549 139.657 1.70779 139.185 1.70779C138.713 1.70779 138.331 1.32549 138.331 0.853896C138.331 0.382302 138.713 0 139.185 0C139.657 0 140.039 0.382302 140.039 0.853896Z" fill="#2D47A3"/>
<path d="M140.039 77.7045C140.039 78.1761 139.657 78.5584 139.185 78.5584C138.713 78.5584 138.331 78.1761 138.331 77.7045C138.331 77.2329 138.713 76.8507 139.185 76.8507C139.657 76.8507 140.039 77.2329 140.039 77.7045Z" fill="#2D47A3"/>
<path d="M140.039 154.555C140.039 155.027 139.657 155.409 139.185 155.409C138.713 155.409 138.331 155.027 138.331 154.555C138.331 154.084 138.713 153.701 139.185 153.701C139.657 153.701 140.039 154.084 140.039 154.555Z" fill="#2D47A3"/>
<path d="M140.039 16.224C140.039 16.6956 139.657 17.0779 139.185 17.0779C138.713 17.0779 138.331 16.6956 138.331 16.224C138.331 15.7524 138.713 15.3701 139.185 15.3701C139.657 15.3701 140.039 15.7524 140.039 16.224Z" fill="#2D47A3"/>
<path d="M140.039 93.0747C140.039 93.5463 139.657 93.9286 139.185 93.9286C138.713 93.9286 138.331 93.5463 138.331 93.0747C138.331 92.6031 138.713 92.2208 139.185 92.2208C139.657 92.2208 140.039 92.6031 140.039 93.0747Z" fill="#2D47A3"/>
<path d="M140.039 169.925C140.039 170.397 139.657 170.779 139.185 170.779C138.713 170.779 138.331 170.397 138.331 169.925C138.331 169.454 138.713 169.071 139.185 169.071C139.657 169.071 140.039 169.454 140.039 169.925Z" fill="#2D47A3"/>
<path d="M140.039 231.406C140.039 231.877 139.657 232.26 139.185 232.26C138.713 232.26 138.331 231.877 138.331 231.406C138.331 230.934 138.713 230.552 139.185 230.552C139.657 230.552 140.039 230.934 140.039 231.406Z" fill="#2D47A3"/>
<path d="M140.039 31.5942C140.039 32.0658 139.657 32.4481 139.185 32.4481C138.713 32.4481 138.331 32.0658 138.331 31.5942C138.331 31.1226 138.713 30.7403 139.185 30.7403C139.657 30.7403 140.039 31.1226 140.039 31.5942Z" fill="#2D47A3"/>
<path d="M140.039 108.445C140.039 108.916 139.657 109.299 139.185 109.299C138.713 109.299 138.331 108.916 138.331 108.445C138.331 107.973 138.713 107.591 139.185 107.591C139.657 107.591 140.039 107.973 140.039 108.445Z" fill="#2D47A3"/>
<path d="M140.039 185.295C140.039 185.767 139.657 186.149 139.185 186.149C138.713 186.149 138.331 185.767 138.331 185.295C138.331 184.824 138.713 184.442 139.185 184.442C139.657 184.442 140.039 184.824 140.039 185.295Z" fill="#2D47A3"/>
<path d="M140.039 246.776C140.039 247.248 139.657 247.63 139.185 247.63C138.713 247.63 138.331 247.248 138.331 246.776C138.331 246.304 138.713 245.922 139.185 245.922C139.657 245.922 140.039 246.304 140.039 246.776Z" fill="#2D47A3"/>
<path d="M140.039 262.146C140.039 262.618 139.657 263 139.185 263C138.713 263 138.331 262.618 138.331 262.146C138.331 261.675 138.713 261.292 139.185 261.292C139.657 261.292 140.039 261.675 140.039 262.146Z" fill="#2D47A3"/>
<path d="M140.039 46.9643C140.039 47.4359 139.657 47.8182 139.185 47.8182C138.713 47.8182 138.331 47.4359 138.331 46.9643C138.331 46.4927 138.713 46.1104 139.185 46.1104C139.657 46.1104 140.039 46.4927 140.039 46.9643Z" fill="#2D47A3"/>
<path d="M140.039 123.815C140.039 124.287 139.657 124.669 139.185 124.669C138.713 124.669 138.331 124.287 138.331 123.815C138.331 123.343 138.713 122.961 139.185 122.961C139.657 122.961 140.039 123.343 140.039 123.815Z" fill="#2D47A3"/>
<path d="M140.039 200.666C140.039 201.137 139.657 201.519 139.185 201.519C138.713 201.519 138.331 201.137 138.331 200.666C138.331 200.194 138.713 199.812 139.185 199.812C139.657 199.812 140.039 200.194 140.039 200.666Z" fill="#2D47A3"/>
<path d="M140.039 62.3344C140.039 62.806 139.657 63.1883 139.185 63.1883C138.713 63.1883 138.331 62.806 138.331 62.3344C138.331 61.8628 138.713 61.4805 139.185 61.4805C139.657 61.4805 140.039 61.8628 140.039 62.3344Z" fill="#2D47A3"/>
<path d="M140.039 139.185C140.039 139.657 139.657 140.039 139.185 140.039C138.713 140.039 138.331 139.657 138.331 139.185C138.331 138.713 138.713 138.331 139.185 138.331C139.657 138.331 140.039 138.713 140.039 139.185Z" fill="#2D47A3"/>
<path d="M140.039 216.036C140.039 216.507 139.657 216.89 139.185 216.89C138.713 216.89 138.331 216.507 138.331 216.036C138.331 215.564 138.713 215.182 139.185 215.182C139.657 215.182 140.039 215.564 140.039 216.036Z" fill="#2D47A3"/>
<path d="M232.26 0.853896C232.26 1.32549 231.877 1.70779 231.406 1.70779C230.934 1.70779 230.552 1.32549 230.552 0.853896C230.552 0.382302 230.934 0 231.406 0C231.877 0 232.26 0.382302 232.26 0.853896Z" fill="#2D47A3"/>
<path d="M232.26 77.7045C232.26 78.1761 231.877 78.5584 231.406 78.5584C230.934 78.5584 230.552 78.1761 230.552 77.7045C230.552 77.2329 230.934 76.8507 231.406 76.8507C231.877 76.8507 232.26 77.2329 232.26 77.7045Z" fill="#2D47A3"/>
<path d="M232.26 154.555C232.26 155.027 231.877 155.409 231.406 155.409C230.934 155.409 230.552 155.027 230.552 154.555C230.552 154.084 230.934 153.701 231.406 153.701C231.877 153.701 232.26 154.084 232.26 154.555Z" fill="#2D47A3"/>
<path d="M232.26 16.224C232.26 16.6956 231.877 17.0779 231.406 17.0779C230.934 17.0779 230.552 16.6956 230.552 16.224C230.552 15.7524 230.934 15.3701 231.406 15.3701C231.877 15.3701 232.26 15.7524 232.26 16.224Z" fill="#2D47A3"/>
<path d="M232.26 93.0747C232.26 93.5463 231.877 93.9286 231.406 93.9286C230.934 93.9286 230.552 93.5463 230.552 93.0747C230.552 92.6031 230.934 92.2208 231.406 92.2208C231.877 92.2208 232.26 92.6031 232.26 93.0747Z" fill="#2D47A3"/>
<path d="M232.26 169.925C232.26 170.397 231.877 170.779 231.406 170.779C230.934 170.779 230.552 170.397 230.552 169.925C230.552 169.454 230.934 169.071 231.406 169.071C231.877 169.071 232.26 169.454 232.26 169.925Z" fill="#2D47A3"/>
<path d="M232.26 231.406C232.26 231.877 231.877 232.26 231.406 232.26C230.934 232.26 230.552 231.877 230.552 231.406C230.552 230.934 230.934 230.552 231.406 230.552C231.877 230.552 232.26 230.934 232.26 231.406Z" fill="#2D47A3"/>
<path d="M232.26 31.5942C232.26 32.0658 231.877 32.4481 231.406 32.4481C230.934 32.4481 230.552 32.0658 230.552 31.5942C230.552 31.1226 230.934 30.7403 231.406 30.7403C231.877 30.7403 232.26 31.1226 232.26 31.5942Z" fill="#2D47A3"/>
<path d="M232.26 108.445C232.26 108.916 231.877 109.299 231.406 109.299C230.934 109.299 230.552 108.916 230.552 108.445C230.552 107.973 230.934 107.591 231.406 107.591C231.877 107.591 232.26 107.973 232.26 108.445Z" fill="#2D47A3"/>
<path d="M232.26 185.295C232.26 185.767 231.877 186.149 231.406 186.149C230.934 186.149 230.552 185.767 230.552 185.295C230.552 184.824 230.934 184.442 231.406 184.442C231.877 184.442 232.26 184.824 232.26 185.295Z" fill="#2D47A3"/>
<path d="M232.26 246.776C232.26 247.248 231.877 247.63 231.406 247.63C230.934 247.63 230.552 247.248 230.552 246.776C230.552 246.304 230.934 245.922 231.406 245.922C231.877 245.922 232.26 246.304 232.26 246.776Z" fill="#2D47A3"/>
<path d="M232.26 262.146C232.26 262.618 231.877 263 231.406 263C230.934 263 230.552 262.618 230.552 262.146C230.552 261.675 230.934 261.292 231.406 261.292C231.877 261.292 232.26 261.675 232.26 262.146Z" fill="#2D47A3"/>
<path d="M232.26 46.9643C232.26 47.4359 231.877 47.8182 231.406 47.8182C230.934 47.8182 230.552 47.4359 230.552 46.9643C230.552 46.4927 230.934 46.1104 231.406 46.1104C231.877 46.1104 232.26 46.4927 232.26 46.9643Z" fill="#2D47A3"/>
<path d="M232.26 123.815C232.26 124.287 231.877 124.669 231.406 124.669C230.934 124.669 230.552 124.287 230.552 123.815C230.552 123.343 230.934 122.961 231.406 122.961C231.877 122.961 232.26 123.343 232.26 123.815Z" fill="#2D47A3"/>
<path d="M232.26 200.666C232.26 201.137 231.877 201.519 231.406 201.519C230.934 201.519 230.552 201.137 230.552 200.666C230.552 200.194 230.934 199.812 231.406 199.812C231.877 199.812 232.26 200.194 232.26 200.666Z" fill="#2D47A3"/>
<path d="M232.26 62.3344C232.26 62.806 231.877 63.1883 231.406 63.1883C230.934 63.1883 230.552 62.806 230.552 62.3344C230.552 61.8628 230.934 61.4805 231.406 61.4805C231.877 61.4805 232.26 61.8628 232.26 62.3344Z" fill="#2D47A3"/>
<path d="M232.26 139.185C232.26 139.657 231.877 140.039 231.406 140.039C230.934 140.039 230.552 139.657 230.552 139.185C230.552 138.713 230.934 138.331 231.406 138.331C231.877 138.331 232.26 138.713 232.26 139.185Z" fill="#2D47A3"/>
<path d="M232.26 216.036C232.26 216.507 231.877 216.89 231.406 216.89C230.934 216.89 230.552 216.507 230.552 216.036C230.552 215.564 230.934 215.182 231.406 215.182C231.877 215.182 232.26 215.564 232.26 216.036Z" fill="#2D47A3"/>
<path d="M17.0779 0.853896C17.0779 1.32549 16.6956 1.70779 16.224 1.70779C15.7524 1.70779 15.3701 1.32549 15.3701 0.853896C15.3701 0.382302 15.7524 0 16.224 0C16.6956 0 17.0779 0.382302 17.0779 0.853896Z" fill="#2D47A3"/>
<path d="M17.0779 77.7045C17.0779 78.1761 16.6956 78.5584 16.224 78.5584C15.7524 78.5584 15.3701 78.1761 15.3701 77.7045C15.3701 77.2329 15.7524 76.8507 16.224 76.8507C16.6956 76.8507 17.0779 77.2329 17.0779 77.7045Z" fill="#2D47A3"/>
<path d="M17.0779 154.555C17.0779 155.027 16.6956 155.409 16.224 155.409C15.7524 155.409 15.3701 155.027 15.3701 154.555C15.3701 154.084 15.7524 153.701 16.224 153.701C16.6956 153.701 17.0779 154.084 17.0779 154.555Z" fill="#2D47A3"/>
<path d="M17.0779 16.224C17.0779 16.6956 16.6956 17.0779 16.224 17.0779C15.7524 17.0779 15.3701 16.6956 15.3701 16.224C15.3701 15.7524 15.7524 15.3701 16.224 15.3701C16.6956 15.3701 17.0779 15.7524 17.0779 16.224Z" fill="#2D47A3"/>
<path d="M17.0779 93.0747C17.0779 93.5463 16.6956 93.9286 16.224 93.9286C15.7524 93.9286 15.3701 93.5463 15.3701 93.0747C15.3701 92.6031 15.7524 92.2208 16.224 92.2208C16.6956 92.2208 17.0779 92.6031 17.0779 93.0747Z" fill="#2D47A3"/>
<path d="M17.0779 169.925C17.0779 170.397 16.6956 170.779 16.224 170.779C15.7524 170.779 15.3701 170.397 15.3701 169.925C15.3701 169.454 15.7524 169.071 16.224 169.071C16.6956 169.071 17.0779 169.454 17.0779 169.925Z" fill="#2D47A3"/>
<path d="M17.0779 231.406C17.0779 231.877 16.6956 232.26 16.224 232.26C15.7524 232.26 15.3701 231.877 15.3701 231.406C15.3701 230.934 15.7524 230.552 16.224 230.552C16.6956 230.552 17.0779 230.934 17.0779 231.406Z" fill="#2D47A3"/>
<path d="M17.0779 31.5942C17.0779 32.0658 16.6956 32.4481 16.224 32.4481C15.7524 32.4481 15.3701 32.0658 15.3701 31.5942C15.3701 31.1226 15.7524 30.7403 16.224 30.7403C16.6956 30.7403 17.0779 31.1226 17.0779 31.5942Z" fill="#2D47A3"/>
<path d="M17.0779 108.445C17.0779 108.916 16.6956 109.299 16.224 109.299C15.7524 109.299 15.3701 108.916 15.3701 108.445C15.3701 107.973 15.7524 107.591 16.224 107.591C16.6956 107.591 17.0779 107.973 17.0779 108.445Z" fill="#2D47A3"/>
<path d="M17.0779 185.295C17.0779 185.767 16.6956 186.149 16.224 186.149C15.7524 186.149 15.3701 185.767 15.3701 185.295C15.3701 184.824 15.7524 184.442 16.224 184.442C16.6956 184.442 17.0779 184.824 17.0779 185.295Z" fill="#2D47A3"/>
<path d="M17.0779 246.776C17.0779 247.248 16.6956 247.63 16.224 247.63C15.7524 247.63 15.3701 247.248 15.3701 246.776C15.3701 246.304 15.7524 245.922 16.224 245.922C16.6956 245.922 17.0779 246.304 17.0779 246.776Z" fill="#2D47A3"/>
<path d="M17.0779 262.146C17.0779 262.618 16.6956 263 16.224 263C15.7524 263 15.3701 262.618 15.3701 262.146C15.3701 261.675 15.7524 261.292 16.224 261.292C16.6956 261.292 17.0779 261.675 17.0779 262.146Z" fill="#2D47A3"/>
<path d="M17.0779 46.9643C17.0779 47.4359 16.6956 47.8182 16.224 47.8182C15.7524 47.8182 15.3701 47.4359 15.3701 46.9643C15.3701 46.4927 15.7524 46.1104 16.224 46.1104C16.6956 46.1104 17.0779 46.4927 17.0779 46.9643Z" fill="#2D47A3"/>
<path d="M17.0779 123.815C17.0779 124.287 16.6956 124.669 16.224 124.669C15.7524 124.669 15.3701 124.287 15.3701 123.815C15.3701 123.343 15.7524 122.961 16.224 122.961C16.6956 122.961 17.0779 123.343 17.0779 123.815Z" fill="#2D47A3"/>
<path d="M17.0779 200.666C17.0779 201.137 16.6956 201.519 16.224 201.519C15.7524 201.519 15.3701 201.137 15.3701 200.666C15.3701 200.194 15.7524 199.812 16.224 199.812C16.6956 199.812 17.0779 200.194 17.0779 200.666Z" fill="#2D47A3"/>
<path d="M17.0779 62.3344C17.0779 62.806 16.6956 63.1883 16.224 63.1883C15.7524 63.1883 15.3701 62.806 15.3701 62.3344C15.3701 61.8628 15.7524 61.4805 16.224 61.4805C16.6956 61.4805 17.0779 61.8628 17.0779 62.3344Z" fill="#2D47A3"/>
<path d="M17.0779 139.185C17.0779 139.657 16.6956 140.039 16.224 140.039C15.7524 140.039 15.3701 139.657 15.3701 139.185C15.3701 138.713 15.7524 138.331 16.224 138.331C16.6956 138.331 17.0779 138.713 17.0779 139.185Z" fill="#2D47A3"/>
<path d="M17.0779 216.036C17.0779 216.507 16.6956 216.89 16.224 216.89C15.7524 216.89 15.3701 216.507 15.3701 216.036C15.3701 215.564 15.7524 215.182 16.224 215.182C16.6956 215.182 17.0779 215.564 17.0779 216.036Z" fill="#2D47A3"/>
<path d="M109.299 0.853896C109.299 1.32549 108.916 1.70779 108.445 1.70779C107.973 1.70779 107.591 1.32549 107.591 0.853896C107.591 0.382302 107.973 0 108.445 0C108.916 0 109.299 0.382302 109.299 0.853896Z" fill="#2D47A3"/>
<path d="M109.299 77.7045C109.299 78.1761 108.916 78.5584 108.445 78.5584C107.973 78.5584 107.591 78.1761 107.591 77.7045C107.591 77.2329 107.973 76.8507 108.445 76.8507C108.916 76.8507 109.299 77.2329 109.299 77.7045Z" fill="#2D47A3"/>
<path d="M109.299 154.555C109.299 155.027 108.916 155.409 108.445 155.409C107.973 155.409 107.591 155.027 107.591 154.555C107.591 154.084 107.973 153.701 108.445 153.701C108.916 153.701 109.299 154.084 109.299 154.555Z" fill="#2D47A3"/>
<path d="M109.299 16.224C109.299 16.6956 108.916 17.0779 108.445 17.0779C107.973 17.0779 107.591 16.6956 107.591 16.224C107.591 15.7524 107.973 15.3701 108.445 15.3701C108.916 15.3701 109.299 15.7524 109.299 16.224Z" fill="#2D47A3"/>
<path d="M109.299 93.0747C109.299 93.5463 108.916 93.9286 108.445 93.9286C107.973 93.9286 107.591 93.5463 107.591 93.0747C107.591 92.6031 107.973 92.2208 108.445 92.2208C108.916 92.2208 109.299 92.6031 109.299 93.0747Z" fill="#2D47A3"/>
<path d="M109.299 169.925C109.299 170.397 108.916 170.779 108.445 170.779C107.973 170.779 107.591 170.397 107.591 169.925C107.591 169.454 107.973 169.071 108.445 169.071C108.916 169.071 109.299 169.454 109.299 169.925Z" fill="#2D47A3"/>
<path d="M109.299 231.406C109.299 231.877 108.916 232.26 108.445 232.26C107.973 232.26 107.591 231.877 107.591 231.406C107.591 230.934 107.973 230.552 108.445 230.552C108.916 230.552 109.299 230.934 109.299 231.406Z" fill="#2D47A3"/>
<path d="M109.299 31.5942C109.299 32.0658 108.916 32.4481 108.445 32.4481C107.973 32.4481 107.591 32.0658 107.591 31.5942C107.591 31.1226 107.973 30.7403 108.445 30.7403C108.916 30.7403 109.299 31.1226 109.299 31.5942Z" fill="#2D47A3"/>
<path d="M109.299 108.445C109.299 108.916 108.916 109.299 108.445 109.299C107.973 109.299 107.591 108.916 107.591 108.445C107.591 107.973 107.973 107.591 108.445 107.591C108.916 107.591 109.299 107.973 109.299 108.445Z" fill="#2D47A3"/>
<path d="M109.299 185.295C109.299 185.767 108.916 186.149 108.445 186.149C107.973 186.149 107.591 185.767 107.591 185.295C107.591 184.824 107.973 184.442 108.445 184.442C108.916 184.442 109.299 184.824 109.299 185.295Z" fill="#2D47A3"/>
<path d="M109.299 246.776C109.299 247.248 108.916 247.63 108.445 247.63C107.973 247.63 107.591 247.248 107.591 246.776C107.591 246.304 107.973 245.922 108.445 245.922C108.916 245.922 109.299 246.304 109.299 246.776Z" fill="#2D47A3"/>
<path d="M109.299 262.146C109.299 262.618 108.916 263 108.445 263C107.973 263 107.591 262.618 107.591 262.146C107.591 261.675 107.973 261.292 108.445 261.292C108.916 261.292 109.299 261.675 109.299 262.146Z" fill="#2D47A3"/>
<path d="M109.299 46.9643C109.299 47.4359 108.916 47.8182 108.445 47.8182C107.973 47.8182 107.591 47.4359 107.591 46.9643C107.591 46.4927 107.973 46.1104 108.445 46.1104C108.916 46.1104 109.299 46.4927 109.299 46.9643Z" fill="#2D47A3"/>
<path d="M109.299 123.815C109.299 124.287 108.916 124.669 108.445 124.669C107.973 124.669 107.591 124.287 107.591 123.815C107.591 123.343 107.973 122.961 108.445 122.961C108.916 122.961 109.299 123.343 109.299 123.815Z" fill="#2D47A3"/>
<path d="M109.299 200.666C109.299 201.137 108.916 201.519 108.445 201.519C107.973 201.519 107.591 201.137 107.591 200.666C107.591 200.194 107.973 199.812 108.445 199.812C108.916 199.812 109.299 200.194 109.299 200.666Z" fill="#2D47A3"/>
<path d="M109.299 62.3344C109.299 62.806 108.916 63.1883 108.445 63.1883C107.973 63.1883 107.591 62.806 107.591 62.3344C107.591 61.8628 107.973 61.4805 108.445 61.4805C108.916 61.4805 109.299 61.8628 109.299 62.3344Z" fill="#2D47A3"/>
<path d="M109.299 139.185C109.299 139.657 108.916 140.039 108.445 140.039C107.973 140.039 107.591 139.657 107.591 139.185C107.591 138.713 107.973 138.331 108.445 138.331C108.916 138.331 109.299 138.713 109.299 139.185Z" fill="#2D47A3"/>
<path d="M109.299 216.036C109.299 216.507 108.916 216.89 108.445 216.89C107.973 216.89 107.591 216.507 107.591 216.036C107.591 215.564 107.973 215.182 108.445 215.182C108.916 215.182 109.299 215.564 109.299 216.036Z" fill="#2D47A3"/>
<path d="M201.519 0.853896C201.519 1.32549 201.137 1.70779 200.666 1.70779C200.194 1.70779 199.812 1.32549 199.812 0.853896C199.812 0.382302 200.194 0 200.666 0C201.137 0 201.519 0.382302 201.519 0.853896Z" fill="#2D47A3"/>
<path d="M201.519 77.7045C201.519 78.1761 201.137 78.5584 200.666 78.5584C200.194 78.5584 199.812 78.1761 199.812 77.7045C199.812 77.2329 200.194 76.8507 200.666 76.8507C201.137 76.8507 201.519 77.2329 201.519 77.7045Z" fill="#2D47A3"/>
<path d="M201.519 154.555C201.519 155.027 201.137 155.409 200.666 155.409C200.194 155.409 199.812 155.027 199.812 154.555C199.812 154.084 200.194 153.701 200.666 153.701C201.137 153.701 201.519 154.084 201.519 154.555Z" fill="#2D47A3"/>
<path d="M201.519 16.224C201.519 16.6956 201.137 17.0779 200.666 17.0779C200.194 17.0779 199.812 16.6956 199.812 16.224C199.812 15.7524 200.194 15.3701 200.666 15.3701C201.137 15.3701 201.519 15.7524 201.519 16.224Z" fill="#2D47A3"/>
<path d="M201.519 93.0747C201.519 93.5463 201.137 93.9286 200.666 93.9286C200.194 93.9286 199.812 93.5463 199.812 93.0747C199.812 92.6031 200.194 92.2208 200.666 92.2208C201.137 92.2208 201.519 92.6031 201.519 93.0747Z" fill="#2D47A3"/>
<path d="M201.519 169.925C201.519 170.397 201.137 170.779 200.666 170.779C200.194 170.779 199.812 170.397 199.812 169.925C199.812 169.454 200.194 169.071 200.666 169.071C201.137 169.071 201.519 169.454 201.519 169.925Z" fill="#2D47A3"/>
<path d="M201.519 231.406C201.519 231.877 201.137 232.26 200.666 232.26C200.194 232.26 199.812 231.877 199.812 231.406C199.812 230.934 200.194 230.552 200.666 230.552C201.137 230.552 201.519 230.934 201.519 231.406Z" fill="#2D47A3"/>
<path d="M201.519 31.5942C201.519 32.0658 201.137 32.4481 200.666 32.4481C200.194 32.4481 199.812 32.0658 199.812 31.5942C199.812 31.1226 200.194 30.7403 200.666 30.7403C201.137 30.7403 201.519 31.1226 201.519 31.5942Z" fill="#2D47A3"/>
<path d="M201.519 108.445C201.519 108.916 201.137 109.299 200.666 109.299C200.194 109.299 199.812 108.916 199.812 108.445C199.812 107.973 200.194 107.591 200.666 107.591C201.137 107.591 201.519 107.973 201.519 108.445Z" fill="#2D47A3"/>
<path d="M201.519 185.295C201.519 185.767 201.137 186.149 200.666 186.149C200.194 186.149 199.812 185.767 199.812 185.295C199.812 184.824 200.194 184.442 200.666 184.442C201.137 184.442 201.519 184.824 201.519 185.295Z" fill="#2D47A3"/>
<path d="M201.519 246.776C201.519 247.248 201.137 247.63 200.666 247.63C200.194 247.63 199.812 247.248 199.812 246.776C199.812 246.304 200.194 245.922 200.666 245.922C201.137 245.922 201.519 246.304 201.519 246.776Z" fill="#2D47A3"/>
<path d="M201.519 262.146C201.519 262.618 201.137 263 200.666 263C200.194 263 199.812 262.618 199.812 262.146C199.812 261.675 200.194 261.292 200.666 261.292C201.137 261.292 201.519 261.675 201.519 262.146Z" fill="#2D47A3"/>
<path d="M201.519 46.9643C201.519 47.4359 201.137 47.8182 200.666 47.8182C200.194 47.8182 199.812 47.4359 199.812 46.9643C199.812 46.4927 200.194 46.1104 200.666 46.1104C201.137 46.1104 201.519 46.4927 201.519 46.9643Z" fill="#2D47A3"/>
<path d="M201.519 123.815C201.519 124.287 201.137 124.669 200.666 124.669C200.194 124.669 199.812 124.287 199.812 123.815C199.812 123.343 200.194 122.961 200.666 122.961C201.137 122.961 201.519 123.343 201.519 123.815Z" fill="#2D47A3"/>
<path d="M201.519 200.666C201.519 201.137 201.137 201.519 200.666 201.519C200.194 201.519 199.812 201.137 199.812 200.666C199.812 200.194 200.194 199.812 200.666 199.812C201.137 199.812 201.519 200.194 201.519 200.666Z" fill="#2D47A3"/>
<path d="M201.519 62.3344C201.519 62.806 201.137 63.1883 200.666 63.1883C200.194 63.1883 199.812 62.806 199.812 62.3344C199.812 61.8628 200.194 61.4805 200.666 61.4805C201.137 61.4805 201.519 61.8628 201.519 62.3344Z" fill="#2D47A3"/>
<path d="M201.519 139.185C201.519 139.657 201.137 140.039 200.666 140.039C200.194 140.039 199.812 139.657 199.812 139.185C199.812 138.713 200.194 138.331 200.666 138.331C201.137 138.331 201.519 138.713 201.519 139.185Z" fill="#2D47A3"/>
<path d="M201.519 216.036C201.519 216.507 201.137 216.89 200.666 216.89C200.194 216.89 199.812 216.507 199.812 216.036C199.812 215.564 200.194 215.182 200.666 215.182C201.137 215.182 201.519 215.564 201.519 216.036Z" fill="#2D47A3"/>
<path d="M63.1883 0.853896C63.1883 1.32549 62.806 1.70779 62.3344 1.70779C61.8628 1.70779 61.4805 1.32549 61.4805 0.853896C61.4805 0.382302 61.8628 0 62.3344 0C62.806 0 63.1883 0.382302 63.1883 0.853896Z" fill="#2D47A3"/>
<path d="M63.1883 77.7045C63.1883 78.1761 62.806 78.5584 62.3344 78.5584C61.8628 78.5584 61.4805 78.1761 61.4805 77.7045C61.4805 77.2329 61.8628 76.8507 62.3344 76.8507C62.806 76.8507 63.1883 77.2329 63.1883 77.7045Z" fill="#2D47A3"/>
<path d="M63.1883 154.555C63.1883 155.027 62.806 155.409 62.3344 155.409C61.8628 155.409 61.4805 155.027 61.4805 154.555C61.4805 154.084 61.8628 153.701 62.3344 153.701C62.806 153.701 63.1883 154.084 63.1883 154.555Z" fill="#2D47A3"/>
<path d="M63.1883 16.224C63.1883 16.6956 62.806 17.0779 62.3344 17.0779C61.8628 17.0779 61.4805 16.6956 61.4805 16.224C61.4805 15.7524 61.8628 15.3701 62.3344 15.3701C62.806 15.3701 63.1883 15.7524 63.1883 16.224Z" fill="#2D47A3"/>
<path d="M63.1883 93.0747C63.1883 93.5463 62.806 93.9286 62.3344 93.9286C61.8628 93.9286 61.4805 93.5463 61.4805 93.0747C61.4805 92.6031 61.8628 92.2208 62.3344 92.2208C62.806 92.2208 63.1883 92.6031 63.1883 93.0747Z" fill="#2D47A3"/>
<path d="M63.1883 169.925C63.1883 170.397 62.806 170.779 62.3344 170.779C61.8628 170.779 61.4805 170.397 61.4805 169.925C61.4805 169.454 61.8628 169.071 62.3344 169.071C62.806 169.071 63.1883 169.454 63.1883 169.925Z" fill="#2D47A3"/>
<path d="M63.1883 231.406C63.1883 231.877 62.806 232.26 62.3344 232.26C61.8628 232.26 61.4805 231.877 61.4805 231.406C61.4805 230.934 61.8628 230.552 62.3344 230.552C62.806 230.552 63.1883 230.934 63.1883 231.406Z" fill="#2D47A3"/>
<path d="M63.1883 31.5942C63.1883 32.0658 62.806 32.4481 62.3344 32.4481C61.8628 32.4481 61.4805 32.0658 61.4805 31.5942C61.4805 31.1226 61.8628 30.7403 62.3344 30.7403C62.806 30.7403 63.1883 31.1226 63.1883 31.5942Z" fill="#2D47A3"/>
<path d="M63.1883 108.445C63.1883 108.916 62.806 109.299 62.3344 109.299C61.8628 109.299 61.4805 108.916 61.4805 108.445C61.4805 107.973 61.8628 107.591 62.3344 107.591C62.806 107.591 63.1883 107.973 63.1883 108.445Z" fill="#2D47A3"/>
<path d="M63.1883 185.295C63.1883 185.767 62.806 186.149 62.3344 186.149C61.8628 186.149 61.4805 185.767 61.4805 185.295C61.4805 184.824 61.8628 184.442 62.3344 184.442C62.806 184.442 63.1883 184.824 63.1883 185.295Z" fill="#2D47A3"/>
<path d="M63.1883 246.776C63.1883 247.248 62.806 247.63 62.3344 247.63C61.8628 247.63 61.4805 247.248 61.4805 246.776C61.4805 246.304 61.8628 245.922 62.3344 245.922C62.806 245.922 63.1883 246.304 63.1883 246.776Z" fill="#2D47A3"/>
<path d="M63.1883 262.146C63.1883 262.618 62.806 263 62.3344 263C61.8628 263 61.4805 262.618 61.4805 262.146C61.4805 261.675 61.8628 261.292 62.3344 261.292C62.806 261.292 63.1883 261.675 63.1883 262.146Z" fill="#2D47A3"/>
<path d="M63.1883 46.9643C63.1883 47.4359 62.806 47.8182 62.3344 47.8182C61.8628 47.8182 61.4805 47.4359 61.4805 46.9643C61.4805 46.4927 61.8628 46.1104 62.3344 46.1104C62.806 46.1104 63.1883 46.4927 63.1883 46.9643Z" fill="#2D47A3"/>
<path d="M63.1883 123.815C63.1883 124.287 62.806 124.669 62.3344 124.669C61.8628 124.669 61.4805 124.287 61.4805 123.815C61.4805 123.343 61.8628 122.961 62.3344 122.961C62.806 122.961 63.1883 123.343 63.1883 123.815Z" fill="#2D47A3"/>
<path d="M63.1883 200.666C63.1883 201.137 62.806 201.519 62.3344 201.519C61.8628 201.519 61.4805 201.137 61.4805 200.666C61.4805 200.194 61.8628 199.812 62.3344 199.812C62.806 199.812 63.1883 200.194 63.1883 200.666Z" fill="#2D47A3"/>
<path d="M63.1883 62.3344C63.1883 62.806 62.806 63.1883 62.3344 63.1883C61.8628 63.1883 61.4805 62.806 61.4805 62.3344C61.4805 61.8628 61.8628 61.4805 62.3344 61.4805C62.806 61.4805 63.1883 61.8628 63.1883 62.3344Z" fill="#2D47A3"/>
<path d="M63.1883 139.185C63.1883 139.657 62.806 140.039 62.3344 140.039C61.8628 140.039 61.4805 139.657 61.4805 139.185C61.4805 138.713 61.8628 138.331 62.3344 138.331C62.806 138.331 63.1883 138.713 63.1883 139.185Z" fill="#2D47A3"/>
<path d="M63.1883 216.036C63.1883 216.507 62.806 216.89 62.3344 216.89C61.8628 216.89 61.4805 216.507 61.4805 216.036C61.4805 215.564 61.8628 215.182 62.3344 215.182C62.806 215.182 63.1883 215.564 63.1883 216.036Z" fill="#2D47A3"/>
<path d="M155.409 0.853896C155.409 1.32549 155.027 1.70779 154.555 1.70779C154.084 1.70779 153.701 1.32549 153.701 0.853896C153.701 0.382302 154.084 0 154.555 0C155.027 0 155.409 0.382302 155.409 0.853896Z" fill="#2D47A3"/>
<path d="M155.409 77.7045C155.409 78.1761 155.027 78.5584 154.555 78.5584C154.084 78.5584 153.701 78.1761 153.701 77.7045C153.701 77.2329 154.084 76.8507 154.555 76.8507C155.027 76.8507 155.409 77.2329 155.409 77.7045Z" fill="#2D47A3"/>
<path d="M155.409 154.555C155.409 155.027 155.027 155.409 154.555 155.409C154.084 155.409 153.701 155.027 153.701 154.555C153.701 154.084 154.084 153.701 154.555 153.701C155.027 153.701 155.409 154.084 155.409 154.555Z" fill="#2D47A3"/>
<path d="M155.409 16.224C155.409 16.6956 155.027 17.0779 154.555 17.0779C154.084 17.0779 153.701 16.6956 153.701 16.224C153.701 15.7524 154.084 15.3701 154.555 15.3701C155.027 15.3701 155.409 15.7524 155.409 16.224Z" fill="#2D47A3"/>
<path d="M155.409 93.0747C155.409 93.5463 155.027 93.9286 154.555 93.9286C154.084 93.9286 153.701 93.5463 153.701 93.0747C153.701 92.6031 154.084 92.2208 154.555 92.2208C155.027 92.2208 155.409 92.6031 155.409 93.0747Z" fill="#2D47A3"/>
<path d="M155.409 169.925C155.409 170.397 155.027 170.779 154.555 170.779C154.084 170.779 153.701 170.397 153.701 169.925C153.701 169.454 154.084 169.071 154.555 169.071C155.027 169.071 155.409 169.454 155.409 169.925Z" fill="#2D47A3"/>
<path d="M155.409 231.406C155.409 231.877 155.027 232.26 154.555 232.26C154.084 232.26 153.701 231.877 153.701 231.406C153.701 230.934 154.084 230.552 154.555 230.552C155.027 230.552 155.409 230.934 155.409 231.406Z" fill="#2D47A3"/>
<path d="M155.409 31.5942C155.409 32.0658 155.027 32.4481 154.555 32.4481C154.084 32.4481 153.701 32.0658 153.701 31.5942C153.701 31.1226 154.084 30.7403 154.555 30.7403C155.027 30.7403 155.409 31.1226 155.409 31.5942Z" fill="#2D47A3"/>
<path d="M155.409 108.445C155.409 108.916 155.027 109.299 154.555 109.299C154.084 109.299 153.701 108.916 153.701 108.445C153.701 107.973 154.084 107.591 154.555 107.591C155.027 107.591 155.409 107.973 155.409 108.445Z" fill="#2D47A3"/>
<path d="M155.409 185.295C155.409 185.767 155.027 186.149 154.555 186.149C154.084 186.149 153.701 185.767 153.701 185.295C153.701 184.824 154.084 184.442 154.555 184.442C155.027 184.442 155.409 184.824 155.409 185.295Z" fill="#2D47A3"/>
<path d="M155.409 246.776C155.409 247.248 155.027 247.63 154.555 247.63C154.084 247.63 153.701 247.248 153.701 246.776C153.701 246.304 154.084 245.922 154.555 245.922C155.027 245.922 155.409 246.304 155.409 246.776Z" fill="#2D47A3"/>
<path d="M155.409 262.146C155.409 262.618 155.027 263 154.555 263C154.084 263 153.701 262.618 153.701 262.146C153.701 261.675 154.084 261.292 154.555 261.292C155.027 261.292 155.409 261.675 155.409 262.146Z" fill="#2D47A3"/>
<path d="M155.409 46.9643C155.409 47.4359 155.027 47.8182 154.555 47.8182C154.084 47.8182 153.701 47.4359 153.701 46.9643C153.701 46.4927 154.084 46.1104 154.555 46.1104C155.027 46.1104 155.409 46.4927 155.409 46.9643Z" fill="#2D47A3"/>
<path d="M155.409 123.815C155.409 124.287 155.027 124.669 154.555 124.669C154.084 124.669 153.701 124.287 153.701 123.815C153.701 123.343 154.084 122.961 154.555 122.961C155.027 122.961 155.409 123.343 155.409 123.815Z" fill="#2D47A3"/>
<path d="M155.409 200.666C155.409 201.137 155.027 201.519 154.555 201.519C154.084 201.519 153.701 201.137 153.701 200.666C153.701 200.194 154.084 199.812 154.555 199.812C155.027 199.812 155.409 200.194 155.409 200.666Z" fill="#2D47A3"/>
<path d="M155.409 62.3344C155.409 62.806 155.027 63.1883 154.555 63.1883C154.084 63.1883 153.701 62.806 153.701 62.3344C153.701 61.8628 154.084 61.4805 154.555 61.4805C155.027 61.4805 155.409 61.8628 155.409 62.3344Z" fill="#2D47A3"/>
<path d="M155.409 139.185C155.409 139.657 155.027 140.039 154.555 140.039C154.084 140.039 153.701 139.657 153.701 139.185C153.701 138.713 154.084 138.331 154.555 138.331C155.027 138.331 155.409 138.713 155.409 139.185Z" fill="#2D47A3"/>
<path d="M155.409 216.036C155.409 216.507 155.027 216.89 154.555 216.89C154.084 216.89 153.701 216.507 153.701 216.036C153.701 215.564 154.084 215.182 154.555 215.182C155.027 215.182 155.409 215.564 155.409 216.036Z" fill="#2D47A3"/>
<path d="M247.63 0.853896C247.63 1.32549 247.248 1.70779 246.776 1.70779C246.304 1.70779 245.922 1.32549 245.922 0.853896C245.922 0.382302 246.304 0 246.776 0C247.248 0 247.63 0.382302 247.63 0.853896Z" fill="#2D47A3"/>
<path d="M247.63 77.7045C247.63 78.1761 247.248 78.5584 246.776 78.5584C246.304 78.5584 245.922 78.1761 245.922 77.7045C245.922 77.2329 246.304 76.8507 246.776 76.8507C247.248 76.8507 247.63 77.2329 247.63 77.7045Z" fill="#2D47A3"/>
<path d="M247.63 154.555C247.63 155.027 247.248 155.409 246.776 155.409C246.304 155.409 245.922 155.027 245.922 154.555C245.922 154.084 246.304 153.701 246.776 153.701C247.248 153.701 247.63 154.084 247.63 154.555Z" fill="#2D47A3"/>
<path d="M247.63 16.224C247.63 16.6956 247.248 17.0779 246.776 17.0779C246.304 17.0779 245.922 16.6956 245.922 16.224C245.922 15.7524 246.304 15.3701 246.776 15.3701C247.248 15.3701 247.63 15.7524 247.63 16.224Z" fill="#2D47A3"/>
<path d="M247.63 93.0747C247.63 93.5463 247.248 93.9286 246.776 93.9286C246.304 93.9286 245.922 93.5463 245.922 93.0747C245.922 92.6031 246.304 92.2208 246.776 92.2208C247.248 92.2208 247.63 92.6031 247.63 93.0747Z" fill="#2D47A3"/>
<path d="M247.63 169.925C247.63 170.397 247.248 170.779 246.776 170.779C246.304 170.779 245.922 170.397 245.922 169.925C245.922 169.454 246.304 169.071 246.776 169.071C247.248 169.071 247.63 169.454 247.63 169.925Z" fill="#2D47A3"/>
<path d="M247.63 231.406C247.63 231.877 247.248 232.26 246.776 232.26C246.304 232.26 245.922 231.877 245.922 231.406C245.922 230.934 246.304 230.552 246.776 230.552C247.248 230.552 247.63 230.934 247.63 231.406Z" fill="#2D47A3"/>
<path d="M247.63 31.5942C247.63 32.0658 247.248 32.4481 246.776 32.4481C246.304 32.4481 245.922 32.0658 245.922 31.5942C245.922 31.1226 246.304 30.7403 246.776 30.7403C247.248 30.7403 247.63 31.1226 247.63 31.5942Z" fill="#2D47A3"/>
<path d="M247.63 108.445C247.63 108.916 247.248 109.299 246.776 109.299C246.304 109.299 245.922 108.916 245.922 108.445C245.922 107.973 246.304 107.591 246.776 107.591C247.248 107.591 247.63 107.973 247.63 108.445Z" fill="#2D47A3"/>
<path d="M247.63 185.295C247.63 185.767 247.248 186.149 246.776 186.149C246.304 186.149 245.922 185.767 245.922 185.295C245.922 184.824 246.304 184.442 246.776 184.442C247.248 184.442 247.63 184.824 247.63 185.295Z" fill="#2D47A3"/>
<path d="M247.63 246.776C247.63 247.248 247.248 247.63 246.776 247.63C246.304 247.63 245.922 247.248 245.922 246.776C245.922 246.304 246.304 245.922 246.776 245.922C247.248 245.922 247.63 246.304 247.63 246.776Z" fill="#2D47A3"/>
<path d="M247.63 262.146C247.63 262.618 247.248 263 246.776 263C246.304 263 245.922 262.618 245.922 262.146C245.922 261.675 246.304 261.292 246.776 261.292C247.248 261.292 247.63 261.675 247.63 262.146Z" fill="#2D47A3"/>
<path d="M247.63 46.9643C247.63 47.4359 247.248 47.8182 246.776 47.8182C246.304 47.8182 245.922 47.4359 245.922 46.9643C245.922 46.4927 246.304 46.1104 246.776 46.1104C247.248 46.1104 247.63 46.4927 247.63 46.9643Z" fill="#2D47A3"/>
<path d="M247.63 123.815C247.63 124.287 247.248 124.669 246.776 124.669C246.304 124.669 245.922 124.287 245.922 123.815C245.922 123.343 246.304 122.961 246.776 122.961C247.248 122.961 247.63 123.343 247.63 123.815Z" fill="#2D47A3"/>
<path d="M247.63 200.666C247.63 201.137 247.248 201.519 246.776 201.519C246.304 201.519 245.922 201.137 245.922 200.666C245.922 200.194 246.304 199.812 246.776 199.812C247.248 199.812 247.63 200.194 247.63 200.666Z" fill="#2D47A3"/>
<path d="M247.63 62.3344C247.63 62.806 247.248 63.1883 246.776 63.1883C246.304 63.1883 245.922 62.806 245.922 62.3344C245.922 61.8628 246.304 61.4805 246.776 61.4805C247.248 61.4805 247.63 61.8628 247.63 62.3344Z" fill="#2D47A3"/>
<path d="M247.63 139.185C247.63 139.657 247.248 140.039 246.776 140.039C246.304 140.039 245.922 139.657 245.922 139.185C245.922 138.713 246.304 138.331 246.776 138.331C247.248 138.331 247.63 138.713 247.63 139.185Z" fill="#2D47A3"/>
<path d="M247.63 216.036C247.63 216.507 247.248 216.89 246.776 216.89C246.304 216.89 245.922 216.507 245.922 216.036C245.922 215.564 246.304 215.182 246.776 215.182C247.248 215.182 247.63 215.564 247.63 216.036Z" fill="#2D47A3"/>
<path d="M32.4481 0.853896C32.4481 1.32549 32.0658 1.70779 31.5942 1.70779C31.1226 1.70779 30.7403 1.32549 30.7403 0.853896C30.7403 0.382302 31.1226 0 31.5942 0C32.0658 0 32.4481 0.382302 32.4481 0.853896Z" fill="#2D47A3"/>
<path d="M32.4481 77.7045C32.4481 78.1761 32.0658 78.5584 31.5942 78.5584C31.1226 78.5584 30.7403 78.1761 30.7403 77.7045C30.7403 77.2329 31.1226 76.8507 31.5942 76.8507C32.0658 76.8507 32.4481 77.2329 32.4481 77.7045Z" fill="#2D47A3"/>
<path d="M32.4481 154.555C32.4481 155.027 32.0658 155.409 31.5942 155.409C31.1226 155.409 30.7403 155.027 30.7403 154.555C30.7403 154.084 31.1226 153.701 31.5942 153.701C32.0658 153.701 32.4481 154.084 32.4481 154.555Z" fill="#2D47A3"/>
<path d="M32.4481 16.224C32.4481 16.6956 32.0658 17.0779 31.5942 17.0779C31.1226 17.0779 30.7403 16.6956 30.7403 16.224C30.7403 15.7524 31.1226 15.3701 31.5942 15.3701C32.0658 15.3701 32.4481 15.7524 32.4481 16.224Z" fill="#2D47A3"/>
<path d="M32.4481 93.0747C32.4481 93.5463 32.0658 93.9286 31.5942 93.9286C31.1226 93.9286 30.7403 93.5463 30.7403 93.0747C30.7403 92.6031 31.1226 92.2208 31.5942 92.2208C32.0658 92.2208 32.4481 92.6031 32.4481 93.0747Z" fill="#2D47A3"/>
<path d="M32.4481 169.925C32.4481 170.397 32.0658 170.779 31.5942 170.779C31.1226 170.779 30.7403 170.397 30.7403 169.925C30.7403 169.454 31.1226 169.071 31.5942 169.071C32.0658 169.071 32.4481 169.454 32.4481 169.925Z" fill="#2D47A3"/>
<path d="M32.4481 231.406C32.4481 231.877 32.0658 232.26 31.5942 232.26C31.1226 232.26 30.7403 231.877 30.7403 231.406C30.7403 230.934 31.1226 230.552 31.5942 230.552C32.0658 230.552 32.4481 230.934 32.4481 231.406Z" fill="#2D47A3"/>
<path d="M32.4481 31.5942C32.4481 32.0658 32.0658 32.4481 31.5942 32.4481C31.1226 32.4481 30.7403 32.0658 30.7403 31.5942C30.7403 31.1226 31.1226 30.7403 31.5942 30.7403C32.0658 30.7403 32.4481 31.1226 32.4481 31.5942Z" fill="#2D47A3"/>
<path d="M32.4481 108.445C32.4481 108.916 32.0658 109.299 31.5942 109.299C31.1226 109.299 30.7403 108.916 30.7403 108.445C30.7403 107.973 31.1226 107.591 31.5942 107.591C32.0658 107.591 32.4481 107.973 32.4481 108.445Z" fill="#2D47A3"/>
<path d="M32.4481 185.295C32.4481 185.767 32.0658 186.149 31.5942 186.149C31.1226 186.149 30.7403 185.767 30.7403 185.295C30.7403 184.824 31.1226 184.442 31.5942 184.442C32.0658 184.442 32.4481 184.824 32.4481 185.295Z" fill="#2D47A3"/>
<path d="M32.4481 246.776C32.4481 247.248 32.0658 247.63 31.5942 247.63C31.1226 247.63 30.7403 247.248 30.7403 246.776C30.7403 246.304 31.1226 245.922 31.5942 245.922C32.0658 245.922 32.4481 246.304 32.4481 246.776Z" fill="#2D47A3"/>
<path d="M32.4481 262.146C32.4481 262.618 32.0658 263 31.5942 263C31.1226 263 30.7403 262.618 30.7403 262.146C30.7403 261.675 31.1226 261.292 31.5942 261.292C32.0658 261.292 32.4481 261.675 32.4481 262.146Z" fill="#2D47A3"/>
<path d="M32.4481 46.9643C32.4481 47.4359 32.0658 47.8182 31.5942 47.8182C31.1226 47.8182 30.7403 47.4359 30.7403 46.9643C30.7403 46.4927 31.1226 46.1104 31.5942 46.1104C32.0658 46.1104 32.4481 46.4927 32.4481 46.9643Z" fill="#2D47A3"/>
<path d="M32.4481 123.815C32.4481 124.287 32.0658 124.669 31.5942 124.669C31.1226 124.669 30.7403 124.287 30.7403 123.815C30.7403 123.343 31.1226 122.961 31.5942 122.961C32.0658 122.961 32.4481 123.343 32.4481 123.815Z" fill="#2D47A3"/>
<path d="M32.4481 200.666C32.4481 201.137 32.0658 201.519 31.5942 201.519C31.1226 201.519 30.7403 201.137 30.7403 200.666C30.7403 200.194 31.1226 199.812 31.5942 199.812C32.0658 199.812 32.4481 200.194 32.4481 200.666Z" fill="#2D47A3"/>
<path d="M32.4481 62.3344C32.4481 62.806 32.0658 63.1883 31.5942 63.1883C31.1226 63.1883 30.7403 62.806 30.7403 62.3344C30.7403 61.8628 31.1226 61.4805 31.5942 61.4805C32.0658 61.4805 32.4481 61.8628 32.4481 62.3344Z" fill="#2D47A3"/>
<path d="M32.4481 139.185C32.4481 139.657 32.0658 140.039 31.5942 140.039C31.1226 140.039 30.7403 139.657 30.7403 139.185C30.7403 138.713 31.1226 138.331 31.5942 138.331C32.0658 138.331 32.4481 138.713 32.4481 139.185Z" fill="#2D47A3"/>
<path d="M32.4481 216.036C32.4481 216.507 32.0658 216.89 31.5942 216.89C31.1226 216.89 30.7403 216.507 30.7403 216.036C30.7403 215.564 31.1226 215.182 31.5942 215.182C32.0658 215.182 32.4481 215.564 32.4481 216.036Z" fill="#2D47A3"/>
<path d="M124.669 0.853896C124.669 1.32549 124.287 1.70779 123.815 1.70779C123.343 1.70779 122.961 1.32549 122.961 0.853896C122.961 0.382302 123.343 0 123.815 0C124.287 0 124.669 0.382302 124.669 0.853896Z" fill="#2D47A3"/>
<path d="M124.669 77.7045C124.669 78.1761 124.287 78.5584 123.815 78.5584C123.343 78.5584 122.961 78.1761 122.961 77.7045C122.961 77.2329 123.343 76.8507 123.815 76.8507C124.287 76.8507 124.669 77.2329 124.669 77.7045Z" fill="#2D47A3"/>
<path d="M124.669 154.555C124.669 155.027 124.287 155.409 123.815 155.409C123.343 155.409 122.961 155.027 122.961 154.555C122.961 154.084 123.343 153.701 123.815 153.701C124.287 153.701 124.669 154.084 124.669 154.555Z" fill="#2D47A3"/>
<path d="M124.669 16.224C124.669 16.6956 124.287 17.0779 123.815 17.0779C123.343 17.0779 122.961 16.6956 122.961 16.224C122.961 15.7524 123.343 15.3701 123.815 15.3701C124.287 15.3701 124.669 15.7524 124.669 16.224Z" fill="#2D47A3"/>
<path d="M124.669 93.0747C124.669 93.5463 124.287 93.9286 123.815 93.9286C123.343 93.9286 122.961 93.5463 122.961 93.0747C122.961 92.6031 123.343 92.2208 123.815 92.2208C124.287 92.2208 124.669 92.6031 124.669 93.0747Z" fill="#2D47A3"/>
<path d="M124.669 169.925C124.669 170.397 124.287 170.779 123.815 170.779C123.343 170.779 122.961 170.397 122.961 169.925C122.961 169.454 123.343 169.071 123.815 169.071C124.287 169.071 124.669 169.454 124.669 169.925Z" fill="#2D47A3"/>
<path d="M124.669 231.406C124.669 231.877 124.287 232.26 123.815 232.26C123.343 232.26 122.961 231.877 122.961 231.406C122.961 230.934 123.343 230.552 123.815 230.552C124.287 230.552 124.669 230.934 124.669 231.406Z" fill="#2D47A3"/>
<path d="M124.669 31.5942C124.669 32.0658 124.287 32.4481 123.815 32.4481C123.343 32.4481 122.961 32.0658 122.961 31.5942C122.961 31.1226 123.343 30.7403 123.815 30.7403C124.287 30.7403 124.669 31.1226 124.669 31.5942Z" fill="#2D47A3"/>
<path d="M124.669 108.445C124.669 108.916 124.287 109.299 123.815 109.299C123.343 109.299 122.961 108.916 122.961 108.445C122.961 107.973 123.343 107.591 123.815 107.591C124.287 107.591 124.669 107.973 124.669 108.445Z" fill="#2D47A3"/>
<path d="M124.669 185.295C124.669 185.767 124.287 186.149 123.815 186.149C123.343 186.149 122.961 185.767 122.961 185.295C122.961 184.824 123.343 184.442 123.815 184.442C124.287 184.442 124.669 184.824 124.669 185.295Z" fill="#2D47A3"/>
<path d="M124.669 246.776C124.669 247.248 124.287 247.63 123.815 247.63C123.343 247.63 122.961 247.248 122.961 246.776C122.961 246.304 123.343 245.922 123.815 245.922C124.287 245.922 124.669 246.304 124.669 246.776Z" fill="#2D47A3"/>
<path d="M124.669 262.146C124.669 262.618 124.287 263 123.815 263C123.343 263 122.961 262.618 122.961 262.146C122.961 261.675 123.343 261.292 123.815 261.292C124.287 261.292 124.669 261.675 124.669 262.146Z" fill="#2D47A3"/>
<path d="M124.669 46.9643C124.669 47.4359 124.287 47.8182 123.815 47.8182C123.343 47.8182 122.961 47.4359 122.961 46.9643C122.961 46.4927 123.343 46.1104 123.815 46.1104C124.287 46.1104 124.669 46.4927 124.669 46.9643Z" fill="#2D47A3"/>
<path d="M124.669 123.815C124.669 124.287 124.287 124.669 123.815 124.669C123.343 124.669 122.961 124.287 122.961 123.815C122.961 123.343 123.343 122.961 123.815 122.961C124.287 122.961 124.669 123.343 124.669 123.815Z" fill="#2D47A3"/>
<path d="M124.669 200.666C124.669 201.137 124.287 201.519 123.815 201.519C123.343 201.519 122.961 201.137 122.961 200.666C122.961 200.194 123.343 199.812 123.815 199.812C124.287 199.812 124.669 200.194 124.669 200.666Z" fill="#2D47A3"/>
<path d="M124.669 62.3344C124.669 62.806 124.287 63.1883 123.815 63.1883C123.343 63.1883 122.961 62.806 122.961 62.3344C122.961 61.8628 123.343 61.4805 123.815 61.4805C124.287 61.4805 124.669 61.8628 124.669 62.3344Z" fill="#2D47A3"/>
<path d="M124.669 139.185C124.669 139.657 124.287 140.039 123.815 140.039C123.343 140.039 122.961 139.657 122.961 139.185C122.961 138.713 123.343 138.331 123.815 138.331C124.287 138.331 124.669 138.713 124.669 139.185Z" fill="#2D47A3"/>
<path d="M124.669 216.036C124.669 216.507 124.287 216.89 123.815 216.89C123.343 216.89 122.961 216.507 122.961 216.036C122.961 215.564 123.343 215.182 123.815 215.182C124.287 215.182 124.669 215.564 124.669 216.036Z" fill="#2D47A3"/>
<path d="M216.89 0.853896C216.89 1.32549 216.507 1.70779 216.036 1.70779C215.564 1.70779 215.182 1.32549 215.182 0.853896C215.182 0.382302 215.564 0 216.036 0C216.507 0 216.89 0.382302 216.89 0.853896Z" fill="#2D47A3"/>
<path d="M216.89 77.7045C216.89 78.1761 216.507 78.5584 216.036 78.5584C215.564 78.5584 215.182 78.1761 215.182 77.7045C215.182 77.2329 215.564 76.8507 216.036 76.8507C216.507 76.8507 216.89 77.2329 216.89 77.7045Z" fill="#2D47A3"/>
<path d="M216.89 154.555C216.89 155.027 216.507 155.409 216.036 155.409C215.564 155.409 215.182 155.027 215.182 154.555C215.182 154.084 215.564 153.701 216.036 153.701C216.507 153.701 216.89 154.084 216.89 154.555Z" fill="#2D47A3"/>
<path d="M216.89 16.224C216.89 16.6956 216.507 17.0779 216.036 17.0779C215.564 17.0779 215.182 16.6956 215.182 16.224C215.182 15.7524 215.564 15.3701 216.036 15.3701C216.507 15.3701 216.89 15.7524 216.89 16.224Z" fill="#2D47A3"/>
<path d="M216.89 93.0747C216.89 93.5463 216.507 93.9286 216.036 93.9286C215.564 93.9286 215.182 93.5463 215.182 93.0747C215.182 92.6031 215.564 92.2208 216.036 92.2208C216.507 92.2208 216.89 92.6031 216.89 93.0747Z" fill="#2D47A3"/>
<path d="M216.89 169.925C216.89 170.397 216.507 170.779 216.036 170.779C215.564 170.779 215.182 170.397 215.182 169.925C215.182 169.454 215.564 169.071 216.036 169.071C216.507 169.071 216.89 169.454 216.89 169.925Z" fill="#2D47A3"/>
<path d="M216.89 231.406C216.89 231.877 216.507 232.26 216.036 232.26C215.564 232.26 215.182 231.877 215.182 231.406C215.182 230.934 215.564 230.552 216.036 230.552C216.507 230.552 216.89 230.934 216.89 231.406Z" fill="#2D47A3"/>
<path d="M216.89 31.5942C216.89 32.0658 216.507 32.4481 216.036 32.4481C215.564 32.4481 215.182 32.0658 215.182 31.5942C215.182 31.1226 215.564 30.7403 216.036 30.7403C216.507 30.7403 216.89 31.1226 216.89 31.5942Z" fill="#2D47A3"/>
<path d="M216.89 108.445C216.89 108.916 216.507 109.299 216.036 109.299C215.564 109.299 215.182 108.916 215.182 108.445C215.182 107.973 215.564 107.591 216.036 107.591C216.507 107.591 216.89 107.973 216.89 108.445Z" fill="#2D47A3"/>
<path d="M216.89 185.295C216.89 185.767 216.507 186.149 216.036 186.149C215.564 186.149 215.182 185.767 215.182 185.295C215.182 184.824 215.564 184.442 216.036 184.442C216.507 184.442 216.89 184.824 216.89 185.295Z" fill="#2D47A3"/>
<path d="M216.89 246.776C216.89 247.248 216.507 247.63 216.036 247.63C215.564 247.63 215.182 247.248 215.182 246.776C215.182 246.304 215.564 245.922 216.036 245.922C216.507 245.922 216.89 246.304 216.89 246.776Z" fill="#2D47A3"/>
<path d="M216.89 262.146C216.89 262.618 216.507 263 216.036 263C215.564 263 215.182 262.618 215.182 262.146C215.182 261.675 215.564 261.292 216.036 261.292C216.507 261.292 216.89 261.675 216.89 262.146Z" fill="#2D47A3"/>
<path d="M216.89 46.9643C216.89 47.4359 216.507 47.8182 216.036 47.8182C215.564 47.8182 215.182 47.4359 215.182 46.9643C215.182 46.4927 215.564 46.1104 216.036 46.1104C216.507 46.1104 216.89 46.4927 216.89 46.9643Z" fill="#2D47A3"/>
<path d="M216.89 123.815C216.89 124.287 216.507 124.669 216.036 124.669C215.564 124.669 215.182 124.287 215.182 123.815C215.182 123.343 215.564 122.961 216.036 122.961C216.507 122.961 216.89 123.343 216.89 123.815Z" fill="#2D47A3"/>
<path d="M216.89 200.666C216.89 201.137 216.507 201.519 216.036 201.519C215.564 201.519 215.182 201.137 215.182 200.666C215.182 200.194 215.564 199.812 216.036 199.812C216.507 199.812 216.89 200.194 216.89 200.666Z" fill="#2D47A3"/>
<path d="M216.89 62.3344C216.89 62.806 216.507 63.1883 216.036 63.1883C215.564 63.1883 215.182 62.806 215.182 62.3344C215.182 61.8628 215.564 61.4805 216.036 61.4805C216.507 61.4805 216.89 61.8628 216.89 62.3344Z" fill="#2D47A3"/>
<path d="M216.89 139.185C216.89 139.657 216.507 140.039 216.036 140.039C215.564 140.039 215.182 139.657 215.182 139.185C215.182 138.713 215.564 138.331 216.036 138.331C216.507 138.331 216.89 138.713 216.89 139.185Z" fill="#2D47A3"/>
<path d="M216.89 216.036C216.89 216.507 216.507 216.89 216.036 216.89C215.564 216.89 215.182 216.507 215.182 216.036C215.182 215.564 215.564 215.182 216.036 215.182C216.507 215.182 216.89 215.564 216.89 216.036Z" fill="#2D47A3"/>
<path d="M78.5584 0.853896C78.5584 1.32549 78.1761 1.70779 77.7045 1.70779C77.2329 1.70779 76.8507 1.32549 76.8507 0.853896C76.8507 0.382302 77.2329 0 77.7045 0C78.1761 0 78.5584 0.382302 78.5584 0.853896Z" fill="#2D47A3"/>
<path d="M78.5584 77.7045C78.5584 78.1761 78.1761 78.5584 77.7045 78.5584C77.2329 78.5584 76.8507 78.1761 76.8507 77.7045C76.8507 77.2329 77.2329 76.8507 77.7045 76.8507C78.1761 76.8507 78.5584 77.2329 78.5584 77.7045Z" fill="#2D47A3"/>
<path d="M78.5584 154.555C78.5584 155.027 78.1761 155.409 77.7045 155.409C77.2329 155.409 76.8507 155.027 76.8507 154.555C76.8507 154.084 77.2329 153.701 77.7045 153.701C78.1761 153.701 78.5584 154.084 78.5584 154.555Z" fill="#2D47A3"/>
<path d="M78.5584 16.224C78.5584 16.6956 78.1761 17.0779 77.7045 17.0779C77.2329 17.0779 76.8507 16.6956 76.8507 16.224C76.8507 15.7524 77.2329 15.3701 77.7045 15.3701C78.1761 15.3701 78.5584 15.7524 78.5584 16.224Z" fill="#2D47A3"/>
<path d="M78.5584 93.0747C78.5584 93.5463 78.1761 93.9286 77.7045 93.9286C77.2329 93.9286 76.8507 93.5463 76.8507 93.0747C76.8507 92.6031 77.2329 92.2208 77.7045 92.2208C78.1761 92.2208 78.5584 92.6031 78.5584 93.0747Z" fill="#2D47A3"/>
<path d="M78.5584 169.925C78.5584 170.397 78.1761 170.779 77.7045 170.779C77.2329 170.779 76.8507 170.397 76.8507 169.925C76.8507 169.454 77.2329 169.071 77.7045 169.071C78.1761 169.071 78.5584 169.454 78.5584 169.925Z" fill="#2D47A3"/>
<path d="M78.5584 231.406C78.5584 231.877 78.1761 232.26 77.7045 232.26C77.2329 232.26 76.8507 231.877 76.8507 231.406C76.8507 230.934 77.2329 230.552 77.7045 230.552C78.1761 230.552 78.5584 230.934 78.5584 231.406Z" fill="#2D47A3"/>
<path d="M78.5584 31.5942C78.5584 32.0658 78.1761 32.4481 77.7045 32.4481C77.2329 32.4481 76.8507 32.0658 76.8507 31.5942C76.8507 31.1226 77.2329 30.7403 77.7045 30.7403C78.1761 30.7403 78.5584 31.1226 78.5584 31.5942Z" fill="#2D47A3"/>
<path d="M78.5584 108.445C78.5584 108.916 78.1761 109.299 77.7045 109.299C77.2329 109.299 76.8507 108.916 76.8507 108.445C76.8507 107.973 77.2329 107.591 77.7045 107.591C78.1761 107.591 78.5584 107.973 78.5584 108.445Z" fill="#2D47A3"/>
<path d="M78.5584 185.295C78.5584 185.767 78.1761 186.149 77.7045 186.149C77.2329 186.149 76.8507 185.767 76.8507 185.295C76.8507 184.824 77.2329 184.442 77.7045 184.442C78.1761 184.442 78.5584 184.824 78.5584 185.295Z" fill="#2D47A3"/>
<path d="M78.5584 246.776C78.5584 247.248 78.1761 247.63 77.7045 247.63C77.2329 247.63 76.8507 247.248 76.8507 246.776C76.8507 246.304 77.2329 245.922 77.7045 245.922C78.1761 245.922 78.5584 246.304 78.5584 246.776Z" fill="#2D47A3"/>
<path d="M78.5584 262.146C78.5584 262.618 78.1761 263 77.7045 263C77.2329 263 76.8507 262.618 76.8507 262.146C76.8507 261.675 77.2329 261.292 77.7045 261.292C78.1761 261.292 78.5584 261.675 78.5584 262.146Z" fill="#2D47A3"/>
<path d="M78.5584 46.9643C78.5584 47.4359 78.1761 47.8182 77.7045 47.8182C77.2329 47.8182 76.8507 47.4359 76.8507 46.9643C76.8507 46.4927 77.2329 46.1104 77.7045 46.1104C78.1761 46.1104 78.5584 46.4927 78.5584 46.9643Z" fill="#2D47A3"/>
<path d="M78.5584 123.815C78.5584 124.287 78.1761 124.669 77.7045 124.669C77.2329 124.669 76.8507 124.287 76.8507 123.815C76.8507 123.343 77.2329 122.961 77.7045 122.961C78.1761 122.961 78.5584 123.343 78.5584 123.815Z" fill="#2D47A3"/>
<path d="M78.5584 200.666C78.5584 201.137 78.1761 201.519 77.7045 201.519C77.2329 201.519 76.8507 201.137 76.8507 200.666C76.8507 200.194 77.2329 199.812 77.7045 199.812C78.1761 199.812 78.5584 200.194 78.5584 200.666Z" fill="#2D47A3"/>
<path d="M78.5584 62.3344C78.5584 62.806 78.1761 63.1883 77.7045 63.1883C77.2329 63.1883 76.8507 62.806 76.8507 62.3344C76.8507 61.8628 77.2329 61.4805 77.7045 61.4805C78.1761 61.4805 78.5584 61.8628 78.5584 62.3344Z" fill="#2D47A3"/>
<path d="M78.5584 139.185C78.5584 139.657 78.1761 140.039 77.7045 140.039C77.2329 140.039 76.8507 139.657 76.8507 139.185C76.8507 138.713 77.2329 138.331 77.7045 138.331C78.1761 138.331 78.5584 138.713 78.5584 139.185Z" fill="#2D47A3"/>
<path d="M78.5584 216.036C78.5584 216.507 78.1761 216.89 77.7045 216.89C77.2329 216.89 76.8507 216.507 76.8507 216.036C76.8507 215.564 77.2329 215.182 77.7045 215.182C78.1761 215.182 78.5584 215.564 78.5584 216.036Z" fill="#2D47A3"/>
<path d="M170.779 0.853896C170.779 1.32549 170.397 1.70779 169.925 1.70779C169.454 1.70779 169.071 1.32549 169.071 0.853896C169.071 0.382302 169.454 0 169.925 0C170.397 0 170.779 0.382302 170.779 0.853896Z" fill="#2D47A3"/>
<path d="M170.779 77.7045C170.779 78.1761 170.397 78.5584 169.925 78.5584C169.454 78.5584 169.071 78.1761 169.071 77.7045C169.071 77.2329 169.454 76.8507 169.925 76.8507C170.397 76.8507 170.779 77.2329 170.779 77.7045Z" fill="#2D47A3"/>
<path d="M170.779 154.555C170.779 155.027 170.397 155.409 169.925 155.409C169.454 155.409 169.071 155.027 169.071 154.555C169.071 154.084 169.454 153.701 169.925 153.701C170.397 153.701 170.779 154.084 170.779 154.555Z" fill="#2D47A3"/>
<path d="M170.779 16.224C170.779 16.6956 170.397 17.0779 169.925 17.0779C169.454 17.0779 169.071 16.6956 169.071 16.224C169.071 15.7524 169.454 15.3701 169.925 15.3701C170.397 15.3701 170.779 15.7524 170.779 16.224Z" fill="#2D47A3"/>
<path d="M170.779 93.0747C170.779 93.5463 170.397 93.9286 169.925 93.9286C169.454 93.9286 169.071 93.5463 169.071 93.0747C169.071 92.6031 169.454 92.2208 169.925 92.2208C170.397 92.2208 170.779 92.6031 170.779 93.0747Z" fill="#2D47A3"/>
<path d="M170.779 169.925C170.779 170.397 170.397 170.779 169.925 170.779C169.454 170.779 169.071 170.397 169.071 169.925C169.071 169.454 169.454 169.071 169.925 169.071C170.397 169.071 170.779 169.454 170.779 169.925Z" fill="#2D47A3"/>
<path d="M170.779 231.406C170.779 231.877 170.397 232.26 169.925 232.26C169.454 232.26 169.071 231.877 169.071 231.406C169.071 230.934 169.454 230.552 169.925 230.552C170.397 230.552 170.779 230.934 170.779 231.406Z" fill="#2D47A3"/>
<path d="M170.779 31.5942C170.779 32.0658 170.397 32.4481 169.925 32.4481C169.454 32.4481 169.071 32.0658 169.071 31.5942C169.071 31.1226 169.454 30.7403 169.925 30.7403C170.397 30.7403 170.779 31.1226 170.779 31.5942Z" fill="#2D47A3"/>
<path d="M170.779 108.445C170.779 108.916 170.397 109.299 169.925 109.299C169.454 109.299 169.071 108.916 169.071 108.445C169.071 107.973 169.454 107.591 169.925 107.591C170.397 107.591 170.779 107.973 170.779 108.445Z" fill="#2D47A3"/>
<path d="M170.779 185.295C170.779 185.767 170.397 186.149 169.925 186.149C169.454 186.149 169.071 185.767 169.071 185.295C169.071 184.824 169.454 184.442 169.925 184.442C170.397 184.442 170.779 184.824 170.779 185.295Z" fill="#2D47A3"/>
<path d="M170.779 246.776C170.779 247.248 170.397 247.63 169.925 247.63C169.454 247.63 169.071 247.248 169.071 246.776C169.071 246.304 169.454 245.922 169.925 245.922C170.397 245.922 170.779 246.304 170.779 246.776Z" fill="#2D47A3"/>
<path d="M170.779 262.146C170.779 262.618 170.397 263 169.925 263C169.454 263 169.071 262.618 169.071 262.146C169.071 261.675 169.454 261.292 169.925 261.292C170.397 261.292 170.779 261.675 170.779 262.146Z" fill="#2D47A3"/>
<path d="M170.779 46.9643C170.779 47.4359 170.397 47.8182 169.925 47.8182C169.454 47.8182 169.071 47.4359 169.071 46.9643C169.071 46.4927 169.454 46.1104 169.925 46.1104C170.397 46.1104 170.779 46.4927 170.779 46.9643Z" fill="#2D47A3"/>
<path d="M170.779 123.815C170.779 124.287 170.397 124.669 169.925 124.669C169.454 124.669 169.071 124.287 169.071 123.815C169.071 123.343 169.454 122.961 169.925 122.961C170.397 122.961 170.779 123.343 170.779 123.815Z" fill="#2D47A3"/>
<path d="M170.779 200.666C170.779 201.137 170.397 201.519 169.925 201.519C169.454 201.519 169.071 201.137 169.071 200.666C169.071 200.194 169.454 199.812 169.925 199.812C170.397 199.812 170.779 200.194 170.779 200.666Z" fill="#2D47A3"/>
<path d="M170.779 62.3344C170.779 62.806 170.397 63.1883 169.925 63.1883C169.454 63.1883 169.071 62.806 169.071 62.3344C169.071 61.8628 169.454 61.4805 169.925 61.4805C170.397 61.4805 170.779 61.8628 170.779 62.3344Z" fill="#2D47A3"/>
<path d="M170.779 139.185C170.779 139.657 170.397 140.039 169.925 140.039C169.454 140.039 169.071 139.657 169.071 139.185C169.071 138.713 169.454 138.331 169.925 138.331C170.397 138.331 170.779 138.713 170.779 139.185Z" fill="#2D47A3"/>
<path d="M170.779 216.036C170.779 216.507 170.397 216.89 169.925 216.89C169.454 216.89 169.071 216.507 169.071 216.036C169.071 215.564 169.454 215.182 169.925 215.182C170.397 215.182 170.779 215.564 170.779 216.036Z" fill="#2D47A3"/>
<path d="M263 0.853896C263 1.32549 262.618 1.70779 262.146 1.70779C261.675 1.70779 261.292 1.32549 261.292 0.853896C261.292 0.382302 261.675 0 262.146 0C262.618 0 263 0.382302 263 0.853896Z" fill="#2D47A3"/>
<path d="M263 77.7045C263 78.1761 262.618 78.5584 262.146 78.5584C261.675 78.5584 261.292 78.1761 261.292 77.7045C261.292 77.2329 261.675 76.8507 262.146 76.8507C262.618 76.8507 263 77.2329 263 77.7045Z" fill="#2D47A3"/>
<path d="M263 154.555C263 155.027 262.618 155.409 262.146 155.409C261.675 155.409 261.292 155.027 261.292 154.555C261.292 154.084 261.675 153.701 262.146 153.701C262.618 153.701 263 154.084 263 154.555Z" fill="#2D47A3"/>
<path d="M263 16.224C263 16.6956 262.618 17.0779 262.146 17.0779C261.675 17.0779 261.292 16.6956 261.292 16.224C261.292 15.7524 261.675 15.3701 262.146 15.3701C262.618 15.3701 263 15.7524 263 16.224Z" fill="#2D47A3"/>
<path d="M263 93.0747C263 93.5463 262.618 93.9286 262.146 93.9286C261.675 93.9286 261.292 93.5463 261.292 93.0747C261.292 92.6031 261.675 92.2208 262.146 92.2208C262.618 92.2208 263 92.6031 263 93.0747Z" fill="#2D47A3"/>
<path d="M263 169.925C263 170.397 262.618 170.779 262.146 170.779C261.675 170.779 261.292 170.397 261.292 169.925C261.292 169.454 261.675 169.071 262.146 169.071C262.618 169.071 263 169.454 263 169.925Z" fill="#2D47A3"/>
<path d="M263 231.406C263 231.877 262.618 232.26 262.146 232.26C261.675 232.26 261.292 231.877 261.292 231.406C261.292 230.934 261.675 230.552 262.146 230.552C262.618 230.552 263 230.934 263 231.406Z" fill="#2D47A3"/>
<path d="M263 31.5942C263 32.0658 262.618 32.4481 262.146 32.4481C261.675 32.4481 261.292 32.0658 261.292 31.5942C261.292 31.1226 261.675 30.7403 262.146 30.7403C262.618 30.7403 263 31.1226 263 31.5942Z" fill="#2D47A3"/>
<path d="M263 108.445C263 108.916 262.618 109.299 262.146 109.299C261.675 109.299 261.292 108.916 261.292 108.445C261.292 107.973 261.675 107.591 262.146 107.591C262.618 107.591 263 107.973 263 108.445Z" fill="#2D47A3"/>
<path d="M263 185.295C263 185.767 262.618 186.149 262.146 186.149C261.675 186.149 261.292 185.767 261.292 185.295C261.292 184.824 261.675 184.442 262.146 184.442C262.618 184.442 263 184.824 263 185.295Z" fill="#2D47A3"/>
<path d="M263 246.776C263 247.248 262.618 247.63 262.146 247.63C261.675 247.63 261.292 247.248 261.292 246.776C261.292 246.304 261.675 245.922 262.146 245.922C262.618 245.922 263 246.304 263 246.776Z" fill="#2D47A3"/>
<path d="M263 262.146C263 262.618 262.618 263 262.146 263C261.675 263 261.292 262.618 261.292 262.146C261.292 261.675 261.675 261.292 262.146 261.292C262.618 261.292 263 261.675 263 262.146Z" fill="#2D47A3"/>
<path d="M263 46.9643C263 47.4359 262.618 47.8182 262.146 47.8182C261.675 47.8182 261.292 47.4359 261.292 46.9643C261.292 46.4927 261.675 46.1104 262.146 46.1104C262.618 46.1104 263 46.4927 263 46.9643Z" fill="#2D47A3"/>
<path d="M263 123.815C263 124.287 262.618 124.669 262.146 124.669C261.675 124.669 261.292 124.287 261.292 123.815C261.292 123.343 261.675 122.961 262.146 122.961C262.618 122.961 263 123.343 263 123.815Z" fill="#2D47A3"/>
<path d="M263 200.666C263 201.137 262.618 201.519 262.146 201.519C261.675 201.519 261.292 201.137 261.292 200.666C261.292 200.194 261.675 199.812 262.146 199.812C262.618 199.812 263 200.194 263 200.666Z" fill="#2D47A3"/>
<path d="M263 62.3344C263 62.806 262.618 63.1883 262.146 63.1883C261.675 63.1883 261.292 62.806 261.292 62.3344C261.292 61.8628 261.675 61.4805 262.146 61.4805C262.618 61.4805 263 61.8628 263 62.3344Z" fill="#2D47A3"/>
<path d="M263 139.185C263 139.657 262.618 140.039 262.146 140.039C261.675 140.039 261.292 139.657 261.292 139.185C261.292 138.713 261.675 138.331 262.146 138.331C262.618 138.331 263 138.713 263 139.185Z" fill="#2D47A3"/>
<path d="M263 216.036C263 216.507 262.618 216.89 262.146 216.89C261.675 216.89 261.292 216.507 261.292 216.036C261.292 215.564 261.675 215.182 262.146 215.182C262.618 215.182 263 215.564 263 216.036Z" fill="#2D47A3"/>
</svg>
