<svg width="536" height="497" viewBox="0 0 536 497" fill="none" xmlns="http://www.w3.org/2000/svg">
<rect x="239.053" y="30.9707" width="116.358" height="116.358" rx="23.2716" transform="rotate(12 239.053 30.9707)" fill="white"/>
<rect x="324.113" y="358.342" width="116.358" height="116.358" rx="23.2716" transform="rotate(12 324.113 358.342)" fill="white"/>
<rect x="207.602" y="178.932" width="116.358" height="116.358" rx="23.2716" transform="rotate(12 207.602 178.932)" fill="#2C2C2C"/>
<rect x="28.1914" y="295.441" width="116.358" height="116.358" rx="23.2716" transform="rotate(12 28.1914 295.441)" fill="#2C2C2C"/>
<rect x="356.011" y="211.071" width="115.195" height="115.195" rx="22.6898" transform="rotate(12 356.011 211.071)" fill="#2D47A3" stroke="white" stroke-width="1.16358"/>
<rect x="91.8505" y="0.690038" width="115.195" height="115.195" rx="22.6898" transform="rotate(12 91.8505 0.690038)" fill="#2D47A3" stroke="white" stroke-width="1.16358"/>
<rect x="176.6" y="327.581" width="115.195" height="115.195" rx="22.6898" transform="rotate(12 176.6 327.581)" fill="#2D47A3" stroke="white" stroke-width="1.16358"/>
<g filter="url(#filter0_d)">
<rect x="387.012" y="62.4219" width="116.358" height="116.358" rx="23.2716" transform="rotate(12 387.012 62.4219)" fill="#2C2C2C"/>
</g>
<g filter="url(#filter1_d)">
<rect x="59.6426" y="147.482" width="116.358" height="116.358" rx="23.2716" transform="rotate(12 59.6426 147.482)" fill="white"/>
</g>
<path fill-rule="evenodd" clip-rule="evenodd" d="M270.574 73.2414L257.838 70.5215L270.311 114.7C271.02 117.064 272.26 119.022 274.049 120.521L274.055 120.525L274.06 120.53C275.836 121.984 277.8 122.955 279.944 123.413C282.129 123.879 284.321 123.8 286.499 123.183C288.788 122.559 290.768 121.292 292.433 119.434L321.871 84.196L309.135 81.4762L283.921 112.046L283.918 112.05C283.431 112.583 282.96 112.722 282.357 112.601C281.717 112.428 281.329 112.077 281.098 111.434L270.574 73.2414Z" fill="#2D47A3"/>
<path fill-rule="evenodd" clip-rule="evenodd" d="M206.574 370.241L193.838 367.521L206.311 411.7C207.02 414.064 208.26 416.022 210.049 417.521L210.055 417.525L210.06 417.53C211.836 418.984 213.8 419.955 215.944 420.413C218.129 420.879 220.321 420.8 222.499 420.183C224.788 419.559 226.768 418.292 228.433 416.434L257.871 381.196L245.135 378.476L219.921 409.046L219.918 409.05C219.431 409.583 218.96 409.722 218.357 409.601C217.717 409.428 217.329 409.077 217.098 408.434L206.574 370.241Z" fill="white"/>
<path fill-rule="evenodd" clip-rule="evenodd" d="M237.574 224.241L224.838 221.521L237.311 265.7C238.02 268.064 239.26 270.022 241.049 271.521L241.055 271.525L241.06 271.53C242.836 272.984 244.8 273.955 246.944 274.413C249.129 274.879 251.321 274.8 253.499 274.183C255.788 273.559 257.768 272.292 259.433 270.434L288.871 235.196L276.135 232.476L250.921 263.046L250.918 263.05C250.431 263.583 249.96 263.722 249.357 263.601C248.717 263.428 248.329 263.077 248.098 262.434L237.574 224.241Z" fill="white"/>
<path fill-rule="evenodd" clip-rule="evenodd" d="M122.574 43.2414L109.838 40.5215L122.311 84.7002C123.02 87.0636 124.26 89.022 126.049 90.5206L126.055 90.5252L126.06 90.5298C127.836 91.9842 129.8 92.9548 131.944 93.4127C134.129 93.8793 136.321 93.7997 138.499 93.1829C140.788 92.559 142.768 91.2922 144.433 89.4344L173.871 54.196L161.135 51.4762L135.921 82.0462L135.918 82.0495C135.431 82.5832 134.96 82.7225 134.357 82.6009C133.717 82.4283 133.329 82.0766 133.098 81.4339L122.574 43.2414Z" fill="white"/>
<path fill-rule="evenodd" clip-rule="evenodd" d="M58.5741 338.241L45.8379 335.521L58.3107 379.7C59.0205 382.064 60.26 384.022 62.0491 385.521L62.0546 385.525L62.0602 385.53C63.8358 386.984 65.7999 387.955 67.9441 388.413C70.1293 388.879 72.3208 388.8 74.4991 388.183C76.788 387.559 78.768 386.292 80.4326 384.434L109.871 349.196L97.1347 346.476L71.9214 377.046L71.9184 377.05C71.4311 377.583 70.9596 377.722 70.3571 377.601C69.7166 377.428 69.3287 377.077 69.0976 376.434L58.5741 338.241Z" fill="white"/>
<path fill-rule="evenodd" clip-rule="evenodd" d="M89.5741 189.241L76.8379 186.521L89.3107 230.7C90.0205 233.064 91.26 235.022 93.0491 236.521L93.0546 236.525L93.0602 236.53C94.8358 237.984 96.7999 238.955 98.9441 239.413C101.129 239.879 103.321 239.8 105.499 239.183C107.788 238.559 109.768 237.292 111.433 235.434L140.871 200.196L128.135 197.476L102.921 228.046L102.918 228.05C102.431 228.583 101.96 228.722 101.357 228.601C100.717 228.428 100.329 228.077 100.098 227.434L89.5741 189.241Z" fill="#2D47A3"/>
<path fill-rule="evenodd" clip-rule="evenodd" d="M418.574 104.241L405.838 101.521L418.311 145.7C419.02 148.064 420.26 150.022 422.049 151.521L422.055 151.525L422.06 151.53C423.836 152.984 425.8 153.955 427.944 154.413C430.129 154.879 432.321 154.8 434.499 154.183C436.788 153.559 438.768 152.292 440.433 150.434L469.871 115.196L457.135 112.476L431.921 143.046L431.918 143.05C431.431 143.583 430.96 143.722 430.357 143.601C429.717 143.428 429.329 143.077 429.098 142.434L418.574 104.241Z" fill="white"/>
<path fill-rule="evenodd" clip-rule="evenodd" d="M354.574 400.241L341.838 397.521L354.311 441.7C355.02 444.064 356.26 446.022 358.049 447.521L358.055 447.525L358.06 447.53C359.836 448.984 361.8 449.955 363.944 450.413C366.129 450.879 368.321 450.8 370.499 450.183C372.788 449.559 374.768 448.292 376.433 446.434L405.871 411.196L393.135 408.476L367.921 439.046L367.918 439.05C367.431 439.583 366.96 439.722 366.357 439.601C365.717 439.428 365.329 439.077 365.098 438.434L354.574 400.241Z" fill="#2D47A3"/>
<path fill-rule="evenodd" clip-rule="evenodd" d="M385.574 255.241L372.838 252.521L385.311 296.7C386.02 299.064 387.26 301.022 389.049 302.521L389.055 302.525L389.06 302.53C390.836 303.984 392.8 304.955 394.944 305.413C397.129 305.879 399.321 305.8 401.499 305.183C403.788 304.559 405.768 303.292 407.433 301.434L436.871 266.196L424.135 263.476L398.921 294.046L398.918 294.05C398.431 294.583 397.96 294.722 397.357 294.601C396.717 294.428 396.329 294.077 396.098 293.434L385.574 255.241Z" fill="white"/>
<defs>
<filter id="filter0_d" x="327.913" y="62.4219" width="207.823" height="219.458" filterUnits="userSpaceOnUse" color-interpolation-filters="sRGB">
<feFlood flood-opacity="0" result="BackgroundImageFix"/>
<feColorMatrix in="SourceAlpha" type="matrix" values="0 0 0 0 0 0 0 0 0 0 0 0 0 0 0 0 0 0 127 0"/>
<feOffset dy="46.5433"/>
<feGaussianBlur stdDeviation="17.4537"/>
<feColorMatrix type="matrix" values="0 0 0 0 0.14842 0 0 0 0 0.21028 0 0 0 0 0.429167 0 0 0 1 0"/>
<feBlend mode="normal" in2="BackgroundImageFix" result="effect1_dropShadow"/>
<feBlend mode="normal" in="SourceGraphic" in2="effect1_dropShadow" result="shape"/>
</filter>
<filter id="filter1_d" x="0.54372" y="147.482" width="207.823" height="219.458" filterUnits="userSpaceOnUse" color-interpolation-filters="sRGB">
<feFlood flood-opacity="0" result="BackgroundImageFix"/>
<feColorMatrix in="SourceAlpha" type="matrix" values="0 0 0 0 0 0 0 0 0 0 0 0 0 0 0 0 0 0 127 0"/>
<feOffset dy="46.5433"/>
<feGaussianBlur stdDeviation="17.4537"/>
<feColorMatrix type="matrix" values="0 0 0 0 0.14842 0 0 0 0 0.21028 0 0 0 0 0.429167 0 0 0 1 0"/>
<feBlend mode="normal" in2="BackgroundImageFix" result="effect1_dropShadow"/>
<feBlend mode="normal" in="SourceGraphic" in2="effect1_dropShadow" result="shape"/>
</filter>
</defs>
</svg>
