<svg width="460" height="88" viewBox="0 0 460 88" fill="none" xmlns="http://www.w3.org/2000/svg">
<path fill-rule="evenodd" clip-rule="evenodd" d="M390.123 17.9727C389.91 11.8761 374.025 13.2503 367.898 13.8385C361.77 14.4266 361.214 6.07477 366.501 4.83332C371.787 3.59187 381.375 4.23254 386.342 3.08658C391.31 1.94062 385.026 -4.20528 391.794 -4.94608C398.563 -5.68683 412.558 -5.001 416.73 -5.15149C423.284 -5.38787 426.646 2.50165 415.165 2.85967C411.998 2.95837 411.363 9.96731 422.051 8.04204C428.757 6.83386 441.916 6.80597 444.654 9.89056C446.225 11.6604 445.68 16.4152 442.98 19.0407C440.974 20.9912 434.595 21.3715 432.096 21.8223C426.234 22.8802 427.393 28.5565 429.392 29.7253C434.122 32.4911 447.105 27.2713 447.453 34.866C447.607 38.222 435.794 38.7638 430.951 38.7228C419.071 38.6223 411.266 39.6807 410.718 35.6285C410.169 31.5604 418.1 34.3062 417.709 29.305C417.505 26.6916 418.053 21.1383 412.964 21.4298C419.931 21.0307 390.41 26.2067 390.123 17.9727Z" fill="url(#paint0_linear)"/>
<path opacity="0.5" d="M230.381 1.13184C236.73 5.12985 259.37 29.0366 249.737 43.4084C240.104 57.7802 231.28 68.2861 200.975 51.587C170.671 34.888 131 69.02 131 102.042" stroke="url(#paint1_linear)" stroke-width="4.24248" stroke-linecap="round" stroke-linejoin="round" stroke-dasharray="3.33 11.21"/>
<path opacity="0.5" d="M27.5987 -6.67322C33.2027 -11.6625 62.4562 -26.7722 73.5876 -13.5273C84.7191 -0.282375 92.3611 11.1126 67.9032 35.5874C43.4453 60.0623 65.2179 107.652 96.9412 116.822" stroke="url(#paint2_linear)" stroke-width="4.24248" stroke-linecap="round" stroke-linejoin="round" stroke-dasharray="3.33 11.21"/>
<path fill-rule="evenodd" clip-rule="evenodd" d="M210.878 112.535C214.021 113.467 220.648 105.583 221.153 97.9068C221.659 90.2307 214.42 90.9576 218.328 77.2353C222.236 63.5131 225.922 57.2366 213.272 43.5206C200.621 29.8045 203.543 17.5408 192.205 17.7104C180.867 17.8799 181.972 34.3492 188.77 46.1187C195.567 57.8882 194.553 61.4573 184.787 64.4631C175.021 67.4689 191.156 81.8778 192.989 85.8102C194.823 89.7425 192.667 99.6401 196.383 104.597C200.099 109.554 207.734 111.604 210.878 112.535Z" fill="url(#paint3_linear)"/>
<path d="M208.249 92.9067C206.841 89.8885 201.694 80.8402 194.875 77.0473" stroke="url(#paint4_linear)" stroke-width="1.55599" stroke-linecap="round"/>
<path d="M206.52 72.2716C205.112 69.2534 212.598 63.1833 214.075 55.5221" stroke="url(#paint5_linear)" stroke-width="1.55599" stroke-linecap="round"/>
<path d="M212.474 129.002C211.875 127.718 211.387 120.898 210.373 113.206C207.197 89.1186 205.804 58.283 197.447 40.3618" stroke="url(#paint6_linear)" stroke-width="1.55599" stroke-linecap="round"/>
<path fill-rule="evenodd" clip-rule="evenodd" d="M105.283 -5.23842C104.315 -8.37044 94.0795 -9.51331 87.4115 -5.67732C80.7434 -1.84132 85.3622 3.77918 71.776 8.13652C58.1898 12.4939 50.9224 12.9065 46.5234 31.0398C42.1244 49.173 30.2985 53.5418 36.7268 62.883C43.1552 72.2242 56.2478 62.1724 62.2725 49.989C68.2972 37.8056 71.8297 36.6705 79.7464 43.1305C87.6631 49.5905 90.707 28.1741 92.9625 24.4676C95.2181 20.7611 104.65 17.067 106.715 11.2257C108.779 5.38427 106.251 -2.10641 105.283 -5.23842Z" fill="url(#paint7_linear)"/>
<path d="M90.4062 7.83412C88.675 10.679 83.9998 19.9802 84.6245 27.7575" stroke="url(#paint8_linear)" stroke-width="1.55599" stroke-linecap="round"/>
<path d="M74.193 20.7154C72.4618 23.5602 63.2596 20.6972 56.065 23.7161" stroke="url(#paint9_linear)" stroke-width="1.55599" stroke-linecap="round"/>
<path d="M118.101 -15.6979C117.364 -14.4875 111.96 -10.2997 106.121 -5.19021C87.8373 10.8102 62.9493 29.0685 52.6699 45.9604" stroke="url(#paint10_linear)" stroke-width="1.55599" stroke-linecap="round"/>
<path d="M266.044 -10.9144C267.663 -16.9566 273.874 -20.5423 279.916 -18.9233L336.696 -3.70914C344.464 -1.62757 349.075 6.35752 346.993 14.1261L311.102 148.073C309.483 154.116 303.272 157.701 297.23 156.082L237.324 140.031C231.282 138.412 227.696 132.201 229.315 126.159L266.044 -10.9144Z" fill="url(#paint11_linear)"/>
<rect x="261.595" y="-24" width="84.6716" height="164.561" rx="11.3263" transform="rotate(15 261.595 -24)" fill="url(#paint12_linear)"/>
<rect x="278.343" y="-8.50757" width="44.4853" height="2.95265" rx="1.21353" transform="rotate(15 278.343 -8.50757)" fill="url(#paint13_linear)"/>
<rect x="258.912" y="-0.264648" width="77.7558" height="117.319" rx="1.94165" transform="rotate(15 258.912 -0.264648)" fill="url(#paint14_linear)"/>
<mask id="mask0" mask-type="alpha" maskUnits="userSpaceOnUse" x="228" y="0" width="106" height="133">
<rect x="258.912" y="-0.264648" width="77.7558" height="117.319" rx="1.94165" transform="rotate(15 258.912 -0.264648)" fill="white"/>
</mask>
<g mask="url(#mask0)">
<rect opacity="0.4" x="248.923" y="62.0554" width="61.8092" height="3.7215" rx="1.86075" transform="rotate(15 248.923 62.0554)" fill="url(#paint15_linear)"/>
<rect opacity="0.4" x="247.373" y="67.8386" width="44.658" height="3.7215" rx="1.86075" transform="rotate(15 247.373 67.8386)" fill="url(#paint16_linear)"/>
<rect opacity="0.4" x="244.232" y="79.5603" width="59.8676" height="3.7215" rx="1.86075" transform="rotate(15 244.232 79.5603)" fill="url(#paint17_linear)"/>
<path opacity="0.6" fill-rule="evenodd" clip-rule="evenodd" d="M261.099 16.6097C261.562 14.8834 263.336 13.8589 265.063 14.3214L277.735 17.7169L272.319 37.9292L256.521 33.6962L261.099 16.6097Z" fill="url(#paint18_linear)"/>
<mask id="mask1" mask-type="alpha" maskUnits="userSpaceOnUse" x="256" y="14" width="22" height="24">
<path fill-rule="evenodd" clip-rule="evenodd" d="M261.099 16.6097C261.562 14.8834 263.336 13.8589 265.063 14.3214L277.735 17.7169L272.319 37.9292L256.521 33.6962L261.099 16.6097Z" fill="white"/>
</mask>
<g mask="url(#mask1)">
<path opacity="0.7" d="M260.204 31.0078C260.993 28.0632 264.02 26.3157 266.965 27.1047C269.909 27.8937 271.657 30.9205 270.868 33.8651L269.121 40.3826L258.458 37.5253L260.204 31.0078Z" fill="white"/>
<ellipse cx="267.486" cy="24.9304" rx="4.19742" ry="4.18464" transform="rotate(15 267.486 24.9304)" fill="white"/>
</g>
<path opacity="0.6" fill-rule="evenodd" clip-rule="evenodd" d="M256.157 35.0574L271.955 39.2904L266.539 59.5027L254.492 56.2747C252.42 55.7196 251.191 53.5903 251.746 51.5187L256.157 35.0574Z" fill="url(#paint19_linear)"/>
<mask id="mask2" mask-type="alpha" maskUnits="userSpaceOnUse" x="251" y="35" width="21" height="25">
<path fill-rule="evenodd" clip-rule="evenodd" d="M256.157 35.0574L271.955 39.2904L266.539 59.5027L254.492 56.2747C252.42 55.7196 251.191 53.5903 251.746 51.5187L256.157 35.0574Z" fill="white"/>
</mask>
<g mask="url(#mask2)">
<path opacity="0.7" d="M254.424 52.5816C255.213 49.6369 258.24 47.8894 261.185 48.6784C264.13 49.4674 265.877 52.4942 265.088 55.4389L263.342 61.9564L252.678 59.099L254.424 52.5816Z" fill="white"/>
<ellipse cx="261.706" cy="46.5034" rx="4.19742" ry="4.18464" transform="rotate(15 261.706 46.5034)" fill="white"/>
</g>
<path opacity="0.6" fill-rule="evenodd" clip-rule="evenodd" d="M273.21 39.627L289.008 43.86L284.597 60.3213C284.042 62.3929 281.913 63.6223 279.841 63.0672L267.794 59.8392L273.21 39.627Z" fill="url(#paint20_linear)"/>
<mask id="mask3" mask-type="alpha" maskUnits="userSpaceOnUse" x="267" y="39" width="23" height="25">
<path fill-rule="evenodd" clip-rule="evenodd" d="M273.21 39.627L289.008 43.86L284.597 60.3213C284.042 62.3929 281.913 63.6223 279.841 63.0672L267.794 59.8392L273.21 39.627Z" fill="white"/>
</mask>
<g mask="url(#mask3)">
<path opacity="0.7" d="M271.478 57.1511C272.267 54.2065 275.293 52.459 278.238 53.248C281.183 54.037 282.93 57.0638 282.141 60.0085L280.395 66.5259L269.731 63.6686L271.478 57.1511Z" fill="white"/>
<ellipse cx="278.759" cy="51.0728" rx="4.19742" ry="4.18464" transform="rotate(15 278.759 51.0728)" fill="white"/>
</g>
<path opacity="0.325279" fill-rule="evenodd" clip-rule="evenodd" d="M280.176 15.4366C280.639 13.7103 282.413 12.6858 284.139 13.1484L297.975 16.8557C299.702 17.3182 300.726 19.0927 300.264 20.819L295.036 40.3302C294.573 42.0566 292.799 43.081 291.072 42.6185L274.111 38.0736L280.176 15.4366Z" stroke="#7188B0" stroke-width="1.13263" stroke-linecap="round" stroke-linejoin="round" stroke-dasharray="1.29 3.24"/>
<g style="mix-blend-mode:multiply" opacity="0.3">
<path fill-rule="evenodd" clip-rule="evenodd" d="M288.865 23.2932C288.479 23.1896 288.081 23.4191 287.978 23.8058L287.12 27.0068L283.918 26.1489C283.531 26.0453 283.134 26.2748 283.03 26.6615L283.008 26.7433C282.905 27.13 283.134 27.5274 283.521 27.6311L286.723 28.489L285.865 31.6897C285.762 32.0764 285.991 32.4739 286.378 32.5775L286.46 32.5994C286.846 32.703 287.244 32.4735 287.347 32.0868L288.205 28.8861L291.405 29.7435C291.791 29.8471 292.189 29.6177 292.293 29.231L292.314 29.1492C292.418 28.7625 292.189 28.365 291.802 28.2614L288.602 27.404L289.46 24.2029C289.563 23.8162 289.334 23.4188 288.947 23.3151L288.865 23.2932Z" fill="url(#paint21_linear)"/>
<path d="M287.12 27.0068L287.078 27.1631L287.234 27.205L287.276 27.0487L287.12 27.0068ZM286.723 28.489L286.879 28.5309L286.921 28.3746L286.765 28.3327L286.723 28.489ZM285.865 31.6897L286.021 31.7315L285.865 31.6897ZM287.347 32.0868L287.191 32.0449L287.347 32.0868ZM288.205 28.8861L288.247 28.7298L288.091 28.688L288.049 28.8443L288.205 28.8861ZM292.293 29.231L292.136 29.1891L292.293 29.231ZM292.314 29.1492L292.471 29.1911L292.314 29.1492ZM288.602 27.404L288.446 27.3621L288.404 27.5184L288.56 27.5603L288.602 27.404ZM289.46 24.2029L289.303 24.1611L289.46 24.2029ZM288.134 23.8477C288.214 23.5473 288.523 23.369 288.824 23.4495L288.907 23.1369C288.434 23.0102 287.948 23.2909 287.821 23.7639L288.134 23.8477ZM287.276 27.0487L288.134 23.8477L287.821 23.7639L286.964 26.965L287.276 27.0487ZM283.876 26.3052L287.078 27.1631L287.162 26.8506L283.96 25.9926L283.876 26.3052ZM283.187 26.7034C283.267 26.403 283.576 26.2247 283.876 26.3052L283.96 25.9926C283.487 25.8659 283.001 26.1466 282.874 26.6196L283.187 26.7034ZM283.165 26.7851L283.187 26.7034L282.874 26.6196L282.852 26.7014L283.165 26.7851ZM283.563 27.4748C283.262 27.3943 283.084 27.0855 283.165 26.7851L282.852 26.7014C282.725 27.1744 283.006 27.6606 283.479 27.7873L283.563 27.4748ZM286.765 28.3327L283.563 27.4748L283.479 27.7873L286.681 28.6453L286.765 28.3327ZM286.021 31.7315L286.879 28.5309L286.566 28.4471L285.709 31.6478L286.021 31.7315ZM286.42 32.4212C286.119 32.3407 285.941 32.0319 286.021 31.7315L285.709 31.6478C285.582 32.1208 285.863 32.607 286.336 32.7338L286.42 32.4212ZM286.501 32.4431L286.42 32.4212L286.336 32.7338L286.418 32.7557L286.501 32.4431ZM287.191 32.0449C287.111 32.3453 286.802 32.5236 286.501 32.4431L286.418 32.7557C286.891 32.8824 287.377 32.6017 287.504 32.1287L287.191 32.0449ZM288.049 28.8443L287.191 32.0449L287.504 32.1287L288.361 28.928L288.049 28.8443ZM291.447 29.5872L288.247 28.7298L288.163 29.0424L291.363 29.8998L291.447 29.5872ZM292.136 29.1891C292.056 29.4895 291.747 29.6677 291.447 29.5872L291.363 29.8998C291.836 30.0266 292.322 29.7459 292.449 29.2728L292.136 29.1891ZM292.158 29.1073L292.136 29.1891L292.449 29.2728L292.471 29.1911L292.158 29.1073ZM291.76 28.4177C292.06 28.4982 292.239 28.8069 292.158 29.1073L292.471 29.1911C292.598 28.718 292.317 28.2318 291.844 28.1051L291.76 28.4177ZM288.56 27.5603L291.76 28.4177L291.844 28.1051L288.644 27.2477L288.56 27.5603ZM289.303 24.1611L288.446 27.3621L288.758 27.4459L289.616 24.2448L289.303 24.1611ZM288.905 23.4714C289.206 23.5519 289.384 23.8607 289.303 24.1611L289.616 24.2448C289.743 23.7718 289.462 23.2856 288.989 23.1588L288.905 23.4714ZM288.824 23.4495L288.905 23.4714L288.989 23.1588L288.907 23.1369L288.824 23.4495Z" fill="url(#paint22_linear)"/>
</g>
</g>
<g filter="url(#filter0_d)">
<ellipse cx="313.493" cy="23.693" rx="14.5661" ry="14.5646" fill="url(#paint23_linear)"/>
<mask id="mask4" mask-type="alpha" maskUnits="userSpaceOnUse" x="298" y="9" width="31" height="30">
<ellipse cx="313.493" cy="23.693" rx="14.5661" ry="14.5646" fill="white"/>
</mask>
<g mask="url(#mask4)">
<path opacity="0.7" d="M305.912 32.8336C305.912 28.6061 309.339 25.179 313.567 25.179C317.794 25.179 321.221 28.6061 321.221 32.8336V42.2701H305.912V32.8336Z" fill="white"/>
<ellipse cx="313.492" cy="21.9092" rx="5.6481" ry="5.6475" fill="white"/>
</g>
</g>
<path fill-rule="evenodd" clip-rule="evenodd" d="M364.655 89.3009C356.241 80.0487 330.713 48.6905 321.529 37.3722C319.691 35.1058 320.07 31.7797 322.364 29.9754C324.289 28.4609 327.008 28.4845 328.907 30.032L355.467 51.6756C352.874 44.1493 360.934 37.3933 367.891 41.2611L373.513 44.3862C374.715 39.5167 379.681 36.4258 384.29 38.4024C386.499 39.3497 388.516 40.483 389.45 41.7176C389.224 41.1581 389.109 40.5951 389.079 40.0407C388.835 35.5528 394.626 34.0342 398.723 35.8815C400.809 36.822 402.935 38.0572 404.394 39.6018C414.06 49.8322 422.922 65.765 422.922 65.765L438.019 103.139L400.052 127.251L386.916 119.979C386.916 119.979 367.196 112.847 357.304 105.729C351.546 100.87 339.49 87.6549 334.325 81.9196C332.875 80.309 332.682 77.9413 333.83 76.1035C335.262 73.8125 338.273 73.1125 340.565 74.5437C347.437 78.8354 360.822 87.161 364.655 89.3009Z" fill="url(#paint24_linear)"/>
<path fill-rule="evenodd" clip-rule="evenodd" d="M364.655 89.3009C356.241 80.0487 330.713 48.6905 321.529 37.3722C319.691 35.1058 320.07 31.7797 322.364 29.9754C324.289 28.4609 327.008 28.4845 328.907 30.032L355.467 51.6756C352.874 44.1493 360.934 37.3933 367.891 41.2611L373.513 44.3862C374.715 39.5167 379.681 36.4258 384.29 38.4024C386.499 39.3497 388.516 40.483 389.45 41.7176C389.224 41.1581 389.109 40.5951 389.079 40.0407C388.835 35.5528 394.626 34.0342 398.723 35.8815C400.809 36.822 402.935 38.0572 404.394 39.6018C414.06 49.8322 422.922 65.765 422.922 65.765L438.019 103.139L400.052 127.251L386.916 119.979C386.916 119.979 367.196 112.847 357.304 105.729C351.546 100.87 339.49 87.6549 334.325 81.9196C332.875 80.309 332.682 77.9413 333.83 76.1035C335.262 73.8125 338.273 73.1125 340.565 74.5437C347.437 78.8354 360.822 87.161 364.655 89.3009Z" fill="url(#paint25_linear)" fill-opacity="0.69"/>
<mask id="mask5" mask-type="alpha" maskUnits="userSpaceOnUse" x="320" y="28" width="119" height="100">
<path fill-rule="evenodd" clip-rule="evenodd" d="M364.655 89.3009C356.241 80.0487 330.713 48.6905 321.529 37.3722C319.691 35.1058 320.07 31.7797 322.364 29.9754C324.289 28.4609 327.008 28.4845 328.907 30.032L355.467 51.6756C352.874 44.1493 360.934 37.3933 367.891 41.2611L373.513 44.3862C374.715 39.5167 379.681 36.4258 384.29 38.4024C386.499 39.3497 388.516 40.483 389.45 41.7176C389.224 41.1581 389.109 40.5951 389.079 40.0407C388.835 35.5528 394.626 34.0342 398.723 35.8815C400.809 36.822 402.935 38.0572 404.394 39.6018C414.06 49.8322 422.922 65.765 422.922 65.765L438.019 103.139L400.052 127.251L386.916 119.979C386.916 119.979 367.196 112.847 357.304 105.729C351.546 100.87 339.49 87.6549 334.325 81.9196C332.875 80.309 332.682 77.9413 333.83 76.1035C335.262 73.8125 338.273 73.1125 340.565 74.5437C347.437 78.8354 360.822 87.161 364.655 89.3009Z" fill="white"/>
<path fill-rule="evenodd" clip-rule="evenodd" d="M364.655 89.3009C356.241 80.0487 330.713 48.6905 321.529 37.3722C319.691 35.1058 320.07 31.7797 322.364 29.9754C324.289 28.4609 327.008 28.4845 328.907 30.032L355.467 51.6756C352.874 44.1493 360.934 37.3933 367.891 41.2611L373.513 44.3862C374.715 39.5167 379.681 36.4258 384.29 38.4024C386.499 39.3497 388.516 40.483 389.45 41.7176C389.224 41.1581 389.109 40.5951 389.079 40.0407C388.835 35.5528 394.626 34.0342 398.723 35.8815C400.809 36.822 402.935 38.0572 404.394 39.6018C414.06 49.8322 422.922 65.765 422.922 65.765L438.019 103.139L400.052 127.251L386.916 119.979C386.916 119.979 367.196 112.847 357.304 105.729C351.546 100.87 339.49 87.6549 334.325 81.9196C332.875 80.309 332.682 77.9413 333.83 76.1035C335.262 73.8125 338.273 73.1125 340.565 74.5437C347.437 78.8354 360.822 87.161 364.655 89.3009Z" stroke="white"/>
</mask>
<g mask="url(#mask5)">
<g opacity="0.616908">
<path fill-rule="evenodd" clip-rule="evenodd" d="M370.55 93.9465C368.75 94.6735 365.58 95.6485 360.6 92.0106C355.621 88.3728 343.832 77.1505 343.31 75.8585C342.788 74.5666 359.015 85.3757 359.015 85.3757C359.015 85.3757 368.042 91.1021 370.55 93.9465Z" fill="url(#paint26_linear)" style="mix-blend-mode:multiply"/>
</g>
<path fill-rule="evenodd" clip-rule="evenodd" d="M367.676 62.4822C366.504 59.5827 357.343 45.3474 355.018 44.5415C352.694 43.7356 354.076 49.8577 354.076 49.8577C354.076 49.8577 366.499 61.6218 367.676 62.4822Z" fill="url(#paint27_linear)" style="mix-blend-mode:multiply"/>
<path fill-rule="evenodd" clip-rule="evenodd" d="M380.817 51.0551C380.369 49.946 376.194 40.8138 373.789 39.8925C371.383 38.9713 372.337 43.1233 372.337 43.1233C372.337 43.1233 377.062 47.0859 378.475 48.518C380.324 50.3923 380.986 51.4743 380.817 51.0551Z" fill="url(#paint28_linear)" style="mix-blend-mode:multiply"/>
<path fill-rule="evenodd" clip-rule="evenodd" d="M392.111 44.0335C391.843 43.3696 390.914 40.1182 389.246 38.5437C387.579 36.9691 388.701 40.5362 388.701 40.5362C388.701 40.5362 392.379 44.6974 392.111 44.0335Z" fill="url(#paint29_linear)" style="mix-blend-mode:multiply"/>
<g opacity="0.843471">
<path fill-rule="evenodd" clip-rule="evenodd" d="M370.859 93.7451C367.807 89.7726 355.191 72.596 344.864 65.5878C334.537 58.5796 362.105 87.5451 362.105 87.5451C362.105 87.5451 368.774 92.0825 370.859 93.7451Z" fill="url(#paint30_linear)" style="mix-blend-mode:multiply"/>
</g>
<path d="M354.893 50.8213C354.893 50.8213 363.624 58.4446 367.334 62.4705" stroke="url(#paint31_linear)" stroke-width="0.647217" stroke-linecap="round"/>
<path d="M371.808 42.8677C371.808 42.8677 377.602 47.1675 380.508 50.8783" stroke="url(#paint32_linear)" stroke-width="0.647217" stroke-linecap="round"/>
<path d="M383.08 35.9417C383.08 35.9417 388.874 40.2415 391.78 43.9523" stroke="url(#paint33_linear)" stroke-width="0.647217" stroke-linecap="round"/>
<path fill-rule="evenodd" clip-rule="evenodd" d="M324.341 39.1347C322.016 36.3985 320.859 35.6573 320.365 34.4327C319.87 33.2081 319.302 31.4823 320.834 29.7987C322.366 28.1151 325.011 28.3979 326.264 29.3708C327.518 30.3436 329.974 32.0841 330.491 33.3635C331.461 35.7645 326.836 40.6782 324.341 39.1347Z" fill="url(#paint34_linear)"/>
<path d="M362.811 87.929C364.183 88.9792 368.489 91.8683 370.461 93.6747" stroke="url(#paint35_linear)" stroke-width="0.647217" stroke-linecap="round"/>
<g opacity="0.385993">
<path fill-rule="evenodd" clip-rule="evenodd" d="M326.018 41.6631C327.98 44.2658 333.339 51.0283 334.675 51.8477C336.012 52.6671 338.737 52.8896 341.551 50.1924C344.364 47.4953 344.566 44.5977 343.53 43.6772C342.494 42.7567 333.416 34.3875 333.416 34.3875" fill="url(#paint36_linear)" style="mix-blend-mode:multiply"/>
</g>
</g>
<path fill-rule="evenodd" clip-rule="evenodd" d="M338.08 86.0166C339.933 85.5547 341.807 82.9965 341.538 81.9141C341.268 80.8316 337.167 76.7893 336.102 76.016C335.037 75.2427 331.494 77.8773 332.905 80.0084C334.316 82.1395 335.846 83.6734 338.08 86.0166Z" fill="url(#paint37_linear)"/>
<defs>
<filter id="filter0_d" x="298.927" y="9.12842" width="35.119" height="35.116" filterUnits="userSpaceOnUse" color-interpolation-filters="sRGB">
<feFlood flood-opacity="0" result="BackgroundImageFix"/>
<feColorMatrix in="SourceAlpha" type="matrix" values="0 0 0 0 0 0 0 0 0 0 0 0 0 0 0 0 0 0 127 0"/>
<feOffset dx="5.98676" dy="5.98676"/>
<feColorMatrix type="matrix" values="0 0 0 0 0.70262 0 0 0 0 0.555578 0 0 0 0 0.423155 0 0 0 0.320143 0"/>
<feBlend mode="normal" in2="BackgroundImageFix" result="effect1_dropShadow"/>
<feBlend mode="normal" in="SourceGraphic" in2="effect1_dropShadow" result="shape"/>
</filter>
<linearGradient id="paint0_linear" x1="416.422" y1="-8.44615" x2="391.289" y2="20.9081" gradientUnits="userSpaceOnUse">
<stop stop-color="#F1F5FB"/>
<stop offset="1" stop-color="white"/>
</linearGradient>
<linearGradient id="paint1_linear" x1="191.545" y1="146.432" x2="276.909" y2="30.0006" gradientUnits="userSpaceOnUse">
<stop stop-color="#CBDAF1"/>
<stop offset="1" stop-color="#7089B9"/>
</linearGradient>
<linearGradient id="paint2_linear" x1="156.399" y1="70.9858" x2="68.253" y2="-43.3539" gradientUnits="userSpaceOnUse">
<stop stop-color="#CBDAF1"/>
<stop offset="1" stop-color="#7089B9"/>
</linearGradient>
<linearGradient id="paint3_linear" x1="210.495" y1="34.4721" x2="177.243" y2="69.6262" gradientUnits="userSpaceOnUse">
<stop stop-color="#CFDDF3"/>
<stop offset="1" stop-color="#A1B8E3"/>
</linearGradient>
<linearGradient id="paint4_linear" x1="199.786" y1="74.7576" x2="208.249" y2="92.9067" gradientUnits="userSpaceOnUse">
<stop stop-color="#CFDDF3"/>
<stop offset="1" stop-color="#A1B8E3"/>
</linearGradient>
<linearGradient id="paint5_linear" x1="201.454" y1="61.4075" x2="206.52" y2="72.2716" gradientUnits="userSpaceOnUse">
<stop stop-color="#CFDDF3"/>
<stop offset="1" stop-color="#A1B8E3"/>
</linearGradient>
<linearGradient id="paint6_linear" x1="197.447" y1="40.3618" x2="234.082" y2="118.926" gradientUnits="userSpaceOnUse">
<stop stop-color="#CFDDF3"/>
<stop offset="1" stop-color="#A1B8E3"/>
</linearGradient>
<linearGradient id="paint7_linear" x1="40.5332" y1="38.3679" x2="88.2265" y2="46.5457" gradientUnits="userSpaceOnUse">
<stop stop-color="#CFDDF3"/>
<stop offset="1" stop-color="#A1B8E3"/>
</linearGradient>
<linearGradient id="paint8_linear" x1="79.9961" y1="24.9409" x2="90.4062" y2="7.83412" gradientUnits="userSpaceOnUse">
<stop stop-color="#CFDDF3"/>
<stop offset="1" stop-color="#A1B8E3"/>
</linearGradient>
<linearGradient id="paint9_linear" x1="67.9614" y1="30.9556" x2="74.193" y2="20.7154" gradientUnits="userSpaceOnUse">
<stop stop-color="#CFDDF3"/>
<stop offset="1" stop-color="#A1B8E3"/>
</linearGradient>
<linearGradient id="paint10_linear" x1="52.6699" y1="45.9604" x2="97.7338" y2="-28.0921" gradientUnits="userSpaceOnUse">
<stop stop-color="#CFDDF3"/>
<stop offset="1" stop-color="#A1B8E3"/>
</linearGradient>
<linearGradient id="paint11_linear" x1="362.822" y1="-5.99102" x2="324.353" y2="7.34629" gradientUnits="userSpaceOnUse">
<stop stop-color="#47689B"/>
<stop offset="1" stop-color="#223762"/>
</linearGradient>
<linearGradient id="paint12_linear" x1="314.486" y1="-76.8981" x2="194.627" y2="-24.5509" gradientUnits="userSpaceOnUse">
<stop stop-color="#47689B"/>
<stop offset="1" stop-color="#223762"/>
</linearGradient>
<linearGradient id="paint13_linear" x1="285.37" y1="-2.95342" x2="344.51" y2="-2.95342" gradientUnits="userSpaceOnUse">
<stop stop-color="#365383"/>
<stop offset="1" stop-color="#1C2C4C"/>
</linearGradient>
<linearGradient id="paint14_linear" x1="279.077" y1="32.6169" x2="248.605" y2="66.4748" gradientUnits="userSpaceOnUse">
<stop stop-color="white"/>
<stop offset="1" stop-color="#EEF2F9"/>
</linearGradient>
<linearGradient id="paint15_linear" x1="386.107" y1="70.83" x2="385.904" y2="59.5804" gradientUnits="userSpaceOnUse">
<stop stop-color="#CBDAF1"/>
<stop offset="1" stop-color="#7089B9"/>
</linearGradient>
<linearGradient id="paint16_linear" x1="346.49" y1="76.6132" x2="346.209" y2="65.367" gradientUnits="userSpaceOnUse">
<stop stop-color="#CBDAF1"/>
<stop offset="1" stop-color="#7089B9"/>
</linearGradient>
<linearGradient id="paint17_linear" x1="377.107" y1="88.3349" x2="376.897" y2="77.0856" gradientUnits="userSpaceOnUse">
<stop stop-color="#CBDAF1"/>
<stop offset="1" stop-color="#7089B9"/>
</linearGradient>
<linearGradient id="paint18_linear" x1="271.471" y1="9.49908" x2="253.5" y2="23.1974" gradientUnits="userSpaceOnUse">
<stop stop-color="#CBDAF1"/>
<stop offset="1" stop-color="#7089B9"/>
</linearGradient>
<linearGradient id="paint19_linear" x1="265.691" y1="31.0726" x2="247.72" y2="44.7709" gradientUnits="userSpaceOnUse">
<stop stop-color="#CBDAF1"/>
<stop offset="1" stop-color="#7089B9"/>
</linearGradient>
<linearGradient id="paint20_linear" x1="282.744" y1="35.6421" x2="264.773" y2="49.3405" gradientUnits="userSpaceOnUse">
<stop stop-color="#CBDAF1"/>
<stop offset="1" stop-color="#7089B9"/>
</linearGradient>
<linearGradient id="paint21_linear" x1="289.656" y1="20.5013" x2="281.563" y2="28.2837" gradientUnits="userSpaceOnUse">
<stop stop-color="#CBDAF1"/>
<stop offset="1" stop-color="#7089B9"/>
</linearGradient>
<linearGradient id="paint22_linear" x1="289.656" y1="20.5013" x2="281.563" y2="28.2837" gradientUnits="userSpaceOnUse">
<stop stop-color="#CBDAF1"/>
<stop offset="1" stop-color="#7089B9"/>
</linearGradient>
<linearGradient id="paint23_linear" x1="320.082" y1="44.744" x2="335.692" y2="19.8315" gradientUnits="userSpaceOnUse">
<stop stop-color="#FF9D61"/>
<stop offset="1" stop-color="#FFD873"/>
</linearGradient>
<linearGradient id="paint24_linear" x1="309.678" y1="80.966" x2="370.27" y2="69.4187" gradientUnits="userSpaceOnUse">
<stop stop-color="#70B8F9"/>
<stop offset="1" stop-color="#3D82F0"/>
</linearGradient>
<linearGradient id="paint25_linear" x1="368.817" y1="87.2571" x2="393.521" y2="93.2463" gradientUnits="userSpaceOnUse">
<stop stop-color="#3879EE" stop-opacity="0.01"/>
<stop offset="1" stop-color="#0B5DE8"/>
</linearGradient>
<linearGradient id="paint26_linear" x1="343.269" y1="75.7556" x2="353.413" y2="100.869" gradientUnits="userSpaceOnUse">
<stop stop-color="#70B8F9" stop-opacity="0.01"/>
<stop offset="1" stop-color="#3D82F0"/>
</linearGradient>
<linearGradient id="paint27_linear" x1="352.236" y1="45.304" x2="360.368" y2="65.4342" gradientUnits="userSpaceOnUse">
<stop stop-color="#70B8F9" stop-opacity="0.01"/>
<stop offset="1" stop-color="#3D82F0"/>
</linearGradient>
<linearGradient id="paint28_linear" x1="371.226" y1="40.3706" x2="376.316" y2="52.9718" gradientUnits="userSpaceOnUse">
<stop stop-color="#70B8F9" stop-opacity="0.01"/>
<stop offset="1" stop-color="#3D82F0"/>
</linearGradient>
<linearGradient id="paint29_linear" x1="387.805" y1="38.3196" x2="390.426" y2="44.8072" gradientUnits="userSpaceOnUse">
<stop stop-color="#70B8F9" stop-opacity="0.01"/>
<stop offset="1" stop-color="#3D82F0"/>
</linearGradient>
<linearGradient id="paint30_linear" x1="341.95" y1="64.3276" x2="356.221" y2="99.6578" gradientUnits="userSpaceOnUse">
<stop stop-color="#70B8F9" stop-opacity="0.01"/>
<stop offset="1" stop-color="#3D82F0"/>
</linearGradient>
<linearGradient id="paint31_linear" x1="354.893" y1="50.8213" x2="360.684" y2="65.1566" gradientUnits="userSpaceOnUse">
<stop stop-color="#0D73CA"/>
<stop offset="1" stop-color="#063F9A"/>
</linearGradient>
<linearGradient id="paint32_linear" x1="371.808" y1="42.8677" x2="375.81" y2="52.7762" gradientUnits="userSpaceOnUse">
<stop stop-color="#0D73CA"/>
<stop offset="1" stop-color="#063F9A"/>
</linearGradient>
<linearGradient id="paint33_linear" x1="383.08" y1="35.9417" x2="387.082" y2="45.8501" gradientUnits="userSpaceOnUse">
<stop stop-color="#0D73CA"/>
<stop offset="1" stop-color="#063F9A"/>
</linearGradient>
<linearGradient id="paint34_linear" x1="318.689" y1="30.2839" x2="322.888" y2="40.6797" gradientUnits="userSpaceOnUse">
<stop stop-color="#D9E7FA"/>
<stop offset="1" stop-color="#B1CAF2"/>
</linearGradient>
<linearGradient id="paint35_linear" x1="362.811" y1="87.929" x2="365.88" y2="95.5254" gradientUnits="userSpaceOnUse">
<stop stop-color="#0D73CA"/>
<stop offset="1" stop-color="#063F9A"/>
</linearGradient>
<linearGradient id="paint36_linear" x1="329.765" y1="46.7954" x2="337.887" y2="53.2507" gradientUnits="userSpaceOnUse">
<stop stop-color="#70B8F9" stop-opacity="0.01"/>
<stop offset="1" stop-color="#3D82F0" stop-opacity="0.526947"/>
</linearGradient>
<linearGradient id="paint37_linear" x1="331.97" y1="76.741" x2="334.504" y2="86.9079" gradientUnits="userSpaceOnUse">
<stop stop-color="#D9E7FA"/>
<stop offset="1" stop-color="#B1CAF2"/>
</linearGradient>
</defs>
</svg>
