<svg width="201" height="88" viewBox="0 0 201 88" fill="none" xmlns="http://www.w3.org/2000/svg">
<path fill-rule="evenodd" clip-rule="evenodd" d="M86.9109 60.1431C88.5716 55.5452 92.6435 49.8253 92.1117 45.6372C91.5799 41.4492 104.561 34.5502 104.111 37.476C103.662 40.4019 102.87 56.867 106.4 58.455C109.931 60.0431 85.2502 64.7411 86.9109 60.1431Z" fill="url(#paint0_linear)"/>
<path fill-rule="evenodd" clip-rule="evenodd" d="M92.5777 17.4527C88.6002 19.568 83.8674 21.5031 85.1145 31.5172C86.3616 41.5313 86.167 44.0925 90.5986 47.9046C93.5711 47.8921 97.4677 49.077 100.385 45.1588C100.863 44.5168 102.017 38.9358 102.592 38.7678C103.311 38.5578 104.038 38.1349 104.492 36.9597C105.726 33.7634 105.092 30.5209 104.46 29.1814C103.425 26.9904 96.5552 15.3376 92.5777 17.4527Z" fill="url(#paint1_linear)"/>
<path fill-rule="evenodd" clip-rule="evenodd" d="M91.9284 18.5476C88.8367 19.6817 84.0107 21.9442 85.4686 31.8677C86.9265 41.7912 88.8591 45.3807 92.0491 47.3754C95.239 49.3701 88.0749 56.8329 87.6068 59.9524C87.1387 63.0719 83.1342 55.0019 83.1789 51.6492C83.2237 48.2964 83.1783 45.0263 83.1258 38.9413C83.0732 32.8563 81.4517 24.0155 86.6276 19.6053C91.8035 15.195 95.0202 17.4135 91.9284 18.5476Z" fill="url(#paint2_linear)"/>
<path fill-rule="evenodd" clip-rule="evenodd" d="M89.076 19.003C90.1295 19.833 88.8543 21.9197 91.0561 25.6266C93.4194 29.6054 96.2085 31.7382 101.867 30.8207C104.832 30.3397 101.643 40.0851 98.8202 44.5134C95.9976 48.9416 93.8533 56.38 98.0414 62.9589C106.084 62.9253 109.836 58.7411 109.836 58.7411C109.836 58.7411 109.797 49.2717 109.749 37.7186C109.7 26.1655 103.039 19.891 98.7086 17.8483C94.3785 15.8057 87.084 17.4333 89.076 19.003Z" fill="url(#paint3_radial)"/>
<g filter="url(#filter0_i)">
<path fill-rule="evenodd" clip-rule="evenodd" d="M58.8081 46.1879C58.8081 46.1879 71.3303 50.9806 79.037 53.1383C86.7439 55.2958 84.8557 60.3693 91.6662 60.6204C98.4767 60.8714 105.608 61.3609 107.987 55.207C110.367 49.053 119.583 56.8891 118.493 62.0814C118.097 63.9707 116.161 72.4839 115.589 77.864C114.588 87.27 110.557 95.2604 109.896 98.5314C108.856 103.674 78.0141 102.831 78.6207 95.7574C79.424 86.3887 76.1201 70.9967 75.5406 70.3197C74.5235 69.1316 65.5221 66.8042 58.8873 65.1157C58.857 57.8656 58.8081 46.1879 58.8081 46.1879Z" fill="url(#paint4_linear)"/>
</g>
<path fill-rule="evenodd" clip-rule="evenodd" d="M58.5908 65.22C60.5615 65.2118 62.1507 63.1956 62.1253 57.1396C62.1 51.0835 60.4819 46.1809 58.5112 46.1891C56.5405 46.1973 54.9634 51.1134 54.9888 57.1695C55.0141 63.2255 56.6201 65.2282 58.5908 65.22Z" fill="url(#paint5_linear)"/>
<path fill-rule="evenodd" clip-rule="evenodd" d="M62.103 59.669C57.9487 58.7877 46.8511 54.2969 45.7763 54.1754C44.7017 54.0539 37.5978 50.6444 32.6715 48.6936C27.7452 46.7428 22.8758 41.1847 20.3503 40.5427C17.8249 39.9006 17.8958 33.9976 22.4867 35.6609C27.0776 37.3242 32.0325 38.6944 36.0749 39.9791C40.1173 41.2638 43.294 43.4319 47.3446 43.7132C51.3951 43.9945 55.0101 45.2117 59.0267 46.2355C62.0566 48.5706 62.5465 56.2322 62.103 59.669Z" fill="url(#paint6_linear)"/>
<mask id="mask0" mask-type="alpha" maskUnits="userSpaceOnUse" x="18" y="35" width="45" height="25">
<path fill-rule="evenodd" clip-rule="evenodd" d="M62.103 59.669C57.9487 58.7877 46.8511 54.2969 45.7763 54.1754C44.7017 54.0539 37.5978 50.6444 32.6715 48.6936C27.7452 46.7428 22.8758 41.1847 20.3503 40.5427C17.8249 39.9006 17.8958 33.9976 22.4867 35.6609C27.0776 37.3242 32.0325 38.6944 36.0749 39.9791C40.1173 41.2638 43.294 43.4319 47.3446 43.7132C51.3951 43.9945 55.0101 45.2117 59.0267 46.2355C62.0566 48.5706 62.5465 56.2322 62.103 59.669Z" fill="white"/>
</mask>
<g mask="url(#mask0)">
<path fill-rule="evenodd" clip-rule="evenodd" d="M59.1994 46.3053C59.1994 46.3053 57.3964 56.5816 54.8749 58.6623C52.3534 60.743 67.1226 61.7273 67.1226 61.7273L59.1994 46.3053Z" fill="url(#paint7_linear)"/>
</g>
<path fill-rule="evenodd" clip-rule="evenodd" d="M12.181 31.7181C12.181 31.7181 8.78337 32.1758 8.01503 32.6488C7.24668 33.1219 5.19344 35.5541 4.91297 35.9407C4.63252 36.3273 2.81007 38.3438 3.10308 38.8513C3.39612 39.3588 4.59417 39.3737 5.03283 38.4872C5.47145 37.6007 5.81175 37.6105 6.30298 36.9132C6.99169 36.7635 8.88073 35.3539 9.42367 35.2945C9.9666 35.2351 14.5654 36.9204 14.5654 36.9204C14.5654 36.9204 17.139 36.1706 16.1536 34.0667C15.1682 31.9627 12.181 31.7181 12.181 31.7181Z" fill="#90AADB"/>
<path fill-rule="evenodd" clip-rule="evenodd" d="M12.585 37.4253C11.4563 37.5487 8.6068 37.6812 7.86074 37.5057C7.11464 37.3303 5.43089 37.4277 5.55807 38.5909C5.68524 39.7541 7.27782 39.8526 8.12874 39.9569C8.97965 40.0613 10.3035 40.2611 11.4604 40.706C12.6172 41.1509 15.7407 41.4611 17.2306 41.1392C18.7205 40.8174 20.5811 40.9336 21.1609 41.1202C21.7406 41.3068 23.2149 37.1167 22.3722 35.6191C20.1469 35.0898 15.1558 31.6696 14.5503 31.6027C14.186 31.5626 11.9936 33.8731 13.2497 35.3198C14.278 36.5041 13.2572 37.3518 12.585 37.4253Z" fill="#A1B8E3"/>
<path fill-rule="evenodd" clip-rule="evenodd" d="M3.73824 31.1166C1.93831 30.637 0.688813 29.6607 1.27481 28.5656C1.86081 27.4706 2.62213 28.4365 3.47876 28.7433C4.33541 29.0501 8.13152 29.804 9.17569 29.9064C9.67339 29.9551 10.8728 30.3188 12.0403 30.7525C13.3223 31.2288 14.3245 31.0443 14.5584 31.3656C15.0052 31.9794 15.7539 36.1699 13.6231 35.2553C11.4923 34.3408 11.2551 33.5925 9.84533 32.6526C8.43564 31.7127 5.53822 31.5963 3.73824 31.1166Z" fill="#A1B8E3"/>
<path fill-rule="evenodd" clip-rule="evenodd" d="M162.574 27.216C162.583 29.4381 161.657 37.3727 162.626 39.7465C162.955 40.5518 162.333 42.1524 162.639 42.7891C163.77 45.1434 157.343 50.6157 157.343 50.6157L155.451 68.0932L148.637 68.1217C148.637 68.1217 150.104 52.1943 149.36 50.6491C148.616 49.1039 148.546 46.2969 148.535 43.6567C148.524 41.0164 148.502 35.673 150.114 33.2711C151.727 30.8693 162.561 24.1701 162.574 27.216Z" fill="url(#paint8_linear)"/>
<mask id="mask1" mask-type="alpha" maskUnits="userSpaceOnUse" x="148" y="26" width="15" height="43">
<path fill-rule="evenodd" clip-rule="evenodd" d="M162.574 27.216C162.583 29.4381 161.657 37.3727 162.626 39.7465C162.955 40.5518 162.333 42.1524 162.639 42.7891C163.77 45.1434 157.343 50.6157 157.343 50.6157L155.451 68.0932L148.637 68.1217C148.637 68.1217 150.104 52.1943 149.36 50.6491C148.616 49.1039 148.546 46.2969 148.535 43.6567C148.524 41.0164 148.502 35.673 150.114 33.2711C151.727 30.8693 162.561 24.1701 162.574 27.216Z" fill="white"/>
</mask>
<g mask="url(#mask1)">
<g opacity="0.153292">
<path fill-rule="evenodd" clip-rule="evenodd" d="M151.495 38.7298C152.075 38.9573 152.634 39.1694 153.172 39.3665C163.375 43.103 166.225 41.489 166.213 38.6682C166.201 35.6985 162.562 21.7706 162.562 21.7706C162.562 21.7706 139.924 34.1895 151.495 38.7298Z" fill="url(#paint9_linear)" style="mix-blend-mode:multiply"/>
</g>
</g>
<path fill-rule="evenodd" clip-rule="evenodd" d="M145.559 5.19977C144.159 8.81345 142.657 10.645 143.383 15.1751C144.11 19.7052 143.427 19.3273 143.007 21.7885C142.587 24.2496 142.049 26.2809 143.268 30.9965C144.487 35.7121 145.244 39.0091 149.105 38.9777C152.966 38.9463 157.937 38.0875 159.564 35.1723C160.22 33.9953 160.485 33.3479 160.944 31.5059C161.266 30.2104 161.516 29.3205 161.508 27.4679C162.355 29.5085 164.113 28.4102 164.243 28.303C165.277 27.4533 166.2 25.5117 166.281 23.683C166.446 20.018 165.202 11.5368 161.002 10.1519C156.802 8.76707 146.96 1.58606 145.559 5.19977Z" fill="url(#paint10_linear)"/>
<path fill-rule="evenodd" clip-rule="evenodd" d="M147.156 44.58C147.156 44.58 141.644 48.993 140.274 49.3677C138.904 49.7425 130.002 53.4798 129.481 54.6161C128.96 55.7523 126.214 60.0489 126.311 61.2054C126.408 62.362 130.112 87.8316 129.67 99.8623C129.228 111.893 129.714 110.255 129.725 113.092C129.737 115.929 127.666 119.819 128.719 121.949C129.771 124.079 131.567 124.573 134.302 125.172C137.037 125.771 139.011 126.475 142.893 125.136C146.775 123.797 148.964 126.799 155.387 125.928C161.81 125.057 167.34 127.697 172.15 121.211C173.934 122.349 174.852 121.589 177.685 119.984C180.518 118.378 180.277 112.703 179.417 110.738C178.558 108.773 174.734 106.723 176.163 102.334C177.593 97.9452 179.303 83.3213 179.275 76.7245C179.247 70.1275 183.078 58.2138 184.266 54.3869C180.812 51.8119 165.844 43.6332 162.996 42.7865C161.896 45.7603 156.496 47.2752 155.602 46.4874C154.708 45.6998 155.263 52.0739 155.263 52.0739C155.263 52.0739 154.203 54.5127 153.212 57.0721C152.221 59.6316 149.926 63.6444 149.937 66.3997C147.817 64.2829 150.359 58.1436 149.893 55.7707C149.356 53.0413 150.396 50.4563 151.538 46.866C149.854 46.4779 149.709 47.1522 149.184 46.4397C147.814 44.5773 147.156 44.58 147.156 44.58Z" fill="url(#paint11_linear)"/>
<path fill-rule="evenodd" clip-rule="evenodd" d="M147.156 44.58C147.156 44.58 141.644 48.993 140.274 49.3677C138.904 49.7425 130.002 53.4798 129.481 54.6161C128.96 55.7523 126.214 60.0489 126.311 61.2054C126.408 62.362 130.112 87.8316 129.67 99.8623C129.228 111.893 129.714 110.255 129.725 113.092C129.737 115.929 127.666 119.819 128.719 121.949C129.771 124.079 131.567 124.573 134.302 125.172C137.037 125.771 139.011 126.475 142.893 125.136C146.775 123.797 148.964 126.799 155.387 125.928C161.81 125.057 167.34 127.697 172.15 121.211C173.934 122.349 174.852 121.589 177.685 119.984C180.518 118.378 180.277 112.703 179.417 110.738C178.558 108.773 174.734 106.723 176.163 102.334C177.593 97.9452 179.303 83.3213 179.275 76.7245C179.247 70.1275 183.078 58.2138 184.266 54.3869C180.812 51.8119 165.844 43.6332 162.996 42.7865C161.896 45.7603 156.496 47.2752 155.602 46.4874C154.708 45.6998 155.263 52.0739 155.263 52.0739C155.263 52.0739 154.203 54.5127 153.212 57.0721C152.221 59.6316 149.926 63.6444 149.937 66.3997C147.817 64.2829 150.359 58.1436 149.893 55.7707C149.356 53.0413 150.396 50.4563 151.538 46.866C149.854 46.4779 149.709 47.1522 149.184 46.4397C147.814 44.5773 147.156 44.58 147.156 44.58Z" fill="url(#paint12_linear)"/>
<path fill-rule="evenodd" clip-rule="evenodd" d="M147.156 44.58C147.156 44.58 141.644 48.993 140.274 49.3677C138.904 49.7425 130.002 53.4798 129.481 54.6161C128.96 55.7523 126.214 60.0489 126.311 61.2054C126.408 62.362 130.112 87.8316 129.67 99.8623C129.228 111.893 129.714 110.255 129.725 113.092C129.737 115.929 127.666 119.819 128.719 121.949C129.771 124.079 131.567 124.573 134.302 125.172C137.037 125.771 139.011 126.475 142.893 125.136C146.775 123.797 148.964 126.799 155.387 125.928C161.81 125.057 167.34 127.697 172.15 121.211C173.934 122.349 174.852 121.589 177.685 119.984C180.518 118.378 180.277 112.703 179.417 110.738C178.558 108.773 174.734 106.723 176.163 102.334C177.593 97.9452 179.303 83.3213 179.275 76.7245C179.247 70.1275 183.078 58.2138 184.266 54.3869C180.812 51.8119 165.844 43.6332 162.996 42.7865C161.896 45.7603 156.496 47.2752 155.602 46.4874C154.708 45.6998 155.263 52.0739 155.263 52.0739C155.263 52.0739 154.203 54.5127 153.212 57.0721C152.221 59.6316 149.926 63.6444 149.937 66.3997C147.817 64.2829 150.359 58.1436 149.893 55.7707C149.356 53.0413 150.396 50.4563 151.538 46.866C149.854 46.4779 149.709 47.1522 149.184 46.4397C147.814 44.5773 147.156 44.58 147.156 44.58Z" fill="url(#paint13_linear)"/>
<mask id="mask2" mask-type="alpha" maskUnits="userSpaceOnUse" x="126" y="42" width="59" height="85">
<path fill-rule="evenodd" clip-rule="evenodd" d="M147.156 44.58C147.156 44.58 141.644 48.993 140.274 49.3677C138.904 49.7425 130.002 53.4798 129.481 54.6161C128.96 55.7523 126.214 60.0489 126.311 61.2054C126.408 62.362 130.112 87.8316 129.67 99.8623C129.228 111.893 129.714 110.255 129.725 113.092C129.737 115.929 127.666 119.819 128.719 121.949C129.771 124.079 131.567 124.573 134.302 125.172C137.037 125.771 139.011 126.475 142.893 125.136C146.775 123.797 148.964 126.799 155.387 125.928C161.81 125.057 167.34 127.697 172.15 121.211C173.934 122.349 174.852 121.589 177.685 119.984C180.518 118.378 180.277 112.703 179.417 110.738C178.558 108.773 174.734 106.723 176.163 102.334C177.593 97.9452 179.303 83.3213 179.275 76.7245C179.247 70.1275 183.078 58.2138 184.266 54.3869C180.812 51.8119 165.844 43.6332 162.996 42.7865C161.896 45.7603 156.496 47.2752 155.602 46.4874C154.708 45.6998 155.263 52.0739 155.263 52.0739C155.263 52.0739 154.203 54.5127 153.212 57.0721C152.221 59.6316 149.926 63.6444 149.937 66.3997C147.817 64.2829 150.359 58.1436 149.893 55.7707C149.356 53.0413 150.396 50.4563 151.538 46.866C149.854 46.4779 149.709 47.1522 149.184 46.4397C147.814 44.5773 147.156 44.58 147.156 44.58Z" fill="white"/>
<path fill-rule="evenodd" clip-rule="evenodd" d="M147.156 44.58C147.156 44.58 141.644 48.993 140.274 49.3677C138.904 49.7425 130.002 53.4798 129.481 54.6161C128.96 55.7523 126.214 60.0489 126.311 61.2054C126.408 62.362 130.112 87.8316 129.67 99.8623C129.228 111.893 129.714 110.255 129.725 113.092C129.737 115.929 127.666 119.819 128.719 121.949C129.771 124.079 131.567 124.573 134.302 125.172C137.037 125.771 139.011 126.475 142.893 125.136C146.775 123.797 148.964 126.799 155.387 125.928C161.81 125.057 167.34 127.697 172.15 121.211C173.934 122.349 174.852 121.589 177.685 119.984C180.518 118.378 180.277 112.703 179.417 110.738C178.558 108.773 174.734 106.723 176.163 102.334C177.593 97.9452 179.303 83.3213 179.275 76.7245C179.247 70.1275 183.078 58.2138 184.266 54.3869C180.812 51.8119 165.844 43.6332 162.996 42.7865C161.896 45.7603 156.496 47.2752 155.602 46.4874C154.708 45.6998 155.263 52.0739 155.263 52.0739C155.263 52.0739 154.203 54.5127 153.212 57.0721C152.221 59.6316 149.926 63.6444 149.937 66.3997C147.817 64.2829 150.359 58.1436 149.893 55.7707C149.356 53.0413 150.396 50.4563 151.538 46.866C149.854 46.4779 149.709 47.1522 149.184 46.4397C147.814 44.5773 147.156 44.58 147.156 44.58Z" stroke="white"/>
</mask>
<g mask="url(#mask2)">
<g opacity="0.2">
<mask id="path-19-outside-1" maskUnits="userSpaceOnUse" x="144.291" y="69.0034" width="7.23425" height="56.0288" fill="black">
<rect fill="white" x="144.291" y="69.0034" width="7.23425" height="56.0288"/>
<path fill-rule="evenodd" clip-rule="evenodd" d="M147.687 124.625C146.181 120.171 145.191 96.6837 146.645 88.9462C148.1 81.2086 149.545 71.3896 149.239 69.3093"/>
</mask>
<path d="M146.645 88.9462L147.814 89.1659L147.814 89.1659L146.645 88.9462ZM148.814 124.244C148.488 123.282 148.152 121.116 147.868 118.146C147.589 115.227 147.371 111.656 147.245 107.976C146.991 100.571 147.115 92.8886 147.814 89.1659L145.476 88.7264C144.722 92.7413 144.614 100.671 144.867 108.058C144.995 111.774 145.216 115.394 145.5 118.373C145.78 121.301 146.132 123.741 146.56 125.006L148.814 124.244ZM147.814 89.1659C148.545 85.2807 149.273 80.872 149.781 77.1679C150.035 75.3168 150.235 73.631 150.353 72.2695C150.466 70.9565 150.516 69.8155 150.416 69.1362L148.063 69.4825C148.116 69.8433 148.1 70.7097 147.983 72.0647C147.87 73.3712 147.675 75.0137 147.424 76.8446C146.922 80.5045 146.2 84.8741 145.476 88.7264L147.814 89.1659Z" fill="#6FA7FF" mask="url(#path-19-outside-1)"/>
</g>
<path fill-rule="evenodd" clip-rule="evenodd" d="M176.943 125.503C168.237 107.632 171.976 81.693 176.292 77.6079C180.609 73.5228 190.439 116.49 187.295 120.31C184.151 124.129 185.65 143.374 176.943 125.503Z" fill="url(#paint14_linear)" style="mix-blend-mode:multiply"/>
<path fill-rule="evenodd" clip-rule="evenodd" d="M146.418 53.9603C148.4 52.0241 151.716 49.5219 151.716 49.5219L151.697 45.1348L147.792 48.3198C147.792 48.3198 144.436 55.8965 146.418 53.9603Z" fill="url(#paint15_linear)" style="mix-blend-mode:multiply"/>
<path fill-rule="evenodd" clip-rule="evenodd" d="M154.626 52.0916C155.709 52.7726 158.927 52.8684 158.927 52.8684C158.927 52.8684 156.172 44.0676 154.596 44.7755C153.02 45.4835 153.544 51.4106 154.626 52.0916Z" fill="url(#paint16_linear)" style="mix-blend-mode:multiply"/>
</g>
<path fill-rule="evenodd" clip-rule="evenodd" d="M156.951 71.3581C159.272 71.3484 167.864 72.7205 171.259 71.2983C171.29 78.6314 170.613 84.9187 170.266 87.8921C167.518 90.5419 163.225 90.9579 163.225 90.9579L156.413 87.2215C156.413 87.2215 155.671 81.6318 156.951 71.3581Z" fill="white"/>
<path fill-rule="evenodd" clip-rule="evenodd" d="M159.878 56.181C157.743 55.0749 157.297 47.959 155.388 46.9588C153.48 45.9587 161.29 44.5055 162.236 37.4373C163.215 37.4332 164.972 42.0097 166.678 44.6004C166.496 48.567 160.806 51.5699 159.878 56.181Z" fill="white"/>
<path fill-rule="evenodd" clip-rule="evenodd" d="M148.49 38.9812C148.497 40.777 147.56 45.8151 151.225 46.9377C149.83 47.1706 148.696 47.9833 148.112 49.2099C147.333 50.8491 146.418 54.1373 145.303 55.3495C145.291 52.5523 144.622 47.028 145.259 44.9064C145.896 42.7849 147.966 40.1238 148.49 38.9812Z" fill="white"/>
<g filter="url(#filter1_i)">
<path fill-rule="evenodd" clip-rule="evenodd" d="M180.344 92.6978C175.932 78.1705 174.068 67.8042 174.211 64.2094C174.354 60.6147 178.552 53.6059 183.337 54.0202C188.122 54.4344 189.172 63.243 190.184 67.9724C191.195 72.7019 198.62 96.9916 199.005 100.415C199.39 103.838 196.167 109.332 192.023 109.824C187.878 110.315 184.756 107.225 180.344 92.6978Z" fill="url(#paint17_linear)"/>
<path fill-rule="evenodd" clip-rule="evenodd" d="M180.344 92.6978C175.932 78.1705 174.068 67.8042 174.211 64.2094C174.354 60.6147 178.552 53.6059 183.337 54.0202C188.122 54.4344 189.172 63.243 190.184 67.9724C191.195 72.7019 198.62 96.9916 199.005 100.415C199.39 103.838 196.167 109.332 192.023 109.824C187.878 110.315 184.756 107.225 180.344 92.6978Z" fill="url(#paint18_linear)"/>
</g>
<path fill-rule="evenodd" clip-rule="evenodd" d="M121.489 109.069C121.461 102.329 123.946 73.1125 126.333 61.1033C126.676 59.3754 127.272 58.9893 127.588 58.0051C130.127 67.4613 131.068 108.757 130.364 111.237C129.659 113.717 125.468 111.258 121.489 109.069Z" fill="url(#paint19_linear)"/>
<path fill-rule="evenodd" clip-rule="evenodd" d="M145.492 10.6089C144.061 11.1119 143.303 15.4831 143.56 18.7815C142.75 16.9208 141.901 9.35698 144.6 5.26962C147.3 1.18223 146.923 10.106 145.492 10.6089Z" fill="#143B8C"/>
<path fill-rule="evenodd" clip-rule="evenodd" d="M146.89 3.4705C141.557 6.95966 144.007 11.5089 149.491 12.2549C154.975 13.0009 155.568 13.2025 158.931 12.2154C159.694 14.6692 157.364 17.0211 158.959 18.8142C160.237 20.2451 160.628 20.7792 160.711 22.4049C160.793 24.0305 161.406 24.3562 161.406 24.3562C161.406 24.3562 161.459 19.8323 162.923 19.6877C164.387 19.5432 165.522 20.4687 166.342 22.3813C166.578 22.9319 166.263 21.8018 166.335 20.7444C166.405 19.7142 166.864 18.7826 166.857 17.3342C166.847 14.7157 165.406 11.7012 163.878 9.87908C160.34 5.65775 150.669 2.51185 146.89 3.4705Z" fill="url(#paint20_linear)"/>
<path fill-rule="evenodd" clip-rule="evenodd" d="M81.4849 55.4086C90.2385 60.9411 98.971 64.9214 110.514 61.6642C122.057 58.4071 126.379 60.545 133.296 62.2751C140.212 64.0053 145.447 67.353 166.596 53.1231C166.029 66.9736 164.072 91.2577 166.232 96.3292C160.983 99.6885 153.089 109.914 145.254 109.855C137.419 109.797 133.296 102.498 120.56 104.32C107.824 106.142 108.22 111.172 99.9725 109.336C91.7252 107.5 81.5901 99.1751 80.2552 98.1562C80.0827 95.1104 82.0378 65.1766 81.4849 55.4086Z" fill="url(#paint21_linear)"/>
<mask id="mask3" mask-type="alpha" maskUnits="userSpaceOnUse" x="80" y="53" width="87" height="57">
<path fill-rule="evenodd" clip-rule="evenodd" d="M81.4849 55.4086C90.2385 60.9411 98.971 64.9214 110.514 61.6642C122.057 58.4071 126.379 60.545 133.296 62.2751C140.212 64.0053 145.447 67.353 166.596 53.1231C166.029 66.9736 164.072 91.2577 166.232 96.3292C160.983 99.6885 153.089 109.914 145.254 109.855C137.419 109.797 133.296 102.498 120.56 104.32C107.824 106.142 108.22 111.172 99.9725 109.336C91.7252 107.5 81.5901 99.1751 80.2552 98.1562C80.0827 95.1104 82.0378 65.1766 81.4849 55.4086Z" fill="white"/>
</mask>
<g mask="url(#mask3)">
<g style="mix-blend-mode:multiply" opacity="0.269085">
<path fill-rule="evenodd" clip-rule="evenodd" d="M104.285 57.899L122.712 55.6187C122.712 55.6187 122.748 64.2411 122.836 85.0684C122.923 105.896 122.997 123.538 122.997 123.538L102.311 123.625C102.311 123.625 101.724 103.5 102.165 88.8066C102.607 74.1135 104.285 57.899 104.285 57.899Z" fill="url(#paint22_linear)"/>
</g>
<g style="mix-blend-mode:multiply" opacity="0.269085">
<path fill-rule="evenodd" clip-rule="evenodd" d="M122.722 57.8216L140.554 55.5438C140.554 55.5438 140.59 64.1661 140.678 84.9935C140.765 105.821 140.839 123.463 140.839 123.463L123.393 123.536C123.393 123.536 122.931 107.763 122.867 92.4897C122.803 77.2169 122.722 57.8216 122.722 57.8216Z" fill="url(#paint23_linear)"/>
</g>
</g>
<path fill-rule="evenodd" clip-rule="evenodd" d="M162.984 87.4576C165.424 87.2313 165.36 85.2089 165.443 85.7868C165.527 86.3648 171.217 90.1343 171.217 90.1343C171.217 90.1343 172.27 100.292 169.95 102.019C167.631 103.747 164.646 100.049 162.645 100.451C161.798 100.622 159.613 100.714 157.435 100.205C156.704 100.035 154.268 99.352 153.818 99.0014C153.253 98.5616 152.963 98.0076 153.603 97.4533C153.858 97.2329 157.012 98.0755 157.763 98.2221C159.911 98.6412 161.682 98.0944 161.619 97.9559C161.517 97.731 159.918 97.9196 157.76 97.4359C157.003 97.2662 155.437 96.9687 154.679 96.7477C153.002 96.2583 151.572 95.5255 151.44 95.398C151.083 95.0535 150.826 94.5273 151.493 94.0149C151.776 93.7978 152.483 94.0108 154.499 94.3263C155.374 94.4632 157.142 94.9029 157.929 95.0248C159.613 95.2857 160.888 94.5604 160.879 94.4133C160.87 94.2666 159.722 94.6153 158.067 94.3114C157.183 94.1489 155.484 93.9589 154.501 93.7864C151.897 93.33 150.497 92.4113 150.297 92.2616C149.929 91.987 149.845 91.0322 150.29 90.7543C150.548 90.5933 151.832 90.9034 154.459 91.3247C155.41 91.4773 157.228 91.7612 158.056 91.7577C159.71 91.7508 160.758 91.3757 160.757 91.2984C160.757 91.1731 157.584 90.8365 155.031 90.3361C152.471 89.8343 152.243 89.302 152.067 89.0965C151.828 88.8157 151.748 87.7814 152.573 87.7779C153.78 87.7729 154.275 87.9264 155.418 88.0743C156.229 88.1792 158.171 88.2539 158.947 88.2506C160.486 88.2442 162.189 87.5313 162.984 87.4576Z" fill="url(#paint24_linear)"/>
<defs>
<filter id="filter0_i" x="58.8086" y="43.5117" width="59.7744" height="58.314" filterUnits="userSpaceOnUse" color-interpolation-filters="sRGB">
<feFlood flood-opacity="0" result="BackgroundImageFix"/>
<feBlend mode="normal" in="SourceGraphic" in2="BackgroundImageFix" result="shape"/>
<feColorMatrix in="SourceAlpha" type="matrix" values="0 0 0 0 0 0 0 0 0 0 0 0 0 0 0 0 0 0 127 0" result="hardAlpha"/>
<feOffset dy="-2.67624"/>
<feGaussianBlur stdDeviation="1.63548"/>
<feComposite in2="hardAlpha" operator="arithmetic" k2="-1" k3="1"/>
<feColorMatrix type="matrix" values="0 0 0 0 0.818241 0 0 0 0 0.879823 0 0 0 0 0.96604 0 0 0 1 0"/>
<feBlend mode="normal" in2="shape" result="effect1_innerShadow"/>
</filter>
<filter id="filter1_i" x="172.122" y="54.0027" width="26.9147" height="56.7615" filterUnits="userSpaceOnUse" color-interpolation-filters="sRGB">
<feFlood flood-opacity="0" result="BackgroundImageFix"/>
<feBlend mode="normal" in="SourceGraphic" in2="BackgroundImageFix" result="shape"/>
<feColorMatrix in="SourceAlpha" type="matrix" values="0 0 0 0 0 0 0 0 0 0 0 0 0 0 0 0 0 0 127 0" result="hardAlpha"/>
<feOffset dx="-2.37888" dy="0.892081"/>
<feGaussianBlur stdDeviation="1.04076"/>
<feComposite in2="hardAlpha" operator="arithmetic" k2="-1" k3="1"/>
<feColorMatrix type="matrix" values="0 0 0 0 0.631373 0 0 0 0 0.721569 0 0 0 0 0.890196 0 0 0 0.137483 0"/>
<feBlend mode="normal" in2="shape" result="effect1_innerShadow"/>
</filter>
<linearGradient id="paint0_linear" x1="93.9866" y1="47.5513" x2="94.022" y2="56.0032" gradientUnits="userSpaceOnUse">
<stop stop-color="#6886B3"/>
<stop offset="1" stop-color="#90AADB"/>
</linearGradient>
<linearGradient id="paint1_linear" x1="78.071" y1="38.3867" x2="91.644" y2="41.2086" gradientUnits="userSpaceOnUse">
<stop stop-color="#CFDDF3"/>
<stop offset="1" stop-color="#A1B8E3"/>
</linearGradient>
<linearGradient id="paint2_linear" x1="94.0657" y1="34.799" x2="84.7665" y2="34.5164" gradientUnits="userSpaceOnUse">
<stop stop-color="#072246"/>
<stop offset="1" stop-color="#143B8C"/>
</linearGradient>
<radialGradient id="paint3_radial" cx="0" cy="0" r="1" gradientUnits="userSpaceOnUse" gradientTransform="translate(86.6605 21.1269) rotate(-12.1774) scale(12.0054 50.1748)">
<stop stop-color="#2D6DC0"/>
<stop offset="1" stop-color="#143B8C"/>
</radialGradient>
<linearGradient id="paint4_linear" x1="59.5879" y1="49.7801" x2="59.6699" y2="69.3854" gradientUnits="userSpaceOnUse">
<stop stop-color="#F4F8FF"/>
<stop offset="1" stop-color="#E5EFFD"/>
</linearGradient>
<linearGradient id="paint5_linear" x1="56.3945" y1="55.5649" x2="56.4362" y2="65.5264" gradientUnits="userSpaceOnUse">
<stop stop-color="#18407E"/>
<stop offset="1" stop-color="#90AADB"/>
</linearGradient>
<linearGradient id="paint6_linear" x1="48.1429" y1="63.1812" x2="51.8304" y2="44.7644" gradientUnits="userSpaceOnUse">
<stop stop-color="#577FBE"/>
<stop offset="1" stop-color="#B1C9F7"/>
</linearGradient>
<linearGradient id="paint7_linear" x1="54.4531" y1="46.3252" x2="54.5178" y2="61.78" gradientUnits="userSpaceOnUse">
<stop stop-color="#A9C4E5"/>
<stop offset="1" stop-color="#7192C7"/>
</linearGradient>
<linearGradient id="paint8_linear" x1="156.635" y1="32.6921" x2="150.501" y2="36.1751" gradientUnits="userSpaceOnUse">
<stop stop-color="#6886B3"/>
<stop offset="1" stop-color="#90AADB"/>
</linearGradient>
<linearGradient id="paint9_linear" x1="147.527" y1="21.8335" x2="147.61" y2="41.6122" gradientUnits="userSpaceOnUse">
<stop stop-color="#A9C4E5"/>
<stop offset="1" stop-color="#7192C7"/>
</linearGradient>
<linearGradient id="paint10_linear" x1="135.599" y1="27.183" x2="150.76" y2="30.3814" gradientUnits="userSpaceOnUse">
<stop stop-color="#CFDDF3"/>
<stop offset="1" stop-color="#A1B8E3"/>
</linearGradient>
<linearGradient id="paint11_linear" x1="186.925" y1="122.851" x2="179.608" y2="59.4971" gradientUnits="userSpaceOnUse">
<stop stop-color="#F4F8FF"/>
<stop offset="1" stop-color="#C3D8F5"/>
</linearGradient>
<linearGradient id="paint12_linear" x1="147.229" y1="99.6939" x2="123.841" y2="106.204" gradientUnits="userSpaceOnUse">
<stop stop-color="white" stop-opacity="0.5"/>
<stop offset="1" stop-color="#AFC3E5"/>
</linearGradient>
<linearGradient id="paint13_linear" x1="143.99" y1="68.1554" x2="124.334" y2="52.0526" gradientUnits="userSpaceOnUse">
<stop stop-color="white" stop-opacity="0.01"/>
<stop offset="1" stop-color="#A1B8E3"/>
</linearGradient>
<linearGradient id="paint14_linear" x1="167.874" y1="155.745" x2="186.433" y2="155.165" gradientUnits="userSpaceOnUse">
<stop stop-color="#EAF0F7" stop-opacity="0.115546"/>
<stop offset="1" stop-color="#D1DDED"/>
</linearGradient>
<linearGradient id="paint15_linear" x1="144.19" y1="58.1094" x2="151.118" y2="57.6548" gradientUnits="userSpaceOnUse">
<stop stop-color="#EAF0F7" stop-opacity="0.115546"/>
<stop offset="1" stop-color="#D1DDED"/>
</linearGradient>
<linearGradient id="paint16_linear" x1="152.317" y1="56.2234" x2="158.386" y2="55.83" gradientUnits="userSpaceOnUse">
<stop stop-color="#EAF0F7" stop-opacity="0.115546"/>
<stop offset="1" stop-color="#D1DDED"/>
</linearGradient>
<linearGradient id="paint17_linear" x1="178.405" y1="102.078" x2="197.658" y2="96.6113" gradientUnits="userSpaceOnUse">
<stop stop-color="#E2E9F4"/>
<stop offset="1" stop-color="#E5EFFD"/>
</linearGradient>
<linearGradient id="paint18_linear" x1="179.47" y1="63.9051" x2="165.364" y2="66.3899" gradientUnits="userSpaceOnUse">
<stop stop-color="white" stop-opacity="0.01"/>
<stop offset="1" stop-color="white"/>
</linearGradient>
<linearGradient id="paint19_linear" x1="121.275" y1="58.0315" x2="121.502" y2="112.307" gradientUnits="userSpaceOnUse">
<stop stop-color="#B5CCEF"/>
<stop offset="1" stop-color="#E5EFFD"/>
</linearGradient>
<linearGradient id="paint20_linear" x1="153.276" y1="18.2899" x2="157.543" y2="10.1939" gradientUnits="userSpaceOnUse">
<stop stop-color="#2D6DC0"/>
<stop offset="1" stop-color="#143B8C"/>
</linearGradient>
<linearGradient id="paint21_linear" x1="173.844" y1="90.7971" x2="162.307" y2="77.3248" gradientUnits="userSpaceOnUse">
<stop stop-color="#FF7F31"/>
<stop offset="1" stop-color="#FFD25F"/>
</linearGradient>
<linearGradient id="paint22_linear" x1="111.073" y1="141.198" x2="133.504" y2="139.106" gradientUnits="userSpaceOnUse">
<stop stop-color="#FF7F31"/>
<stop offset="1" stop-color="#FFD25F"/>
</linearGradient>
<linearGradient id="paint23_linear" x1="146.721" y1="91.8821" x2="124.35" y2="84.0636" gradientUnits="userSpaceOnUse">
<stop stop-color="#FF7F31"/>
<stop offset="1" stop-color="#FFC83A"/>
</linearGradient>
<linearGradient id="paint24_linear" x1="172.513" y1="107.809" x2="172.446" y2="91.7585" gradientUnits="userSpaceOnUse">
<stop stop-color="#577FBE"/>
<stop offset="1" stop-color="#A1B8E3"/>
</linearGradient>
</defs>
</svg>
