<svg width="554" height="185" viewBox="0 0 554 185" fill="none" xmlns="http://www.w3.org/2000/svg">
<path d="M552.253 66.5699H546.407C545.811 66.5699 545.572 66.3537 545.572 66.2671C545.572 66.0509 546.169 65.9644 546.407 65.9644H552.253C552.849 65.9644 553.088 66.1806 553.088 66.2671C553.088 66.4834 552.73 66.5699 552.253 66.5699Z" fill="#2D5887"/>
<path d="M543.067 66.5699H542.829C542.232 66.5699 541.994 66.3537 541.994 66.2671C541.994 66.0509 542.59 65.9644 542.829 65.9644H543.067C543.664 65.9644 543.902 66.1806 543.902 66.2671C543.902 66.4834 543.664 66.5699 543.067 66.5699Z" fill="#2D5887"/>
<path d="M155.44 174.206L9.62755 129.702C8.77151 129.441 8.37608 128.692 8.63898 127.831C8.90188 126.97 9.64784 126.569 10.5039 126.831L156.173 171.291C157.029 171.552 157.425 172.301 157.162 173.162C156.899 174.023 156.153 174.424 155.44 174.206Z" fill="#EBF0F6"/>
<path d="M115.182 158.937C104.251 155.914 91.3556 151.665 82.2684 148.734C73.0496 146.234 60.0226 142.415 49.267 138.819C61.8516 135.911 69.0226 125.702 71.8718 118.411L107.683 129.341C106.118 137.024 106.322 149.641 115.182 158.937Z" fill="url(#paint0_linear)"/>
<path d="M186.483 49.5025L157.827 143.391C157.126 145.688 154.745 146.844 152.605 146.191L25.7684 107.479C23.6283 106.826 22.3432 104.393 23.0005 102.24L51.6564 8.35171C52.3137 6.19831 54.7381 4.89813 56.8782 5.55131L183.715 44.2636C185.997 44.9603 187.14 47.3491 186.483 49.5025Z" fill="#F5F8FF"/>
<path d="M186.483 49.5025L161.814 130.327L26.9878 89.176L51.6564 8.35171C52.3137 6.19831 54.7381 4.89813 56.8782 5.55131L183.715 44.2636C185.997 44.9603 187.14 47.3491 186.483 49.5025Z" fill="#172D45"/>
<path d="M181.039 48.9397L55.915 10.75L32.9552 85.9754L158.08 124.165L181.039 48.9397Z" fill="white"/>
<path d="M90.4183 122.032C92.2306 122.585 94.1509 121.555 94.7075 119.732C95.2641 117.908 94.2461 115.981 92.4338 115.428C90.6215 114.875 88.7011 115.905 88.1446 117.729C87.588 119.552 88.606 121.479 90.4183 122.032Z" fill="#DBDFE6"/>
<path opacity="0.4" d="M88.8681 54.5483L51.6304 43.1829L40.3257 80.2213L77.5634 91.5868L88.8681 54.5483Z" fill="#234569"/>
<path d="M85.5552 56.2049L53.311 46.3635L43.4961 78.521L75.7403 88.3623L85.5552 56.2049Z" fill="white"/>
<path d="M64.4395 49.7601L45.9937 70.338L49.5866 58.5661L59.018 48.1054L64.4395 49.7601Z" fill="#EAEEF9"/>
<path d="M81.846 55.0727L57.1931 82.7013L52.0569 81.1337L51.8153 80.903L76.4244 53.4179L81.846 55.0727Z" fill="#EAEEF9"/>
<path d="M85.1609 57.4969L61.473 84.0077L58.7623 83.1804L83.4152 55.5517L85.1609 57.4969Z" fill="#EAEEF9"/>
<path opacity="0.4" d="M167.053 78.4114L129.815 67.0459L118.51 104.084L155.748 115.45L167.053 78.4114Z" fill="#234569"/>
<path d="M163.74 80.0682L131.496 70.2268L121.681 102.384L153.925 112.226L163.74 80.0682Z" fill="white"/>
<path d="M142.624 73.6234L124.178 94.2013L127.771 82.4294L137.203 71.9686L142.624 73.6234Z" fill="#EAEEF9"/>
<path d="M160.03 78.9359L135.377 106.565L130.241 104.997L129.999 104.766L154.609 77.2812L160.03 78.9359Z" fill="#EAEEF9"/>
<path d="M163.345 81.3602L139.658 107.871L136.947 107.044L161.6 79.415L163.345 81.3602Z" fill="#EAEEF9"/>
<path opacity="0.4" d="M95.4312 56.5515L81.1032 103.496L108.782 111.944L123.11 64.9994L95.4312 56.5515Z" fill="#234569"/>
<path d="M119.939 66.6995L97.1113 59.7322L90.5827 81.1226L113.41 88.0899L119.939 66.6995Z" fill="white"/>
<path d="M112.622 90.6741L89.7944 83.7068L84.2736 101.795L107.101 108.763L112.622 90.6741Z" fill="white"/>
<path d="M89.1574 82.7276C89.6302 82.8719 90.1311 82.6033 90.2763 82.1276C90.4215 81.6518 90.156 81.1492 89.6832 81.0049C89.2104 80.8606 88.7094 81.1293 88.5643 81.605C88.4191 82.0807 88.6846 82.5833 89.1574 82.7276Z" fill="white"/>
<path d="M107.812 62.9981L91.4387 81.3839L90.5827 81.1226L93.3869 71.9348L102.818 61.474L107.812 62.9981Z" fill="#EAEEF9"/>
<path d="M111.379 64.0869L94.8631 82.4291L93.151 81.9065L109.524 63.5208L111.379 64.0869Z" fill="#EAEEF9"/>
<path d="M118.844 70.2886L116.828 76.8924L108.132 86.4788L105.136 85.5644L118.844 70.2886Z" fill="#EAEEF9"/>
<path d="M99.6389 86.7115L86.5563 102.492L84.2736 101.795L85.1937 98.7806L96.2147 85.6664L99.6389 86.7115Z" fill="#EAEEF9"/>
<path d="M111.614 93.9757L100.966 106.89L102.535 107.369L110.431 97.8519L111.614 93.9757Z" fill="#EAEEF9"/>
<path d="M110.196 89.9338L97.1138 105.714L94.9738 105.061L108.056 89.2806L110.196 89.9338Z" fill="#EAEEF9"/>
<path d="M19.298 86.9392C20.6817 87.3615 22.2402 86.6607 22.7094 85.1232C23.1317 83.7395 22.4309 82.181 20.8935 81.7118C19.5098 81.2895 17.9513 81.9903 17.4821 83.5277C17.2135 84.9584 17.9143 86.5168 19.298 86.9392Z" fill="#6E8EFF"/>
<path d="M181.983 85.1641C183.086 85.5006 184.205 84.9048 184.542 83.8021C184.878 82.6995 184.283 81.5801 183.18 81.2436C182.077 80.907 180.958 81.5029 180.621 82.6055C180.285 83.7082 180.881 84.8275 181.983 85.1641Z" fill="url(#paint1_linear)"/>
<path opacity="0.3" d="M181.039 48.9395L55.9146 10.7498L40.9731 59.7037L166.098 97.8934L181.039 48.9395Z" fill="url(#paint2_linear)"/>
<path d="M190.418 64.2002L190.549 63.7695C190.725 63.1953 190.713 62.721 190.746 62.1033C190.68 61.2984 190.427 60.5935 189.889 59.8015L181.511 48.9269L55.9582 10.6066L37.3274 13.3946C36.3399 13.564 35.594 13.964 34.9468 14.5512C34.3436 14.9948 33.9818 15.6691 33.7627 16.3869C31.1214 22.4858 34.2309 30.1829 41.0792 32.2731C47.2141 34.1456 54.1871 29.9965 56.1151 23.6799C54.1871 29.9965 57.2013 37.1938 63.4789 39.1098C69.7565 41.0259 76.5027 36.8076 78.4307 30.4909C76.5027 36.8076 79.601 44.0305 85.8786 45.9465C91.7282 47.7319 98.3345 44.0986 100.603 38.1998C99.3444 44.8777 103.098 51.3592 108.234 52.9268C114.369 54.7993 120.897 51.2988 122.967 45.0257C122.923 45.1692 122.88 45.3128 122.836 45.4564L122.967 45.0257C120.881 62.5931 141.368 64.4521 145.399 51.2446C145.312 51.5317 145.268 51.6753 145.18 51.9624C145.18 51.9624 145.18 51.9624 145.137 52.106C145.268 51.6753 145.961 51.0689 146.092 50.6382C144.34 56.3806 146.624 63.0744 151.782 65.5905C153.55 66.4437 155.305 66.8227 157.335 66.8146C157.665 66.7581 157.95 66.8452 158.279 66.7887C161.483 66.5111 164.467 64.9109 166.473 61.9139C166.517 61.7703 166.704 61.6703 166.791 61.3832C167.065 60.996 167.153 60.7089 167.427 60.3218C166.991 65.8383 170.143 71.3515 175.422 72.9627C182.567 75.6142 189.477 70.3474 190.418 64.2002Z" fill="#6E8EFF"/>
<path d="M168.283 58.5416C168.064 59.2594 167.844 59.9772 167.483 60.6514C167.351 61.0821 167.121 61.3257 166.847 61.7128C166.803 61.8564 166.617 61.9564 166.529 62.2435C164.61 64.9535 161.582 66.6972 158.335 67.1184C158.005 67.1748 157.676 67.2313 157.391 67.1442C156.118 67.2265 154.79 66.9782 153.649 66.6298C153.078 66.4556 152.507 66.2814 151.981 65.9637C146.866 63.304 144.163 56.8295 145.916 51.0871C145.74 51.6613 145.609 52.092 145.335 52.4792L145.291 52.6227L145.379 52.3356L146.836 48.0723L144.8 37.8782L162.92 43.4085L164.359 46.3586L169.389 55.4268L168.283 58.5416Z" fill="white"/>
<path d="M79.4941 27.5192L78.2346 32.1567C78.4099 31.5825 78.3987 31.1082 78.5739 30.534C76.646 36.8506 69.7571 41.0254 63.6222 39.1529C57.4872 37.2804 53.9284 30.5446 55.8563 24.228C55.7687 24.5151 55.7248 24.6587 55.6372 24.9458L56.9629 21.1132L66.1998 16.3996L69.3263 14.843L86.8751 20.1991L79.4941 27.5192Z" fill="white"/>
<path d="M101.521 34.5555L100.119 39.1494C100.294 38.5752 100.568 38.1881 100.743 37.6138C98.8154 43.9305 102.199 51.2405 108.334 53.113C114.469 54.9854 121.183 51.3849 123.11 45.0683C123.023 45.3554 122.979 45.499 122.891 45.7861L123.932 41.8664L124.037 34.3659L123.97 31.5206L106.849 26.2951L101.521 34.5555Z" fill="white"/>
<path opacity="0.3" d="M190.746 62.1032L34.9468 14.5511C35.594 13.964 36.3399 13.5639 37.3274 13.3945L55.9144 10.75L181.467 49.0704L189.845 59.945C190.427 60.5934 190.68 61.2983 190.746 62.1032Z" fill="url(#paint3_linear)"/>
<g clip-path="url(#clip0)">
<path d="M124.407 159.607L127.846 163.693C129.286 165.402 131.798 165.562 133.45 164.079L159.518 141.511C161.008 140.199 161.924 138.271 161.98 136.301L162.257 127.002L158.891 125.533" fill="#DB1A74"/>
<path d="M116.943 150.319L120.942 157.391C122.04 159.327 124.464 159.956 126.387 158.832L156.1 141.461C157.828 140.443 159.046 138.772 159.482 136.808L161.659 126.819L157.714 125.284" fill="#E9368B"/>
<path d="M161.011 126.621L155.63 137.288C154.696 139.1 153.091 140.432 151.187 140.955L118.178 150.2C116.045 150.763 113.856 149.543 113.314 147.39L107.104 124.354C106.562 122.202 107.785 119.981 109.919 119.417L142.943 110.122C144.846 109.599 146.933 109.905 148.573 110.957L158.867 117.577C160.96 118.933 162.05 121.253 161.87 123.627" fill="url(#paint4_linear)"/>
<path d="M112.94 146.117L112.45 145.581C111.485 144.458 111.287 142.963 111.738 141.665" fill="#DB1A74"/>
<path d="M157.572 125.571C157.199 125.899 156.727 126.197 156.251 126.328C154.528 126.795 152.757 125.813 152.307 124.075C151.857 122.337 152.841 120.54 154.564 120.072C156.287 119.604 158.058 120.586 158.508 122.325C158.543 122.39 158.562 122.507 158.546 122.557" fill="white"/>
<path d="M116.626 131.897C116.283 130.523 117.221 128.877 119.189 128.319C120.091 128.042 120.835 128.104 121.399 128.22C122.013 128.352 122.342 129.06 122.042 129.686L122.026 129.737C121.803 130.11 121.346 130.357 120.948 130.235C120.698 130.159 120.368 130.169 120.023 130.229C119.482 130.395 119.178 130.855 119.285 131.218C119.575 132.411 123.433 130.663 124.257 133.674C124.654 135.23 123.716 136.876 121.567 137.49C120.435 137.807 119.442 137.669 118.794 137.471C118.195 137.289 117.966 136.612 118.251 136.036L118.266 135.986C118.505 135.561 118.996 135.38 119.444 135.517C119.843 135.639 120.307 135.725 120.798 135.544C121.455 135.358 121.789 134.798 121.663 134.318C121.243 133.196 117.435 134.959 116.626 131.897Z" fill="white"/>
<path d="M127.901 133.517L127.827 134.653C127.772 135.189 127.419 135.633 126.943 135.763C126.107 136.005 125.333 135.327 125.43 134.473L126.048 127.983C126.13 127.18 126.676 126.464 127.497 126.273C128.268 126.067 129.115 126.325 129.559 127.013L133.354 132.255C133.848 132.958 133.505 133.902 132.668 134.144C132.193 134.275 131.644 134.107 131.353 133.632L130.722 132.666L127.901 133.517ZM128.126 128.673L127.988 131.446L129.596 130.998L128.126 128.673Z" fill="white"/>
<path d="M135.344 133.415L133.279 125.719C133.118 125.173 133.453 124.613 133.994 124.447L134.355 124.336C134.896 124.17 135.448 124.504 135.608 125.05L137.116 130.644L139.971 129.859C140.512 129.693 141.064 130.027 141.224 130.573L141.243 130.689C141.403 131.235 141.069 131.795 140.528 131.961L135.344 133.415Z" fill="white"/>
<path d="M149.232 128.436C149.392 128.981 149.058 129.542 148.517 129.708L142.742 131.312L140.44 122.606L146.1 121.022C146.641 120.856 147.193 121.19 147.354 121.735C147.514 122.281 147.18 122.841 146.639 123.007L143.292 123.973L143.636 125.348L146.015 124.694C146.541 124.578 147.058 124.847 147.169 125.377C147.279 125.908 147.01 126.433 146.484 126.548L144.105 127.202L144.517 128.708L147.979 127.722C148.52 127.556 149.121 127.905 149.232 128.436Z" fill="white"/>
<path d="M169.086 129.086L155.279 124.872C154.481 124.628 153.984 123.759 154.246 122.9C154.492 122.092 155.356 121.583 156.203 121.842L170.061 126.071C170.858 126.315 171.356 127.184 171.094 128.043C170.782 128.886 169.934 129.344 169.086 129.086Z" fill="#1C3754"/>
</g>
<path d="M386.052 56.0039C386.805 56.2337 387.601 55.8119 387.83 55.0617C388.059 54.3115 387.634 53.5169 386.881 53.2871C386.128 53.0572 385.331 53.479 385.102 54.2292C384.874 54.9795 385.298 55.774 386.052 56.0039Z" fill="url(#paint5_linear)"/>
<path d="M401.467 69.512C402.411 69.8002 403.474 69.3249 403.793 68.28C404.08 67.3395 403.6 66.2795 402.551 65.9593C401.607 65.6712 400.545 66.1465 400.226 67.1914C399.907 68.2363 400.523 69.2239 401.467 69.512Z" fill="url(#paint6_linear)"/>
<path d="M290.886 132.455C291.831 132.743 292.893 132.268 293.212 131.223C293.499 130.282 293.02 129.222 291.971 128.902C291.027 128.614 289.964 129.089 289.645 130.134C289.358 131.074 289.837 132.134 290.886 132.455Z" fill="url(#paint7_linear)"/>
<path d="M319.656 47.8218C320.685 47.8045 321.503 46.9587 321.484 45.9328C321.464 44.9069 320.614 44.0894 319.585 44.1067C318.556 44.1241 317.737 44.9698 317.757 45.9957C317.776 47.0216 318.627 47.8392 319.656 47.8218Z" fill="#EAEEF9"/>
<path d="M306.293 137.256C307.167 136.842 307.538 135.799 307.12 134.927C306.703 134.054 305.656 133.682 304.781 134.097C303.907 134.511 303.537 135.553 303.954 136.426C304.371 137.298 305.418 137.67 306.293 137.256Z" fill="#EAEEF9"/>
<path d="M405.989 95.0524L393.966 134.446C393.774 135.073 393.615 135.595 393.319 136.19C391.423 140.523 387.588 143.693 382.901 144.776L342.707 153.982C338.881 154.871 334.841 154.209 331.561 152.18C330.293 151.45 329.194 150.543 328.231 149.564L299.956 119.346C297.78 117.082 296.457 114.28 295.996 111.283C295.626 109.114 295.771 106.76 296.441 104.565L308.432 65.2766C309.07 63.1868 310.095 61.3295 311.509 59.7048C313.597 57.3722 316.291 55.6817 319.497 54.9468L359.795 45.7719C363.726 44.9156 367.662 45.5457 371.047 47.6068C372.21 48.3044 373.309 49.2111 374.376 50.2223L402.578 80.3042C405.078 83.0091 406.452 86.3982 406.617 89.9896C406.695 91.6126 406.499 93.3805 405.989 95.0524Z" fill="#EAEEF9"/>
<path d="M387.087 116.797C389.444 115.654 390.42 112.892 389.263 110.544C388.106 108.195 385.326 107.214 382.847 108.319C380.49 109.462 379.513 112.224 380.67 114.573C381.828 116.921 384.607 117.903 387.087 116.797Z" fill="#EAEEF9"/>
<g filter="url(#filter0_d)">
<path d="M368.077 118.191L361.14 140.92C357.934 151.424 346.771 157.321 336.201 154.095C335.654 153.928 335.198 153.789 334.679 153.532C325.087 149.713 319.829 139.199 322.869 129.239L329.806 106.51L337.916 108.986L330.979 131.714C329.293 137.238 332.011 143.017 337.075 145.354C337.594 145.612 338.05 145.751 338.597 145.918C344.611 147.753 351.024 144.365 352.848 138.389L359.785 115.661L368.077 118.191Z" fill="#E9368B"/>
</g>
<path d="M364.979 117.246L358.042 139.974C355.002 149.935 344.769 155.72 334.679 153.532C334.132 153.365 333.649 153.316 333.102 153.149C322.532 149.923 316.565 138.797 319.771 128.293L326.708 105.565L334.817 108.04L327.88 130.768C326.056 136.745 329.485 143.136 335.499 144.972C336.045 145.139 336.501 145.278 337.075 145.354C342.582 146.243 348.092 142.876 349.75 137.443L356.687 114.715L364.979 117.246Z" fill="url(#paint8_linear)"/>
<path opacity="0.7" d="M324.304 122.253C323.848 122.114 323.594 121.64 323.732 121.188L324.175 119.739C324.313 119.286 324.788 119.035 325.243 119.174C325.699 119.313 325.953 119.787 325.815 120.239L325.373 121.688C325.234 122.141 324.759 122.392 324.304 122.253Z" fill="#FF94C6"/>
<path opacity="0.7" d="M323.691 143.843C323.509 143.787 323.354 143.641 323.199 143.495C320.486 139.004 319.827 133.656 321.32 128.766L322.646 124.419C322.784 123.967 323.26 123.716 323.715 123.855C324.171 123.994 324.425 124.467 324.286 124.92L322.96 129.266C321.606 133.703 322.22 138.543 324.68 142.561C324.961 142.944 324.796 143.487 324.412 143.766C324.174 143.891 323.964 143.926 323.691 143.843Z" fill="#FF94C6"/>
<path opacity="0.7" d="M333.6 151.52C330.593 150.602 327.898 148.987 325.697 146.732C325.388 146.44 325.372 145.841 325.692 145.444C325.985 145.137 326.587 145.123 326.987 145.443C328.97 147.434 331.391 148.965 334.125 149.799C334.58 149.938 335.036 150.077 335.428 150.098C337.67 150.584 339.841 150.653 342.086 150.15C342.506 150.08 343.025 150.338 343.069 150.846C343.141 151.264 342.884 151.78 342.373 151.822C339.945 152.269 337.446 152.298 335.022 151.756C334.602 151.825 334.055 151.659 333.6 151.52Z" fill="#FF94C6"/>
<path d="M337.916 108.986L326.708 105.565L323.667 115.526L334.875 118.946L337.916 108.986Z" fill="#DDE6F2"/>
<path d="M337.916 108.986L326.708 105.565L323.667 115.526L334.875 118.946L337.916 108.986Z" fill="#CED7E2"/>
<path d="M334.817 108.04L326.708 105.565L323.667 115.526L331.777 118.001L334.817 108.04Z" fill="white"/>
<path d="M374.917 120.279L363.709 116.858L360.669 126.819L371.877 130.24L374.917 120.279Z" fill="#E8ECF7"/>
<path d="M367.986 118.164L356.778 114.743L353.738 124.704L364.946 128.124L367.986 118.164Z" fill="#CED7E2"/>
<path d="M363.174 116.695L355.064 114.22L351.933 124.153L360.134 126.656L363.174 116.695Z" fill="#E8ECF7"/>
<path d="M364.979 117.246L356.869 114.771L353.738 124.704L361.939 127.207L364.979 117.246Z" fill="white"/>
<g filter="url(#filter1_d)">
<path d="M395.353 86.9685C393.796 92.0721 390.186 95.9462 385.747 98.0596C384.523 98.5907 383.299 99.1217 381.839 99.4301C378.738 100.142 375.571 100.08 372.378 99.106C369.186 98.1315 366.384 96.3719 364.349 94.092C364.017 93.689 363.642 93.424 363.31 93.021C359.698 88.4504 358.244 82.2767 360.054 76.3454C363.001 66.6898 373.313 61.2423 383.03 64.2079C392.746 67.1735 398.301 77.3129 395.353 86.9685Z" fill="#D7DCEB"/>
</g>
<path d="M385.777 97.4657C385.504 95.8745 384.815 94.1562 383.54 92.8625C382.973 92.2369 382.182 91.8447 381.252 91.4102L380.558 91.1984C379.031 90.7324 378.977 90.4141 378.977 90.4141L379.735 87.9313C380.778 87.4958 381.683 87.0179 382.49 86.3598C383.298 85.7016 383.967 85.0011 384.54 84.1203C385.595 84.1409 386.542 83.5251 386.698 82.5172C386.824 82.1034 386.673 81.6049 386.799 81.1911C386.883 80.9152 386.926 80.7773 387.01 80.5014C387.052 80.3634 387.094 80.2255 387.136 80.0876C387.178 79.9496 387.22 79.8117 387.262 79.6738C387.334 78.9417 387.448 78.0717 387.145 77.0746C386.612 74.3484 384.576 72.0685 381.8 71.2212C381.245 71.0517 380.647 71.0202 380.092 70.8507C379.036 70.83 377.938 70.9473 376.937 71.2448C376.756 71.3404 376.575 71.436 376.394 71.5315C376.394 71.5315 376.256 71.4892 376.214 71.6271C375.128 72.2005 374.139 72.9543 373.344 74.0686C372.591 75.045 372.212 76.2864 372.014 77.4323C372.014 77.4323 372.014 77.4323 371.972 77.5702C371.972 77.5702 371.972 77.5702 371.93 77.7082C371.845 77.984 372.026 77.8885 371.803 78.122C371.761 78.2599 371.622 78.2176 371.58 78.3555C371.357 78.589 371.05 79.0984 371.021 79.6925C371.1 80.9231 371.836 80.997 372.362 81.7606C372.362 81.7606 372.362 81.7606 372.181 81.8561L371.264 81.8778C367.457 81.9222 367.019 84.3518 367.86 86.5687C368.204 87.4278 368.898 87.6396 370.202 88.3391C369.786 88.212 367.838 89.1254 367.657 89.221C365.751 89.9964 364.232 91.493 363.45 93.0635C363.407 93.2015 363.407 93.2015 363.365 93.3394C363.698 93.7424 364.03 94.1453 364.404 94.4104L382.033 99.7909C383.354 99.4401 384.675 99.0894 385.941 98.4204C385.79 97.9218 385.735 97.6036 385.777 97.4657ZM373.967 88.4328C373.774 88.0722 373.635 88.0298 373.538 87.8495C373.303 87.6268 373.206 87.4465 372.971 87.2239C372.832 87.1815 372.874 87.0435 372.735 87.0012C372.167 86.3755 371.6 85.7499 371.768 85.1982C371.852 84.9223 372.256 84.5932 372.757 84.4444C372.811 84.7627 373.005 85.1233 373.198 85.4839C373.434 85.7065 373.488 86.0248 373.724 86.2475C373.821 86.4278 373.917 86.6081 374.056 86.6504L374.195 86.6928C374.195 86.6928 374.334 86.7352 374.292 86.8731L373.828 88.3904L373.967 88.4328Z" fill="white"/>
<path d="M385.747 98.0595C381.671 99.9818 376.959 100.504 372.378 99.1059C368.631 97.962 365.497 95.7993 363.31 93.0209C363.353 92.883 363.353 92.883 363.395 92.745C364.22 91.0366 365.739 89.54 367.644 88.7645C367.964 88.7113 370.392 88.0166 370.669 88.1014C369.504 87.4442 368.33 87.0137 367.986 86.1546L370.455 87.5113C371.06 89.5055 372.709 91.0641 374.929 91.742C376.734 92.2928 378.61 92.1115 380.1 91.209C380.238 91.2513 380.377 91.2937 380.516 91.3361C380.655 91.3784 380.932 91.4632 381.21 91.5479C382.182 91.8445 382.93 92.3745 383.54 92.8622C384.857 94.0179 385.546 95.7363 385.777 97.4654C385.735 97.6033 385.789 97.9216 385.747 98.0595Z" fill="url(#paint9_linear)"/>
<path d="M379.692 88.0691L378.977 90.414L372.091 88.614L372.97 87.2238C373.109 87.2661 373.067 87.4041 373.206 87.4464C373.441 87.6691 373.538 87.8494 373.774 88.0721C373.87 88.2524 374.009 88.2947 374.106 88.475C374.106 88.475 374.106 88.475 374.202 88.6553L374.666 87.138C374.666 87.138 374.527 87.0957 374.569 86.9577C375.511 87.8484 377.092 88.6327 379.692 88.0691Z" fill="url(#paint10_linear)"/>
<path d="M386.996 80.045C385.482 80.0352 384.01 79.8874 382.664 79.3258C380.485 78.51 378.559 76.8666 377.356 74.8409C376.296 76.3267 374.529 77.1444 372.653 77.3257C372.333 77.3789 372.194 77.3366 371.874 77.3898C371.874 77.3898 371.874 77.3898 371.916 77.2518C372.156 75.968 372.632 74.9069 373.289 73.7502C374.042 72.7738 375.073 71.8821 376.158 71.3087C376.158 71.3087 376.297 71.3511 376.339 71.2131C376.52 71.1176 376.701 71.022 376.882 70.9264C377.883 70.6289 378.981 70.5116 380.037 70.5323C380.634 70.5638 381.189 70.7333 381.745 70.9028C384.521 71.7501 386.556 74.03 387.09 76.7562C387.212 77.8489 387.279 78.6233 387.207 79.3553C387.081 79.7692 387.039 79.9071 386.996 80.045Z" fill="#1C3754"/>
<path d="M373.548 93.2809C372.782 93.8011 371.63 93.6001 370.7 93.1656C371.967 92.4966 372.38 89.1546 368.783 88.5092C364.22 86.0609 366.248 81.4025 371.431 81.3257L372.348 81.304L372.445 81.4843C372.566 82.577 372.73 83.5317 373.075 84.3908C370.626 85.4529 373.138 86.6717 374.147 88.3368C374.908 89.3231 375.037 92.3784 373.548 93.2809Z" fill="#1C3754"/>
<path d="M395.353 86.9685C393.796 92.0721 390.186 95.9462 385.747 98.0596C381.67 99.9819 376.959 100.504 372.378 99.106C368.63 97.9621 365.497 95.7994 363.31 93.021C359.698 88.4504 358.244 82.2767 360.054 76.3454C363.001 66.6898 373.313 61.2423 383.03 64.2079C392.746 67.1735 398.301 77.3129 395.353 86.9685Z" stroke="white" stroke-width="1.492" stroke-miterlimit="10" stroke-linecap="round" stroke-linejoin="round"/>
<path d="M355.809 77.8395C354.437 82.3328 351.349 85.9745 347.571 88.096C347.178 88.3036 346.981 88.4073 346.589 88.6149C342.706 90.5406 338.133 90.9461 333.611 89.566C329.994 88.4619 326.998 86.4014 324.729 83.5803C324.158 82.7512 323.587 81.922 323.016 81.0929C320.811 76.9815 320.132 72.1897 321.595 67.3969C324.475 57.9609 334.493 52.6684 343.838 55.5206C353.333 58.4187 358.689 68.4035 355.809 77.8395Z" fill="#E9F0F8"/>
<g filter="url(#filter2_d)">
<path d="M355.809 77.8395C354.3 82.7821 350.819 86.6314 346.589 88.6149C342.706 90.5406 338.133 90.9461 333.611 89.566C329.994 88.4619 326.998 86.4014 324.729 83.5803C321.121 79.2046 319.858 73.0884 321.595 67.3969C324.475 57.9609 334.493 52.6684 343.838 55.5206C353.183 58.3727 358.689 68.4035 355.809 77.8395Z" fill="#D7DCEB"/>
</g>
<path d="M347.42 88.0498C347.027 88.2573 346.83 88.3611 346.438 88.5686C342.554 90.4943 337.982 90.8998 333.46 89.5197C329.843 88.4157 326.847 86.3552 324.578 83.534C324.007 82.7049 323.436 81.8758 322.865 81.0466C323.304 80.6893 324.149 80.6198 325.688 80.4347L326.337 80.4689C327.529 80.3416 329.023 80.3063 331.06 80.1095C331.407 80.0517 331.604 79.9479 331.951 79.8901C332.147 79.7864 332.193 79.6366 332.389 79.5328C332.586 79.429 332.677 79.1295 332.769 78.8299L333.82 75.3851L333.715 75.1893C333.551 74.6479 333.537 74.1526 333.569 73.5075L333.314 73.2657C332.364 73.1395 332.789 72.2868 333.036 70.3975C333.114 69.6026 333.31 69.4988 333.657 69.441L334.096 69.0837C333.95 67.4019 334.014 66.1117 334.334 65.0633C334.837 63.4157 335.957 62.4475 337.149 62.3202C336.912 60.938 337.049 60.4887 337.049 60.4887C337.049 60.4887 340.483 62.1918 341.78 62.2603C343.379 62.4208 345.699 63.4564 345.964 65.8293C347.288 66.8884 347.616 67.9711 347.447 69.0655C347.095 70.7591 345.642 72.2804 345.309 72.8335C345.309 72.8335 345.309 72.8335 345.263 72.9833C345.519 73.225 345.473 73.3748 345.29 73.9739C344.636 75.5755 344.271 76.7737 343.458 76.1981L342.293 77.3161C342.247 77.4659 342.201 77.6157 342.201 77.6157C342.11 77.9152 341.973 78.3645 341.104 81.2103C341.013 81.5099 341.072 81.8554 341.131 82.201C341.086 82.3507 341.236 82.3968 341.191 82.5465C341.296 82.7423 341.551 82.9841 341.656 83.1799C343.492 84.7226 344.712 85.5859 345.78 86.4033C346.547 87.1286 347.21 87.6582 347.42 88.0498Z" fill="white"/>
<path d="M347.42 88.0499C347.027 88.2575 346.831 88.3612 346.438 88.5688C342.555 90.4945 337.982 90.9 333.461 89.5199C329.843 88.4158 326.847 86.3553 324.578 83.5342C324.007 82.705 323.437 81.8759 322.866 81.0468C323.304 80.6895 324.149 80.6199 325.689 80.4349L326.337 80.4691C327.53 80.3418 329.023 80.3065 331.06 80.1096C331.408 80.0518 331.604 79.9481 331.951 79.8903C332.595 81.5603 333.933 83.1148 335.741 83.6668C337.55 84.2188 339.482 83.8262 340.949 82.8002C341.054 82.996 341.31 83.2378 341.415 83.4336C343.25 84.9763 344.47 85.8396 345.538 86.657C346.548 87.1288 347.21 87.6584 347.42 88.0499Z" fill="#A0B0C4"/>
<path d="M345.309 72.8335C345.446 72.3841 345.432 71.8888 345.419 71.3935C345.419 71.3935 345.464 71.2437 345.314 71.1977C345.168 69.5159 343.844 68.4568 342.336 67.9967C338.614 66.6969 338.13 67.204 337.244 65.7875C337.362 66.4787 337.285 67.2735 336.362 68.138C335.681 68.7488 334.836 68.8184 334.142 68.9339C333.672 64.5337 335.157 62.3673 337.195 62.1704C336.957 60.7882 337.094 60.3389 337.094 60.3389C337.094 60.3389 340.529 62.042 341.826 62.1105C343.425 62.271 345.745 63.3066 346.009 65.6795C347.334 66.7386 347.662 67.8213 347.493 68.9157C347.141 70.6093 345.688 72.1306 345.309 72.8335Z" fill="#1C3754"/>
<path d="M332.815 78.6803L333.866 75.2355L333.761 75.0397L333.807 74.8899C333.866 75.2354 334.076 75.627 334.286 76.0186L336.405 78.7937C336.825 79.5768 337.729 79.8529 338.666 79.4838L341.914 78.0191C342.064 78.0652 342.11 77.9154 342.306 77.8116C342.215 78.1112 342.078 78.5605 341.209 81.4063C341.164 81.556 341.118 81.7058 341.072 81.8556L332.632 79.2794C332.572 78.9339 332.769 78.8301 332.815 78.6803Z" fill="url(#paint11_linear)"/>
<path d="M355.809 77.8395C354.3 82.7821 350.819 86.6314 346.589 88.6149C342.706 90.5406 338.133 90.9461 333.611 89.566C329.994 88.4619 326.998 86.4014 324.729 83.5803C321.121 79.2046 319.858 73.0884 321.595 67.3969C324.475 57.9609 334.493 52.6684 343.838 55.5206C353.183 58.3727 358.689 68.4035 355.809 77.8395Z" stroke="white" stroke-width="1.3062" stroke-miterlimit="10" stroke-linecap="round" stroke-linejoin="round"/>
<path d="M382.26 61.3534C380.888 65.8467 377.799 69.4884 374.021 71.6099C373.629 71.8175 373.432 71.9213 373.039 72.1288C369.156 74.0545 364.584 74.46 360.062 73.0799C356.445 71.9758 353.449 69.9153 351.179 67.0942C350.609 66.2651 350.038 65.4359 349.467 64.6068C347.262 60.4954 346.583 55.7036 348.045 50.9108C350.925 41.4748 360.944 36.1823 370.289 39.0345C379.738 42.0824 385.14 51.9174 382.26 61.3534Z" fill="#E9F0F8"/>
<g filter="url(#filter3_d)">
<path d="M382.26 61.3534C380.751 66.296 377.269 70.1453 373.039 72.1288C369.156 74.0545 364.584 74.46 360.062 73.0799C356.445 71.9758 353.449 69.9153 351.179 67.0942C347.572 62.7186 346.308 56.6023 348.045 50.9108C350.925 41.4748 360.944 36.1823 370.289 39.0345C379.633 41.8867 385.14 51.9174 382.26 61.3534Z" fill="#D7DCEB"/>
</g>
<path d="M373.871 71.5639C373.478 71.7715 373.282 71.8752 372.889 72.0828C369.006 74.0085 364.433 74.414 359.912 73.0339C356.294 71.9298 353.298 69.8693 351.029 67.0482C350.458 66.219 349.887 65.3899 349.317 64.5608C349.755 64.2035 350.6 64.1339 352.14 63.9489L352.788 63.9831C353.98 63.8558 355.474 63.8205 357.511 63.6236C357.858 63.5658 358.055 63.4621 358.402 63.4043C358.598 63.3005 358.644 63.1507 358.841 63.047C359.037 62.9432 359.129 62.6436 359.22 62.3441L360.271 58.8992L360.166 58.7034C360.002 58.1621 359.988 57.6668 360.021 57.0217L359.765 56.7799C358.815 56.6536 359.24 55.801 359.487 53.9116C359.565 53.1167 359.761 53.013 360.108 52.9552L360.547 52.5979C360.401 50.9161 360.465 49.6259 360.785 48.5774C361.288 46.9299 362.408 45.9617 363.6 45.8344C363.363 44.4521 363.5 44.0028 363.5 44.0028C363.5 44.0028 366.934 45.706 368.232 45.7745C369.83 45.9349 372.15 46.9705 372.415 49.3434C373.739 50.4026 374.068 51.4852 373.898 52.5797C373.546 54.2732 372.093 55.7945 371.76 56.3476C371.76 56.3476 371.76 56.3476 371.714 56.4974C372.015 56.5894 371.97 56.7392 371.741 57.4881C371.088 59.0896 370.722 60.2878 369.909 59.7123L368.744 60.8303C368.698 60.98 368.653 61.1298 368.653 61.1298C368.561 61.4294 368.424 61.8787 367.555 64.7245C367.464 65.024 367.523 65.3696 367.583 65.7151C367.537 65.8649 367.688 65.9109 367.642 66.0607C367.747 66.2565 368.003 66.4982 368.108 66.694C369.943 68.2367 371.163 69.1001 372.231 69.9174C372.999 70.6428 373.51 71.1264 373.871 71.5639Z" fill="white"/>
<path d="M373.871 71.5638C373.478 71.7714 373.281 71.8751 372.889 72.0827C369.005 74.0084 364.433 74.4139 359.911 73.0338C356.294 71.9297 353.298 69.8692 351.029 67.0481C350.458 66.219 349.887 65.3898 349.316 64.5607C349.755 64.2034 350.6 64.1338 352.139 63.9488L352.788 63.983C353.98 63.8557 355.474 63.8204 357.511 63.6235C357.858 63.5658 358.055 63.462 358.402 63.4042C359.046 65.0742 360.383 66.6287 362.192 67.1807C364.001 67.7328 365.933 67.3401 367.4 66.3141C367.505 66.5099 367.76 66.7517 367.865 66.9475C369.701 68.4902 370.921 69.3535 371.989 70.1709C372.998 70.6427 373.51 71.1263 373.871 71.5638Z" fill="url(#paint12_linear)"/>
<path d="M371.76 56.3475C371.897 55.8982 371.883 55.4028 371.87 54.9075C371.87 54.9075 371.915 54.7577 371.765 54.7117C371.422 53.1337 370.098 52.0746 368.742 51.6606C365.019 50.3607 364.535 50.8678 363.649 49.4514C363.768 50.1425 363.69 50.9374 362.767 51.8018C362.086 52.4127 361.241 52.4822 360.547 52.5977C360.078 48.1975 361.563 46.0311 363.6 45.8342C363.363 44.452 363.5 44.0027 363.5 44.0027C363.5 44.0027 366.934 45.7059 368.231 45.7743C369.83 45.9348 372.15 46.9704 372.415 49.3433C373.739 50.4024 374.068 51.4851 373.898 52.5795C373.592 54.1233 372.139 55.6446 371.76 56.3475Z" fill="#1C3754"/>
<path d="M359.115 62.1483L360.166 58.7035L360.061 58.5077L360.107 58.3579C360.166 58.7035 360.376 59.095 360.586 59.4866L362.705 62.2617C363.125 63.0449 364.029 63.3209 364.966 62.9518L368.214 61.4872C368.365 61.5332 368.41 61.3834 368.607 61.2796C368.515 61.5792 368.378 62.0285 367.51 64.8743C367.464 65.024 367.418 65.1738 367.372 65.3236L358.932 62.7475C359.023 62.4479 359.069 62.2981 359.115 62.1483Z" fill="url(#paint13_linear)"/>
<path d="M382.26 61.3534C380.751 66.296 377.269 70.1453 373.039 72.1288C369.156 74.0545 364.584 74.46 360.062 73.0799C356.445 71.9758 353.449 69.9153 351.179 67.0942C347.572 62.7186 346.308 56.6023 348.045 50.9108C350.925 41.4748 360.944 36.1823 370.289 39.0345C379.633 41.8867 385.14 51.9174 382.26 61.3534Z" stroke="white" stroke-width="1.3062" stroke-miterlimit="10" stroke-linecap="round" stroke-linejoin="round"/>
<path d="M360.999 110.101L363.07 110.667L362.149 113.994C362.046 114.315 362.521 114.562 362.716 114.25L366.481 108.937C366.655 108.66 366.541 108.3 366.218 108.196L363.868 107.456L364.595 103.43C364.664 103.088 364.18 102.932 364.041 103.23L360.736 109.359C360.54 109.671 360.711 110.018 360.999 110.101Z" fill="url(#paint14_linear)"/>
<path d="M365.915 109.066C365.88 109.045 365.859 109.079 365.824 109.058L363.853 108.409C363.727 108.379 363.63 108.223 363.717 108.084C363.747 107.959 363.904 107.863 364.044 107.95L366.014 108.598C366.141 108.629 366.237 108.785 366.15 108.924C366.142 109.015 366.042 109.097 365.915 109.066Z" fill="#96AEFF"/>
<path d="M361.279 109.265L363.712 104.374C363.755 104.305 363.834 104.257 363.904 104.301C363.973 104.344 364.021 104.422 363.978 104.492L361.72 109.49C361.655 109.594 361.52 109.655 361.393 109.624C361.289 109.559 361.227 109.425 361.279 109.265Z" fill="#96AEFF"/>
<path d="M332.052 101.06L334.122 101.626L333.202 104.953C333.098 105.274 333.574 105.521 333.769 105.209L337.534 99.896C337.708 99.6188 337.593 99.2589 337.271 99.1545L334.921 98.4149L335.648 94.3894C335.717 94.0471 335.233 93.8905 335.094 94.1894L331.788 100.318C331.593 100.63 331.764 100.977 332.052 101.06Z" fill="url(#paint15_linear)"/>
<path d="M336.968 100.025C336.933 100.004 336.911 100.038 336.877 100.017L334.906 99.3684C334.779 99.3379 334.683 99.1818 334.77 99.0432C334.8 98.9175 334.957 98.8224 335.096 98.9092L337.067 99.5574C337.194 99.5878 337.29 99.744 337.203 99.8826C337.194 99.9736 337.094 100.056 336.968 100.025Z" fill="#96AEFF"/>
<path d="M332.332 100.224L334.765 95.3333C334.808 95.264 334.886 95.2164 334.956 95.2598C335.026 95.3032 335.074 95.3813 335.031 95.4506L332.773 100.449C332.707 100.553 332.573 100.614 332.446 100.583C332.341 100.518 332.28 100.384 332.332 100.224Z" fill="#96AEFF"/>
<path d="M263.245 123.269C260.659 131.741 255.416 138.729 248.721 143.59C245.072 146.181 241.002 148.222 236.683 149.43C229.663 151.497 221.984 151.595 214.448 149.295C193.763 142.982 182.125 121.075 188.425 100.433C194.749 79.7138 216.613 68.1164 237.221 74.4063C244.757 76.7063 251.073 81.0757 255.765 86.6334C258.674 90.0472 260.91 94.0133 262.49 98.2003C265.383 106.072 265.854 114.719 263.245 123.269Z" fill="#EAEEF9"/>
<path d="M264.902 94.9792C265.594 95.1904 266.374 94.839 266.609 94.0688C266.82 93.3756 266.47 92.5951 265.701 92.3604C264.932 92.1257 264.229 92.5006 263.994 93.2708C263.783 93.964 264.133 94.7445 264.902 94.9792Z" fill="url(#paint16_linear)"/>
<path d="M246.383 148.77C247.032 148.968 247.382 149.628 247.184 150.278C246.986 150.927 246.327 151.279 245.678 151.081C245.029 150.883 244.679 150.223 244.877 149.573C245.147 148.946 245.806 148.594 246.383 148.77Z" fill="url(#paint17_linear)"/>
<g filter="url(#filter4_d)">
<path d="M226.943 147.468L185.111 134.7C183.035 134.066 181.861 131.856 182.495 129.776L200.55 70.623C201.184 68.5434 203.393 67.3652 205.47 67.9989L247.301 80.7664C249.377 81.4001 250.552 83.6109 249.917 85.6905L231.886 144.767C231.251 146.846 229.019 148.101 226.943 147.468Z" fill="white"/>
</g>
<path d="M222.861 129.719L193.333 120.707C192.564 120.472 192.113 119.745 192.325 119.052C192.537 118.359 193.316 118.007 194.085 118.242L223.613 127.254C224.382 127.489 224.833 128.216 224.621 128.909C224.51 129.549 223.63 129.954 222.861 129.719Z" fill="url(#paint18_linear)"/>
<path d="M202.982 131.23L191.217 127.639C190.448 127.404 189.998 126.677 190.209 125.984C190.421 125.291 191.201 124.939 191.97 125.174L203.735 128.765C204.504 129 204.954 129.727 204.743 130.42C204.454 131.09 203.751 131.464 202.982 131.23Z" fill="url(#paint19_linear)"/>
<path d="M229.212 114.144C221.874 116.704 221.996 115.478 219.362 113.917C210.74 108.843 210.972 116.071 202.051 106.191C201.737 105.843 201.807 105.612 202.155 105.297C203.672 103.908 215.352 92.9062 215.352 92.9062C216.42 91.8851 217.304 90.6395 217.651 89.2296C218.138 87.3576 218.149 86.7715 217.959 86.2926C217.822 85.9141 216.897 84.5373 218.16 83.1545C220.662 80.466 220.209 78.6439 221.132 78.9255C221.209 78.949 221.363 78.9959 221.339 79.073C221.392 79.1734 221.345 79.3275 221.322 79.4045C221.305 79.7361 220.999 80.7374 221.061 82.1876C221.14 83.3062 221.571 83.2695 222.182 84.2979C222.235 84.3984 222.289 84.4989 222.342 84.5994C222.502 84.9008 222.663 85.2023 222.722 85.5573C224.617 84.0308 225.572 85.5851 227.373 81.3356C227.638 80.7429 228.384 81.0546 228.196 81.6708C227.967 82.6956 227.856 83.3352 227.851 84.1759L227.907 85.3715C227.986 86.4902 228.182 87.2237 227.515 88.0306C227.144 88.4223 226.842 88.583 226.595 88.8441C226.494 88.8977 226.37 89.0283 226.323 89.1823C225.781 89.8586 225.287 91.4761 225.075 92.1693C224.958 92.5544 224.917 92.963 224.9 93.2946C224.784 94.7748 225.271 95.9338 225.927 98.7439C227.107 104.24 229.158 114.044 229.212 114.144Z" fill="url(#paint20_linear)"/>
<path d="M226.671 88.8675C226.571 88.921 226.447 89.0516 226.4 89.2057C225.821 89.45 225.336 89.3862 224.952 89.2688C224.721 89.1984 224.567 89.1515 224.437 89.0275C224.283 88.9806 224.431 88.773 224.585 88.8199L224.661 88.8434C224.946 89.0143 225.614 89.3025 226.671 88.8675C226.595 88.844 226.518 88.8205 226.671 88.8675Z" fill="#E3207A"/>
<path d="M219.747 87.596C219.516 87.5256 219.415 87.5791 219.185 87.5087C218.877 87.4148 218.516 87.2205 218.149 86.7716C218.119 86.5941 218.066 86.4936 218.012 86.3931C218.089 86.4165 218.089 86.4165 218.166 86.44C218.64 87.0899 219.078 87.3077 219.817 87.3649C219.917 87.3114 219.924 87.5659 219.747 87.596Z" fill="#E3207A"/>
<path d="M224.9 93.2946C224.823 93.2712 224.823 93.2712 224.746 93.2477C222.429 93.1297 219.353 92.1909 217.418 91.0951C217.341 91.0716 217.211 90.9477 216.98 90.8773C217.174 90.5156 217.369 90.154 217.486 89.7689C219.966 91.2835 223.982 92.1724 225.099 92.0924C224.958 92.5545 224.941 92.8861 224.9 93.2946Z" fill="#E3207A"/>
<path d="M220.82 92.8914C221.33 93.0469 221.869 92.7592 222.025 92.2488C222.181 91.7383 221.894 91.1984 221.384 91.0429C220.875 90.8873 220.335 91.175 220.179 91.6855C220.024 92.196 220.31 92.7359 220.82 92.8914Z" fill="white"/>
<g filter="url(#filter5_d)">
<path d="M231.947 138.864L230.051 134.684C229.237 132.846 229.858 130.811 231.559 129.742L235.37 127.304C236.158 126.802 237.147 126.681 238.017 126.946L273.037 137.635C273.714 137.841 274.05 138.474 273.843 139.152L270.353 150.586C270.146 151.264 269.514 151.601 268.837 151.394L233.914 140.735C233.044 140.47 232.291 139.816 231.947 138.864Z" fill="#DDE1F0"/>
</g>
<path d="M260.183 144.41L261.987 138.499C262.194 137.821 262.952 137.416 263.629 137.623L269.53 139.424C270.207 139.631 270.61 140.389 270.403 141.068L268.599 146.979C268.392 147.657 267.634 148.061 266.957 147.854L261.056 146.053C260.349 145.943 259.946 145.185 260.183 144.41Z" fill="#C5CCDE"/>
<path d="M249.057 141.014L250.861 135.103C251.068 134.425 251.826 134.021 252.503 134.228L258.404 136.029C259.081 136.235 259.484 136.994 259.277 137.672L257.473 143.583C257.266 144.261 256.508 144.666 255.831 144.459L249.93 142.658C249.32 142.577 248.82 141.789 249.057 141.014Z" fill="#C5CCDE"/>
<path d="M238.029 137.648L239.833 131.737C240.04 131.059 240.798 130.655 241.475 130.862L247.376 132.663C248.054 132.869 248.457 133.628 248.25 134.306L246.446 140.217C246.239 140.895 245.481 141.3 244.803 141.093L238.902 139.292C238.196 139.182 237.793 138.423 238.029 137.648Z" fill="#C5CCDE"/>
<g filter="url(#filter6_d)">
<path d="M238.082 142.325L233.818 140.706C232.009 140.048 230.935 138.025 231.4 136.155L232.441 131.706C232.61 130.804 233.263 130.05 234.051 129.549L266.387 112.302C267.019 111.965 267.696 112.172 268.032 112.804L273.606 123.297C273.942 123.929 273.735 124.607 273.103 124.944L240.767 142.191C240.009 142.596 239.02 142.717 238.082 142.325Z" fill="#DDE1F0"/>
</g>
<path d="M262.031 126.226L259.143 120.789C258.808 120.157 259.074 119.285 259.705 118.948L265.137 116.051C265.768 115.714 266.639 115.98 266.975 116.612L269.863 122.049C270.199 122.681 269.933 123.553 269.301 123.89L263.869 126.787C263.238 127.124 262.367 126.858 262.031 126.226Z" fill="#C5CCDE"/>
<path d="M251.8 131.683L248.912 126.246C248.576 125.614 248.842 124.742 249.474 124.405L254.905 121.508C255.537 121.172 256.408 121.437 256.743 122.069L259.631 127.506C259.967 128.138 259.701 129.01 259.07 129.347L253.638 132.244C253.006 132.581 252.136 132.315 251.8 131.683Z" fill="white"/>
<path d="M241.569 137.14L238.68 131.703C238.345 131.071 238.611 130.199 239.242 129.862L244.674 126.965C245.305 126.629 246.176 126.894 246.512 127.526L249.4 132.963C249.736 133.595 249.47 134.467 248.838 134.804L243.407 137.701C242.775 138.038 242.001 137.801 241.569 137.14Z" fill="#C5CCDE"/>
<g filter="url(#filter7_d)">
<path d="M241.55 138.935L237.403 140.741C235.567 141.558 233.536 140.938 232.469 139.235L230.038 135.421C229.538 134.633 229.417 133.643 229.683 132.771L240.389 97.6935C240.596 97.0153 241.228 96.6784 241.905 96.8851L253.224 100.34C253.901 100.546 254.236 101.178 254.029 101.857L243.323 136.934C243.057 137.806 242.404 138.56 241.55 138.935Z" fill="white"/>
</g>
<path d="M247.114 110.656L241.212 108.855C240.535 108.648 240.132 107.89 240.339 107.211L242.143 101.301C242.35 100.622 243.108 100.218 243.785 100.425L249.687 102.226C250.364 102.433 250.767 103.191 250.56 103.869L248.785 109.683C248.549 110.459 247.791 110.863 247.114 110.656Z" fill="#7894FF"/>
<path d="M243.742 121.702L237.841 119.901C237.164 119.695 236.761 118.936 236.968 118.258L238.772 112.347C238.979 111.669 239.737 111.265 240.414 111.471L246.315 113.272C246.992 113.479 247.395 114.238 247.188 114.916L245.384 120.827C245.177 121.505 244.419 121.909 243.742 121.702Z" fill="#F24F9B"/>
<path d="M240.37 132.749L234.469 130.948C233.792 130.741 233.389 129.983 233.596 129.304L235.4 123.393C235.607 122.715 236.365 122.311 237.042 122.518L242.943 124.319C243.621 124.525 244.024 125.284 243.817 125.962L242.012 131.873C241.805 132.551 241.048 132.956 240.37 132.749Z" fill="#DDE1F0"/>
<path d="M235.309 138.937C236.431 139.279 237.619 138.646 237.962 137.522C238.305 136.398 237.674 135.209 236.552 134.867C235.43 134.524 234.242 135.158 233.899 136.282C233.556 137.406 234.187 138.594 235.309 138.937Z" fill="#DDE1F0"/>
<defs>
<filter id="filter0_d" x="314.007" y="103.51" width="62.0699" height="64.4668" filterUnits="userSpaceOnUse" color-interpolation-filters="sRGB">
<feFlood flood-opacity="0" result="BackgroundImageFix"/>
<feColorMatrix in="SourceAlpha" type="matrix" values="0 0 0 0 0 0 0 0 0 0 0 0 0 0 0 0 0 0 127 0"/>
<feOffset dy="5"/>
<feGaussianBlur stdDeviation="4"/>
<feColorMatrix type="matrix" values="0 0 0 0 0.968627 0 0 0 0 0.254902 0 0 0 0 0.564706 0 0 0 0.3 0"/>
<feBlend mode="normal" in2="BackgroundImageFix" result="effect1_dropShadow"/>
<feBlend mode="normal" in="SourceGraphic" in2="effect1_dropShadow" result="shape"/>
</filter>
<filter id="filter1_d" x="337.276" y="52.3992" width="80.8682" height="80.5097" filterUnits="userSpaceOnUse" color-interpolation-filters="sRGB">
<feFlood flood-opacity="0" result="BackgroundImageFix"/>
<feColorMatrix in="SourceAlpha" type="matrix" values="0 0 0 0 0 0 0 0 0 0 0 0 0 0 0 0 0 0 127 0"/>
<feOffset dy="11"/>
<feGaussianBlur stdDeviation="11"/>
<feColorMatrix type="matrix" values="0 0 0 0 0.397708 0 0 0 0 0.47749 0 0 0 0 0.575 0 0 0 0.18 0"/>
<feBlend mode="normal" in2="BackgroundImageFix" result="effect1_dropShadow"/>
<feBlend mode="normal" in="SourceGraphic" in2="effect1_dropShadow" result="shape"/>
</filter>
<filter id="filter2_d" x="298.824" y="43.7485" width="79.7516" height="79.6335" filterUnits="userSpaceOnUse" color-interpolation-filters="sRGB">
<feFlood flood-opacity="0" result="BackgroundImageFix"/>
<feColorMatrix in="SourceAlpha" type="matrix" values="0 0 0 0 0 0 0 0 0 0 0 0 0 0 0 0 0 0 127 0"/>
<feOffset dy="11"/>
<feGaussianBlur stdDeviation="11"/>
<feColorMatrix type="matrix" values="0 0 0 0 0.397708 0 0 0 0 0.47749 0 0 0 0 0.575 0 0 0 0.18 0"/>
<feBlend mode="normal" in2="BackgroundImageFix" result="effect1_dropShadow"/>
<feBlend mode="normal" in="SourceGraphic" in2="effect1_dropShadow" result="shape"/>
</filter>
<filter id="filter3_d" x="325.274" y="27.2625" width="79.7516" height="79.6335" filterUnits="userSpaceOnUse" color-interpolation-filters="sRGB">
<feFlood flood-opacity="0" result="BackgroundImageFix"/>
<feColorMatrix in="SourceAlpha" type="matrix" values="0 0 0 0 0 0 0 0 0 0 0 0 0 0 0 0 0 0 127 0"/>
<feOffset dy="11"/>
<feGaussianBlur stdDeviation="11"/>
<feColorMatrix type="matrix" values="0 0 0 0 0.397708 0 0 0 0 0.47749 0 0 0 0 0.575 0 0 0 0.18 0"/>
<feBlend mode="normal" in2="BackgroundImageFix" result="effect1_dropShadow"/>
<feBlend mode="normal" in="SourceGraphic" in2="effect1_dropShadow" result="shape"/>
</filter>
<filter id="filter4_d" x="160.323" y="56.8274" width="111.766" height="123.805" filterUnits="userSpaceOnUse" color-interpolation-filters="sRGB">
<feFlood flood-opacity="0" result="BackgroundImageFix"/>
<feColorMatrix in="SourceAlpha" type="matrix" values="0 0 0 0 0 0 0 0 0 0 0 0 0 0 0 0 0 0 127 0"/>
<feOffset dy="11"/>
<feGaussianBlur stdDeviation="11"/>
<feColorMatrix type="matrix" values="0 0 0 0 0.397708 0 0 0 0 0.47749 0 0 0 0 0.575 0 0 0 0.18 0"/>
<feBlend mode="normal" in2="BackgroundImageFix" result="effect1_dropShadow"/>
<feBlend mode="normal" in="SourceGraphic" in2="effect1_dropShadow" result="shape"/>
</filter>
<filter id="filter5_d" x="207.696" y="115.809" width="88.2074" height="68.6454" filterUnits="userSpaceOnUse" color-interpolation-filters="sRGB">
<feFlood flood-opacity="0" result="BackgroundImageFix"/>
<feColorMatrix in="SourceAlpha" type="matrix" values="0 0 0 0 0 0 0 0 0 0 0 0 0 0 0 0 0 0 127 0"/>
<feOffset dy="11"/>
<feGaussianBlur stdDeviation="11"/>
<feColorMatrix type="matrix" values="0 0 0 0 0.397708 0 0 0 0 0.47749 0 0 0 0 0.575 0 0 0 0.18 0"/>
<feBlend mode="normal" in2="BackgroundImageFix" result="effect1_dropShadow"/>
<feBlend mode="normal" in="SourceGraphic" in2="effect1_dropShadow" result="shape"/>
</filter>
<filter id="filter6_d" x="209.292" y="101.141" width="86.4741" height="74.4232" filterUnits="userSpaceOnUse" color-interpolation-filters="sRGB">
<feFlood flood-opacity="0" result="BackgroundImageFix"/>
<feColorMatrix in="SourceAlpha" type="matrix" values="0 0 0 0 0 0 0 0 0 0 0 0 0 0 0 0 0 0 127 0"/>
<feOffset dy="11"/>
<feGaussianBlur stdDeviation="11"/>
<feColorMatrix type="matrix" values="0 0 0 0 0.397708 0 0 0 0 0.47749 0 0 0 0 0.575 0 0 0 0.18 0"/>
<feBlend mode="normal" in2="BackgroundImageFix" result="effect1_dropShadow"/>
<feBlend mode="normal" in="SourceGraphic" in2="effect1_dropShadow" result="shape"/>
</filter>
<filter id="filter7_d" x="207.545" y="85.8247" width="68.5446" height="88.273" filterUnits="userSpaceOnUse" color-interpolation-filters="sRGB">
<feFlood flood-opacity="0" result="BackgroundImageFix"/>
<feColorMatrix in="SourceAlpha" type="matrix" values="0 0 0 0 0 0 0 0 0 0 0 0 0 0 0 0 0 0 127 0"/>
<feOffset dy="11"/>
<feGaussianBlur stdDeviation="11"/>
<feColorMatrix type="matrix" values="0 0 0 0 0.397708 0 0 0 0 0.47749 0 0 0 0 0.575 0 0 0 0.18 0"/>
<feBlend mode="normal" in2="BackgroundImageFix" result="effect1_dropShadow"/>
<feBlend mode="normal" in="SourceGraphic" in2="effect1_dropShadow" result="shape"/>
</filter>
<linearGradient id="paint0_linear" x1="82.3927" y1="148.258" x2="89.2275" y2="125.865" gradientUnits="userSpaceOnUse">
<stop stop-color="#F5F8FF"/>
<stop offset="0.9913" stop-color="#D8E0EB"/>
</linearGradient>
<linearGradient id="paint1_linear" x1="180.62" y1="82.6052" x2="184.542" y2="83.8023" gradientUnits="userSpaceOnUse">
<stop stop-color="#FF66A9"/>
<stop offset="1" stop-color="#F53689"/>
</linearGradient>
<linearGradient id="paint2_linear" x1="104.496" y1="75.7088" x2="113.513" y2="46.1638" gradientUnits="userSpaceOnUse">
<stop offset="0.00289017" stop-color="#606673" stop-opacity="0"/>
<stop offset="1" stop-color="#373C47"/>
</linearGradient>
<linearGradient id="paint3_linear" x1="112.867" y1="38.3508" x2="115.757" y2="28.8813" gradientUnits="userSpaceOnUse">
<stop offset="0.00289017" stop-color="#3F5073" stop-opacity="0"/>
<stop offset="1" stop-color="#283247"/>
</linearGradient>
<linearGradient id="paint4_linear" x1="106.954" y1="122.706" x2="157.499" y2="138.133" gradientUnits="userSpaceOnUse">
<stop stop-color="#FF66A9"/>
<stop offset="1" stop-color="#F53689"/>
</linearGradient>
<linearGradient id="paint5_linear" x1="385.028" y1="54.2524" x2="387.836" y2="55.1096" gradientUnits="userSpaceOnUse">
<stop stop-color="#FF66A9"/>
<stop offset="1" stop-color="#F53689"/>
</linearGradient>
<linearGradient id="paint6_linear" x1="400.234" y1="67.2842" x2="403.625" y2="68.3192" gradientUnits="userSpaceOnUse">
<stop stop-color="#83A6FF"/>
<stop offset="1" stop-color="#5A78FF"/>
</linearGradient>
<linearGradient id="paint7_linear" x1="289.629" y1="130.163" x2="293.02" y2="131.198" gradientUnits="userSpaceOnUse">
<stop stop-color="#83A6FF"/>
<stop offset="1" stop-color="#5A78FF"/>
</linearGradient>
<linearGradient id="paint8_linear" x1="341.889" y1="124.358" x2="333.797" y2="150.87" gradientUnits="userSpaceOnUse">
<stop stop-color="#FF66A9"/>
<stop offset="1" stop-color="#F53689"/>
</linearGradient>
<linearGradient id="paint9_linear" x1="363.946" y1="91.0176" x2="385.894" y2="97.7165" gradientUnits="userSpaceOnUse">
<stop stop-color="#FF66A9"/>
<stop offset="1" stop-color="#F53689"/>
</linearGradient>
<linearGradient id="paint10_linear" x1="375.603" y1="89.2771" x2="375.925" y2="88.2238" gradientUnits="userSpaceOnUse">
<stop stop-color="white"/>
<stop offset="0.9913" stop-color="#E6EDF7"/>
</linearGradient>
<linearGradient id="paint11_linear" x1="336.663" y1="80.4416" x2="337.395" y2="78.0438" gradientUnits="userSpaceOnUse">
<stop stop-color="white"/>
<stop offset="0.9913" stop-color="#E6EDF7"/>
</linearGradient>
<linearGradient id="paint12_linear" x1="349.217" y1="65.1122" x2="373.61" y2="72.5573" gradientUnits="userSpaceOnUse">
<stop stop-color="#83A6FF"/>
<stop offset="1" stop-color="#5A78FF"/>
</linearGradient>
<linearGradient id="paint13_linear" x1="363.086" y1="63.9648" x2="363.818" y2="61.567" gradientUnits="userSpaceOnUse">
<stop stop-color="white"/>
<stop offset="0.9913" stop-color="#E6EDF7"/>
</linearGradient>
<linearGradient id="paint14_linear" x1="359.952" y1="111.411" x2="366.761" y2="106.101" gradientUnits="userSpaceOnUse">
<stop stop-color="#83A6FF"/>
<stop offset="1" stop-color="#5A78FF"/>
</linearGradient>
<linearGradient id="paint15_linear" x1="331.005" y1="102.37" x2="337.814" y2="97.0602" gradientUnits="userSpaceOnUse">
<stop stop-color="#83A6FF"/>
<stop offset="1" stop-color="#5A78FF"/>
</linearGradient>
<linearGradient id="paint16_linear" x1="263.988" y1="93.2764" x2="266.474" y2="94.0351" gradientUnits="userSpaceOnUse">
<stop stop-color="#FF66A9"/>
<stop offset="1" stop-color="#F53689"/>
</linearGradient>
<linearGradient id="paint17_linear" x1="244.948" y1="149.544" x2="247.137" y2="150.212" gradientUnits="userSpaceOnUse">
<stop stop-color="#83A6FF"/>
<stop offset="1" stop-color="#5A78FF"/>
</linearGradient>
<linearGradient id="paint18_linear" x1="192.325" y1="119.02" x2="224.678" y2="128.894" gradientUnits="userSpaceOnUse">
<stop stop-color="#CED7E2"/>
<stop offset="1" stop-color="#E6ECF5"/>
</linearGradient>
<linearGradient id="paint19_linear" x1="190.193" y1="126.003" x2="204.768" y2="130.452" gradientUnits="userSpaceOnUse">
<stop stop-color="#CED7E2"/>
<stop offset="1" stop-color="#E6ECF5"/>
</linearGradient>
<linearGradient id="paint20_linear" x1="205.873" y1="92.4684" x2="233.247" y2="100.823" gradientUnits="userSpaceOnUse">
<stop stop-color="#FF66A9"/>
<stop offset="1" stop-color="#F53689"/>
</linearGradient>
<clipPath id="clip0">
<rect width="62.8523" height="57.3869" fill="white" transform="translate(113.857 100.086) rotate(16.9729)"/>
</clipPath>
</defs>
</svg>
