<svg width="978" height="287" viewBox="0 0 978 287" fill="none" xmlns="http://www.w3.org/2000/svg">
<path d="M725.624 26.5535H719.285C718.638 26.5535 718.38 25.826 718.38 25.535C718.38 24.8075 719.026 24.5165 719.285 24.5165H725.624C726.27 24.5165 726.529 25.244 726.529 25.535C726.529 26.2625 726.141 26.5535 725.624 26.5535Z" fill="#2D5887"/>
<path d="M715.663 26.5535H715.405C714.758 26.5535 714.499 25.826 714.499 25.535C714.499 24.8075 715.146 24.5165 715.405 24.5165H715.663C716.31 24.5165 716.569 25.244 716.569 25.535C716.569 26.2625 716.31 26.5535 715.663 26.5535Z" fill="#2D5887"/>
<path opacity="0.2" d="M754.083 34.1195H689.533C689.663 33.5375 689.792 33.101 690.18 32.6645L696.648 24.08H746.968L753.436 32.6645C753.824 33.101 753.953 33.5375 754.083 34.1195Z" fill="url(#paint0_linear)"/>
<path d="M501.732 321.743L291.857 257.687C290.625 257.311 290.056 256.233 290.434 254.994C290.812 253.754 291.886 253.178 293.118 253.554L502.788 317.548C504.02 317.924 504.589 319.001 504.211 320.241C503.832 321.481 502.759 322.057 501.732 321.743Z" fill="#EBF0F6"/>
<path d="M443.787 299.766C428.054 295.416 409.493 289.299 396.413 285.081C383.144 281.483 364.393 275.986 348.912 270.809C367.026 266.625 377.348 251.93 381.448 241.436L432.993 257.168C430.74 268.226 431.034 286.387 443.787 299.766Z" fill="url(#paint1_linear)"/>
<path d="M546.414 142.251L505.167 277.39C504.158 280.696 500.732 282.361 497.652 281.42L315.089 225.7C312.009 224.76 310.159 221.259 311.105 218.159L352.351 83.0208C353.297 79.9213 356.787 78.0499 359.867 78.99L542.429 134.711C545.715 135.713 547.36 139.152 546.414 142.251Z" fill="#F5F8FF"/>
<path d="M546.414 142.251L510.907 258.586L316.844 199.355L352.351 83.0208C353.297 79.9213 356.787 78.0499 359.867 78.99L542.429 134.711C545.715 135.713 547.36 139.152 546.414 142.251Z" fill="#172D45"/>
<path d="M538.579 141.441L358.481 86.4728L325.433 194.749L505.532 249.717L538.579 141.441Z" fill="white"/>
<path d="M408.143 246.647C410.752 247.443 413.516 245.961 414.317 243.336C415.118 240.711 413.653 237.938 411.045 237.142C408.436 236.346 405.672 237.828 404.871 240.453C404.07 243.078 405.535 245.851 408.143 246.647Z" fill="#DBDFE6"/>
<path opacity="0.4" d="M405.912 149.514L352.314 133.155L336.042 186.467L389.641 202.826L405.912 149.514Z" fill="#234569"/>
<path d="M401.143 151.899L354.733 137.734L340.606 184.02L387.016 198.185L401.143 151.899Z" fill="white"/>
<path d="M370.751 142.622L344.2 172.241L349.372 155.297L362.947 140.241L370.751 142.622Z" fill="#EAEEF9"/>
<path d="M395.804 150.269L360.32 190.037L352.927 187.78L352.58 187.448L388.001 147.888L395.804 150.269Z" fill="#EAEEF9"/>
<path d="M400.576 153.759L366.48 191.917L362.579 190.726L398.063 150.959L400.576 153.759Z" fill="#EAEEF9"/>
<path opacity="0.4" d="M518.448 183.862L464.849 167.503L448.578 220.814L502.176 237.173L518.448 183.862Z" fill="#234569"/>
<path d="M513.679 186.246L467.268 172.081L453.141 218.367L499.552 232.532L513.679 186.246Z" fill="white"/>
<path d="M483.286 176.97L456.736 206.589L461.908 189.645L475.483 174.588L483.286 176.97Z" fill="#EAEEF9"/>
<path d="M508.34 184.617L472.855 224.384L465.463 222.128L465.115 221.796L500.536 182.235L508.34 184.617Z" fill="#EAEEF9"/>
<path d="M513.111 188.106L479.016 226.264L475.114 225.074L510.599 185.306L513.111 188.106Z" fill="#EAEEF9"/>
<path opacity="0.4" d="M415.359 152.398L394.736 219.967L434.575 232.126L455.198 164.557L415.359 152.398Z" fill="#234569"/>
<path d="M450.634 167.004L417.777 156.976L408.38 187.764L441.237 197.793L450.634 167.004Z" fill="white"/>
<path d="M440.102 201.512L407.245 191.484L399.299 217.519L432.156 227.548L440.102 201.512Z" fill="white"/>
<path d="M406.328 190.074C407.009 190.282 407.73 189.895 407.939 189.211C408.148 188.526 407.766 187.802 407.085 187.595C406.405 187.387 405.684 187.774 405.475 188.459C405.266 189.143 405.648 189.867 406.328 190.074Z" fill="white"/>
<path d="M433.179 161.677L409.612 188.14L408.38 187.764L412.417 174.54L425.992 159.483L433.179 161.677Z" fill="#EAEEF9"/>
<path d="M438.313 163.244L414.541 189.644L412.077 188.892L435.644 162.429L438.313 163.244Z" fill="#EAEEF9"/>
<path d="M449.058 172.17L446.157 181.675L433.639 195.474L429.327 194.157L449.058 172.17Z" fill="#EAEEF9"/>
<path d="M421.415 195.808L402.584 218.522L399.299 217.519L400.623 213.18L416.486 194.304L421.415 195.808Z" fill="#EAEEF9"/>
<path d="M438.652 206.265L423.326 224.853L425.585 225.542L436.949 211.844L438.652 206.265Z" fill="#EAEEF9"/>
<path d="M436.611 200.446L417.781 223.16L414.7 222.22L433.531 199.506L436.611 200.446Z" fill="#EAEEF9"/>
<path d="M305.776 196.136C307.768 196.744 310.011 195.735 310.687 193.522C311.294 191.53 310.286 189.287 308.073 188.612C306.081 188.004 303.838 189.013 303.163 191.226C302.776 193.285 303.785 195.528 305.776 196.136Z" fill="#6E8EFF"/>
<path d="M539.938 193.581C541.525 194.065 543.137 193.208 543.621 191.621C544.105 190.034 543.248 188.422 541.661 187.938C540.074 187.454 538.462 188.311 537.978 189.898C537.494 191.485 538.351 193.097 539.938 193.581Z" fill="url(#paint2_linear)"/>
<path opacity="0.3" d="M538.579 141.441L358.481 86.4728L336.975 156.935L517.073 211.903L538.579 141.441Z" fill="url(#paint3_linear)"/>
<path d="M552.079 163.406L552.268 162.786C552.52 161.96 552.504 161.277 552.551 160.388C552.455 159.23 552.092 158.215 551.317 157.075L539.258 141.423L358.544 86.2662L331.727 90.2791C330.306 90.523 329.232 91.0988 328.301 91.9439C327.432 92.5824 326.912 93.5529 326.596 94.5861C322.795 103.365 327.27 114.444 337.127 117.452C345.958 120.147 355.994 114.175 358.769 105.083C355.994 114.175 360.333 124.535 369.369 127.292C378.404 130.05 388.114 123.979 390.889 114.887C388.114 123.979 392.574 134.375 401.61 137.133C410.029 139.703 419.538 134.473 422.803 125.983C420.992 135.594 426.395 144.924 433.788 147.18C442.618 149.875 452.013 144.837 454.993 135.807C454.93 136.014 454.867 136.221 454.804 136.427L454.993 135.807C451.99 161.093 481.479 163.769 487.281 144.759C487.155 145.172 487.092 145.379 486.966 145.792C486.966 145.792 486.966 145.792 486.903 145.998C487.092 145.379 488.089 144.506 488.278 143.886C485.756 152.151 489.043 161.786 496.468 165.408C499.012 166.636 501.539 167.181 504.461 167.169C504.935 167.088 505.346 167.213 505.819 167.132C510.431 166.733 514.726 164.429 517.614 160.116C517.677 159.909 517.946 159.765 518.072 159.352C518.466 158.794 518.592 158.381 518.987 157.824C518.359 165.764 522.896 173.7 530.495 176.019C540.779 179.835 550.725 172.254 552.079 163.406Z" fill="#6E8EFF"/>
<path d="M520.218 155.262C519.903 156.295 519.587 157.328 519.067 158.299C518.878 158.919 518.546 159.269 518.151 159.826C518.088 160.033 517.82 160.177 517.694 160.59C514.932 164.491 510.574 167.001 505.899 167.607C505.426 167.688 504.952 167.769 504.541 167.644C502.709 167.763 500.798 167.405 499.155 166.904C498.333 166.653 497.512 166.402 496.754 165.945C489.392 162.117 485.501 152.798 488.024 144.532C487.772 145.359 487.582 145.979 487.188 146.536L487.125 146.743L487.251 146.329L489.348 140.193L486.419 125.52L512.499 133.48L514.57 137.726L521.811 150.779L520.218 155.262Z" fill="white"/>
<path d="M392.42 110.609L390.607 117.284C390.859 116.457 390.843 115.775 391.095 114.948C388.32 124.04 378.405 130.049 369.575 127.354C360.744 124.659 355.622 114.964 358.397 105.872C358.271 106.285 358.208 106.492 358.081 106.905L359.99 101.388L373.285 94.604L377.785 92.3634L403.044 100.073L392.42 110.609Z" fill="white"/>
<path d="M424.124 120.737L422.106 127.35C422.358 126.523 422.753 125.966 423.005 125.139C420.23 134.231 425.1 144.753 433.931 147.448C442.761 150.143 452.424 144.961 455.199 135.869C455.073 136.282 455.01 136.489 454.884 136.902L456.381 131.26L456.534 120.464L456.437 116.369L431.794 108.848L424.124 120.737Z" fill="white"/>
<path opacity="0.3" d="M552.551 160.388L328.301 91.9439C329.232 91.0988 330.306 90.523 331.727 90.2792L358.481 86.4729L539.195 141.629L551.254 157.282C552.092 158.215 552.456 159.23 552.551 160.388Z" fill="url(#paint4_linear)"/>
<g clip-path="url(#clip0)">
<path d="M457.065 300.731L462.015 306.612C464.088 309.072 467.704 309.301 470.081 307.167L507.603 274.683C509.747 272.796 511.065 270.02 511.146 267.184L511.545 253.8L506.7 251.685" fill="#DB1A74"/>
<path d="M446.322 287.362L452.078 297.541C453.659 300.327 457.147 301.233 459.915 299.615L502.683 274.612C505.17 273.146 506.923 270.742 507.551 267.914L510.684 253.537L505.006 251.327" fill="#E9368B"/>
<path d="M509.752 253.253L502.007 268.606C500.662 271.215 498.351 273.131 495.612 273.884L448.1 287.19C445.029 288.001 441.879 286.245 441.099 283.147L432.161 249.989C431.381 246.891 433.141 243.694 436.212 242.884L483.746 229.505C486.485 228.752 489.488 229.192 491.849 230.707L506.666 240.235C509.678 242.187 511.247 245.526 510.989 248.943" fill="url(#paint5_linear)"/>
<path d="M440.56 281.313L439.855 280.542C438.466 278.926 438.181 276.774 438.83 274.906" fill="#DB1A74"/>
<path d="M504.801 251.741C504.265 252.213 503.585 252.641 502.9 252.83C500.42 253.503 497.871 252.089 497.223 249.587C496.575 247.086 497.992 244.499 500.472 243.826C502.952 243.153 505.501 244.566 506.149 247.068C506.199 247.163 506.226 247.33 506.204 247.402" fill="white"/>
<path d="M445.866 260.846C445.372 258.868 446.722 256.499 449.556 255.695C450.854 255.297 451.925 255.386 452.736 255.554C453.619 255.744 454.093 256.762 453.661 257.663L453.639 257.736C453.318 258.274 452.66 258.629 452.086 258.454C451.728 258.345 451.253 258.359 450.756 258.445C449.977 258.684 449.54 259.345 449.694 259.869C450.111 261.585 455.663 259.069 456.85 263.404C457.421 265.644 456.071 268.012 452.978 268.896C451.348 269.352 449.919 269.154 448.986 268.869C448.125 268.606 447.795 267.632 448.205 266.803L448.227 266.731C448.57 266.12 449.277 265.859 449.923 266.057C450.497 266.232 451.165 266.356 451.872 266.095C452.816 265.827 453.298 265.021 453.116 264.33C452.511 262.715 447.031 265.253 445.866 260.846Z" fill="white"/>
<path d="M462.096 263.177L461.988 264.813C461.91 265.584 461.401 266.223 460.716 266.411C459.512 266.759 458.398 265.783 458.538 264.555L459.428 255.213C459.546 254.057 460.331 253.026 461.513 252.751C462.623 252.454 463.843 252.826 464.482 253.816L469.944 261.362C470.654 262.373 470.161 263.732 468.957 264.08C468.272 264.268 467.483 264.027 467.064 263.343L466.155 261.954L462.096 263.177ZM462.42 256.205L462.221 260.197L464.535 259.552L462.42 256.205Z" fill="white"/>
<path d="M472.807 263.03L469.835 251.954C469.604 251.168 470.086 250.362 470.864 250.123L471.384 249.963C472.162 249.724 472.957 250.205 473.188 250.991L475.358 259.042L479.467 257.913C480.246 257.674 481.04 258.154 481.271 258.94L481.298 259.107C481.529 259.893 481.048 260.699 480.269 260.938L472.807 263.03Z" fill="white"/>
<path d="M492.798 255.864C493.029 256.649 492.548 257.456 491.769 257.695L483.456 260.004L480.144 247.473L488.291 245.192C489.069 244.954 489.864 245.434 490.095 246.22C490.325 247.005 489.844 247.812 489.065 248.051L484.249 249.441L484.743 251.419L488.168 250.478C488.924 250.312 489.669 250.698 489.828 251.462C489.987 252.225 489.6 252.981 488.843 253.147L485.419 254.088L486.012 256.256L490.994 254.837C491.773 254.598 492.639 255.1 492.798 255.864Z" fill="white"/>
<path d="M521.374 256.8L501.501 250.734C500.353 250.384 499.637 249.132 500.014 247.897C500.369 246.734 501.612 246.001 502.832 246.373L522.777 252.461C523.925 252.811 524.641 254.063 524.264 255.298C523.815 256.512 522.594 257.172 521.374 256.8Z" fill="#1C3754"/>
</g>
<path d="M727.431 178.947C722.677 194.522 713.038 207.367 700.729 216.302C694.02 221.064 686.538 224.817 678.596 227.036C665.69 230.836 651.57 231.015 637.714 226.786C599.681 215.178 578.28 174.904 589.861 136.959C601.486 98.8715 641.686 77.5543 679.578 89.1194C693.434 93.3484 705.047 101.381 713.675 111.599C719.023 117.875 723.135 125.166 726.041 132.863C731.361 147.334 732.185 163.372 727.431 178.947Z" fill="#EAEEF9"/>
<path d="M585.029 144.306C586.301 144.695 587.735 144.049 588.167 142.633C588.556 141.359 587.912 139.924 586.498 139.492C585.041 139.202 583.749 139.891 583.36 141.166C582.971 142.44 583.615 143.875 585.029 144.306Z" fill="url(#paint6_linear)"/>
<path d="M583.363 200.911C584.635 201.299 586.069 200.653 586.501 199.237C586.89 197.963 586.246 196.528 584.832 196.097C583.56 195.708 582.126 196.354 581.694 197.77C581.446 199.088 582.09 200.522 583.363 200.911Z" fill="url(#paint7_linear)"/>
<path d="M740.427 139.377C741.7 139.766 742.992 139.077 743.381 137.802C743.77 136.528 743.083 135.235 741.81 134.846C740.538 134.458 739.245 135.147 738.856 136.421C738.467 137.696 739.155 138.989 740.427 139.377Z" fill="url(#paint8_linear)"/>
<path d="M674.488 227.33C672.889 232.569 667.308 235.664 661.935 234.024L610.611 218.359C605.38 216.763 602.293 211.177 603.936 205.797L640.841 84.8805C642.44 79.6417 648.021 76.5471 653.394 78.1869L705.142 93.981C710.373 95.5777 713.459 101.163 711.817 106.543L674.869 227.601L674.445 227.472L674.488 227.33Z" fill="white"/>
<path d="M705.142 93.981C710.373 95.5777 713.459 101.163 711.817 106.543L674.782 227.885C673.183 233.123 667.602 236.218 662.229 234.578L610.482 218.784C605.25 217.187 602.164 211.602 603.806 206.222L640.841 84.8805C642.44 79.6417 648.021 76.5471 653.394 78.1869L705.142 93.981Z" fill="#1C3754"/>
<path d="M706.998 104.608L669.963 225.949C669.315 228.073 667.524 229.384 665.372 229.346C664.904 229.358 664.48 229.229 663.915 229.056L612.167 213.262C611.884 213.176 611.601 213.089 611.46 213.046C609.328 211.931 608.334 209.616 609.025 207.35L645.931 86.434C646.665 84.027 648.783 82.661 651.131 83.0683C651.414 83.1546 651.555 83.1978 651.838 83.2841L659.473 85.6144C660.463 85.9164 660.954 86.8401 660.651 87.8313C660.046 89.8135 661.224 92.0304 663.204 92.6345L689.502 100.661C691.481 101.265 693.696 100.084 694.301 98.1018C694.604 97.1106 695.527 96.6185 696.516 96.9205L703.727 99.1214L703.857 98.6966C704.281 98.8261 704.847 98.9987 705.228 99.2697C706.751 100.354 707.647 102.485 706.998 104.608Z" fill="white"/>
<path opacity="0.3" d="M706.998 104.608L669.963 225.949C669.315 228.073 667.524 229.384 665.372 229.346C664.904 229.358 664.48 229.229 663.915 229.056L612.167 213.262C611.884 213.176 611.601 213.089 611.46 213.046C609.328 211.931 608.334 209.616 609.025 207.35L645.931 86.434C646.665 84.027 648.783 82.661 651.131 83.0683C651.414 83.1546 651.555 83.1978 651.838 83.2841L659.473 85.6144C660.463 85.9164 660.954 86.8401 660.651 87.8313C660.046 89.8135 661.224 92.0304 663.204 92.6345L689.502 100.661C691.481 101.265 693.696 100.084 694.301 98.1018C694.604 97.1106 695.527 96.6185 696.516 96.9205L703.727 99.1214L703.857 98.6966C704.281 98.8261 704.847 98.9987 705.228 99.2697C706.751 100.354 707.647 102.485 706.998 104.608Z" fill="url(#paint9_linear)"/>
<path d="M681.891 93.6947L674.963 91.5802C674.256 91.3644 674.189 90.5702 674.276 90.287C674.492 89.5791 675.285 89.5117 675.568 89.598L682.496 91.7125C683.061 91.8851 683.269 92.7225 683.183 93.0057C682.967 93.7136 682.456 93.8673 681.891 93.6947Z" fill="#2D5887"/>
<path d="M671.004 90.3719L670.721 90.2856C670.014 90.0699 669.947 89.2756 670.034 88.9924C670.25 88.2845 671.043 88.2171 671.326 88.3034L671.609 88.3897C672.316 88.6055 672.383 89.3997 672.296 89.6829C672.08 90.3908 671.569 90.5445 671.004 90.3719Z" fill="#2D5887"/>
<path d="M708.156 119.046C708.07 119.329 708.027 119.471 707.94 119.754C706.73 123.718 702.626 126.026 698.667 124.817C694.708 123.609 692.721 118.978 693.931 115.014L693.888 115.155C692.678 119.12 688.224 120.546 684.407 119.381C680.448 118.173 678.594 114.821 679.804 110.857C678.594 114.821 674.305 117.536 670.346 116.328C666.812 115.249 664.75 111.37 665.449 107.559C665.536 107.276 665.665 106.851 665.752 106.568C664.542 110.532 660.088 111.959 656.129 110.751C652.17 109.542 650.132 106.599 651.342 102.634C651.299 102.776 651.256 102.917 651.212 103.059C649.763 106.795 645.886 108.863 642.069 107.697C638.11 106.489 635.993 102.283 637.203 98.3188C637.29 98.0356 637.333 97.894 637.419 97.6108L639.796 89.8235C640.012 89.1156 640.511 88.4939 641.108 88.057L650.727 81.861L705.727 98.6476L710.247 109.159C710.498 109.855 710.565 110.649 710.348 111.357L708.015 119.003L708.156 119.046Z" fill="url(#paint10_linear)"/>
<path d="M668.918 96.7003C668.69 96.9404 668.561 97.3651 668.474 97.6483L665.493 107.418C665.579 107.135 665.709 106.71 665.795 106.427C664.585 110.391 660.21 113.08 656.251 111.872C652.292 110.663 650.175 106.458 651.385 102.493C651.342 102.635 651.299 102.776 651.256 102.918L654.163 93.8993C654.336 93.333 654.607 92.9514 655.062 92.4713L661.41 86.3602L662.832 85.2464L674.425 88.7849L668.918 96.7003Z" fill="white"/>
<path d="M682.633 100.886C682.688 101.213 682.601 101.496 682.471 101.92L680.138 109.566C680.095 109.708 679.662 111.124 679.792 110.699C678.582 114.663 680.286 119.208 684.669 120.546C688.628 121.754 692.733 119.447 693.943 115.482C693.899 115.624 693.856 115.765 693.813 115.907L696.437 106.802C696.61 106.236 696.598 105.768 696.489 105.115L694.635 96.5012L694.078 94.7832L682.484 91.2446L682.633 100.886Z" fill="white"/>
<path d="M862.052 50.0039C862.805 50.2337 863.601 49.8119 863.83 49.0617C864.059 48.3115 863.634 47.5169 862.881 47.2871C862.128 47.0572 861.332 47.479 861.103 48.2292C860.874 48.9795 861.299 49.774 862.052 50.0039Z" fill="url(#paint11_linear)"/>
<path d="M877.467 63.5119C878.411 63.8001 879.473 63.3248 879.792 62.2799C880.079 61.3395 879.6 60.2794 878.551 59.9592C877.607 59.6711 876.545 60.1464 876.226 61.1913C875.907 62.2362 876.523 63.2238 877.467 63.5119Z" fill="url(#paint12_linear)"/>
<path d="M766.886 126.455C767.831 126.743 768.893 126.267 769.212 125.223C769.499 124.282 769.02 123.222 767.971 122.902C767.027 122.614 765.964 123.089 765.645 124.134C765.358 125.074 765.837 126.134 766.886 126.455Z" fill="url(#paint13_linear)"/>
<path d="M795.656 41.8217C796.685 41.8043 797.503 40.9586 797.484 39.9327C797.464 38.9068 796.614 38.0892 795.584 38.1066C794.555 38.124 793.737 38.9697 793.757 39.9956C793.776 41.0215 794.626 41.8391 795.656 41.8217Z" fill="#EAEEF9"/>
<path d="M782.292 131.256C783.167 130.842 783.537 129.799 783.12 128.927C782.703 128.054 781.656 127.683 780.781 128.097C779.907 128.511 779.536 129.554 779.954 130.426C780.371 131.299 781.418 131.67 782.292 131.256Z" fill="#EAEEF9"/>
<path d="M881.989 89.0524L869.966 128.446C869.774 129.073 869.615 129.595 869.319 130.19C867.423 134.523 863.588 137.693 858.901 138.776L818.707 147.982C814.881 148.871 810.841 148.209 807.561 146.18C806.293 145.45 805.194 144.543 804.231 143.564L775.956 113.346C773.78 111.082 772.457 108.28 771.996 105.283C771.626 103.114 771.771 100.76 772.441 98.5654L784.432 59.2766C785.07 57.1867 786.095 55.3295 787.509 53.7047C789.597 51.3722 792.291 49.6817 795.497 48.9467L835.795 39.7719C839.726 38.9156 843.662 39.5457 847.047 41.6068C848.21 42.3044 849.309 43.2111 850.376 44.2222L878.578 74.3042C881.078 77.0091 882.452 80.3982 882.617 83.9896C882.695 85.6126 882.499 87.3805 881.989 89.0524Z" fill="#EAEEF9"/>
<path d="M863.086 110.797C865.443 109.654 866.42 106.892 865.263 104.544C864.105 102.195 861.326 101.214 858.847 102.319C856.49 103.462 855.513 106.224 856.67 108.573C857.828 110.921 860.607 111.903 863.086 110.797Z" fill="#EAEEF9"/>
<g filter="url(#filter0_d)">
<path d="M844.077 112.192L837.14 134.92C833.934 145.424 822.77 151.321 812.2 148.095C811.653 147.928 811.198 147.789 810.679 147.532C801.086 143.713 795.828 133.199 798.868 123.239L805.805 100.511L813.915 102.986L806.978 125.714C805.292 131.238 808.011 137.017 813.075 139.354C813.594 139.612 814.05 139.751 814.596 139.918C820.61 141.753 827.023 138.365 828.848 132.389L835.785 109.661L844.077 112.192Z" fill="#E9368B"/>
</g>
<path d="M840.979 111.246L834.042 133.974C831.001 143.935 820.769 149.72 810.679 147.532C810.132 147.365 809.649 147.316 809.102 147.149C798.532 143.923 792.564 132.797 795.77 122.293L802.707 99.565L810.817 102.04L803.88 124.768C802.056 130.745 805.484 137.136 811.498 138.972C812.045 139.139 812.501 139.278 813.075 139.354C818.581 140.243 824.091 136.876 825.749 131.443L832.686 108.715L840.979 111.246Z" fill="url(#paint14_linear)"/>
<path opacity="0.7" d="M800.303 116.253C799.847 116.114 799.593 115.64 799.732 115.188L800.174 113.739C800.312 113.286 800.787 113.035 801.243 113.174C801.698 113.313 801.952 113.787 801.814 114.239L801.372 115.688C801.234 116.141 800.759 116.392 800.303 116.253Z" fill="#FF94C6"/>
<path opacity="0.7" d="M799.69 137.843C799.508 137.787 799.354 137.641 799.199 137.495C796.485 133.004 795.827 127.656 797.319 122.766L798.646 118.42C798.784 117.967 799.259 117.716 799.715 117.855C800.17 117.994 800.424 118.467 800.286 118.92L798.959 123.267C797.605 127.704 798.22 132.544 800.679 136.561C800.961 136.944 800.795 137.487 800.411 137.766C800.174 137.891 799.964 137.926 799.69 137.843Z" fill="#FF94C6"/>
<path opacity="0.7" d="M809.599 145.519C806.592 144.602 803.898 142.987 801.697 140.732C801.388 140.44 801.372 139.841 801.692 139.444C801.985 139.137 802.587 139.123 802.987 139.443C804.969 141.434 807.391 142.965 810.124 143.799C810.58 143.938 811.036 144.077 811.428 144.098C813.67 144.584 815.841 144.653 818.086 144.15C818.506 144.08 819.025 144.338 819.069 144.846C819.14 145.264 818.883 145.779 818.373 145.821C815.945 146.268 813.446 146.298 811.021 145.756C810.602 145.825 810.055 145.659 809.599 145.519Z" fill="#FF94C6"/>
<path d="M813.915 102.986L802.707 99.565L799.667 109.526L810.875 112.946L813.915 102.986Z" fill="#DDE6F2"/>
<path d="M813.915 102.986L802.707 99.565L799.667 109.526L810.875 112.946L813.915 102.986Z" fill="#CED7E2"/>
<path d="M810.817 102.04L802.707 99.565L799.667 109.526L807.777 112.001L810.817 102.04Z" fill="white"/>
<path d="M850.916 114.279L839.708 110.858L836.668 120.819L847.876 124.24L850.916 114.279Z" fill="#E8ECF7"/>
<path d="M843.985 112.164L832.777 108.743L829.737 118.703L840.945 122.124L843.985 112.164Z" fill="#CED7E2"/>
<path d="M839.174 110.695L831.064 108.22L827.933 118.153L836.134 120.656L839.174 110.695Z" fill="#E8ECF7"/>
<path d="M840.978 111.246L832.868 108.771L829.737 118.703L837.938 121.207L840.978 111.246Z" fill="white"/>
<g filter="url(#filter1_d)">
<path d="M871.353 80.9684C869.796 86.0721 866.185 89.9461 861.747 92.0595C860.523 92.5906 859.298 93.1216 857.839 93.43C854.738 94.1424 851.57 94.0803 848.378 93.1059C845.185 92.1315 842.384 90.3718 840.349 88.0919C840.016 87.6889 839.642 87.4239 839.31 87.0209C835.698 82.4503 834.244 76.2766 836.054 70.3453C839.001 60.6897 849.313 55.2422 859.029 58.2078C868.746 61.1734 874.3 71.3128 871.353 80.9684Z" fill="#D7DCEB"/>
</g>
<path d="M861.777 91.4657C861.504 89.8745 860.814 88.1562 859.54 86.8625C858.972 86.2369 858.181 85.8448 857.252 85.4103L856.558 85.1984C855.031 84.7324 854.976 84.4142 854.976 84.4142L855.734 81.9313C856.778 81.4958 857.682 81.0179 858.49 80.3598C859.298 79.7016 859.967 79.0011 860.539 78.1203C861.595 78.141 862.542 77.5252 862.697 76.5173C862.824 76.1034 862.672 75.6049 862.799 75.1911C862.883 74.9152 862.925 74.7773 863.009 74.5014C863.051 74.3635 863.093 74.2255 863.136 74.0876C863.178 73.9497 863.22 73.8117 863.262 73.6738C863.334 72.9417 863.447 72.0717 863.145 71.0747C862.611 68.3484 860.576 66.0685 857.8 65.2212C857.244 65.0517 856.647 65.0202 856.092 64.8508C855.036 64.8301 853.938 64.9473 852.937 65.2449C852.756 65.3404 852.575 65.436 852.394 65.5316C852.394 65.5316 852.255 65.4892 852.213 65.6271C851.128 66.2006 850.139 66.9543 849.344 68.0686C848.59 69.045 848.211 70.2865 848.013 71.4323C848.013 71.4323 848.013 71.4323 847.971 71.5703C847.971 71.5703 847.971 71.5703 847.929 71.7082C847.845 71.9841 848.026 71.8885 847.803 72.122C847.761 72.26 847.622 72.2176 847.58 72.3555C847.357 72.589 847.05 73.0984 847.02 73.6925C847.1 74.9231 847.836 74.997 848.361 75.7606C848.361 75.7606 848.361 75.7606 848.181 75.8562L847.264 75.8778C843.457 75.9222 843.018 78.3519 843.859 80.5687C844.204 81.4279 844.898 81.6396 846.202 82.3391C845.785 82.212 843.838 83.1254 843.657 83.221C841.751 83.9964 840.232 85.493 839.449 87.0636C839.407 87.2015 839.407 87.2015 839.365 87.3394C839.697 87.7424 840.029 88.1454 840.404 88.4104L858.032 93.7909C859.353 93.4402 860.674 93.0894 861.941 92.4204C861.789 91.9219 861.735 91.6036 861.777 91.4657ZM849.967 82.4328C849.773 82.0722 849.635 82.0298 849.538 81.8495C849.302 81.6269 849.206 81.4466 848.97 81.2239C848.831 81.1815 848.873 81.0436 848.735 81.0012C848.167 80.3756 847.599 79.7499 847.768 79.1982C847.852 78.9223 848.256 78.5932 848.756 78.4445C848.811 78.7627 849.004 79.1233 849.198 79.4839C849.433 79.7066 849.488 80.0248 849.723 80.2475C849.82 80.4278 849.917 80.6081 850.056 80.6505L850.194 80.6928C850.194 80.6928 850.333 80.7352 850.291 80.8731L849.828 82.3904L849.967 82.4328Z" fill="white"/>
<path d="M861.747 92.0595C857.67 93.9818 852.959 94.504 848.378 93.1059C844.63 91.962 841.497 89.7994 839.31 87.0209C839.352 86.883 839.352 86.883 839.394 86.7451C840.219 85.0366 841.738 83.54 843.644 82.7646C843.964 82.7114 846.391 82.0167 846.669 82.1014C845.504 81.4442 844.33 81.0137 843.985 80.1546L846.454 81.5113C847.059 83.5055 848.708 85.0642 850.929 85.742C852.733 86.2928 854.61 86.1115 856.099 85.209C856.238 85.2514 856.377 85.2937 856.515 85.3361C856.654 85.3785 856.932 85.4632 857.21 85.5479C858.181 85.8445 858.93 86.3746 859.54 86.8623C860.856 88.018 861.545 89.7363 861.776 91.4654C861.734 91.6034 861.789 91.9216 861.747 92.0595Z" fill="url(#paint15_linear)"/>
<path d="M855.692 82.069L854.976 84.4139L848.09 82.6139L848.97 81.2237C849.109 81.266 849.066 81.404 849.205 81.4463C849.441 81.669 849.537 81.8493 849.773 82.072C849.87 82.2523 850.009 82.2947 850.105 82.475C850.105 82.475 850.105 82.475 850.202 82.6553L850.665 81.138C850.665 81.138 850.526 81.0956 850.568 80.9577C851.51 81.8483 853.092 82.6326 855.692 82.069Z" fill="url(#paint16_linear)"/>
<path d="M862.996 74.045C861.482 74.0351 860.01 73.8873 858.664 73.3257C856.485 72.5099 854.559 70.8665 853.356 68.8408C852.296 70.3266 850.529 71.1444 848.653 71.3257C848.333 71.3789 848.194 71.3365 847.874 71.3897C847.874 71.3897 847.874 71.3897 847.916 71.2518C848.156 69.968 848.632 68.9068 849.289 67.7501C850.042 66.7737 851.073 65.8821 852.158 65.3086C852.158 65.3086 852.297 65.351 852.339 65.2131C852.52 65.1175 852.701 65.0219 852.882 64.9264C853.883 64.6288 854.981 64.5116 856.037 64.5322C856.634 64.5638 857.189 64.7332 857.745 64.9027C860.521 65.75 862.556 68.0299 863.09 70.7561C863.212 71.8488 863.279 72.6232 863.207 73.3553C863.081 73.7691 863.039 73.907 862.996 74.045Z" fill="#1C3754"/>
<path d="M849.548 87.2808C848.782 87.801 847.63 87.6 846.7 87.1655C847.967 86.4965 848.38 83.1545 844.783 82.5092C840.22 80.0608 842.248 75.4025 847.431 75.3256L848.348 75.3039L848.445 75.4842C848.566 76.5769 848.73 77.5316 849.075 78.3908C846.626 79.4529 849.138 80.6716 850.147 82.3367C850.908 83.323 851.037 86.3783 849.548 87.2808Z" fill="#1C3754"/>
<path d="M871.353 80.9684C869.796 86.0721 866.185 89.9461 861.747 92.0595C857.67 93.9818 852.959 94.504 848.378 93.1059C844.63 91.962 841.497 89.7994 839.31 87.0209C835.698 82.4503 834.244 76.2766 836.054 70.3453C839.001 60.6897 849.313 55.2422 859.029 58.2078C868.746 61.1734 874.3 71.3128 871.353 80.9684Z" stroke="white" stroke-width="1.492" stroke-miterlimit="10" stroke-linecap="round" stroke-linejoin="round"/>
<path d="M831.808 71.8394C830.437 76.3328 827.348 79.9745 823.57 82.096C823.177 82.3035 822.981 82.4073 822.588 82.6149C818.705 84.5406 814.133 84.946 809.611 83.566C805.994 82.4619 802.998 80.4014 800.728 77.5802C800.158 76.7511 799.587 75.922 799.016 75.0929C796.811 70.9815 796.131 66.1897 797.594 61.3968C800.474 51.9609 810.493 46.6684 819.837 49.5205C829.333 52.4187 834.688 62.4035 831.808 71.8394Z" fill="#E9F0F8"/>
<g filter="url(#filter2_d)">
<path d="M831.808 71.8394C830.3 76.7821 826.818 80.6314 822.588 82.6149C818.705 84.5406 814.133 84.946 809.611 83.566C805.994 82.4619 802.998 80.4014 800.728 77.5802C797.121 73.2046 795.857 67.0884 797.594 61.3968C800.474 51.9609 810.493 46.6684 819.837 49.5205C829.182 52.3727 834.688 62.4035 831.808 71.8394Z" fill="#D7DCEB"/>
</g>
<path d="M823.42 82.0499C823.027 82.2575 822.83 82.3612 822.438 82.5688C818.554 84.4945 813.982 84.9 809.46 83.5199C805.843 82.4158 802.847 80.3553 800.578 77.5342C800.007 76.705 799.436 75.8759 798.865 75.0468C799.304 74.6895 800.149 74.6199 801.688 74.4348L802.337 74.4691C803.529 74.3418 805.023 74.3065 807.06 74.1096C807.407 74.0518 807.604 73.9481 807.951 73.8903C808.147 73.7865 808.193 73.6367 808.389 73.533C808.586 73.4292 808.677 73.1296 808.769 72.8301L809.82 69.3852L809.715 69.1894C809.551 68.6481 809.537 68.1528 809.569 67.5076L809.314 67.2659C808.364 67.1396 808.789 66.287 809.036 64.3976C809.114 63.6027 809.31 63.499 809.657 63.4412L810.096 63.0839C809.95 61.4021 810.014 60.1119 810.334 59.0634C810.837 57.4159 811.957 56.4477 813.149 56.3204C812.912 54.9381 813.049 54.4888 813.049 54.4888C813.049 54.4888 816.483 56.192 817.78 56.2604C819.379 56.4209 821.699 57.4565 821.964 59.8294C823.288 60.8885 823.616 61.9712 823.447 63.0657C823.095 64.7592 821.642 66.2805 821.309 66.8336C821.309 66.8336 821.309 66.8336 821.263 66.9834C821.519 67.2252 821.473 67.375 821.29 67.9741C820.636 69.5756 820.271 70.7738 819.458 70.1983L818.293 71.3162C818.247 71.466 818.201 71.6158 818.201 71.6158C818.11 71.9154 817.973 72.3647 817.104 75.2104C817.013 75.51 817.072 75.8556 817.131 76.2011C817.086 76.3509 817.236 76.3969 817.191 76.5467C817.296 76.7425 817.551 76.9842 817.656 77.18C819.492 78.7227 820.712 79.5861 821.78 80.4034C822.547 81.1288 823.21 81.6583 823.42 82.0499Z" fill="white"/>
<path d="M823.42 82.05C823.027 82.2576 822.83 82.3614 822.437 82.5689C818.554 84.4946 813.982 84.9001 809.46 83.52C805.843 82.4159 802.847 80.3554 800.578 77.5343C800.007 76.7052 799.436 75.876 798.865 75.0469C799.304 74.6896 800.149 74.6201 801.688 74.435L802.337 74.4692C803.529 74.3419 805.023 74.3066 807.06 74.1097C807.407 74.052 807.604 73.9482 807.951 73.8904C808.594 75.5604 809.932 77.1149 811.741 77.6669C813.55 78.219 815.482 77.8263 816.948 76.8004C817.053 76.9961 817.309 77.2379 817.414 77.4337C819.25 78.9764 820.469 79.8398 821.538 80.6571C822.547 81.1289 823.21 81.6585 823.42 82.05Z" fill="#A0B0C4"/>
<path d="M821.308 66.8337C821.446 66.3843 821.432 65.889 821.418 65.3937C821.418 65.3937 821.464 65.2439 821.313 65.1979C821.168 63.5161 819.843 62.457 818.336 61.9969C814.614 60.6971 814.129 61.2042 813.244 59.7877C813.362 60.4788 813.284 61.2737 812.361 62.1382C811.681 62.749 810.836 62.8186 810.141 62.9341C809.672 58.5339 811.157 56.3675 813.194 56.1706C812.957 54.7884 813.094 54.3391 813.094 54.3391C813.094 54.3391 816.529 56.0422 817.826 56.1107C819.425 56.2712 821.745 57.3068 822.009 59.6797C823.333 60.7388 823.662 61.8215 823.493 62.9159C823.141 64.6095 821.688 66.1308 821.308 66.8337Z" fill="#1C3754"/>
<path d="M808.815 72.6803L809.866 69.2355L809.761 69.0397L809.807 68.8899C809.866 69.2355 810.076 69.627 810.286 70.0186L812.405 72.7937C812.825 73.5769 813.729 73.8529 814.666 73.4838L817.914 72.0192C818.064 72.0652 818.11 71.9154 818.306 71.8116C818.215 72.1112 818.078 72.5605 817.209 75.4063C817.164 75.5561 817.118 75.7058 817.072 75.8556L808.632 73.2795C808.572 72.9339 808.769 72.8301 808.815 72.6803Z" fill="url(#paint17_linear)"/>
<path d="M831.808 71.8394C830.3 76.7821 826.818 80.6314 822.588 82.6149C818.705 84.5406 814.133 84.946 809.611 83.566C805.994 82.4619 802.998 80.4014 800.728 77.5802C797.121 73.2046 795.857 67.0884 797.594 61.3968C800.474 51.9609 810.493 46.6684 819.837 49.5205C829.182 52.3727 834.688 62.4035 831.808 71.8394Z" stroke="white" stroke-width="1.3062" stroke-miterlimit="10" stroke-linecap="round" stroke-linejoin="round"/>
<path d="M858.26 55.3532C856.888 59.8465 853.799 63.4882 850.021 65.6097C849.629 65.8173 849.432 65.9211 849.039 66.1286C845.156 68.0543 840.584 68.4598 836.062 67.0797C832.445 65.9756 829.449 63.9151 827.179 61.094C826.609 60.2649 826.038 59.4357 825.467 58.6066C823.262 54.4952 822.583 49.7035 824.045 44.9106C826.925 35.4746 836.944 30.1821 846.289 33.0343C855.738 36.0822 861.14 45.9172 858.26 55.3532Z" fill="#E9F0F8"/>
<g filter="url(#filter3_d)">
<path d="M858.26 55.3532C856.751 60.2959 853.269 64.1451 849.039 66.1286C845.156 68.0543 840.584 68.4598 836.062 67.0797C832.445 65.9756 829.449 63.9151 827.179 61.094C823.572 56.7184 822.308 50.6021 824.045 44.9106C826.925 35.4746 836.944 30.1821 846.289 33.0343C855.633 35.8865 861.14 45.9172 858.26 55.3532Z" fill="#D7DCEB"/>
</g>
<path d="M849.871 65.5637C849.478 65.7713 849.281 65.875 848.888 66.0826C845.005 68.0083 840.433 68.4138 835.911 67.0337C832.294 65.9296 829.298 63.8691 827.029 61.048C826.458 60.2189 825.887 59.3897 825.316 58.5606C825.755 58.2033 826.6 58.1337 828.139 57.9487L828.788 57.9829C829.98 57.8556 831.474 57.8203 833.511 57.6234C833.858 57.5657 834.055 57.4619 834.402 57.4041C834.598 57.3003 834.644 57.1506 834.84 57.0468C835.037 56.943 835.128 56.6435 835.22 56.3439L836.271 52.899L836.166 52.7032C836.002 52.1619 835.988 51.6666 836.02 51.0215L835.765 50.7797C834.815 50.6534 835.24 49.8008 835.487 47.9114C835.565 47.1166 835.761 47.0128 836.108 46.955L836.547 46.5977C836.401 44.9159 836.465 43.6257 836.785 42.5772C837.288 40.9297 838.407 39.9615 839.6 39.8342C839.362 38.4519 839.5 38.0026 839.5 38.0026C839.5 38.0026 842.934 39.7058 844.231 39.7743C845.83 39.9347 848.15 40.9703 848.414 43.3432C849.739 44.4024 850.067 45.485 849.898 46.5795C849.546 48.273 848.093 49.7943 847.76 50.3474C847.76 50.3474 847.76 50.3474 847.714 50.4972C848.015 50.5892 847.97 50.739 847.741 51.4879C847.087 53.0894 846.722 54.2877 845.909 53.7121L844.744 54.8301C844.698 54.9798 844.652 55.1296 844.652 55.1296C844.561 55.4292 844.424 55.8785 843.555 58.7243C843.464 59.0238 843.523 59.3694 843.582 59.7149C843.537 59.8647 843.687 59.9107 843.642 60.0605C843.747 60.2563 844.002 60.4981 844.107 60.6938C845.943 62.2365 847.163 63.0999 848.231 63.9172C848.998 64.6426 849.51 65.1262 849.871 65.5637Z" fill="white"/>
<path d="M849.871 65.5637C849.478 65.7713 849.281 65.875 848.889 66.0826C845.005 68.0083 840.433 68.4138 835.911 67.0337C832.294 65.9296 829.298 63.8691 827.029 61.048C826.458 60.2188 825.887 59.3897 825.316 58.5606C825.755 58.2033 826.6 58.1337 828.139 57.9486L828.788 57.9829C829.98 57.8556 831.474 57.8203 833.511 57.6234C833.858 57.5656 834.055 57.4619 834.402 57.4041C835.046 59.0741 836.383 60.6286 838.192 61.1806C840.001 61.7326 841.933 61.34 843.4 60.314C843.505 60.5098 843.76 60.7516 843.865 60.9474C845.701 62.4901 846.921 63.3534 847.989 64.1708C848.998 64.6426 849.51 65.1261 849.871 65.5637Z" fill="url(#paint18_linear)"/>
<path d="M847.759 50.3474C847.897 49.8981 847.883 49.4028 847.869 48.9074C847.869 48.9074 847.915 48.7576 847.764 48.7116C847.422 47.1336 846.098 46.0745 844.741 45.6605C841.019 44.3606 840.535 44.8677 839.649 43.4513C839.767 44.1424 839.69 44.9373 838.767 45.8017C838.086 46.4126 837.241 46.4821 836.547 46.5977C836.077 42.1974 837.562 40.031 839.6 39.8342C839.362 38.4519 839.5 38.0026 839.5 38.0026C839.5 38.0026 842.934 39.7058 844.231 39.7742C845.83 39.9347 848.15 40.9703 848.414 43.3432C849.739 44.4023 850.067 45.485 849.898 46.5795C849.592 48.1232 848.139 49.6445 847.759 50.3474Z" fill="#1C3754"/>
<path d="M835.115 56.1481L836.166 52.7032L836.061 52.5075L836.107 52.3577C836.166 52.7032 836.376 53.0948 836.586 53.4864L838.705 56.2615C839.125 57.0446 840.029 57.3207 840.966 56.9516L844.214 55.4869C844.365 55.533 844.41 55.3832 844.607 55.2794C844.515 55.579 844.378 56.0283 843.51 58.8741C843.464 59.0238 843.418 59.1736 843.372 59.3234L834.932 56.7472C835.023 56.4477 835.069 56.2979 835.115 56.1481Z" fill="url(#paint19_linear)"/>
<path d="M858.26 55.3532C856.751 60.2959 853.269 64.1451 849.039 66.1286C845.156 68.0543 840.584 68.4598 836.062 67.0797C832.445 65.9756 829.449 63.9151 827.179 61.094C823.572 56.7184 822.308 50.6021 824.045 44.9106C826.925 35.4746 836.944 30.1821 846.289 33.0343C855.633 35.8865 861.14 45.9172 858.26 55.3532Z" stroke="white" stroke-width="1.3062" stroke-miterlimit="10" stroke-linecap="round" stroke-linejoin="round"/>
<path d="M836.999 104.101L839.069 104.667L838.149 107.994C838.045 108.315 838.521 108.562 838.716 108.25L842.481 102.937C842.655 102.66 842.541 102.3 842.218 102.196L839.868 101.456L840.595 97.4305C840.664 97.0882 840.18 96.9316 840.041 97.2304L836.735 103.359C836.54 103.671 836.711 104.018 836.999 104.101Z" fill="url(#paint20_linear)"/>
<path d="M841.915 103.066C841.88 103.045 841.858 103.079 841.824 103.058L839.853 102.409C839.726 102.379 839.63 102.223 839.717 102.084C839.747 101.959 839.904 101.863 840.043 101.95L842.014 102.598C842.141 102.629 842.237 102.785 842.15 102.924C842.141 103.015 842.041 103.097 841.915 103.066Z" fill="#96AEFF"/>
<path d="M837.279 103.264L839.712 98.3742C839.755 98.3049 839.834 98.2573 839.903 98.3007C839.973 98.3442 840.021 98.4222 839.978 98.4915L837.72 103.49C837.654 103.594 837.52 103.655 837.393 103.624C837.288 103.559 837.227 103.425 837.279 103.264Z" fill="#96AEFF"/>
<path d="M808.051 95.0595L810.122 95.6254L809.202 98.9529C809.098 99.2735 809.573 99.5211 809.769 99.2092L813.533 93.8958C813.707 93.6186 813.593 93.2588 813.27 93.1544L810.92 92.4148L811.647 88.3893C811.716 88.047 811.232 87.8903 811.093 88.1892L807.788 94.318C807.593 94.6299 807.763 94.9768 808.051 95.0595Z" fill="url(#paint21_linear)"/>
<path d="M812.968 94.0252C812.933 94.0035 812.911 94.0381 812.876 94.0164L810.905 93.3683C810.779 93.3378 810.683 93.1816 810.769 93.043C810.8 92.9174 810.956 92.8222 811.096 92.9091L813.067 93.5572C813.193 93.5877 813.289 93.7438 813.202 93.8824C813.194 93.9734 813.094 94.0557 812.968 94.0252Z" fill="#96AEFF"/>
<path d="M808.332 94.2234L810.764 89.3331C810.808 89.2638 810.886 89.2162 810.956 89.2597C811.026 89.3031 811.074 89.3811 811.03 89.4504L808.772 94.4493C808.707 94.5532 808.572 94.6137 808.446 94.5833C808.341 94.5181 808.28 94.3837 808.332 94.2234Z" fill="#96AEFF"/>
<path d="M833.629 265.294C829.97 277.284 822.528 287.166 813.016 294.033C807.833 297.694 802.049 300.575 795.909 302.276C785.93 305.187 775.008 305.309 764.285 302.037C734.853 293.053 718.252 262.012 727.168 232.801C736.117 203.481 767.188 187.109 796.512 196.059C807.234 199.331 816.226 205.531 822.912 213.41C827.056 218.25 830.245 223.87 832.501 229.801C836.633 240.952 837.289 253.305 833.629 265.294Z" fill="#EAEEF9"/>
<path d="M720.695 281.413C722.214 281.877 723.925 281.108 724.44 279.42C724.904 277.901 724.134 276.19 722.446 275.675C720.927 275.211 719.217 275.98 718.701 277.668C718.407 279.239 719.176 280.95 720.695 281.413Z" fill="url(#paint22_linear)"/>
<path d="M836.111 225.422C837.095 225.722 838.094 225.193 838.394 224.212C838.693 223.231 838.16 222.234 837.175 221.934C836.19 221.633 835.192 222.162 834.892 223.143C834.593 224.124 835.126 225.121 836.111 225.422Z" fill="url(#paint23_linear)"/>
<path d="M794.944 308.177C810.354 312.88 826.643 304.249 831.329 288.899C836.014 273.549 827.32 257.292 811.911 252.589C796.501 247.886 780.212 256.517 775.527 271.867C770.842 287.218 779.535 303.474 794.944 308.177Z" fill="#D5DFEA"/>
<path opacity="0.3" d="M794.944 308.177C810.354 312.88 826.643 304.249 831.329 288.899C836.014 273.549 827.32 257.292 811.911 252.589C796.501 247.886 780.212 256.517 775.527 271.867C770.842 287.218 779.535 303.474 794.944 308.177Z" fill="url(#paint24_linear)"/>
<path opacity="0.7" d="M786.05 293.428C785.284 293.194 784.827 292.34 785.06 291.577L794.475 260.731C794.708 259.968 795.564 259.515 796.33 259.748C797.096 259.982 797.552 260.837 797.32 261.599L787.905 292.445C787.639 293.317 786.816 293.662 786.05 293.428Z" fill="url(#paint25_linear)"/>
<g filter="url(#filter4_d)">
<path d="M787.813 287.651C789.989 288.315 792.288 287.097 792.95 284.93C793.611 282.763 792.384 280.468 790.208 279.804C788.033 279.14 785.733 280.358 785.072 282.525C784.41 284.692 785.638 286.987 787.813 287.651Z" fill="white"/>
</g>
<path opacity="0.7" d="M798.195 297.135C797.429 296.901 796.973 296.047 797.205 295.284L806.62 264.438C806.853 263.675 807.709 263.221 808.475 263.455C809.241 263.689 809.698 264.543 809.465 265.306L800.05 296.152C799.784 297.024 798.961 297.369 798.195 297.135Z" fill="url(#paint26_linear)"/>
<g filter="url(#filter5_d)">
<path d="M804.725 276.132C806.901 276.796 809.201 275.578 809.862 273.411C810.523 271.243 809.296 268.948 807.121 268.284C804.945 267.621 802.645 268.839 801.984 271.006C801.323 273.173 802.55 275.468 804.725 276.132Z" fill="white"/>
</g>
<path opacity="0.7" d="M810.45 300.875C809.684 300.642 809.227 299.787 809.46 299.024L818.874 268.178C819.107 267.415 819.963 266.962 820.729 267.196C821.495 267.429 821.952 268.284 821.719 269.047L812.305 299.893C812.038 300.765 811.216 301.109 810.45 300.875Z" fill="url(#paint27_linear)"/>
<g filter="url(#filter6_d)">
<path d="M814.408 287.905C816.584 288.569 818.884 287.35 819.545 285.183C820.206 283.016 818.979 280.721 816.804 280.057C814.628 279.393 812.329 280.612 811.667 282.779C811.006 284.946 812.233 287.241 814.408 287.905Z" fill="white"/>
</g>
<path d="M823.251 236.986L820.457 246.142C820.024 247.559 819.045 248.809 817.804 249.741L773.125 275.424L773.092 275.533L765.619 293.746C762.129 295.778 752.119 292.128 751.614 289.471L755.519 270.408L755.619 270.081L732.897 223.826C732.354 222.469 732.273 220.776 732.706 219.359L735.5 210.203L779.143 224.358L823.251 236.986Z" fill="url(#paint28_linear)"/>
<path opacity="0.4" d="M811.772 231.1L775.222 218.395L735.5 210.203L732.772 219.141C731.275 224.046 749.772 233.981 773.953 241.361C798.134 248.742 819.026 250.829 820.523 245.924L823.251 236.986L811.772 231.1Z" fill="#637BFF"/>
<path d="M823.251 236.986C822.287 240.147 815.513 241.178 805.614 240.301L805.505 240.268C803.873 240.127 802.023 239.92 800.205 239.604C799.734 239.579 799.406 239.479 798.935 239.454C793.56 238.648 787.628 237.314 781.215 235.595C779.574 235.094 777.79 234.668 776.149 234.168C774.398 233.633 772.647 233.099 770.93 232.456C762.462 229.633 754.85 226.356 748.904 223.111C739.874 218.211 734.535 213.364 735.533 210.094C736.531 206.825 743.666 205.785 753.894 206.762C755.416 206.869 757.014 207.119 758.722 207.402C759.05 207.502 759.302 207.46 759.631 207.56C762.028 207.934 764.644 208.375 767.337 208.959C767.665 209.059 767.917 209.017 768.246 209.117C770.5 209.567 772.941 210.192 775.381 210.818C775.709 210.918 776.038 211.019 776.257 211.085C776.585 211.186 776.913 211.286 777.351 211.419C779.025 211.811 780.885 212.379 782.636 212.913C783.074 213.047 783.621 213.214 784.058 213.347C784.387 213.448 784.605 213.514 784.934 213.615C786.137 213.982 787.231 214.316 788.292 214.759C791.323 215.803 794.353 216.847 797.098 218.042C797.207 218.076 797.207 218.076 797.317 218.109C798.596 218.619 799.767 219.095 800.937 219.571C802.949 220.424 804.819 221.352 806.689 222.28C807.935 222.899 809.182 223.518 810.395 224.245C819.206 229.079 824.216 233.825 823.251 236.986Z" fill="#425FFF"/>
<path d="M782.07 214.766C793.668 218.306 804.168 222.702 811.775 227.169C820.191 232.12 821.833 235.362 821.501 236.452C821.168 237.542 817.996 239.314 808.249 238.722C799.444 238.18 788.279 235.963 776.681 232.424C765.083 228.884 754.584 224.488 746.976 220.021C738.56 215.069 736.918 211.828 737.251 210.738C737.583 209.648 740.756 207.876 750.503 208.467C759.308 209.01 770.472 211.226 782.07 214.766ZM782.603 213.022C758.422 205.642 737.297 204.318 735.5 210.203C733.737 215.98 751.968 226.787 776.149 234.168C800.33 241.548 821.455 242.872 823.251 236.986C825.048 231.101 806.783 220.403 782.603 213.022Z" fill="#7E9AFF"/>
<path d="M773.059 275.642L765.619 293.746C762.128 295.778 752.119 292.128 751.614 289.471L755.519 270.408C757.803 271.939 760.657 273.167 763.611 274.069C766.861 275.18 770.09 275.57 773.059 275.642Z" fill="#637BFF"/>
<path d="M770.006 227.646L768.337 228.804L767.59 229.291C765.216 228.448 762.985 227.528 760.754 226.609C759.584 226.133 758.304 225.623 757.276 225.071L755.068 220.942L754.839 220.515L753.578 217.985L756.17 216.155L769.29 217.061C769.399 217.094 769.366 217.203 769.475 217.237C769.737 217.555 769.889 217.84 769.899 218.2L771.023 225.097C771.195 226.102 770.786 227.05 770.006 227.646Z" fill="url(#paint29_linear)"/>
<path d="M769.266 217.53L760.315 223.735L760.173 223.81L755.035 221.051L752.137 219.571L752.061 219.428C752.095 219.319 752.095 219.319 752.128 219.21C752.228 218.883 752.437 218.59 752.722 218.439C752.722 218.439 752.722 218.439 752.755 218.33L759.609 213.511C760.389 212.915 761.473 212.888 762.282 213.373L768.229 216.618C768.557 216.718 768.743 216.894 768.895 217.179C769.19 217.388 769.299 217.421 769.266 217.53Z" fill="#EB368A"/>
<path d="M760.721 226.718C759.55 226.242 758.271 225.732 757.243 225.18C755.559 224.428 753.984 223.709 752.443 222.881C752.367 222.739 752.433 222.521 752.357 222.378L752.304 221.766L752.295 221.406C752.328 221.297 752.252 221.155 752.176 221.012C752.133 220.761 752.09 220.509 752.047 220.258C752.08 220.149 751.971 220.116 752.004 220.007C752.071 219.789 751.995 219.646 752.061 219.428C752.094 219.319 752.094 219.319 752.128 219.21L754.697 220.59L759.725 223.317L760.239 223.592L760.721 226.718Z" fill="#F665AA"/>
<path d="M793.205 228.054L791.887 226.103L787.223 219.437C786.962 219.119 786.842 218.725 786.866 218.255L786.79 218.113L800.816 210.955L801.244 210.729L804.097 209.217L806.168 212.231L804.94 227.227C804.906 227.336 804.797 227.303 804.764 227.412C804.445 227.672 804.05 227.79 803.546 227.874L796.059 229.283C795.018 229.56 793.847 229.084 793.205 228.054Z" fill="url(#paint30_linear)"/>
<path d="M804.873 227.445L797.759 217.052L797.574 216.877L800.783 211.065L802.504 207.777L802.647 207.701C802.756 207.735 802.756 207.735 802.865 207.768C803.194 207.868 803.565 208.22 803.826 208.538C803.826 208.538 803.936 208.572 803.903 208.681L809.361 216.661C810.037 217.583 810.032 218.773 809.481 219.796L805.72 226.631C805.511 226.925 805.301 227.218 805.126 227.403C805.049 227.261 805.016 227.37 804.873 227.445Z" fill="#EB368A"/>
<path d="M786.833 218.364L786.757 218.222C786.747 217.862 786.847 217.535 787.056 217.241C787.575 216.327 788.06 215.522 788.578 214.608L789.405 213.073C789.438 212.964 789.472 212.855 789.614 212.779C789.647 212.67 789.647 212.67 789.647 212.67C789.681 212.561 789.714 212.452 789.857 212.377C790.066 212.083 790.166 211.756 790.375 211.462C790.651 210.951 790.893 210.548 791.102 210.255C791.554 209.558 792.191 209.038 792.948 208.911C793.09 208.836 793.2 208.869 793.233 208.76L793.342 208.794C794.964 208.574 797.309 208.336 799.436 208.032L800.159 208.014L800.553 207.897C800.696 207.821 800.915 207.888 801.058 207.812C801.419 207.803 801.671 207.761 801.923 207.719C802.033 207.752 802.175 207.677 802.285 207.71C802.537 207.668 802.756 207.735 802.865 207.768C802.975 207.802 802.975 207.802 803.084 207.835L803.051 207.944L801.43 210.905L798.254 216.608L797.945 217.228L791.633 217.923L791.195 217.789L786.833 218.364Z" fill="#F665AA"/>
<path d="M775.608 203.023L773.41 201.995L765.931 198.283C765.527 198.04 765.232 197.831 765.113 197.437C765.003 197.404 765.003 197.404 765.036 197.295L774.08 183.731L774.18 183.404L775.987 180.62L779.322 182.233L785.809 196.247C785.776 196.356 785.742 196.465 785.709 196.574C785.467 196.977 785.257 197.271 784.906 197.64L778.818 202.693C777.972 203.507 776.745 203.609 775.608 203.023Z" fill="url(#paint31_linear)"/>
<path d="M785.819 196.608L774.196 190.797L773.977 190.73L773.828 183.774L773.798 179.952L773.832 179.843C773.941 179.876 773.974 179.767 774.084 179.801C774.588 179.716 774.916 179.816 775.354 179.95L775.463 179.983L784.407 184.381C785.435 184.933 786.077 185.963 786.073 187.153L786.108 195.267C786.118 195.627 786.018 195.954 785.918 196.281C785.885 196.39 785.852 196.499 785.819 196.608Z" fill="#EB368A"/>
<path d="M764.97 197.513C764.86 197.479 764.86 197.479 764.894 197.37C764.741 197.085 764.622 196.692 764.613 196.331C764.584 195.25 764.664 194.202 764.602 193.23L764.554 191.428C764.588 191.319 764.511 191.177 764.545 191.068C764.578 190.959 764.578 190.959 764.578 190.959C764.611 190.85 764.644 190.741 764.568 190.599C764.559 190.238 764.549 189.878 764.573 189.408C764.63 188.83 764.544 188.327 764.534 187.967C764.548 187.137 764.924 186.299 765.452 185.745C765.485 185.636 765.628 185.56 765.661 185.451L765.694 185.342C767.045 184.444 769.066 182.916 770.769 181.648L771.373 181.237L771.691 180.977C771.834 180.901 771.977 180.826 772.153 180.641C772.438 180.49 772.647 180.196 772.933 180.045C772.966 179.936 773.075 179.969 773.218 179.894C773.361 179.818 773.646 179.667 773.789 179.591C773.898 179.625 773.931 179.516 774.041 179.549L774.007 179.658L774.18 183.404L774.177 190.076L774.196 190.797L768.979 194.566L768.66 194.826L764.97 197.513Z" fill="#F665AA"/>
<path d="M563.245 67.2688C560.659 75.7412 555.416 82.7291 548.721 87.5898C545.072 90.1808 541.002 92.2224 536.683 93.43C529.663 95.4974 521.984 95.5953 514.448 93.2953C493.763 86.982 482.125 65.0747 488.425 44.4328C494.749 23.7138 516.613 12.1164 537.221 18.4063C544.757 20.7063 551.073 25.0757 555.765 30.6334C558.674 34.0472 560.91 38.0133 562.49 42.2003C565.383 50.0717 565.854 58.7193 563.245 67.2688Z" fill="#EAEEF9"/>
<path d="M564.902 38.9792C565.594 39.1904 566.374 38.839 566.609 38.0688C566.82 37.3756 566.47 36.5951 565.701 36.3604C564.932 36.1257 564.229 36.5006 563.994 37.2708C563.783 37.964 564.133 38.7445 564.902 38.9792Z" fill="url(#paint32_linear)"/>
<path d="M546.383 92.7701C547.032 92.9682 547.382 93.6276 547.184 94.2775C546.986 94.9274 546.327 95.2788 545.678 95.0808C545.029 94.8828 544.679 94.2233 544.877 93.5734C545.147 92.9455 545.806 92.5941 546.383 92.7701Z" fill="url(#paint33_linear)"/>
<g filter="url(#filter7_d)">
<path d="M526.942 91.4675L485.111 78.7C483.035 78.0663 481.86 75.8555 482.495 73.7759L500.55 14.6229C501.184 12.5433 503.393 11.3651 505.469 11.9988L547.301 24.7663C549.377 25.4 550.551 27.6108 549.917 29.6904L531.886 88.7664C531.251 90.846 529.019 92.1012 526.942 91.4675Z" fill="white"/>
</g>
<path d="M522.861 73.7191L493.333 64.7067C492.564 64.472 492.113 63.7451 492.325 63.0519C492.536 62.3587 493.316 62.0073 494.085 62.242L523.613 71.2544C524.382 71.4891 524.833 72.216 524.621 72.9092C524.51 73.5488 523.63 73.9538 522.861 73.7191Z" fill="url(#paint34_linear)"/>
<path d="M502.982 75.2296L491.217 71.6387C490.448 71.4041 489.997 70.6771 490.209 69.9839C490.421 69.2907 491.2 68.9393 491.969 69.174L503.734 72.7649C504.503 72.9996 504.954 73.7265 504.742 74.4197C504.454 75.0894 503.751 75.4643 502.982 75.2296Z" fill="url(#paint35_linear)"/>
<path d="M529.212 58.1444C521.874 60.704 521.996 59.4783 519.362 57.9167C510.74 52.8433 510.972 60.0708 502.051 50.1912C501.737 49.8428 501.807 49.6117 502.155 49.297C503.672 47.9076 515.352 36.9063 515.352 36.9063C516.42 35.8852 517.304 34.6396 517.651 33.2297C518.138 31.3577 518.149 30.7716 517.959 30.2926C517.822 29.9141 516.897 28.5373 518.16 27.1545C520.662 24.466 520.209 22.6439 521.132 22.9256C521.209 22.9491 521.363 22.996 521.339 23.073C521.392 23.1735 521.345 23.3276 521.322 23.4046C521.305 23.7361 520.999 24.7374 521.061 26.1876C521.14 27.3063 521.571 27.2696 522.182 28.2979C522.235 28.3984 522.289 28.4989 522.342 28.5994C522.502 28.9009 522.663 29.2024 522.722 29.5574C524.617 28.0308 525.572 29.5851 527.373 25.3357C527.638 24.743 528.384 25.0547 528.196 25.6709C527.967 26.6956 527.856 27.3353 527.851 28.1759L527.907 29.3716C527.986 30.4902 528.182 31.2237 527.515 32.0307C527.144 32.4224 526.842 32.583 526.595 32.8442C526.494 32.8977 526.37 33.0283 526.323 33.1824C525.781 33.8587 525.287 35.4762 525.075 36.1694C524.958 36.5545 524.917 36.9631 524.9 37.2946C524.784 38.7749 525.271 39.9339 525.927 42.744C527.107 48.2403 529.158 58.0439 529.212 58.1444Z" fill="url(#paint36_linear)"/>
<path d="M526.671 32.8677C526.571 32.9212 526.447 33.0518 526.4 33.2058C525.821 33.4501 525.336 33.3863 524.952 33.269C524.721 33.1986 524.567 33.1516 524.437 33.0277C524.283 32.9807 524.431 32.7731 524.585 32.8201L524.661 32.8435C524.946 33.0144 525.614 33.3027 526.671 32.8677C526.595 32.8442 526.518 32.8207 526.671 32.8677Z" fill="#E3207A"/>
<path d="M519.747 31.596C519.516 31.5256 519.415 31.5792 519.185 31.5088C518.877 31.4149 518.516 31.2205 518.149 30.7716C518.119 30.5941 518.066 30.4936 518.012 30.3931C518.089 30.4166 518.089 30.4166 518.166 30.4401C518.64 31.0899 519.078 31.3078 519.817 31.365C519.917 31.3114 519.924 31.5659 519.747 31.596Z" fill="#E3207A"/>
<path d="M524.9 37.2947C524.823 37.2712 524.823 37.2712 524.746 37.2477C522.429 37.1297 519.353 36.1909 517.418 35.0951C517.341 35.0717 517.211 34.9477 516.98 34.8773C517.174 34.5156 517.369 34.154 517.486 33.7689C519.966 35.2835 523.982 36.1724 525.099 36.0924C524.958 36.5545 524.941 36.8861 524.9 37.2947Z" fill="#E3207A"/>
<path d="M520.82 36.8914C521.33 37.0469 521.869 36.7592 522.025 36.2487C522.181 35.7383 521.894 35.1984 521.384 35.0428C520.875 34.8873 520.335 35.175 520.18 35.6855C520.024 36.1959 520.311 36.7358 520.82 36.8914Z" fill="white"/>
<g filter="url(#filter8_d)">
<path d="M531.948 82.864L530.051 78.6836C529.237 76.8463 529.858 74.8114 531.559 73.7418L535.37 71.3035C536.158 70.8024 537.147 70.6805 538.017 70.9463L573.037 81.6347C573.714 81.8414 574.05 82.4735 573.843 83.1518L570.353 94.5858C570.146 95.2641 569.515 95.601 568.837 95.3943L533.915 84.7354C533.044 84.4696 532.292 83.8163 531.948 82.864Z" fill="#DDE1F0"/>
</g>
<path d="M560.183 88.4099L561.987 82.4991C562.194 81.8208 562.952 81.4165 563.629 81.6232L569.53 83.4243C570.207 83.631 570.61 84.3895 570.403 85.0678L568.599 90.9786C568.392 91.6569 567.634 92.0611 566.957 91.8545L561.056 90.0534C560.349 89.9436 559.946 89.185 560.183 88.4099Z" fill="#C5CCDE"/>
<path d="M549.058 85.0143L550.862 79.1035C551.069 78.4252 551.827 78.021 552.504 78.2277L558.405 80.0288C559.082 80.2354 559.485 80.994 559.278 81.6723L557.474 87.5831C557.267 88.2614 556.509 88.6656 555.832 88.4589L549.931 86.6578C549.321 86.5776 548.821 85.7895 549.058 85.0143Z" fill="#C5CCDE"/>
<path d="M538.029 81.6483L539.834 75.7376C540.041 75.0593 540.798 74.655 541.476 74.8617L547.377 76.6628C548.054 76.8695 548.457 77.628 548.25 78.3063L546.446 84.2171C546.239 84.8954 545.481 85.2996 544.804 85.093L538.903 83.2919C538.196 83.1821 537.793 82.4235 538.029 81.6483Z" fill="#C5CCDE"/>
<g filter="url(#filter9_d)">
<path d="M538.082 86.3253L533.818 84.7059C532.009 84.048 530.935 82.0252 531.4 80.1546L532.441 75.7056C532.61 74.804 533.263 74.05 534.051 73.5489L566.387 56.3016C567.019 55.9648 567.696 56.1714 568.032 56.8036L573.606 67.2968C573.942 67.9289 573.735 68.6072 573.103 68.9441L540.767 86.1913C540.009 86.5956 539.02 86.7174 538.082 86.3253Z" fill="#DDE1F0"/>
</g>
<path d="M562.032 70.2255L559.144 64.7892C558.808 64.1571 559.074 63.285 559.705 62.9481L565.137 60.0511C565.769 59.7143 566.639 59.98 566.975 60.6121L569.863 66.0484C570.199 66.6805 569.933 67.5526 569.301 67.8895L563.87 70.7865C563.238 71.1233 562.367 70.8576 562.032 70.2255Z" fill="#C5CCDE"/>
<path d="M551.8 75.6825L548.912 70.2463C548.576 69.6142 548.842 68.7421 549.474 68.4052L554.905 65.5082C555.537 65.1714 556.408 65.4371 556.743 66.0692L559.631 71.5055C559.967 72.1376 559.701 73.0097 559.07 73.3465L553.638 76.2435C553.006 76.5804 552.136 76.3147 551.8 75.6825Z" fill="white"/>
<path d="M541.569 81.1397L538.68 75.7035C538.345 75.0714 538.611 74.1993 539.242 73.8624L544.674 70.9654C545.305 70.6286 546.176 70.8943 546.512 71.5264L549.4 76.9627C549.736 77.5948 549.47 78.4669 548.838 78.8037L543.407 81.7007C542.775 82.0376 542.001 81.8014 541.569 81.1397Z" fill="#C5CCDE"/>
<g filter="url(#filter10_d)">
<path d="M541.549 82.9346L537.402 84.7407C535.567 85.5575 533.535 84.9375 532.469 83.2349L530.037 79.421C529.538 78.6329 529.417 77.6427 529.683 76.7706L540.389 41.6935C540.596 41.0152 541.228 40.6783 541.905 40.885L553.223 44.3396C553.9 44.5462 554.236 45.1784 554.029 45.8566L543.323 80.9338C543.057 81.8059 542.404 82.5599 541.549 82.9346Z" fill="white"/>
</g>
<path d="M547.114 54.6561L541.212 52.855C540.535 52.6483 540.132 51.8898 540.339 51.2115L542.143 45.3007C542.35 44.6224 543.108 44.2182 543.785 44.4249L549.687 46.226C550.364 46.4326 550.767 47.1912 550.56 47.8695L548.785 53.6834C548.549 54.4586 547.791 54.8628 547.114 54.6561Z" fill="#7894FF"/>
<path d="M543.742 65.7025L537.841 63.9014C537.164 63.6947 536.761 62.9362 536.968 62.2579L538.772 56.3471C538.979 55.6688 539.737 55.2646 540.414 55.4712L546.315 57.2723C546.992 57.479 547.395 58.2376 547.188 58.9159L545.384 64.8267C545.177 65.5049 544.419 65.9092 543.742 65.7025Z" fill="#F24F9B"/>
<path d="M540.37 76.7489L534.469 74.9478C533.792 74.7411 533.389 73.9826 533.596 73.3043L535.4 67.3935C535.607 66.7152 536.365 66.311 537.042 66.5177L542.943 68.3188C543.621 68.5254 544.024 69.284 543.817 69.9623L542.012 75.8731C541.805 76.5514 541.048 76.9556 540.37 76.7489Z" fill="#DDE1F0"/>
<path d="M535.309 82.9367C536.431 83.2791 537.619 82.6457 537.962 81.5219C538.305 80.3981 537.674 79.2094 536.552 78.867C535.43 78.5245 534.242 79.158 533.899 80.2818C533.556 81.4056 534.187 82.5942 535.309 82.9367Z" fill="#DDE1F0"/>
<path d="M81.5 334C83.1667 299.5 84.8477 149.678 242.5 187.5C663.5 288.5 630.111 50 908.5 50C1024.5 50 1009 130 1024.5 198V334H81.5C81.5 360.261 35.4517 339.235 12.131 334H0C1.92703 332.372 6.32455 332.697 12.131 334H81.5Z" fill="white" fill-opacity="0.06"/>
<defs>
<filter id="filter0_d" x="790.007" y="97.5106" width="62.0699" height="64.4668" filterUnits="userSpaceOnUse" color-interpolation-filters="sRGB">
<feFlood flood-opacity="0" result="BackgroundImageFix"/>
<feColorMatrix in="SourceAlpha" type="matrix" values="0 0 0 0 0 0 0 0 0 0 0 0 0 0 0 0 0 0 127 0"/>
<feOffset dy="5"/>
<feGaussianBlur stdDeviation="4"/>
<feColorMatrix type="matrix" values="0 0 0 0 0.968627 0 0 0 0 0.254902 0 0 0 0 0.564706 0 0 0 0.3 0"/>
<feBlend mode="normal" in2="BackgroundImageFix" result="effect1_dropShadow"/>
<feBlend mode="normal" in="SourceGraphic" in2="effect1_dropShadow" result="shape"/>
</filter>
<filter id="filter1_d" x="813.275" y="46.3991" width="80.8682" height="80.5097" filterUnits="userSpaceOnUse" color-interpolation-filters="sRGB">
<feFlood flood-opacity="0" result="BackgroundImageFix"/>
<feColorMatrix in="SourceAlpha" type="matrix" values="0 0 0 0 0 0 0 0 0 0 0 0 0 0 0 0 0 0 127 0"/>
<feOffset dy="11"/>
<feGaussianBlur stdDeviation="11"/>
<feColorMatrix type="matrix" values="0 0 0 0 0.397708 0 0 0 0 0.47749 0 0 0 0 0.575 0 0 0 0.18 0"/>
<feBlend mode="normal" in2="BackgroundImageFix" result="effect1_dropShadow"/>
<feBlend mode="normal" in="SourceGraphic" in2="effect1_dropShadow" result="shape"/>
</filter>
<filter id="filter2_d" x="774.823" y="37.7484" width="79.7516" height="79.6335" filterUnits="userSpaceOnUse" color-interpolation-filters="sRGB">
<feFlood flood-opacity="0" result="BackgroundImageFix"/>
<feColorMatrix in="SourceAlpha" type="matrix" values="0 0 0 0 0 0 0 0 0 0 0 0 0 0 0 0 0 0 127 0"/>
<feOffset dy="11"/>
<feGaussianBlur stdDeviation="11"/>
<feColorMatrix type="matrix" values="0 0 0 0 0.397708 0 0 0 0 0.47749 0 0 0 0 0.575 0 0 0 0.18 0"/>
<feBlend mode="normal" in2="BackgroundImageFix" result="effect1_dropShadow"/>
<feBlend mode="normal" in="SourceGraphic" in2="effect1_dropShadow" result="shape"/>
</filter>
<filter id="filter3_d" x="801.274" y="21.2622" width="79.7516" height="79.6335" filterUnits="userSpaceOnUse" color-interpolation-filters="sRGB">
<feFlood flood-opacity="0" result="BackgroundImageFix"/>
<feColorMatrix in="SourceAlpha" type="matrix" values="0 0 0 0 0 0 0 0 0 0 0 0 0 0 0 0 0 0 127 0"/>
<feOffset dy="11"/>
<feGaussianBlur stdDeviation="11"/>
<feColorMatrix type="matrix" values="0 0 0 0 0.397708 0 0 0 0 0.47749 0 0 0 0 0.575 0 0 0 0.18 0"/>
<feBlend mode="normal" in2="BackgroundImageFix" result="effect1_dropShadow"/>
<feBlend mode="normal" in="SourceGraphic" in2="effect1_dropShadow" result="shape"/>
</filter>
<filter id="filter4_d" x="780.893" y="279.623" width="16.2362" height="16.21" filterUnits="userSpaceOnUse" color-interpolation-filters="sRGB">
<feFlood flood-opacity="0" result="BackgroundImageFix"/>
<feColorMatrix in="SourceAlpha" type="matrix" values="0 0 0 0 0 0 0 0 0 0 0 0 0 0 0 0 0 0 127 0"/>
<feOffset dy="4"/>
<feGaussianBlur stdDeviation="2"/>
<feColorMatrix type="matrix" values="0 0 0 0 0.362465 0 0 0 0 0.416556 0 0 0 0 0.608333 0 0 0 0.25 0"/>
<feBlend mode="normal" in2="BackgroundImageFix" result="effect1_dropShadow"/>
<feBlend mode="normal" in="SourceGraphic" in2="effect1_dropShadow" result="shape"/>
</filter>
<filter id="filter5_d" x="797.805" y="268.103" width="16.2362" height="16.21" filterUnits="userSpaceOnUse" color-interpolation-filters="sRGB">
<feFlood flood-opacity="0" result="BackgroundImageFix"/>
<feColorMatrix in="SourceAlpha" type="matrix" values="0 0 0 0 0 0 0 0 0 0 0 0 0 0 0 0 0 0 127 0"/>
<feOffset dy="4"/>
<feGaussianBlur stdDeviation="2"/>
<feColorMatrix type="matrix" values="0 0 0 0 0.362465 0 0 0 0 0.416556 0 0 0 0 0.608333 0 0 0 0.25 0"/>
<feBlend mode="normal" in2="BackgroundImageFix" result="effect1_dropShadow"/>
<feBlend mode="normal" in="SourceGraphic" in2="effect1_dropShadow" result="shape"/>
</filter>
<filter id="filter6_d" x="807.488" y="279.876" width="16.2362" height="16.21" filterUnits="userSpaceOnUse" color-interpolation-filters="sRGB">
<feFlood flood-opacity="0" result="BackgroundImageFix"/>
<feColorMatrix in="SourceAlpha" type="matrix" values="0 0 0 0 0 0 0 0 0 0 0 0 0 0 0 0 0 0 127 0"/>
<feOffset dy="4"/>
<feGaussianBlur stdDeviation="2"/>
<feColorMatrix type="matrix" values="0 0 0 0 0.362465 0 0 0 0 0.416556 0 0 0 0 0.608333 0 0 0 0.25 0"/>
<feBlend mode="normal" in2="BackgroundImageFix" result="effect1_dropShadow"/>
<feBlend mode="normal" in="SourceGraphic" in2="effect1_dropShadow" result="shape"/>
</filter>
<filter id="filter7_d" x="460.323" y="0.827362" width="111.766" height="123.805" filterUnits="userSpaceOnUse" color-interpolation-filters="sRGB">
<feFlood flood-opacity="0" result="BackgroundImageFix"/>
<feColorMatrix in="SourceAlpha" type="matrix" values="0 0 0 0 0 0 0 0 0 0 0 0 0 0 0 0 0 0 127 0"/>
<feOffset dy="11"/>
<feGaussianBlur stdDeviation="11"/>
<feColorMatrix type="matrix" values="0 0 0 0 0.397708 0 0 0 0 0.47749 0 0 0 0 0.575 0 0 0 0.18 0"/>
<feBlend mode="normal" in2="BackgroundImageFix" result="effect1_dropShadow"/>
<feBlend mode="normal" in="SourceGraphic" in2="effect1_dropShadow" result="shape"/>
</filter>
<filter id="filter8_d" x="507.696" y="59.8093" width="88.2074" height="68.6454" filterUnits="userSpaceOnUse" color-interpolation-filters="sRGB">
<feFlood flood-opacity="0" result="BackgroundImageFix"/>
<feColorMatrix in="SourceAlpha" type="matrix" values="0 0 0 0 0 0 0 0 0 0 0 0 0 0 0 0 0 0 127 0"/>
<feOffset dy="11"/>
<feGaussianBlur stdDeviation="11"/>
<feColorMatrix type="matrix" values="0 0 0 0 0.397708 0 0 0 0 0.47749 0 0 0 0 0.575 0 0 0 0.18 0"/>
<feBlend mode="normal" in2="BackgroundImageFix" result="effect1_dropShadow"/>
<feBlend mode="normal" in="SourceGraphic" in2="effect1_dropShadow" result="shape"/>
</filter>
<filter id="filter9_d" x="509.292" y="45.1413" width="86.4741" height="74.4232" filterUnits="userSpaceOnUse" color-interpolation-filters="sRGB">
<feFlood flood-opacity="0" result="BackgroundImageFix"/>
<feColorMatrix in="SourceAlpha" type="matrix" values="0 0 0 0 0 0 0 0 0 0 0 0 0 0 0 0 0 0 127 0"/>
<feOffset dy="11"/>
<feGaussianBlur stdDeviation="11"/>
<feColorMatrix type="matrix" values="0 0 0 0 0.397708 0 0 0 0 0.47749 0 0 0 0 0.575 0 0 0 0.18 0"/>
<feBlend mode="normal" in2="BackgroundImageFix" result="effect1_dropShadow"/>
<feBlend mode="normal" in="SourceGraphic" in2="effect1_dropShadow" result="shape"/>
</filter>
<filter id="filter10_d" x="507.545" y="29.8246" width="68.5446" height="88.273" filterUnits="userSpaceOnUse" color-interpolation-filters="sRGB">
<feFlood flood-opacity="0" result="BackgroundImageFix"/>
<feColorMatrix in="SourceAlpha" type="matrix" values="0 0 0 0 0 0 0 0 0 0 0 0 0 0 0 0 0 0 127 0"/>
<feOffset dy="11"/>
<feGaussianBlur stdDeviation="11"/>
<feColorMatrix type="matrix" values="0 0 0 0 0.397708 0 0 0 0 0.47749 0 0 0 0 0.575 0 0 0 0.18 0"/>
<feBlend mode="normal" in2="BackgroundImageFix" result="effect1_dropShadow"/>
<feBlend mode="normal" in="SourceGraphic" in2="effect1_dropShadow" result="shape"/>
</filter>
<linearGradient id="paint0_linear" x1="721.803" y1="32.8658" x2="721.803" y2="23.2612" gradientUnits="userSpaceOnUse">
<stop offset="0.00289017" stop-color="#3F5073" stop-opacity="0"/>
<stop offset="1" stop-color="#283247"/>
</linearGradient>
<linearGradient id="paint1_linear" x1="396.592" y1="284.396" x2="406.429" y2="252.164" gradientUnits="userSpaceOnUse">
<stop stop-color="#F5F8FF"/>
<stop offset="0.9913" stop-color="#D8E0EB"/>
</linearGradient>
<linearGradient id="paint2_linear" x1="537.976" y1="189.898" x2="543.621" y2="191.621" gradientUnits="userSpaceOnUse">
<stop stop-color="#FF66A9"/>
<stop offset="1" stop-color="#F53689"/>
</linearGradient>
<linearGradient id="paint3_linear" x1="428.406" y1="179.972" x2="441.386" y2="137.446" gradientUnits="userSpaceOnUse">
<stop offset="0.00289017" stop-color="#606673" stop-opacity="0"/>
<stop offset="1" stop-color="#373C47"/>
</linearGradient>
<linearGradient id="paint4_linear" x1="440.455" y1="126.2" x2="444.615" y2="112.57" gradientUnits="userSpaceOnUse">
<stop offset="0.00289017" stop-color="#3F5073" stop-opacity="0"/>
<stop offset="1" stop-color="#283247"/>
</linearGradient>
<linearGradient id="paint5_linear" x1="431.944" y1="247.617" x2="504.696" y2="269.822" gradientUnits="userSpaceOnUse">
<stop stop-color="#FF66A9"/>
<stop offset="1" stop-color="#F53689"/>
</linearGradient>
<linearGradient id="paint6_linear" x1="583.347" y1="141.208" x2="587.918" y2="142.603" gradientUnits="userSpaceOnUse">
<stop stop-color="#83A6FF"/>
<stop offset="1" stop-color="#5A78FF"/>
</linearGradient>
<linearGradient id="paint7_linear" x1="581.788" y1="197.814" x2="586.358" y2="199.209" gradientUnits="userSpaceOnUse">
<stop stop-color="#FF66A9"/>
<stop offset="1" stop-color="#F53689"/>
</linearGradient>
<linearGradient id="paint8_linear" x1="738.882" y1="136.535" x2="743.175" y2="137.845" gradientUnits="userSpaceOnUse">
<stop stop-color="#83A6FF"/>
<stop offset="1" stop-color="#5A78FF"/>
</linearGradient>
<linearGradient id="paint9_linear" x1="662.06" y1="142.743" x2="675.457" y2="98.8509" gradientUnits="userSpaceOnUse">
<stop offset="0.00289017" stop-color="#606673" stop-opacity="0"/>
<stop offset="1" stop-color="#373C47"/>
</linearGradient>
<linearGradient id="paint10_linear" x1="639.09" y1="92.2721" x2="709.81" y2="113.857" gradientUnits="userSpaceOnUse">
<stop stop-color="#FF66A9"/>
<stop offset="1" stop-color="#F53689"/>
</linearGradient>
<linearGradient id="paint11_linear" x1="861.028" y1="48.2524" x2="863.837" y2="49.1096" gradientUnits="userSpaceOnUse">
<stop stop-color="#FF66A9"/>
<stop offset="1" stop-color="#F53689"/>
</linearGradient>
<linearGradient id="paint12_linear" x1="876.234" y1="61.2841" x2="879.625" y2="62.3191" gradientUnits="userSpaceOnUse">
<stop stop-color="#83A6FF"/>
<stop offset="1" stop-color="#5A78FF"/>
</linearGradient>
<linearGradient id="paint13_linear" x1="765.629" y1="124.163" x2="769.02" y2="125.198" gradientUnits="userSpaceOnUse">
<stop stop-color="#83A6FF"/>
<stop offset="1" stop-color="#5A78FF"/>
</linearGradient>
<linearGradient id="paint14_linear" x1="817.889" y1="118.358" x2="809.797" y2="144.87" gradientUnits="userSpaceOnUse">
<stop stop-color="#FF66A9"/>
<stop offset="1" stop-color="#F53689"/>
</linearGradient>
<linearGradient id="paint15_linear" x1="839.945" y1="85.0176" x2="861.894" y2="91.7166" gradientUnits="userSpaceOnUse">
<stop stop-color="#FF66A9"/>
<stop offset="1" stop-color="#F53689"/>
</linearGradient>
<linearGradient id="paint16_linear" x1="851.603" y1="83.277" x2="851.924" y2="82.2238" gradientUnits="userSpaceOnUse">
<stop stop-color="white"/>
<stop offset="0.9913" stop-color="#E6EDF7"/>
</linearGradient>
<linearGradient id="paint17_linear" x1="812.663" y1="74.4416" x2="813.395" y2="72.0438" gradientUnits="userSpaceOnUse">
<stop stop-color="white"/>
<stop offset="0.9913" stop-color="#E6EDF7"/>
</linearGradient>
<linearGradient id="paint18_linear" x1="825.217" y1="59.1121" x2="849.61" y2="66.5572" gradientUnits="userSpaceOnUse">
<stop stop-color="#83A6FF"/>
<stop offset="1" stop-color="#5A78FF"/>
</linearGradient>
<linearGradient id="paint19_linear" x1="839.086" y1="57.9646" x2="839.818" y2="55.5668" gradientUnits="userSpaceOnUse">
<stop stop-color="white"/>
<stop offset="0.9913" stop-color="#E6EDF7"/>
</linearGradient>
<linearGradient id="paint20_linear" x1="835.952" y1="105.411" x2="842.761" y2="100.101" gradientUnits="userSpaceOnUse">
<stop stop-color="#83A6FF"/>
<stop offset="1" stop-color="#5A78FF"/>
</linearGradient>
<linearGradient id="paint21_linear" x1="807.004" y1="96.3696" x2="813.813" y2="91.06" gradientUnits="userSpaceOnUse">
<stop stop-color="#83A6FF"/>
<stop offset="1" stop-color="#5A78FF"/>
</linearGradient>
<linearGradient id="paint22_linear" x1="718.814" y1="277.718" x2="724.27" y2="279.383" gradientUnits="userSpaceOnUse">
<stop stop-color="#FF66A9"/>
<stop offset="1" stop-color="#F53689"/>
</linearGradient>
<linearGradient id="paint23_linear" x1="834.913" y1="223.229" x2="838.235" y2="224.243" gradientUnits="userSpaceOnUse">
<stop stop-color="#83A6FF"/>
<stop offset="1" stop-color="#5A78FF"/>
</linearGradient>
<linearGradient id="paint24_linear" x1="808.083" y1="289.533" x2="788.822" y2="251.392" gradientUnits="userSpaceOnUse">
<stop offset="0.00289017" stop-color="#7897DA" stop-opacity="0"/>
<stop offset="1" stop-color="#003CC1"/>
</linearGradient>
<linearGradient id="paint25_linear" x1="786.352" y1="292.374" x2="796.379" y2="259.521" gradientUnits="userSpaceOnUse">
<stop offset="0.00289017" stop-color="#030A18" stop-opacity="0.56"/>
<stop offset="1" stop-color="#081124"/>
</linearGradient>
<linearGradient id="paint26_linear" x1="798.497" y1="296.08" x2="808.524" y2="263.228" gradientUnits="userSpaceOnUse">
<stop offset="0.00289017" stop-color="#030A18" stop-opacity="0.56"/>
<stop offset="1" stop-color="#081124"/>
</linearGradient>
<linearGradient id="paint27_linear" x1="810.752" y1="299.821" x2="820.779" y2="266.968" gradientUnits="userSpaceOnUse">
<stop offset="0.00289017" stop-color="#030A18" stop-opacity="0.56"/>
<stop offset="1" stop-color="#081124"/>
</linearGradient>
<linearGradient id="paint28_linear" x1="724.828" y1="245.167" x2="812.572" y2="271.948" gradientUnits="userSpaceOnUse">
<stop stop-color="#83A6FF"/>
<stop offset="1" stop-color="#5A78FF"/>
</linearGradient>
<linearGradient id="paint29_linear" x1="753.287" y1="218.756" x2="771.589" y2="224.342" gradientUnits="userSpaceOnUse">
<stop stop-color="#FF66A9"/>
<stop offset="1" stop-color="#F53689"/>
</linearGradient>
<linearGradient id="paint30_linear" x1="800.611" y1="208.116" x2="794.026" y2="229.01" gradientUnits="userSpaceOnUse">
<stop stop-color="#FF66A9"/>
<stop offset="1" stop-color="#F53689"/>
</linearGradient>
<linearGradient id="paint31_linear" x1="772.153" y1="181.385" x2="776.725" y2="203.53" gradientUnits="userSpaceOnUse">
<stop stop-color="#FF66A9"/>
<stop offset="1" stop-color="#F53689"/>
</linearGradient>
<linearGradient id="paint32_linear" x1="563.988" y1="37.2764" x2="566.474" y2="38.0351" gradientUnits="userSpaceOnUse">
<stop stop-color="#FF66A9"/>
<stop offset="1" stop-color="#F53689"/>
</linearGradient>
<linearGradient id="paint33_linear" x1="544.948" y1="93.5444" x2="547.137" y2="94.2124" gradientUnits="userSpaceOnUse">
<stop stop-color="#83A6FF"/>
<stop offset="1" stop-color="#5A78FF"/>
</linearGradient>
<linearGradient id="paint34_linear" x1="492.325" y1="63.0195" x2="524.678" y2="72.8942" gradientUnits="userSpaceOnUse">
<stop stop-color="#CED7E2"/>
<stop offset="1" stop-color="#E6ECF5"/>
</linearGradient>
<linearGradient id="paint35_linear" x1="490.193" y1="70.0033" x2="504.768" y2="74.4517" gradientUnits="userSpaceOnUse">
<stop stop-color="#CED7E2"/>
<stop offset="1" stop-color="#E6ECF5"/>
</linearGradient>
<linearGradient id="paint36_linear" x1="505.873" y1="36.4685" x2="533.247" y2="44.8233" gradientUnits="userSpaceOnUse">
<stop stop-color="#FF66A9"/>
<stop offset="1" stop-color="#F53689"/>
</linearGradient>
<clipPath id="clip0">
<rect width="90.4667" height="82.6" fill="white" transform="translate(441.881 215.058) rotate(16.9729)"/>
</clipPath>
</defs>
</svg>
