<svg width="500" height="332" viewBox="0 0 500 332" fill="none" xmlns="http://www.w3.org/2000/svg">
<path opacity="0.2" fill-rule="evenodd" clip-rule="evenodd" d="M340.394 61.0231C307.806 24.4769 239.551 10.8758 169.408 31.0387C82.4102 56.0468 25.4538 123.524 42.1922 181.754C55.925 229.528 114.996 256.235 183.812 250.475C216.808 276.878 272.363 285.598 329.007 269.315C408.466 246.474 459.981 183.086 444.069 127.732C432.908 88.9027 391.531 64.3419 340.394 61.0231Z" fill="url(#paint0_linear)"/>
<g opacity="0.3">
<path fill-rule="evenodd" clip-rule="evenodd" d="M221.004 260.272C225.65 261.133 233.961 248.834 233.529 237.754C233.097 226.675 222.831 228.808 226.365 208.549C229.899 188.291 234.238 178.738 214.038 160.983C193.838 143.229 196.179 125.209 179.952 127.16C163.725 129.112 167.79 152.553 179.307 168.399C190.825 184.246 189.908 189.515 176.363 195.294C162.817 201.074 188.115 219.298 191.336 224.658C194.557 230.019 192.957 244.531 199.031 251.076C205.105 257.622 216.358 259.411 221.004 260.272Z" fill="url(#paint1_linear)"/>
<path d="M214.276 232.531C211.804 228.417 203.062 216.222 192.716 211.813" stroke="url(#paint2_linear)" stroke-width="6" stroke-linecap="round"/>
<path d="M208.692 203.213C206.219 199.099 216.035 189.27 216.998 178.066" stroke="url(#paint3_linear)" stroke-width="6" stroke-linecap="round"/>
<path d="M225.77 283.636C224.718 281.886 222.991 272.183 220.378 261.31C212.196 227.261 205.554 183.27 190.875 158.841" stroke="url(#paint4_linear)" stroke-width="6" stroke-linecap="round"/>
</g>
<g opacity="0.3">
<path d="M295.579 257.437C295.315 242.329 307.128 195.355 323.728 169.474" stroke="url(#paint5_linear)" stroke-width="6" stroke-linecap="round"/>
<ellipse cx="308.879" cy="164.939" rx="4.38196" ry="13.7503" transform="rotate(-31 308.879 164.939)" fill="url(#paint6_linear)"/>
<ellipse cx="334.103" cy="178.531" rx="4.38196" ry="13.7503" transform="rotate(87 334.103 178.531)" fill="url(#paint7_linear)"/>
<ellipse cx="326.293" cy="198.615" rx="4.38196" ry="13.7503" transform="rotate(90 326.293 198.615)" fill="url(#paint8_linear)"/>
<ellipse cx="319.982" cy="218.07" rx="4.38196" ry="13.7503" transform="rotate(90 319.982 218.07)" fill="url(#paint9_linear)"/>
<ellipse cx="332.41" cy="154.908" rx="4.38196" ry="13.7503" transform="rotate(32 332.41 154.908)" fill="url(#paint10_linear)"/>
<ellipse cx="298.377" cy="186.226" rx="4.38196" ry="13.7503" transform="rotate(-42 298.377 186.226)" fill="url(#paint11_linear)"/>
<ellipse cx="290.588" cy="207.52" rx="4.38196" ry="13.7503" transform="rotate(-48 290.588 207.52)" fill="url(#paint12_linear)"/>
</g>
<path opacity="0.472712" d="M177.732 81.8599L215.672 52.8281" stroke="url(#paint13_linear)" stroke-width="8" stroke-linecap="round" stroke-linejoin="round"/>
<path opacity="0.472712" d="M178.105 96.4369L208.03 73.5381" stroke="url(#paint14_linear)" stroke-width="8" stroke-linecap="round" stroke-linejoin="round"/>
<path opacity="0.472712" d="M308.93 115.127L346.869 86.0947" stroke="url(#paint15_linear)" stroke-width="8" stroke-linecap="round" stroke-linejoin="round"/>
<path opacity="0.472712" d="M309.303 129.703L339.227 106.805" stroke="url(#paint16_linear)" stroke-width="8" stroke-linecap="round" stroke-linejoin="round"/>
<path fill-rule="evenodd" clip-rule="evenodd" d="M450.328 159.312L366.788 143.72C342.544 179.244 331.072 209.203 332.371 233.597C347.688 239.946 377.176 249.992 420.835 263.737L455.963 169.266C457.402 165.396 455.432 161.092 451.562 159.654C451.162 159.504 450.748 159.39 450.328 159.312Z" fill="url(#paint17_linear)"/>
<path fill-rule="evenodd" clip-rule="evenodd" d="M366.817 164.07C367.579 166.701 367.235 168.599 365.783 169.765C363.604 171.515 361.417 174.49 359.26 174.735C357.104 174.98 354.769 176.163 354.391 179.188C354.208 180.649 346.725 188.205 344.052 198.599C343.375 201.231 344.198 205.281 346.522 210.749L352.704 207.346L361.51 193.083C371.289 189.686 376.802 187.581 378.048 186.77C379.917 185.552 385.974 180.342 384.806 178.389C383.638 176.435 387.437 164.024 389.694 161.611C391.95 159.199 393.798 153.32 393.843 151.149C393.888 148.979 394.67 142.481 389.039 142.688C385.284 142.826 377.877 149.954 366.817 164.07Z" fill="url(#paint18_linear)"/>
<mask id="mask0" mask-type="alpha" maskUnits="userSpaceOnUse" x="343" y="142" width="51" height="69">
<path fill-rule="evenodd" clip-rule="evenodd" d="M366.817 164.07C367.579 166.701 367.235 168.599 365.783 169.765C363.604 171.515 361.417 174.49 359.26 174.735C357.104 174.98 354.769 176.163 354.391 179.188C354.208 180.649 346.725 188.205 344.052 198.599C343.375 201.231 344.198 205.281 346.522 210.749L352.704 207.346L361.51 193.083C371.289 189.686 376.802 187.581 378.048 186.77C379.917 185.552 385.974 180.342 384.806 178.389C383.638 176.435 387.437 164.024 389.694 161.611C391.95 159.199 393.798 153.32 393.843 151.149C393.888 148.979 394.67 142.481 389.039 142.688C385.284 142.826 377.877 149.954 366.817 164.07Z" fill="white"/>
</mask>
<g mask="url(#mask0)">
<path fill-rule="evenodd" clip-rule="evenodd" d="M387.882 175.236C387.882 175.236 377.199 156.277 372.21 151.519C367.22 146.762 396.018 141.966 396.018 141.966L387.882 178.815V175.236Z" fill="url(#paint19_linear)" style="mix-blend-mode:multiply"/>
</g>
<path fill-rule="evenodd" clip-rule="evenodd" d="M360.98 119.478C358.402 121.214 360.601 128.2 357.811 132.188C356.285 134.369 353.076 135.581 351.594 136.449C347.402 138.904 351.71 140.656 352.576 142.117C353.442 143.579 352.752 146.88 352.103 149.482C351.454 152.084 349.153 157.947 351.62 159.257C354.088 160.567 369.239 166.286 373.62 164.539C378.001 162.792 379.567 154.041 380.647 153.472C381.727 152.902 382.485 153.503 383.482 153.752C386.077 154.399 388.42 152.944 389.668 150.874C391.08 148.53 393.088 149.6 392.003 146.397C390.327 141.455 380.618 121.992 376.76 120.593C372.902 119.193 364.967 116.793 360.98 119.478Z" fill="url(#paint20_radial)"/>
<path fill-rule="evenodd" clip-rule="evenodd" d="M373.564 124.825C363.698 122.365 359.11 124.569 355.538 116.901C353.428 112.372 357.536 98.4791 364.455 98.1647C366.158 105.931 374.383 106.598 379.149 107.244C404.739 110.708 407.417 134.106 399.756 147.888C397.29 152.325 395.008 155.514 392.972 157.904C391.68 159.421 389.991 161.249 389.42 162.117C389.23 162.407 387.579 166.061 387.294 165.99C386.431 165.775 386.778 165.731 387.201 161.949C387.624 158.166 387.86 157.149 388.628 154.071C388.854 153.162 393.146 146.179 389.85 143.65C387.653 141.965 384.685 142.994 380.946 146.739L378.676 145.883C380.176 142.548 381.124 140.085 381.52 138.496C382.115 136.112 383.431 127.285 373.564 124.825Z" fill="url(#paint21_linear)"/>
<path fill-rule="evenodd" clip-rule="evenodd" d="M373.564 124.825C363.698 122.365 359.11 124.569 355.538 116.901C353.428 112.372 357.536 98.4791 364.455 98.1647C366.158 105.931 374.383 106.598 379.149 107.244C404.739 110.708 407.417 134.106 399.756 147.888C397.29 152.325 395.008 155.514 392.972 157.904C391.68 159.421 389.991 161.249 389.42 162.117C389.23 162.407 387.579 166.061 387.294 165.99C386.431 165.775 386.778 165.731 387.201 161.949C387.624 158.166 387.86 157.149 388.628 154.071C388.854 153.162 393.146 146.179 389.85 143.65C387.653 141.965 384.685 142.994 380.946 146.739L378.676 145.883C380.176 142.548 381.124 140.085 381.52 138.496C382.115 136.112 383.431 127.285 373.564 124.825Z" fill="url(#paint22_linear)"/>
<path fill-rule="evenodd" clip-rule="evenodd" d="M378.679 145.997C377.926 147.676 375.084 151.545 372.52 152.942C369.955 154.34 364.552 154.425 363.444 152.832C362.336 151.239 357.302 144.022 352.765 142.891C352.538 143.804 351.916 145.358 350.901 147.552C354.412 149.012 356.452 150.385 357.019 151.672C357.87 153.601 358.327 152.308 357.477 153.166C356.627 154.023 352.188 153.364 351.851 150.018C350.571 152.682 349.195 159.876 349.68 161.519C350.165 163.163 352.956 163.916 355.711 164.093C358.465 164.27 368.279 165.768 370.779 165.257C373.279 164.746 376.454 165.04 378.545 158.984C380.637 152.929 380.172 149.005 382.901 143.847C385.63 138.69 379.432 144.319 378.679 145.997Z" fill="url(#paint23_linear)"/>
<g filter="url(#filter0_i)">
<path fill-rule="evenodd" clip-rule="evenodd" d="M386.496 170.491C396.865 172.852 403.831 176.788 407.396 182.299C412.743 190.565 415.422 212.523 415.422 219.645C415.422 226.767 416.275 244.238 415.422 249.005C414.57 253.771 410.654 257.312 402.552 257.312C397.15 257.312 366.532 247.265 310.7 227.169C318.043 223.538 321.831 221.03 322.064 219.645C322.415 217.566 339.454 179.666 344.842 175.805C350.231 171.944 361.417 170.117 365.902 170.117C365.246 171.937 363.787 173.406 365.85 175.805C367.912 178.204 371.958 178.623 375.967 176.958C378.639 175.848 382.148 173.692 386.496 170.491Z" fill="#3D82F0"/>
<path fill-rule="evenodd" clip-rule="evenodd" d="M386.496 170.491C396.865 172.852 403.831 176.788 407.396 182.299C412.743 190.565 415.422 212.523 415.422 219.645C415.422 226.767 416.275 244.238 415.422 249.005C414.57 253.771 410.654 257.312 402.552 257.312C397.15 257.312 366.532 247.265 310.7 227.169C318.043 223.538 321.831 221.03 322.064 219.645C322.415 217.566 339.454 179.666 344.842 175.805C350.231 171.944 361.417 170.117 365.902 170.117C365.246 171.937 363.787 173.406 365.85 175.805C367.912 178.204 371.958 178.623 375.967 176.958C378.639 175.848 382.148 173.692 386.496 170.491Z" fill="url(#paint24_linear)"/>
</g>
<mask id="mask1" mask-type="alpha" maskUnits="userSpaceOnUse" x="310" y="170" width="106" height="88">
<path fill-rule="evenodd" clip-rule="evenodd" d="M386.496 170.491C396.865 172.852 403.831 176.788 407.396 182.299C412.743 190.565 415.422 212.523 415.422 219.645C415.422 226.767 416.275 244.238 415.422 249.005C414.57 253.771 410.654 257.312 402.552 257.312C397.15 257.312 366.532 247.265 310.7 227.169C318.043 223.538 321.831 221.03 322.064 219.645C322.415 217.566 339.454 179.666 344.842 175.805C350.231 171.944 361.417 170.117 365.902 170.117C365.246 171.937 363.787 173.406 365.85 175.805C367.912 178.204 371.958 178.623 375.967 176.958C378.639 175.848 382.148 173.692 386.496 170.491Z" fill="white"/>
<path fill-rule="evenodd" clip-rule="evenodd" d="M386.496 170.491C396.865 172.852 403.831 176.788 407.396 182.299C412.743 190.565 415.422 212.523 415.422 219.645C415.422 226.767 416.275 244.238 415.422 249.005C414.57 253.771 410.654 257.312 402.552 257.312C397.15 257.312 366.532 247.265 310.7 227.169C318.043 223.538 321.831 221.03 322.064 219.645C322.415 217.566 339.454 179.666 344.842 175.805C350.231 171.944 361.417 170.117 365.902 170.117C365.246 171.937 363.787 173.406 365.85 175.805C367.912 178.204 371.958 178.623 375.967 176.958C378.639 175.848 382.148 173.692 386.496 170.491Z" stroke="white"/>
</mask>
<g mask="url(#mask1)">
<g opacity="0.585435">
<path fill-rule="evenodd" clip-rule="evenodd" d="M360.439 171.576C351.853 180.366 368.792 185.049 375.709 182.707C382.625 180.366 390.387 171.576 390.387 171.576C390.387 171.576 370.829 157.021 365.634 164.299C360.439 171.576 369.026 162.787 360.439 171.576Z" fill="url(#paint25_linear)" style="mix-blend-mode:multiply"/>
</g>
<g opacity="0.54654">
<path fill-rule="evenodd" clip-rule="evenodd" d="M348.203 251.1C354.318 251.1 394.073 244.516 394.073 239.173C394.073 233.829 391.008 196.182 391.008 196.182" fill="url(#paint26_linear)" style="mix-blend-mode:multiply"/>
</g>
<g opacity="0.54654">
<path fill-rule="evenodd" clip-rule="evenodd" d="M292.508 227.923C295.277 227.923 308.081 244.145 319.779 238.685C333.911 232.089 342.139 207.668 342.139 204.744C342.139 202.508 345.85 194.576 344.437 185.934C343.599 180.811 336.763 169.681 336.763 169.681" fill="url(#paint27_linear)" style="mix-blend-mode:multiply"/>
</g>
</g>
<path fill-rule="evenodd" clip-rule="evenodd" d="M245.977 51.0666C247.481 62.5338 247.77 69.2067 246.842 71.0852C245.45 73.903 248.146 87.1583 256.73 87.9268C265.314 88.6953 269.815 85.0376 270.152 76.0942C270.489 67.1509 271.027 63.7029 272.413 59.7454C273.8 55.7879 247.964 39.3918 246.842 42.423C246.094 44.4438 245.806 47.3251 245.977 51.0666Z" fill="url(#paint28_linear)"/>
<path fill-rule="evenodd" clip-rule="evenodd" d="M281.261 24.7227C281.261 27.2724 281.599 35.232 281.343 37.249C281.087 39.266 280.883 42.2717 281.113 46.1547C281.343 50.0378 279.326 59.5882 277.075 63.0482C275.731 65.114 270.404 69.0965 265.179 68.537C258.984 67.8737 252.21 61.892 251.486 58.901C250.15 53.387 251.257 48.5211 247.408 45.591C243.559 42.6608 240.753 39.9392 241.1 35.4157C241.446 30.8923 245.398 20.124 247.408 19.6715C249.417 19.219 281.261 22.1731 281.261 24.7227Z" fill="url(#paint29_radial)"/>
<path fill-rule="evenodd" clip-rule="evenodd" d="M248.19 21.4673C250.017 24.2235 266.009 37.5102 282.038 28.884C298.066 20.2579 276.745 4.59816 267.076 2.81155C257.408 1.02499 249.082 2.01803 243.233 10.1329C237.385 18.2478 234.452 32.1557 245.893 51.0227C246.396 48.0288 246.648 46.0335 246.648 45.0371C242.095 40.8714 240.957 36.9896 243.233 33.3916C246.648 27.9945 247.778 38.5763 248.19 40.2762C249.55 40.2762 250.405 40.0392 250.757 39.5653C249.82 36.8946 249.479 34.4247 249.732 32.1557C250.113 28.7522 251.237 27.9945 248.19 21.4673Z" fill="url(#paint30_linear)"/>
<path fill-rule="evenodd" clip-rule="evenodd" d="M217.676 220.427C217.676 216.269 212.859 189.033 222.787 180.85C232.715 172.667 244.996 184.604 290.225 186.413C290.969 204.705 290.969 217.583 290.225 225.046C289.48 232.51 262.16 243.09 217.676 220.427Z" fill="#3D82F0"/>
<path fill-rule="evenodd" clip-rule="evenodd" d="M210.01 185.156C211.076 189.88 214.605 194.926 215.793 196.016C216.982 197.106 221.307 198.456 222.125 198.194C222.942 197.932 225.094 196.133 225.191 194.028C225.289 191.923 223.225 190.737 223.21 187.627C223.196 184.516 218.023 180.005 218.023 177.253C218.023 174.501 208.943 180.432 210.01 185.156Z" fill="#113275"/>
<path fill-rule="evenodd" clip-rule="evenodd" d="M342.962 178.674C346.17 182.93 348.259 183.675 349.461 184.944C350.664 186.213 353.416 190.693 354.438 189.946C355.459 189.2 356.518 187.729 354.928 184.944C353.337 182.159 350.929 179.221 351.765 177.747C352.601 176.273 356.682 171.916 360.088 170.904C363.494 169.893 364.625 170.546 364.964 170.003C365.304 169.459 360.891 168.67 359.073 168.466C357.255 168.262 354.678 168.028 350.963 168.466C348.486 168.758 346.761 167.729 345.787 165.378C341.765 171.405 340.823 175.837 342.962 178.674Z" fill="#143B8C"/>
<g filter="url(#filter1_i)">
<path fill-rule="evenodd" clip-rule="evenodd" d="M219.562 178.792C217.287 177.511 209.672 180.57 209.672 186.758C205.628 172.994 194.406 154.363 194.406 134.002C199.551 116.252 212.972 88.2683 215.969 83.8764C217.967 80.9483 227.868 76.8499 245.67 71.5811C249.652 75.9332 254.372 78.1094 259.828 78.1094C268.012 78.1094 268.442 73.0902 270.629 72.8283C272.815 72.5663 285.202 78.1094 291.311 84.0066C297.42 89.9037 303.961 113.098 320.032 131.102C336.102 149.106 341.866 161.668 349.84 168.433C346.915 171.052 342.952 172.578 342.952 178.792C340.066 176.677 323.964 165.602 310.316 152.711C296.669 139.82 290.616 129.099 288.556 127.648C286.188 125.979 291.542 177.615 291.311 186.758C291.08 195.902 259.641 196.423 249.81 196.423C239.979 196.423 224.774 193.021 220.872 189.665C220.228 189.112 221.914 116.513 220.872 119.559C218.226 127.288 212.083 131.102 212.083 136.192C212.083 148.02 219.576 179.625 219.562 178.792Z" fill="url(#paint31_linear)"/>
</g>
<mask id="mask2" mask-type="alpha" maskUnits="userSpaceOnUse" x="194" y="71" width="156" height="126">
<path fill-rule="evenodd" clip-rule="evenodd" d="M219.562 178.792C217.287 177.511 209.672 180.57 209.672 186.758C205.628 172.994 194.406 154.363 194.406 134.002C199.551 116.252 212.972 88.2683 215.969 83.8764C217.967 80.9483 227.868 76.8499 245.67 71.5811C249.652 75.9332 254.372 78.1094 259.828 78.1094C268.012 78.1094 268.442 73.0902 270.629 72.8283C272.815 72.5663 285.202 78.1094 291.311 84.0066C297.42 89.9037 303.961 113.098 320.032 131.102C336.102 149.106 341.866 161.668 349.84 168.433C346.915 171.052 342.952 172.578 342.952 178.792C340.066 176.677 323.964 165.602 310.316 152.711C296.669 139.82 290.616 129.099 288.556 127.648C286.188 125.979 291.542 177.615 291.311 186.758C291.08 195.902 259.641 196.423 249.81 196.423C239.979 196.423 224.774 193.021 220.872 189.665C220.228 189.112 221.914 116.513 220.872 119.559C218.226 127.288 212.083 131.102 212.083 136.192C212.083 148.02 219.576 179.625 219.562 178.792Z" fill="white"/>
</mask>
<g mask="url(#mask2)">
<path fill-rule="evenodd" clip-rule="evenodd" d="M217.575 125.919L231.66 107.2C231.66 107.2 236.878 167.905 213.588 188.932C209.484 164.609 211.768 151.896 213.588 141.268C214.782 134.288 217.575 125.919 217.575 125.919Z" fill="url(#paint32_linear)" style="mix-blend-mode:multiply"/>
<g opacity="0.161551">
<path fill-rule="evenodd" clip-rule="evenodd" d="M222.271 193.16C227.529 177.755 251.157 127.019 261.27 119.785C271.382 112.55 272.144 103.213 271.763 90.8194C271.382 78.4261 247.763 53.7341 235.415 63.0736C223.066 72.4131 190.009 89.6446 186.394 118.539C182.779 147.434 198.174 191.753 205.129 187.372C212.084 182.991 217.013 208.564 222.271 193.16Z" fill="url(#paint33_linear)" style="mix-blend-mode:multiply"/>
</g>
</g>
<path fill-rule="evenodd" clip-rule="evenodd" d="M247.169 62.2289C247.169 65.0456 251.452 72.919 259.724 72.6194C267.995 72.3199 269.659 72.0921 270.599 67.8922C270.599 74.1145 270.921 75.9512 269.396 80.0545C267.87 84.1576 258.363 86.4073 253.031 82.999C247.698 79.5907 244.919 77.5503 245.7 71.328C246.48 65.1057 247.169 59.4122 247.169 62.2289Z" fill="url(#paint34_linear)"/>
<path fill-rule="evenodd" clip-rule="evenodd" d="M59.5793 148.59L135.43 130.263C149.458 168.086 155.823 199.195 154.524 223.588C139.206 229.937 116.231 238.168 85.5965 248.282L54.275 158.315C52.9176 154.416 54.9781 150.154 58.8771 148.797C59.1077 148.717 59.342 148.648 59.5793 148.59Z" fill="url(#paint35_linear)"/>
<path fill-rule="evenodd" clip-rule="evenodd" d="M145.92 135.381C144.296 140.524 149.572 155.046 157.953 162.142C166.334 169.238 139.377 168.032 139.361 160.12C139.346 152.208 147.544 130.238 145.92 135.381Z" fill="#316EEA"/>
<path fill-rule="evenodd" clip-rule="evenodd" d="M149.59 151.497C155.928 154.111 160.497 156.902 163.298 159.871C167.499 164.324 187.929 198.962 190.338 201.012C192.747 203.062 209.325 204.616 211.821 205.434C210.545 207.282 208.061 212.986 209.338 218.004C205.398 219.987 196.744 218.216 179.041 216.233C165.872 205.217 159.035 187.844 156.219 179.55C153.403 171.257 151.194 161.906 149.59 151.497Z" fill="url(#paint36_linear)"/>
<path fill-rule="evenodd" clip-rule="evenodd" d="M158.285 157.437C163.402 166.19 171.295 183.764 173.536 191.351C175.94 199.489 166.596 220.916 166.705 225.951C166.795 230.15 162.474 228.684 124.093 232.546C122.907 225.144 122.907 215.887 124.093 204.777C125.872 188.112 118.622 165.692 120.632 161.927C122.642 158.162 127.532 150.157 129.679 150.157C131.826 150.157 153.168 148.685 158.285 157.437Z" fill="url(#paint37_radial)"/>
<path fill-rule="evenodd" clip-rule="evenodd" d="M0 249.56L225.136 202.561C233.463 200.823 242.108 201.41 250.124 204.259L362.905 244.34C406.341 259.777 401.351 322.747 356.026 331.151C353.315 331.653 350.564 331.906 347.807 331.906H82.3461C36.8676 331.906 0 295.038 0 249.56Z" fill="url(#paint38_linear)"/>
<g style="mix-blend-mode:multiply" opacity="0.196931">
<path fill-rule="evenodd" clip-rule="evenodd" d="M166.184 257.568L257.684 242.779L327.304 273.282L226.515 300.018" fill="url(#paint39_linear)"/>
</g>
<path fill-rule="evenodd" clip-rule="evenodd" d="M143.896 137.511C142.94 141.979 143.765 145.212 143.765 150.298C143.765 157.095 129.884 154.329 129.411 149.176C128.937 144.023 129.497 137.115 127.542 132.434C125.587 127.753 144.852 133.042 143.896 137.511Z" fill="url(#paint40_linear)"/>
<path fill-rule="evenodd" clip-rule="evenodd" d="M143.896 137.511C142.94 141.979 143.765 145.212 143.765 150.298C143.765 157.095 129.884 154.329 129.411 149.176C128.937 144.023 129.497 137.115 127.542 132.434C125.587 127.753 144.852 133.042 143.896 137.511Z" fill="url(#paint41_linear)" fill-opacity="0.67"/>
<mask id="mask3" mask-type="alpha" maskUnits="userSpaceOnUse" x="127" y="130" width="17" height="25">
<path fill-rule="evenodd" clip-rule="evenodd" d="M143.896 137.511C142.94 141.979 143.765 145.212 143.765 150.298C143.765 157.095 129.884 154.329 129.411 149.176C128.937 144.023 129.497 137.115 127.542 132.434C125.587 127.753 144.852 133.042 143.896 137.511Z" fill="white"/>
<path fill-rule="evenodd" clip-rule="evenodd" d="M143.896 137.511C142.94 141.979 143.765 145.212 143.765 150.298C143.765 157.095 129.884 154.329 129.411 149.176C128.937 144.023 129.497 137.115 127.542 132.434C125.587 127.753 144.852 133.042 143.896 137.511Z" stroke="white"/>
</mask>
<g mask="url(#mask3)">
<g opacity="0.717132">
<path fill-rule="evenodd" clip-rule="evenodd" d="M124.023 157.396C124.023 157.396 144.99 139.828 149.829 139.828C154.668 139.828 124.023 133.938 124.023 133.938V157.396Z" fill="url(#paint42_linear)" style="mix-blend-mode:multiply"/>
</g>
</g>
<path fill-rule="evenodd" clip-rule="evenodd" d="M148.159 101.554C149.393 105.45 149.255 109.77 151.649 113.491C154.042 117.211 157.196 120.46 158.034 122.113C158.872 123.766 154.674 125.235 154.674 126.713C154.674 128.191 157.471 138.477 155.974 139.46C155.121 141.757 139.412 144.941 135.445 142.66C131.948 142.66 126.559 139.592 123.252 132.053C119.944 124.514 119.792 106.208 123.252 101.554C126.711 96.9005 146.925 97.6585 148.159 101.554Z" fill="url(#paint43_linear)"/>
<path fill-rule="evenodd" clip-rule="evenodd" d="M172.668 250.464L177.909 207.948L249.376 206.515L243.128 248.024L172.668 250.464Z" fill="url(#paint44_linear)"/>
<mask id="mask4" mask-type="alpha" maskUnits="userSpaceOnUse" x="172" y="206" width="78" height="45">
<path fill-rule="evenodd" clip-rule="evenodd" d="M172.668 250.464L177.909 207.948L249.376 206.515L243.128 248.024L172.668 250.464Z" fill="white"/>
</mask>
<g mask="url(#mask4)">
<g style="mix-blend-mode:multiply" opacity="0.458036">
<path fill-rule="evenodd" clip-rule="evenodd" d="M246.911 239.009L237.607 205.398H252.595L246.911 239.009Z" fill="url(#paint45_linear)"/>
</g>
<g style="mix-blend-mode:multiply" opacity="0.528404">
<path fill-rule="evenodd" clip-rule="evenodd" d="M180.611 230.852C180.611 233.534 187.068 237.426 194.661 240.834C199.063 242.809 198.456 247.396 200.372 247.396C205.591 247.396 168.528 262.461 168.528 262.461C168.528 262.461 166.518 242.089 168.528 236.773C170.719 230.979 180.611 229.379 180.611 230.852Z" fill="url(#paint46_linear)"/>
</g>
</g>
<path fill-rule="evenodd" clip-rule="evenodd" d="M166.85 233.216C169.02 233.216 171.648 232.068 175.485 231.191C179.323 230.314 181.744 228.92 182.922 230.217C183.382 230.724 182.614 231.957 182.053 232.293C181.491 232.63 181.193 233.124 178.513 234.115C176.026 235.035 174.586 235.465 175.036 236.322C175.485 237.179 179.56 237.924 180.865 238.27C182.53 238.711 185.035 239.571 187.424 239.972C190.093 240.42 193.043 240.47 193.381 240.666C194.024 241.037 194.963 242.432 193.381 242.877C193.008 242.982 190.306 243.036 187.021 242.877C183.512 242.707 180.295 242.034 180.865 242.877C181 243.077 184.236 243.737 187.79 243.737C189.896 243.737 194.158 243.999 194.428 243.999C195.402 243.999 195.892 245.331 195.007 245.987C194.801 246.14 190.688 246.606 187.424 246.726C183.666 246.864 180.34 246.524 180.301 246.726C180.272 246.873 184.23 247.371 187.79 247.202C190.67 247.065 192.253 246.839 192.791 247.202C193.33 247.564 193.193 248.533 192.791 248.968C192.624 249.15 190.022 249.977 187.424 250.149C183.775 250.391 179.81 249.969 179.775 250.149C179.682 250.628 186.425 250.932 187.424 250.932C188.846 250.932 188.667 252.771 187.021 253.161C184.956 253.649 180.685 253.611 178.741 253.611C176.797 253.611 173.876 253.161 170.953 252.076C168.031 250.99 164.128 249.537 161.654 248.968C158.98 248.354 160.9 239.901 162.751 235.466C164.602 231.031 164.68 233.216 166.85 233.216Z" fill="url(#paint47_linear)"/>
<path fill-rule="evenodd" clip-rule="evenodd" d="M102.252 184.45C96.7238 198.587 101.094 209.317 103.521 221.565C105.948 233.813 107.052 236.464 110.92 238.955C114.788 241.446 124.272 244.916 160.724 249.126C160.724 246.214 160.631 238.981 165.396 232.907C158.66 232.907 134.715 226.303 126.483 224.234C119.086 218.565 126.483 209.477 126.483 192.425C126.483 175.374 107.781 170.313 102.252 184.45Z" fill="url(#paint48_linear)"/>
<path fill-rule="evenodd" clip-rule="evenodd" d="M142.223 116.119L123.564 119.634V121.031L142.888 119.56L142.223 116.119Z" fill="#143B8C"/>
<path fill-rule="evenodd" clip-rule="evenodd" d="M147.19 123.424C145.036 123.65 142.998 121.086 142.642 117.701C142.286 114.315 143.746 111.383 145.901 111.157C148.055 110.93 150.093 113.495 150.448 116.88C150.804 120.265 149.344 123.198 147.19 123.424Z" fill="black" fill-opacity="0.01" stroke="#143B8C" stroke-width="4"/>
<path fill-rule="evenodd" clip-rule="evenodd" d="M157.595 117.393C155.646 117.598 153.802 115.278 153.48 112.215C153.158 109.152 154.479 106.499 156.428 106.294C158.377 106.089 160.221 108.41 160.543 111.472C160.865 114.535 159.544 117.188 157.595 117.393Z" fill="black" fill-opacity="0.01" stroke="#143B8C" stroke-width="4"/>
<path fill-rule="evenodd" clip-rule="evenodd" d="M150.058 115.698C150.058 114.844 152.468 113.17 153.677 114.013L150.058 115.698Z" fill="black" fill-opacity="0.01"/>
<path d="M150.058 115.698C150.058 114.844 152.468 113.17 153.677 114.013" stroke="#143B8C" stroke-width="4"/>
<path fill-rule="evenodd" clip-rule="evenodd" d="M124.547 103.328C129.713 107.322 141.732 108.493 149.914 104.634C158.095 100.775 160.091 84.9757 149.914 80.1146C146.042 78.2657 138.354 79.4625 139.42 85.0361C130.516 81.5928 120.833 84.6082 116.993 86.905C111.012 90.4837 106.349 94.3829 103.897 102.58C101.446 110.777 105.448 118.929 103.478 123.104C101.508 127.278 95.7053 130.903 98.8079 143.731C101.91 156.559 94.4553 154.507 92.7747 162.332C91.094 170.157 96.4472 173.89 92.7747 179.104C89.1021 184.318 82.0616 206.329 95.2483 218.118C108.435 229.907 133.008 238.496 138.592 213.119C144.175 187.741 117.982 182.201 125.669 169.51C133.355 156.82 128.263 145.054 129.872 141.426C131.852 136.962 129.723 130.15 125.964 120.919C122.482 112.369 127.495 110.086 124.547 103.328Z" fill="url(#paint49_linear)"/>
<path fill-rule="evenodd" clip-rule="evenodd" d="M124.547 103.328C129.713 107.322 141.732 108.493 149.914 104.634C158.095 100.775 160.091 84.9757 149.914 80.1146C146.042 78.2657 138.354 79.4625 139.42 85.0361C130.516 81.5928 120.833 84.6082 116.993 86.905C111.012 90.4837 106.349 94.3829 103.897 102.58C101.446 110.777 105.448 118.929 103.478 123.104C101.508 127.278 95.7053 130.903 98.8079 143.731C101.91 156.559 94.4553 154.507 92.7747 162.332C91.094 170.157 96.4472 173.89 92.7747 179.104C89.1021 184.318 82.0616 206.329 95.2483 218.118C108.435 229.907 133.008 238.496 138.592 213.119C144.175 187.741 117.982 182.201 125.669 169.51C133.355 156.82 128.263 145.054 129.872 141.426C131.852 136.962 129.723 130.15 125.964 120.919C122.482 112.369 127.495 110.086 124.547 103.328Z" fill="url(#paint50_linear)"/>
<path fill-rule="evenodd" clip-rule="evenodd" d="M170.42 282.34L220.155 273.795C247.607 290.95 261.06 299.583 260.515 299.693C259.739 299.85 204.82 309.453 201.11 310.448C201.458 309.562 191.225 300.19 170.42 282.34Z" fill="url(#paint51_linear)"/>
<path fill-rule="evenodd" clip-rule="evenodd" d="M199.949 269.07L251.924 265.572L280.497 290.537L215.744 295.004L199.949 269.07Z" fill="url(#paint52_linear)"/>
<g filter="url(#filter2_i)">
<path fill-rule="evenodd" clip-rule="evenodd" d="M327.527 272.806L374.73 254.011C375.689 253.629 376.157 252.542 375.775 251.583C375.577 251.085 375.174 250.696 374.669 250.515L314.565 228.973L255.274 243.627L327.527 272.806Z" fill="url(#paint53_linear)"/>
</g>
<g filter="url(#filter3_i)">
<path fill-rule="evenodd" clip-rule="evenodd" d="M244.766 182.586L311.366 204.138C313.326 204.773 314.78 206.43 315.154 208.455L327.07 273.041L254.901 243.764L241.886 185.207C241.617 183.998 242.379 182.8 243.589 182.531C243.979 182.444 244.385 182.463 244.766 182.586Z" fill="url(#paint54_linear)"/>
<path fill-rule="evenodd" clip-rule="evenodd" d="M244.766 182.586L311.366 204.138C313.326 204.773 314.78 206.43 315.154 208.455L327.07 273.041L254.901 243.764L241.886 185.207C241.617 183.998 242.379 182.8 243.589 182.531C243.979 182.444 244.385 182.463 244.766 182.586Z" fill="url(#paint55_linear)" fill-opacity="0.23"/>
</g>
<path fill-rule="evenodd" clip-rule="evenodd" d="M278.176 230.187C281.608 231.861 285.227 231.858 286.72 228.797C288.214 225.735 285.52 222.27 282.088 220.596C278.655 218.922 275.41 218.925 273.916 221.986C272.423 225.048 274.743 228.513 278.176 230.187Z" fill="#D6E3FA"/>
<path fill-rule="evenodd" clip-rule="evenodd" d="M255.525 42.5806C255.513 40.248 257.393 38.3467 259.726 38.3332L263.338 38.3123C265.729 38.2985 267.662 40.2543 267.621 42.6443V42.6443C267.58 44.9882 265.653 46.8586 263.309 46.8288L259.696 46.783C257.393 46.7537 255.537 44.8844 255.525 42.5806V42.5806Z" stroke="#E5EFFD" stroke-width="5"/>
<path fill-rule="evenodd" clip-rule="evenodd" d="M275.311 42.5965C275.285 40.2436 277.186 38.3226 279.539 38.3236L282.095 38.3246C284.459 38.3255 286.368 40.2541 286.345 42.6179V42.6179C286.323 44.9846 284.372 46.8773 282.005 46.8285L279.45 46.7757C277.168 46.7286 275.336 44.8786 275.311 42.5965V42.5965Z" stroke="#E5EFFD" stroke-width="5"/>
<path fill-rule="evenodd" clip-rule="evenodd" d="M267.61 42.0527H275.085H267.61Z" fill="black" fill-opacity="0.01"/>
<path d="M267.61 42.0527H275.085" stroke="#E5EFFD" stroke-width="4"/>
<path fill-rule="evenodd" clip-rule="evenodd" d="M246.976 35.6907L256.085 40.1151V44.4474L247.84 38.695L246.976 35.6907Z" fill="#E5EFFD"/>
<path fill-rule="evenodd" clip-rule="evenodd" d="M154.832 129.462C155.199 129.273 155.083 130.11 155.243 130.601C155.403 131.092 155.511 131.169 155.564 131.489C154.041 132.273 151.392 132.428 149.618 131.378C149.263 131.168 148.952 130.996 149.247 130.706C149.541 130.417 149.908 130.598 150.304 130.715C151.685 131.124 153.883 129.951 154.832 129.462Z" fill="#1A418F"/>
<path opacity="0.7" fill-rule="evenodd" clip-rule="evenodd" d="M101.295 297.717C113.681 297.717 123.721 299.892 123.721 302.576C123.721 305.259 113.681 307.435 101.295 307.435C88.9087 307.435 78.8679 305.259 78.8679 302.576C78.8679 299.892 88.9087 297.717 101.295 297.717Z" fill="url(#paint56_linear)"/>
<path fill-rule="evenodd" clip-rule="evenodd" d="M131.181 274.307C132.868 277.263 133.813 280.575 133.813 284.073C133.813 296.563 121.764 306.687 106.901 306.687C92.0379 306.687 79.9891 296.563 79.9891 284.073C79.9891 280.372 81.0474 276.878 82.9237 273.794C94.8457 275.681 118.575 275.56 131.181 274.307Z" fill="url(#paint57_linear)"/>
<mask id="mask5" mask-type="alpha" maskUnits="userSpaceOnUse" x="79" y="273" width="55" height="34">
<path fill-rule="evenodd" clip-rule="evenodd" d="M131.181 274.307C132.868 277.263 133.813 280.575 133.813 284.073C133.813 296.563 121.764 306.687 106.901 306.687C92.0379 306.687 79.9891 296.563 79.9891 284.073C79.9891 280.372 81.0474 276.878 82.9237 273.794C94.8457 275.681 118.575 275.56 131.181 274.307Z" fill="white"/>
</mask>
<g mask="url(#mask5)">
</g>
<path fill-rule="evenodd" clip-rule="evenodd" d="M107.088 269.309C120.609 269.309 131.57 271.903 131.57 275.103C131.57 278.303 120.609 280.896 107.088 280.896C93.5662 280.896 82.6049 278.303 82.6049 275.103C82.6049 271.903 93.5662 269.309 107.088 269.309Z" fill="url(#paint58_linear)"/>
<mask id="mask6" mask-type="alpha" maskUnits="userSpaceOnUse" x="82" y="269" width="50" height="12">
<path fill-rule="evenodd" clip-rule="evenodd" d="M107.088 269.309C120.609 269.309 131.57 271.903 131.57 275.103C131.57 278.303 120.609 280.896 107.088 280.896C93.5662 280.896 82.6049 278.303 82.6049 275.103C82.6049 271.903 93.5662 269.309 107.088 269.309Z" fill="white"/>
</mask>
<g mask="url(#mask6)">
</g>
<g filter="url(#filter4_i)">
<path fill-rule="evenodd" clip-rule="evenodd" d="M105.033 270.805C103.696 261.552 100.018 248.191 88.9607 233.801C82.4471 225.323 82.4258 204.68 81.4851 202.403C86.5962 204.161 95.7778 208.691 105.033 221.466C114.735 234.857 108.58 262.167 105.033 270.805Z" fill="url(#paint59_linear)"/>
</g>
<mask id="mask7" mask-type="alpha" maskUnits="userSpaceOnUse" x="81" y="202" width="30" height="69">
<path fill-rule="evenodd" clip-rule="evenodd" d="M105.033 270.805C103.696 261.552 100.018 248.191 88.9607 233.801C82.4471 225.323 82.4258 204.68 81.4851 202.403C86.5962 204.161 95.7778 208.691 105.033 221.466C114.735 234.857 108.58 262.167 105.033 270.805Z" fill="white"/>
</mask>
<g mask="url(#mask7)">
<g style="mix-blend-mode:multiply" opacity="0.5">
<path d="M103.243 256.852L97.629 230.283C101.04 237.932 102.798 246.348 103.243 256.852Z" fill="black" fill-opacity="0.01"/>
<path d="M103.243 256.852L97.629 230.283C101.04 237.932 102.798 246.348 103.243 256.852Z" stroke="#489C71" stroke-width="3"/>
</g>
</g>
<g filter="url(#filter5_i)">
<path fill-rule="evenodd" clip-rule="evenodd" d="M105.074 280.302C100.943 273.695 93.6451 264.742 80.3698 257.482C72.5497 253.206 65.5938 237.47 64.1107 236.05C68.6017 235.673 77.1309 236.043 88.4877 242.676C100.393 249.628 104.877 272.523 105.074 280.302Z" fill="url(#paint60_linear)"/>
</g>
<mask id="mask8" mask-type="alpha" maskUnits="userSpaceOnUse" x="64" y="235" width="42" height="46">
<path fill-rule="evenodd" clip-rule="evenodd" d="M105.074 280.302C100.943 273.695 93.6451 264.742 80.3698 257.482C72.5497 253.206 65.5938 237.47 64.1107 236.05C68.6017 235.673 77.1309 236.043 88.4877 242.676C100.393 249.628 104.877 272.523 105.074 280.302Z" fill="white"/>
</mask>
<g mask="url(#mask8)">
<g style="mix-blend-mode:multiply" opacity="0.5">
<path d="M97.2546 267.383L87.5944 253.951C91.2127 257.623 94.3388 261.98 97.2546 267.383Z" fill="black" fill-opacity="0.01"/>
<path d="M97.2546 267.383L87.5944 253.951C91.2127 257.623 94.3388 261.98 97.2546 267.383Z" stroke="#489C71" stroke-width="3"/>
</g>
</g>
<g filter="url(#filter6_i)">
<path fill-rule="evenodd" clip-rule="evenodd" d="M108.04 281.208C111.297 274.096 117.404 264.24 129.685 255.299C136.92 250.033 141.806 233.467 143.099 231.862C138.577 232.066 130.129 233.534 119.678 241.603C108.722 250.062 107.227 273.437 108.04 281.208Z" fill="url(#paint61_linear)"/>
</g>
<mask id="mask9" mask-type="alpha" maskUnits="userSpaceOnUse" x="107" y="231" width="37" height="51">
<path fill-rule="evenodd" clip-rule="evenodd" d="M108.04 281.208C111.297 274.096 117.404 264.24 129.685 255.299C136.92 250.033 141.806 233.467 143.099 231.862C138.577 232.066 130.129 233.534 119.678 241.603C108.722 250.062 107.227 273.437 108.04 281.208Z" fill="white"/>
</mask>
<g mask="url(#mask9)">
<g style="mix-blend-mode:multiply" opacity="0.5">
<path d="M120.833 252.535L112.859 267.33C115.084 261.494 117.661 256.699 120.833 252.535Z" fill="black" fill-opacity="0.01"/>
<path d="M120.833 252.535L112.859 267.33C115.084 261.494 117.661 256.699 120.833 252.535Z" stroke="#489C71" stroke-width="3"/>
</g>
</g>
<defs>
<filter id="filter0_i" x="298.699" y="170.117" width="117.101" height="88.195" filterUnits="userSpaceOnUse" color-interpolation-filters="sRGB">
<feFlood flood-opacity="0" result="BackgroundImageFix"/>
<feBlend mode="normal" in="SourceGraphic" in2="BackgroundImageFix" result="shape"/>
<feColorMatrix in="SourceAlpha" type="matrix" values="0 0 0 0 0 0 0 0 0 0 0 0 0 0 0 0 0 0 127 0" result="hardAlpha"/>
<feOffset dx="-12" dy="1"/>
<feGaussianBlur stdDeviation="13.5"/>
<feComposite in2="hardAlpha" operator="arithmetic" k2="-1" k3="1"/>
<feColorMatrix type="matrix" values="0 0 0 0 0.0901961 0 0 0 0 0.254902 0 0 0 0 0.572549 0 0 0 0.204201 0"/>
<feBlend mode="normal" in2="shape" result="effect1_innerShadow"/>
</filter>
<filter id="filter1_i" x="194.406" y="71.5811" width="163.433" height="127.842" filterUnits="userSpaceOnUse" color-interpolation-filters="sRGB">
<feFlood flood-opacity="0" result="BackgroundImageFix"/>
<feBlend mode="normal" in="SourceGraphic" in2="BackgroundImageFix" result="shape"/>
<feColorMatrix in="SourceAlpha" type="matrix" values="0 0 0 0 0 0 0 0 0 0 0 0 0 0 0 0 0 0 127 0" result="hardAlpha"/>
<feOffset dx="8" dy="3"/>
<feGaussianBlur stdDeviation="11.5"/>
<feComposite in2="hardAlpha" operator="arithmetic" k2="-1" k3="1"/>
<feColorMatrix type="matrix" values="0 0 0 0 0.729412 0 0 0 0 0.8 0 0 0 0 0.933333 0 0 0 1 0"/>
<feBlend mode="normal" in2="shape" result="effect1_innerShadow"/>
</filter>
<filter id="filter2_i" x="238.273" y="221.974" width="137.634" height="50.8328" filterUnits="userSpaceOnUse" color-interpolation-filters="sRGB">
<feFlood flood-opacity="0" result="BackgroundImageFix"/>
<feBlend mode="normal" in="SourceGraphic" in2="BackgroundImageFix" result="shape"/>
<feColorMatrix in="SourceAlpha" type="matrix" values="0 0 0 0 0 0 0 0 0 0 0 0 0 0 0 0 0 0 127 0" result="hardAlpha"/>
<feOffset dx="-17" dy="-7"/>
<feGaussianBlur stdDeviation="12"/>
<feComposite in2="hardAlpha" operator="arithmetic" k2="-1" k3="1"/>
<feColorMatrix type="matrix" values="0 0 0 0 0.239216 0 0 0 0 0.509804 0 0 0 0 0.941176 0 0 0 0.775419 0"/>
<feBlend mode="normal" in2="shape" result="effect1_innerShadow"/>
</filter>
<filter id="filter3_i" x="235.832" y="182.478" width="91.2385" height="92.5634" filterUnits="userSpaceOnUse" color-interpolation-filters="sRGB">
<feFlood flood-opacity="0" result="BackgroundImageFix"/>
<feBlend mode="normal" in="SourceGraphic" in2="BackgroundImageFix" result="shape"/>
<feColorMatrix in="SourceAlpha" type="matrix" values="0 0 0 0 0 0 0 0 0 0 0 0 0 0 0 0 0 0 127 0" result="hardAlpha"/>
<feOffset dx="-6" dy="2"/>
<feGaussianBlur stdDeviation="6"/>
<feComposite in2="hardAlpha" operator="arithmetic" k2="-1" k3="1"/>
<feColorMatrix type="matrix" values="0 0 0 0 1 0 0 0 0 1 0 0 0 0 1 0 0 0 0.5 0"/>
<feBlend mode="normal" in2="shape" result="effect1_innerShadow"/>
</filter>
<filter id="filter4_i" x="81.4844" y="192.403" width="28.7611" height="78.4016" filterUnits="userSpaceOnUse" color-interpolation-filters="sRGB">
<feFlood flood-opacity="0" result="BackgroundImageFix"/>
<feBlend mode="normal" in="SourceGraphic" in2="BackgroundImageFix" result="shape"/>
<feColorMatrix in="SourceAlpha" type="matrix" values="0 0 0 0 0 0 0 0 0 0 0 0 0 0 0 0 0 0 127 0" result="hardAlpha"/>
<feOffset dy="-10"/>
<feGaussianBlur stdDeviation="11"/>
<feComposite in2="hardAlpha" operator="arithmetic" k2="-1" k3="1"/>
<feColorMatrix type="matrix" values="0 0 0 0 0.221483 0 0 0 0 0.77854 0 0 0 0 0.610041 0 0 0 1 0"/>
<feBlend mode="normal" in2="shape" result="effect1_innerShadow"/>
</filter>
<filter id="filter5_i" x="64.1113" y="225.948" width="40.963" height="54.3534" filterUnits="userSpaceOnUse" color-interpolation-filters="sRGB">
<feFlood flood-opacity="0" result="BackgroundImageFix"/>
<feBlend mode="normal" in="SourceGraphic" in2="BackgroundImageFix" result="shape"/>
<feColorMatrix in="SourceAlpha" type="matrix" values="0 0 0 0 0 0 0 0 0 0 0 0 0 0 0 0 0 0 127 0" result="hardAlpha"/>
<feOffset dy="-10"/>
<feGaussianBlur stdDeviation="11"/>
<feComposite in2="hardAlpha" operator="arithmetic" k2="-1" k3="1"/>
<feColorMatrix type="matrix" values="0 0 0 0 0.221483 0 0 0 0 0.77854 0 0 0 0 0.610041 0 0 0 1 0"/>
<feBlend mode="normal" in2="shape" result="effect1_innerShadow"/>
</filter>
<filter id="filter6_i" x="107.854" y="221.861" width="35.2453" height="59.3461" filterUnits="userSpaceOnUse" color-interpolation-filters="sRGB">
<feFlood flood-opacity="0" result="BackgroundImageFix"/>
<feBlend mode="normal" in="SourceGraphic" in2="BackgroundImageFix" result="shape"/>
<feColorMatrix in="SourceAlpha" type="matrix" values="0 0 0 0 0 0 0 0 0 0 0 0 0 0 0 0 0 0 127 0" result="hardAlpha"/>
<feOffset dy="-10"/>
<feGaussianBlur stdDeviation="11"/>
<feComposite in2="hardAlpha" operator="arithmetic" k2="-1" k3="1"/>
<feColorMatrix type="matrix" values="0 0 0 0 0.221483 0 0 0 0 0.77854 0 0 0 0 0.610041 0 0 0 1 0"/>
<feBlend mode="normal" in2="shape" result="effect1_innerShadow"/>
</filter>
<linearGradient id="paint0_linear" x1="345.034" y1="149.619" x2="345.034" y2="21.6973" gradientUnits="userSpaceOnUse">
<stop stop-color="#ECF2FC" stop-opacity="0.642323"/>
<stop offset="1" stop-color="#D4E1F8"/>
</linearGradient>
<linearGradient id="paint1_linear" x1="208.695" y1="148.432" x2="166.326" y2="203.832" gradientUnits="userSpaceOnUse">
<stop stop-color="#CFDDF3"/>
<stop offset="1" stop-color="#A1B8E3"/>
</linearGradient>
<linearGradient id="paint2_linear" x1="199.41" y1="207.791" x2="214.276" y2="232.531" gradientUnits="userSpaceOnUse">
<stop stop-color="#CFDDF3"/>
<stop offset="1" stop-color="#A1B8E3"/>
</linearGradient>
<linearGradient id="paint3_linear" x1="199.793" y1="188.403" x2="208.692" y2="203.213" gradientUnits="userSpaceOnUse">
<stop stop-color="#CFDDF3"/>
<stop offset="1" stop-color="#A1B8E3"/>
</linearGradient>
<linearGradient id="paint4_linear" x1="190.875" y1="158.841" x2="255.225" y2="265.937" gradientUnits="userSpaceOnUse">
<stop stop-color="#CFDDF3"/>
<stop offset="1" stop-color="#A1B8E3"/>
</linearGradient>
<linearGradient id="paint5_linear" x1="294.053" y1="169.992" x2="295.579" y2="257.437" gradientUnits="userSpaceOnUse">
<stop stop-color="#CFDDF3"/>
<stop offset="1" stop-color="#A1B8E3"/>
</linearGradient>
<linearGradient id="paint6_linear" x1="318.736" y1="118.444" x2="296.038" y2="123.75" gradientUnits="userSpaceOnUse">
<stop stop-color="#CFDDF3"/>
<stop offset="1" stop-color="#A1B8E3"/>
</linearGradient>
<linearGradient id="paint7_linear" x1="343.96" y1="132.037" x2="321.262" y2="137.342" gradientUnits="userSpaceOnUse">
<stop stop-color="#CFDDF3"/>
<stop offset="1" stop-color="#A1B8E3"/>
</linearGradient>
<linearGradient id="paint8_linear" x1="336.15" y1="152.121" x2="313.451" y2="157.426" gradientUnits="userSpaceOnUse">
<stop stop-color="#CFDDF3"/>
<stop offset="1" stop-color="#A1B8E3"/>
</linearGradient>
<linearGradient id="paint9_linear" x1="329.839" y1="171.576" x2="307.141" y2="176.881" gradientUnits="userSpaceOnUse">
<stop stop-color="#CFDDF3"/>
<stop offset="1" stop-color="#A1B8E3"/>
</linearGradient>
<linearGradient id="paint10_linear" x1="342.267" y1="108.413" x2="319.569" y2="113.719" gradientUnits="userSpaceOnUse">
<stop stop-color="#CFDDF3"/>
<stop offset="1" stop-color="#A1B8E3"/>
</linearGradient>
<linearGradient id="paint11_linear" x1="308.234" y1="139.731" x2="285.536" y2="145.037" gradientUnits="userSpaceOnUse">
<stop stop-color="#CFDDF3"/>
<stop offset="1" stop-color="#A1B8E3"/>
</linearGradient>
<linearGradient id="paint12_linear" x1="300.445" y1="161.025" x2="277.747" y2="166.33" gradientUnits="userSpaceOnUse">
<stop stop-color="#CFDDF3"/>
<stop offset="1" stop-color="#A1B8E3"/>
</linearGradient>
<linearGradient id="paint13_linear" x1="209.491" y1="-4.41772" x2="140.317" y2="83.9969" gradientUnits="userSpaceOnUse">
<stop stop-color="#D2E0F9" stop-opacity="0.01"/>
<stop offset="1" stop-color="#B1C6E7" stop-opacity="0.464589"/>
</linearGradient>
<linearGradient id="paint14_linear" x1="203.155" y1="28.3855" x2="148.594" y2="98.1225" gradientUnits="userSpaceOnUse">
<stop stop-color="#D2E0F9" stop-opacity="0.01"/>
<stop offset="1" stop-color="#B1C6E7" stop-opacity="0.464589"/>
</linearGradient>
<linearGradient id="paint15_linear" x1="340.688" y1="28.8489" x2="271.514" y2="117.264" gradientUnits="userSpaceOnUse">
<stop stop-color="#D2E0F9" stop-opacity="0.01"/>
<stop offset="1" stop-color="#B1C6E7" stop-opacity="0.464589"/>
</linearGradient>
<linearGradient id="paint16_linear" x1="334.352" y1="61.6521" x2="279.791" y2="131.389" gradientUnits="userSpaceOnUse">
<stop stop-color="#D2E0F9" stop-opacity="0.01"/>
<stop offset="1" stop-color="#B1C6E7" stop-opacity="0.464589"/>
</linearGradient>
<linearGradient id="paint17_linear" x1="386.924" y1="216.408" x2="434.691" y2="202.174" gradientUnits="userSpaceOnUse">
<stop stop-color="#7FA0D4"/>
<stop offset="1" stop-color="#D6E3FA"/>
</linearGradient>
<linearGradient id="paint18_linear" x1="376.592" y1="139.482" x2="355.854" y2="155.779" gradientUnits="userSpaceOnUse">
<stop stop-color="#5D6FAA"/>
<stop offset="1" stop-color="#90AADB"/>
</linearGradient>
<linearGradient id="paint19_linear" x1="371.473" y1="141.966" x2="371.473" y2="178.815" gradientUnits="userSpaceOnUse">
<stop stop-color="#CFDDF3"/>
<stop offset="1" stop-color="#A1B8E3" stop-opacity="0.01"/>
</linearGradient>
<radialGradient id="paint20_radial" cx="0" cy="0" r="1" gradientUnits="userSpaceOnUse" gradientTransform="translate(356.395 133.781) rotate(23.4052) scale(19.3764 26.0373)">
<stop stop-color="#E1EDFF"/>
<stop offset="1" stop-color="#A1B8E3"/>
</radialGradient>
<linearGradient id="paint21_linear" x1="342.185" y1="97.2292" x2="351.908" y2="130.792" gradientUnits="userSpaceOnUse">
<stop stop-color="#2D6DC0"/>
<stop offset="1" stop-color="#143B8C"/>
</linearGradient>
<linearGradient id="paint22_linear" x1="370.56" y1="126.962" x2="377.845" y2="161.165" gradientUnits="userSpaceOnUse">
<stop stop-color="#174293" stop-opacity="0.01"/>
<stop offset="1" stop-color="#051E4B"/>
</linearGradient>
<linearGradient id="paint23_linear" x1="331.989" y1="153.745" x2="346.7" y2="178.476" gradientUnits="userSpaceOnUse">
<stop stop-color="#2D6DC0"/>
<stop offset="1" stop-color="#143B8C"/>
</linearGradient>
<linearGradient id="paint24_linear" x1="339.448" y1="218.417" x2="334.016" y2="238.356" gradientUnits="userSpaceOnUse">
<stop stop-color="#2E7DE7" stop-opacity="0.01"/>
<stop offset="1" stop-color="#00357E" stop-opacity="0.5"/>
</linearGradient>
<linearGradient id="paint25_linear" x1="390.387" y1="183.307" x2="390.387" y2="161.873" gradientUnits="userSpaceOnUse">
<stop stop-color="#70B8F9" stop-opacity="0.275872"/>
<stop offset="1" stop-color="#3D82F0"/>
</linearGradient>
<linearGradient id="paint26_linear" x1="367.217" y1="238.328" x2="389.61" y2="249.858" gradientUnits="userSpaceOnUse">
<stop stop-color="#3D82F0" stop-opacity="0.01"/>
<stop offset="1" stop-color="#3D82F0"/>
</linearGradient>
<linearGradient id="paint27_linear" x1="314.166" y1="223.5" x2="340.815" y2="235.739" gradientUnits="userSpaceOnUse">
<stop stop-color="#3D82F0" stop-opacity="0.01"/>
<stop offset="1" stop-color="#3D82F0"/>
</linearGradient>
<linearGradient id="paint28_linear" x1="236.312" y1="66.0808" x2="265.627" y2="79.2604" gradientUnits="userSpaceOnUse">
<stop stop-color="#00224E"/>
<stop offset="1" stop-color="#113275"/>
</linearGradient>
<radialGradient id="paint29_radial" cx="0" cy="0" r="1" gradientUnits="userSpaceOnUse" gradientTransform="translate(282.203 58.129) rotate(-74.4773) scale(30.7486 24.9657)">
<stop stop-color="#2D6DC0"/>
<stop offset="1" stop-color="#143B8C"/>
</radialGradient>
<linearGradient id="paint30_linear" x1="278.075" y1="-4.28503" x2="254.172" y2="29.3054" gradientUnits="userSpaceOnUse">
<stop stop-color="#CFDDF3"/>
<stop offset="1" stop-color="#A1B8E3"/>
</linearGradient>
<linearGradient id="paint31_linear" x1="320.571" y1="62.5783" x2="255.189" y2="94.1847" gradientUnits="userSpaceOnUse">
<stop stop-color="#EDF3FD"/>
<stop offset="1" stop-color="#D6E3FA"/>
</linearGradient>
<linearGradient id="paint32_linear" x1="222.063" y1="235.796" x2="262.359" y2="225.172" gradientUnits="userSpaceOnUse">
<stop stop-color="#EAF0F7" stop-opacity="0.115546"/>
<stop offset="1" stop-color="#D1DDED"/>
</linearGradient>
<linearGradient id="paint33_linear" x1="272.519" y1="58.6726" x2="209.378" y2="67.5959" gradientUnits="userSpaceOnUse">
<stop stop-color="#EAF0F7" stop-opacity="0.115546"/>
<stop offset="1" stop-color="#D1DDED"/>
</linearGradient>
<linearGradient id="paint34_linear" x1="248.812" y1="76.536" x2="255.815" y2="76.536" gradientUnits="userSpaceOnUse">
<stop stop-color="#B1C6E7"/>
<stop offset="1" stop-color="#E5EFFD"/>
</linearGradient>
<linearGradient id="paint35_linear" x1="116.303" y1="168.042" x2="78.6459" y2="160.415" gradientUnits="userSpaceOnUse">
<stop stop-color="#7FA0D4"/>
<stop offset="1" stop-color="#D6E3FA"/>
</linearGradient>
<linearGradient id="paint36_linear" x1="190.56" y1="238.192" x2="223.849" y2="219.453" gradientUnits="userSpaceOnUse">
<stop stop-color="#002D65"/>
<stop offset="0.87783" stop-color="#3A74C6"/>
<stop offset="1" stop-color="#3062AA"/>
</linearGradient>
<radialGradient id="paint37_radial" cx="0" cy="0" r="1" gradientUnits="userSpaceOnUse" gradientTransform="translate(176.423 190.629) rotate(-173.25) scale(42.2661 61.0542)">
<stop stop-color="#2D6DC0"/>
<stop offset="1" stop-color="#143B8C"/>
</radialGradient>
<linearGradient id="paint38_linear" x1="-35.3289" y1="270.022" x2="-31.1495" y2="316.786" gradientUnits="userSpaceOnUse">
<stop stop-color="#EAEFFF"/>
<stop offset="1" stop-color="#F7F9FE"/>
</linearGradient>
<linearGradient id="paint39_linear" x1="198.179" y1="240.836" x2="196.783" y2="275.724" gradientUnits="userSpaceOnUse">
<stop stop-color="#0041B2"/>
<stop offset="1" stop-color="#2D64D7" stop-opacity="0.01"/>
</linearGradient>
<linearGradient id="paint40_linear" x1="124.842" y1="127.273" x2="124.842" y2="157.55" gradientUnits="userSpaceOnUse">
<stop stop-color="#4376C9"/>
<stop offset="1" stop-color="#D6E3FA"/>
</linearGradient>
<linearGradient id="paint41_linear" x1="128.906" y1="155.26" x2="141.612" y2="155.26" gradientUnits="userSpaceOnUse">
<stop stop-color="#133B8B"/>
<stop offset="1" stop-color="#A9BFE7" stop-opacity="0.01"/>
<stop offset="1" stop-color="#A9BFE7" stop-opacity="0.01"/>
</linearGradient>
<linearGradient id="paint42_linear" x1="124.023" y1="133.938" x2="124.023" y2="157.396" gradientUnits="userSpaceOnUse">
<stop stop-color="#699DF3"/>
<stop offset="1" stop-color="#8597B5" stop-opacity="0.01"/>
</linearGradient>
<linearGradient id="paint43_linear" x1="117.331" y1="137.725" x2="145.004" y2="140.862" gradientUnits="userSpaceOnUse">
<stop stop-color="#7798F6"/>
<stop offset="1" stop-color="#E5EFFD"/>
</linearGradient>
<linearGradient id="paint44_linear" x1="195.722" y1="265.571" x2="221.74" y2="223.117" gradientUnits="userSpaceOnUse">
<stop stop-color="#FF7F31"/>
<stop offset="1" stop-color="#FFD25F"/>
</linearGradient>
<linearGradient id="paint45_linear" x1="246.871" y1="202.544" x2="235.165" y2="204.126" gradientUnits="userSpaceOnUse">
<stop stop-color="#FF7F31"/>
<stop offset="1" stop-color="#FFC83A" stop-opacity="0.01"/>
</linearGradient>
<linearGradient id="paint46_linear" x1="189.86" y1="260.851" x2="206.168" y2="249.499" gradientUnits="userSpaceOnUse">
<stop stop-color="#FF7F31"/>
<stop offset="1" stop-color="#FFC83A" stop-opacity="0.01"/>
</linearGradient>
<linearGradient id="paint47_linear" x1="163.272" y1="229.1" x2="157.372" y2="246.229" gradientUnits="userSpaceOnUse">
<stop stop-color="#ECF2FB"/>
<stop offset="1" stop-color="#D5E1F5"/>
</linearGradient>
<linearGradient id="paint48_linear" x1="146.615" y1="208.166" x2="125.339" y2="224.388" gradientUnits="userSpaceOnUse">
<stop stop-color="#3D82F0"/>
<stop offset="1" stop-color="#143B8C"/>
</linearGradient>
<linearGradient id="paint49_linear" x1="176.435" y1="81.9384" x2="87.9194" y2="83.4432" gradientUnits="userSpaceOnUse">
<stop stop-color="#70B8F9"/>
<stop offset="1" stop-color="#0457DC"/>
</linearGradient>
<linearGradient id="paint50_linear" x1="129.003" y1="147.163" x2="84.6537" y2="160.463" gradientUnits="userSpaceOnUse">
<stop stop-color="#3D82F0" stop-opacity="0.01"/>
<stop offset="1" stop-color="#0049BD"/>
</linearGradient>
<linearGradient id="paint51_linear" x1="170.42" y1="273.795" x2="170.42" y2="310.448" gradientUnits="userSpaceOnUse">
<stop stop-color="#B2C7E8"/>
<stop offset="1" stop-color="#D6E3FA"/>
</linearGradient>
<linearGradient id="paint52_linear" x1="199.949" y1="265.572" x2="199.949" y2="295.004" gradientUnits="userSpaceOnUse">
<stop stop-color="#C6D6EE"/>
<stop offset="1" stop-color="#E5EFFD"/>
</linearGradient>
<linearGradient id="paint53_linear" x1="303.402" y1="243.971" x2="334.402" y2="243.971" gradientUnits="userSpaceOnUse">
<stop stop-color="#002B64"/>
<stop offset="1" stop-color="#0F3177"/>
</linearGradient>
<linearGradient id="paint54_linear" x1="293.922" y1="176.22" x2="234.195" y2="215.146" gradientUnits="userSpaceOnUse">
<stop stop-color="#DBE9FF"/>
<stop offset="0.440948" stop-color="#A7BDE4"/>
<stop offset="1" stop-color="#5876AF"/>
</linearGradient>
<linearGradient id="paint55_linear" x1="294.599" y1="247.34" x2="290.407" y2="257.188" gradientUnits="userSpaceOnUse">
<stop stop-color="#869FCE" stop-opacity="0.01"/>
<stop offset="1" stop-color="#4975C1"/>
</linearGradient>
<linearGradient id="paint56_linear" x1="124.469" y1="297.343" x2="78.4941" y2="297.343" gradientUnits="userSpaceOnUse">
<stop stop-color="#D9E5F6" stop-opacity="0.712636"/>
<stop offset="1" stop-color="#B2C6EA"/>
</linearGradient>
<linearGradient id="paint57_linear" x1="125.39" y1="320.117" x2="132.915" y2="291.369" gradientUnits="userSpaceOnUse">
<stop stop-color="#ACC5E9"/>
<stop offset="0.627469" stop-color="#D3E3FB"/>
<stop offset="1" stop-color="#EAF2FF"/>
</linearGradient>
<linearGradient id="paint58_linear" x1="84.1024" y1="266.633" x2="82.9083" y2="285.779" gradientUnits="userSpaceOnUse">
<stop stop-color="#86A8D9"/>
<stop offset="1" stop-color="#BCD0F2"/>
</linearGradient>
<linearGradient id="paint59_linear" x1="76.6058" y1="220.958" x2="116.779" y2="263.022" gradientUnits="userSpaceOnUse">
<stop stop-color="#B1FFBE"/>
<stop offset="0.444207" stop-color="#5CDB8E"/>
<stop offset="1" stop-color="#149654"/>
</linearGradient>
<linearGradient id="paint60_linear" x1="76.0207" y1="233.736" x2="81.7969" y2="278.374" gradientUnits="userSpaceOnUse">
<stop stop-color="#B1FFBE"/>
<stop offset="0.444207" stop-color="#5CDB8E"/>
<stop offset="1" stop-color="#149654"/>
</linearGradient>
<linearGradient id="paint61_linear" x1="101.626" y1="244.923" x2="128.081" y2="286.444" gradientUnits="userSpaceOnUse">
<stop stop-color="#B1FFBE"/>
<stop offset="0.444207" stop-color="#5CDB8E"/>
<stop offset="1" stop-color="#149654"/>
</linearGradient>
</defs>
</svg>
