<svg width="544" height="516" viewBox="0 0 544 516" fill="none" xmlns="http://www.w3.org/2000/svg">
<path opacity="0.1976" fill-rule="evenodd" clip-rule="evenodd" d="M521.589 177.4C518.704 193.502 513.211 208.532 505.59 222.172C536.053 261.59 550.445 312.552 541.257 364.66C523.633 464.608 425.934 530.924 323.04 512.781C247.337 499.432 189.914 444.084 171.869 375.958C156.075 378.543 139.635 378.556 123.053 375.632C41.6319 361.276 -12.366 281.543 2.44543 197.545C17.2563 113.546 95.2682 57.0907 176.689 71.4475C192.703 74.2711 207.656 79.6237 221.233 87.0403C250.005 26.3457 319.472 -10.1211 392.104 2.48366C478.245 17.4324 536.217 95.745 521.589 177.4Z" fill="url(#paint0_radial)"/>
<mask id="mask0" mask-type="alpha" maskUnits="userSpaceOnUse" x="0" y="0" width="544" height="516">
<path fill-rule="evenodd" clip-rule="evenodd" d="M521.589 177.4C518.704 193.502 513.211 208.532 505.59 222.172C536.053 261.59 550.445 312.552 541.257 364.66C523.633 464.608 425.934 530.924 323.04 512.781C247.337 499.432 189.914 444.084 171.869 375.958C156.075 378.543 139.635 378.556 123.053 375.632C41.6319 361.276 -12.366 281.543 2.44543 197.545C17.2563 113.546 95.2682 57.0907 176.689 71.4475C192.703 74.2711 207.656 79.6237 221.233 87.0403C250.005 26.3457 319.472 -10.1211 392.104 2.48366C478.245 17.4324 536.217 95.745 521.589 177.4Z" fill="white"/>
</mask>
<g mask="url(#mask0)">
<g opacity="0.5" filter="url(#filter0_i)">
<path fill-rule="evenodd" clip-rule="evenodd" d="M218.112 197.798C217.282 173.998 155.271 179.363 131.35 181.659C107.429 183.955 105.257 151.351 125.896 146.504C146.535 141.658 183.962 144.159 203.354 139.685C222.746 135.212 198.216 111.219 224.638 108.327C251.061 105.435 305.696 108.113 321.983 107.525C347.567 106.603 360.693 137.402 315.872 138.799C303.511 139.185 301.032 166.546 342.753 159.03C368.935 154.314 420.306 154.205 430.992 166.247C437.123 173.156 434.999 191.717 424.458 201.967C416.627 209.581 391.725 211.066 381.97 212.826C359.084 216.956 363.608 239.115 371.412 243.678C389.879 254.475 440.56 234.098 441.919 263.746C442.519 276.847 396.405 278.962 377.497 278.802C331.122 278.41 300.653 282.542 298.514 266.723C296.368 250.842 327.331 261.561 325.805 242.037C325.007 231.835 327.145 210.156 307.28 211.294C334.478 209.736 219.234 229.942 218.112 197.798Z" fill="url(#paint1_linear)"/>
</g>
<g opacity="0.5" filter="url(#filter1_i)">
<path fill-rule="evenodd" clip-rule="evenodd" d="M425.326 104.844C425.388 81.0292 363.219 84.0685 339.229 85.4671C315.239 86.8659 314.289 54.2034 335.095 50.1333C355.901 46.063 393.209 49.9636 412.754 46.2192C432.3 42.4748 408.685 17.5807 435.198 15.6802C461.71 13.7798 516.206 18.5009 532.504 18.5237C558.105 18.5595 570.068 49.8287 525.226 49.547C512.86 49.4694 509.357 76.7187 551.331 70.7703C577.672 67.0375 629.01 68.852 639.238 81.2854C645.106 88.4192 642.288 106.888 631.371 116.736C623.261 124.052 598.32 124.603 588.506 125.997C565.482 129.266 569.173 151.58 576.801 156.431C594.85 167.912 646.259 149.447 646.507 179.126C646.616 192.24 600.455 192.627 581.566 191.759C535.239 189.631 504.635 192.619 503.091 176.731C501.541 160.78 532.081 172.651 531.287 153.084C530.871 142.859 533.82 121.275 513.926 121.669C541.163 121.13 425.243 137.007 425.326 104.844Z" fill="url(#paint2_linear)"/>
</g>
<g opacity="0.4" filter="url(#filter2_i)">
<path fill-rule="evenodd" clip-rule="evenodd" d="M25.4663 349.295C53.2352 331.149 121.794 326.143 185.906 352.453C250.019 378.763 338.135 386.141 366.559 373.929C394.983 361.717 487.837 369.121 533.316 400.459C578.795 431.796 461.939 566.223 303.394 525.526C207.382 500.928 79.6316 437.657 25.4663 349.295Z" fill="#D6E3FA"/>
</g>
<mask id="mask1" mask-type="alpha" maskUnits="userSpaceOnUse" x="25" y="334" width="519" height="200">
<path fill-rule="evenodd" clip-rule="evenodd" d="M25.4663 349.295C53.2352 331.149 121.794 326.143 185.906 352.453C250.019 378.763 338.135 386.141 366.559 373.929C394.983 361.717 487.837 369.121 533.316 400.459C578.795 431.796 461.939 566.223 303.394 525.526C207.382 500.928 79.6316 437.657 25.4663 349.295Z" fill="white"/>
</mask>
<g mask="url(#mask1)">
<path fill-rule="evenodd" clip-rule="evenodd" d="M204.202 380.11C202.103 378.816 153.446 345.34 150.028 340.455C146.61 335.57 190.333 350.618 190.333 350.618C190.333 350.618 206.301 381.405 204.202 380.11Z" fill="url(#paint3_linear)" style="mix-blend-mode:multiply"/>
<path fill-rule="evenodd" clip-rule="evenodd" d="M110.088 377.583C107.989 376.289 59.3322 342.813 55.914 337.928C52.4958 333.043 86.7085 334.154 86.7085 334.154C86.7085 334.154 112.187 378.878 110.088 377.583Z" fill="url(#paint4_linear)" style="mix-blend-mode:multiply"/>
</g>
<g opacity="0.8">
<g filter="url(#filter3_i)">
<path fill-rule="evenodd" clip-rule="evenodd" d="M204.297 348.615C218.226 343.776 244.522 336.44 225.113 305.701C217.473 293.601 230.583 279.457 223.009 269.281C214.817 258.274 203.94 253.494 209.295 242.404C214.596 231.423 215.287 218.316 207.975 213.755C194.766 205.516 183.368 222.15 170.099 238.903C162.01 249.115 163.527 260.44 166.317 268.187C169.86 278.022 185.527 290.88 182.267 301.642C179.007 312.404 161.444 321.337 171.064 338.726C177.006 349.468 192.991 352.542 204.297 348.615Z" fill="url(#paint5_linear)"/>
</g>
<path fill-rule="evenodd" clip-rule="evenodd" d="M203.592 378.351C206.456 357.818 188.472 345.703 199.501 324.747C209.986 304.824 207.576 284.65 197.29 273.703C188.64 264.497 191.655 242.402 196.101 225.835" fill="black" fill-opacity="0.01"/>
<path d="M203.592 378.351C206.456 357.818 188.472 345.703 199.501 324.747C209.986 304.824 207.576 284.65 197.29 273.703C188.64 264.497 191.655 242.402 196.101 225.835" stroke="url(#paint6_linear)" stroke-width="5" stroke-linecap="round" stroke-linejoin="round"/>
<g opacity="0.402344">
<path fill-rule="evenodd" clip-rule="evenodd" d="M204.224 304.448C198.952 302.255 195.131 299.519 191.591 295.605L204.224 304.448Z" fill="black" fill-opacity="0.01"/>
<path d="M204.224 304.448C198.952 302.255 195.131 299.519 191.591 295.605" stroke="url(#paint7_linear)" stroke-width="5" stroke-linecap="round" stroke-linejoin="round"/>
</g>
<g opacity="0.402344">
<path fill-rule="evenodd" clip-rule="evenodd" d="M197.277 333.503C202.663 333.893 218.27 328.201 220.016 322.133L197.277 333.503Z" fill="black" fill-opacity="0.01"/>
<path d="M197.277 333.503C202.663 333.893 218.27 328.201 220.016 322.133" stroke="url(#paint8_linear)" stroke-width="5" stroke-linecap="round" stroke-linejoin="round"/>
</g>
<g opacity="0.402344">
<path fill-rule="evenodd" clip-rule="evenodd" d="M194.118 267.812C192.433 267.28 181.927 261.792 178.326 255.179L194.118 267.812Z" fill="black" fill-opacity="0.01"/>
<path d="M194.118 267.812C192.433 267.28 181.927 261.792 178.326 255.179" stroke="url(#paint9_linear)" stroke-width="5" stroke-linecap="round" stroke-linejoin="round"/>
</g>
</g>
<g filter="url(#filter4_i)">
<path fill-rule="evenodd" clip-rule="evenodd" d="M105.417 340.37C87.7774 335.746 35.7418 313.387 50.958 287.221C66.1742 261.054 81.3904 253.519 66.1742 241.561C50.958 229.602 61.7687 203.005 76.8114 192.058C91.8541 181.111 56.2314 148.501 72.5499 131.246C88.8682 113.992 141.032 140.645 142.24 173.271C143.448 205.896 155.584 203.638 161.752 218.368C167.92 233.099 125.193 255.21 131.437 271.216C137.68 287.221 174.099 303.913 152.768 325.474C131.437 347.036 123.057 344.994 105.417 340.37Z" fill="url(#paint10_radial)"/>
</g>
<path fill-rule="evenodd" clip-rule="evenodd" d="M110.108 374.561C112.166 337.667 74.1301 322.283 101.184 270.346C128.238 218.409 109.44 173.564 101.184 156.487" fill="black" fill-opacity="0.01"/>
<path d="M110.108 374.561C112.166 337.667 74.1301 322.283 101.184 270.346C128.238 218.409 109.44 173.564 101.184 156.487" stroke="url(#paint11_linear)" stroke-width="6" stroke-linecap="round" stroke-linejoin="round"/>
<g opacity="0.3">
<path fill-rule="evenodd" clip-rule="evenodd" d="M107.581 247.599C102.866 245.356 94.1882 239.036 89.8947 229.282L107.581 247.599Z" fill="black" fill-opacity="0.01"/>
<path d="M107.581 247.599C102.866 245.356 94.1882 239.036 89.8947 229.282" stroke="url(#paint12_linear)" stroke-width="5" stroke-linecap="round" stroke-linejoin="round"/>
</g>
<g opacity="0.3">
<path fill-rule="evenodd" clip-rule="evenodd" d="M93.0541 314.555C85.728 311.522 70.745 303.195 69.6828 290.552L93.0541 314.555Z" fill="black" fill-opacity="0.01"/>
<path d="M93.0541 314.555C85.728 311.522 70.745 303.195 69.6828 290.552" stroke="url(#paint13_linear)" stroke-width="5" stroke-linecap="round" stroke-linejoin="round"/>
</g>
<g opacity="0.3">
<path fill-rule="evenodd" clip-rule="evenodd" d="M95.5793 283.603C102.173 285.459 111.952 283.77 120.214 271.602L95.5793 283.603Z" fill="black" fill-opacity="0.01"/>
<path d="M95.5793 283.603C102.173 285.459 111.952 283.77 120.214 271.602" stroke="url(#paint14_linear)" stroke-width="5" stroke-linecap="round" stroke-linejoin="round"/>
</g>
<g opacity="0.3">
<path fill-rule="evenodd" clip-rule="evenodd" d="M113.899 189.487C118.195 186.099 126.549 172.721 125.9 161.063L113.899 189.487Z" fill="black" fill-opacity="0.01"/>
<path d="M113.899 189.487C118.195 186.099 126.549 172.721 125.9 161.063" stroke="url(#paint15_linear)" stroke-width="5" stroke-linecap="round" stroke-linejoin="round"/>
</g>
<path fill-rule="evenodd" clip-rule="evenodd" d="M251.081 332.542C251.081 338.99 251.081 341.805 249.91 345.772C248.739 349.74 277.092 365.347 309.718 350.208C309.718 341.067 310.845 337.162 311.715 333.805C312.586 330.449 253.516 327.801 251.081 332.542Z" fill="url(#paint16_linear)"/>
<mask id="mask2" mask-type="alpha" maskUnits="userSpaceOnUse" x="249" y="329" width="63" height="28">
<path fill-rule="evenodd" clip-rule="evenodd" d="M251.081 332.542C251.081 338.99 251.081 341.805 249.91 345.772C248.739 349.74 277.092 365.347 309.718 350.208C309.718 341.067 310.845 337.162 311.715 333.805C312.586 330.449 253.516 327.801 251.081 332.542Z" fill="white"/>
</mask>
<g mask="url(#mask2)">
<g opacity="0.5">
<path fill-rule="evenodd" clip-rule="evenodd" d="M254.218 335.232C256.691 337.867 291.571 351.532 309.721 346.098C327.87 340.665 309.721 335.232 309.721 335.232C309.721 335.232 251.746 332.597 254.218 335.232Z" fill="url(#paint17_linear)" style="mix-blend-mode:multiply"/>
</g>
</g>
<path fill-rule="evenodd" clip-rule="evenodd" d="M250.147 344.764C256.196 353.439 287.543 357.765 309.079 349.4C326.007 375.915 317.996 403.756 308.709 490.25C309.973 522.574 307.446 552.07 306.183 592.053C304.026 595.172 298.695 596.168 292.669 593.948C289.342 563.338 283.791 557.351 279.244 494.313C276.889 472.799 274.586 406.914 274.586 406.914C274.586 406.914 257.78 438.358 241.15 483.867C252.673 508.042 246.017 538.768 257.157 578.33C252.901 585.233 248.487 585.302 243.677 583.841C236.862 564.561 222.863 530.22 213.506 488.476C213.506 471.416 215.911 426.403 250.147 344.764Z" fill="url(#paint18_linear)"/>
<path fill-rule="evenodd" clip-rule="evenodd" d="M268.195 253.488C271.764 243.736 280.464 231.622 279.372 222.722C278.279 213.821 305.916 199.281 304.934 205.492C303.952 211.703 302.125 246.671 309.61 250.076C317.095 253.481 264.627 263.241 268.195 253.488Z" fill="url(#paint19_linear)"/>
<path fill-rule="evenodd" clip-rule="evenodd" d="M280.615 162.858C272.147 167.316 262.077 171.384 264.637 192.667C267.197 213.95 266.761 219.389 276.14 227.526C282.455 227.526 290.721 230.077 296.953 221.78C297.974 220.421 300.475 208.576 301.699 208.224C303.227 207.784 304.776 206.892 305.75 204.4C308.399 197.622 307.081 190.728 305.75 187.877C303.573 183.214 289.083 158.4 280.615 162.858Z" fill="url(#paint20_linear)"/>
<path fill-rule="evenodd" clip-rule="evenodd" d="M279.238 165.177C272.661 167.559 262.389 172.322 265.398 193.414C268.407 214.507 272.48 222.148 279.238 226.414C285.996 230.679 270.712 246.468 269.69 253.09C268.668 259.713 260.234 242.535 260.358 235.413C260.483 228.292 260.416 221.345 260.358 208.419C260.301 195.493 256.935 176.699 267.969 167.377C279.003 158.055 285.816 162.796 279.238 165.177Z" fill="url(#paint21_linear)"/>
<path fill-rule="evenodd" clip-rule="evenodd" d="M273.171 166.118C275.402 167.891 272.674 172.312 277.318 180.206C282.303 188.678 288.209 193.234 300.236 191.335C306.54 190.339 299.678 211.012 293.643 220.394C287.608 229.775 282.987 245.556 291.825 259.568C308.908 259.568 316.917 250.714 316.917 250.714C316.917 250.714 316.917 230.599 316.917 206.057C316.917 181.516 302.823 168.129 293.643 163.751C284.463 159.374 268.954 162.766 273.171 166.118Z" fill="url(#paint22_radial)"/>
<g filter="url(#filter5_i)">
<path fill-rule="evenodd" clip-rule="evenodd" d="M208.646 223.594C208.646 223.594 235.203 233.886 251.554 238.538C267.906 243.19 263.85 253.95 278.314 254.544C292.779 255.137 307.922 256.241 313.031 243.19C318.14 230.139 337.648 246.866 335.287 257.886C334.428 261.895 330.241 279.961 328.976 291.385C326.767 311.356 318.134 328.293 316.7 335.236C314.446 346.149 248.94 344.085 250.291 329.065C252.081 309.171 245.199 276.447 243.974 275.003C241.825 272.471 222.725 267.447 208.646 263.801C208.646 248.4 208.646 223.594 208.646 223.594Z" fill="url(#paint23_linear)"/>
</g>
<path fill-rule="evenodd" clip-rule="evenodd" d="M208.014 264.02C212.2 264.02 215.594 259.752 215.594 246.887C215.594 234.023 212.2 223.594 208.014 223.594C203.828 223.594 200.434 234.023 200.434 246.887C200.434 259.752 203.828 264.02 208.014 264.02Z" fill="url(#paint24_linear)"/>
<path fill-rule="evenodd" clip-rule="evenodd" d="M215.508 252.264C206.691 250.355 183.158 240.717 180.876 240.45C178.594 240.182 163.535 232.877 153.088 228.689C142.641 224.501 132.347 212.652 126.988 211.265C121.629 209.879 121.832 197.341 131.569 200.915C141.306 204.489 151.819 207.443 160.395 210.208C168.97 212.973 175.699 217.607 184.3 218.24C192.902 218.874 200.57 221.491 209.093 223.702C215.508 228.689 216.481 244.968 215.508 252.264Z" fill="url(#paint25_linear)"/>
<mask id="mask3" mask-type="alpha" maskUnits="userSpaceOnUse" x="123" y="200" width="93" height="53">
<path fill-rule="evenodd" clip-rule="evenodd" d="M215.508 252.264C206.691 250.355 183.158 240.717 180.876 240.45C178.594 240.182 163.535 232.877 153.088 228.689C142.641 224.501 132.347 212.652 126.988 211.265C121.629 209.879 121.832 197.341 131.569 200.915C141.306 204.489 151.819 207.443 160.395 210.208C168.97 212.973 175.699 217.607 184.3 218.24C192.902 218.874 200.57 221.491 209.093 223.702C215.508 228.689 216.481 244.968 215.508 252.264Z" fill="white"/>
</mask>
<g mask="url(#mask3)">
<path fill-rule="evenodd" clip-rule="evenodd" d="M209.48 223.851C209.48 223.851 205.558 245.663 200.184 250.061C194.809 254.458 226.173 256.68 226.173 256.68L209.48 223.851Z" fill="url(#paint26_linear)"/>
</g>
<path fill-rule="evenodd" clip-rule="evenodd" d="M109.722 192.446C109.722 192.446 102.501 193.388 100.864 194.386C99.2282 195.384 94.8451 200.533 94.2459 201.351C93.6467 202.17 89.7576 206.437 90.3755 207.518C90.9934 208.599 93.5382 208.641 94.4778 206.762C95.4174 204.882 96.1402 204.906 97.1899 203.429C98.6541 203.118 102.679 200.14 103.833 200.019C104.987 199.897 114.741 203.518 114.741 203.518C114.741 203.518 120.214 201.948 118.14 197.47C116.065 192.992 109.722 192.446 109.722 192.446Z" fill="#90AADB"/>
<path fill-rule="evenodd" clip-rule="evenodd" d="M110.531 204.573C108.132 204.825 102.078 205.081 100.495 204.702C98.9119 204.323 95.3344 204.515 95.5942 206.987C95.854 209.459 99.2361 209.682 101.043 209.911C102.849 210.14 105.66 210.577 108.113 211.532C110.566 212.487 117.199 213.174 120.366 212.504C123.534 211.833 127.485 212.096 128.715 212.498C129.945 212.9 133.114 204.012 131.337 200.823C126.615 199.679 116.043 192.37 114.757 192.222C113.984 192.134 109.306 197.022 111.962 200.107C114.136 202.631 111.96 204.423 110.531 204.573Z" fill="#A1B8E3"/>
<path fill-rule="evenodd" clip-rule="evenodd" d="M91.7914 191.093C87.9723 190.059 85.3268 187.974 86.5813 185.653C87.8358 183.332 89.4444 185.39 91.2613 186.05C93.0783 186.709 101.135 188.344 103.352 188.571C104.409 188.679 106.954 189.462 109.43 190.394C112.149 191.417 114.279 191.034 114.773 191.718C115.717 193.026 117.27 201.934 112.752 199.973C108.234 198.011 107.737 196.419 104.75 194.41C101.764 192.401 95.6106 192.128 91.7914 191.093Z" fill="#A1B8E3"/>
<path fill-rule="evenodd" clip-rule="evenodd" d="M411.054 164.621C411.054 169.342 409.017 186.188 411.054 191.239C411.745 192.953 410.41 196.347 411.054 197.702C413.435 202.713 399.736 214.28 399.736 214.28L395.56 251.389H381.087C381.087 251.389 384.343 217.569 382.777 214.28C381.211 210.991 381.087 205.028 381.087 199.42C381.087 193.811 381.087 182.461 384.534 177.373C387.98 172.285 411.054 158.151 411.054 164.621Z" fill="url(#paint27_linear)"/>
<mask id="mask4" mask-type="alpha" maskUnits="userSpaceOnUse" x="381" y="162" width="31" height="90">
<path fill-rule="evenodd" clip-rule="evenodd" d="M411.054 164.621C411.054 169.342 409.017 186.188 411.054 191.239C411.745 192.953 410.41 196.347 411.054 197.702C413.435 202.713 399.736 214.28 399.736 214.28L395.56 251.389H381.087C381.087 251.389 384.343 217.569 382.777 214.28C381.211 210.991 381.087 205.028 381.087 199.42C381.087 193.811 381.087 182.461 384.534 177.373C387.98 172.285 411.054 158.151 411.054 164.621Z" fill="white"/>
</mask>
<g mask="url(#mask4)">
<g opacity="0.153292">
<path fill-rule="evenodd" clip-rule="evenodd" d="M387.41 188.981C388.64 189.469 389.826 189.925 390.967 190.348C412.607 198.376 418.675 194.973 418.675 188.981C418.675 182.672 411.069 153.055 411.069 153.055C411.069 153.055 362.872 179.234 387.41 188.981Z" fill="url(#paint28_linear)" style="mix-blend-mode:multiply"/>
</g>
</g>
<path fill-rule="evenodd" clip-rule="evenodd" d="M375.097 117.703C372.091 125.367 368.883 129.244 370.387 138.874C371.89 148.503 370.442 147.694 369.528 152.918C368.615 158.142 367.454 162.453 370.001 172.48C372.548 182.508 374.127 189.518 382.329 189.485C390.531 189.453 401.098 187.673 404.579 181.495C405.984 179.001 406.552 177.628 407.543 173.719C408.239 170.97 408.777 169.082 408.777 165.147C410.558 169.489 414.302 167.172 414.58 166.945C416.783 165.149 418.76 161.033 418.951 157.149C419.332 149.366 416.766 131.339 407.857 128.36C398.948 125.381 378.104 110.04 375.097 117.703Z" fill="url(#paint29_linear)"/>
<path fill-rule="evenodd" clip-rule="evenodd" d="M436.997 355.944C440.032 365.464 446.76 389.634 446.446 407.591C446.133 425.549 443.314 538.355 439.277 629.926C432.73 633.729 418.872 633.615 411.162 629.545C404.211 557.626 392.758 416.254 392.758 416.254C390.429 440.319 372.245 617.652 372.245 624.695C372.245 631.738 354.128 633.38 347.942 628.552C346.063 547.614 338.282 397.378 338.282 397.378L346.063 354.357C346.063 354.357 433.962 346.424 436.997 355.944Z" fill="url(#paint30_linear)"/>
<mask id="mask5" mask-type="alpha" maskUnits="userSpaceOnUse" x="338" y="351" width="109" height="282">
<path fill-rule="evenodd" clip-rule="evenodd" d="M436.997 355.944C440.032 365.464 446.76 389.634 446.446 407.591C446.133 425.549 443.314 538.355 439.277 629.926C432.73 633.729 418.872 633.615 411.162 629.545C404.211 557.626 392.758 416.254 392.758 416.254C390.429 440.319 372.245 617.652 372.245 624.695C372.245 631.738 354.128 633.38 347.942 628.552C346.063 547.614 338.282 397.378 338.282 397.378L346.063 354.357C346.063 354.357 433.962 346.424 436.997 355.944Z" fill="white"/>
</mask>
<g mask="url(#mask5)">
<path fill-rule="evenodd" clip-rule="evenodd" d="M375.869 589.966C366.816 551.491 375.869 433.565 391.809 417.924C398.808 426.628 384.922 628.441 375.869 589.966Z" fill="url(#paint31_linear)" style="mix-blend-mode:multiply"/>
<path fill-rule="evenodd" clip-rule="evenodd" d="M359.437 370.003C360.869 370.489 366.598 377.825 368.148 378.332C387.04 384.513 410.069 384.951 435.394 380.227C462.796 375.115 441.733 357.182 441.733 357.182C441.733 357.182 340.556 363.605 359.437 370.003Z" fill="url(#paint32_linear)" style="mix-blend-mode:multiply"/>
</g>
<path fill-rule="evenodd" clip-rule="evenodd" d="M341.168 396.728C343.46 389.937 341.959 380.555 347.364 379.892C343.871 371.453 350.295 342.425 350.295 342.425C350.295 342.425 322.206 330.258 325.241 339.383C328.276 348.507 331.804 380.479 335.187 386.75C338.57 393.022 338.876 403.519 341.168 396.728Z" fill="url(#paint33_linear)"/>
<mask id="mask6" mask-type="alpha" maskUnits="userSpaceOnUse" x="325" y="335" width="26" height="64">
<path fill-rule="evenodd" clip-rule="evenodd" d="M341.168 396.728C343.46 389.937 341.959 380.555 347.364 379.892C343.871 371.453 350.295 342.425 350.295 342.425C350.295 342.425 322.206 330.258 325.241 339.383C328.276 348.507 331.804 380.479 335.187 386.75C338.57 393.022 338.876 403.519 341.168 396.728Z" fill="white"/>
</mask>
<g mask="url(#mask6)">
<g opacity="0.3">
<path fill-rule="evenodd" clip-rule="evenodd" d="M351.447 386.693C344.735 378.123 335.451 372.026 335.451 359.705C335.451 347.384 343.449 340.56 343.449 340.56C343.449 340.56 358.16 395.264 351.447 386.693Z" fill="url(#paint34_linear)" style="mix-blend-mode:multiply"/>
</g>
</g>
<path fill-rule="evenodd" clip-rule="evenodd" d="M378.146 201.366C378.146 201.366 366.399 210.691 363.485 211.475C360.57 212.258 341.628 220.118 340.511 222.527C339.394 224.936 333.522 234.038 333.718 236.496C333.914 238.954 341.557 293.088 340.511 318.64C339.464 344.192 340.511 340.717 340.511 346.743C340.511 352.769 336.076 361.013 338.293 365.547C340.511 370.081 344.321 371.148 350.126 372.444C355.93 373.739 360.117 375.253 368.375 372.444C376.632 369.634 381.254 376.031 394.906 374.237C408.559 372.444 420.28 378.102 430.556 364.367C434.335 366.799 436.293 365.194 442.325 361.808C448.356 358.422 447.894 346.366 446.086 342.184C444.278 338.002 436.174 333.613 439.249 324.303C442.325 314.994 446.086 283.945 446.086 269.932C446.086 255.919 454.33 230.646 456.886 222.527C449.573 217.027 417.85 199.521 411.808 197.697C409.446 204.004 397.961 207.174 396.069 205.493C394.178 203.811 395.3 217.356 395.3 217.356C395.3 217.356 393.027 222.527 390.898 227.955C388.77 233.383 383.859 241.887 383.859 247.74C379.373 243.224 384.829 230.206 383.859 225.161C382.743 219.359 384.975 213.877 387.432 206.261C383.859 205.421 383.545 206.852 382.437 205.334C379.542 201.366 378.146 201.366 378.146 201.366Z" fill="url(#paint35_linear)"/>
<path fill-rule="evenodd" clip-rule="evenodd" d="M378.146 201.366C378.146 201.366 366.399 210.691 363.485 211.475C360.57 212.258 341.628 220.118 340.511 222.527C339.394 224.936 333.522 234.038 333.718 236.496C333.914 238.954 341.557 293.088 340.511 318.64C339.464 344.192 340.511 340.717 340.511 346.743C340.511 352.769 336.076 361.013 338.293 365.547C340.511 370.081 344.321 371.148 350.126 372.444C355.93 373.739 360.117 375.253 368.375 372.444C376.632 369.634 381.254 376.031 394.906 374.237C408.559 372.444 420.28 378.102 430.556 364.367C434.335 366.799 436.293 365.194 442.325 361.808C448.356 358.422 447.894 346.366 446.086 342.184C444.278 338.002 436.174 333.613 439.249 324.303C442.325 314.994 446.086 283.945 446.086 269.932C446.086 255.919 454.33 230.646 456.886 222.527C449.573 217.027 417.85 199.521 411.808 197.697C409.446 204.004 397.961 207.174 396.069 205.493C394.178 203.811 395.3 217.356 395.3 217.356C395.3 217.356 393.027 222.527 390.898 227.955C388.77 233.383 383.859 241.887 383.859 247.74C379.373 243.224 384.829 230.206 383.859 225.161C382.743 219.359 384.975 213.877 387.432 206.261C383.859 205.421 383.545 206.852 382.437 205.334C379.542 201.366 378.146 201.366 378.146 201.366Z" fill="url(#paint36_linear)"/>
<path fill-rule="evenodd" clip-rule="evenodd" d="M378.146 201.366C378.146 201.366 366.399 210.691 363.485 211.475C360.57 212.258 341.628 220.118 340.511 222.527C339.394 224.936 333.522 234.038 333.718 236.496C333.914 238.954 341.557 293.088 340.511 318.64C339.464 344.192 340.511 340.717 340.511 346.743C340.511 352.769 336.076 361.013 338.293 365.547C340.511 370.081 344.321 371.148 350.126 372.444C355.93 373.739 360.117 375.253 368.375 372.444C376.632 369.634 381.254 376.031 394.906 374.237C408.559 372.444 420.28 378.102 430.556 364.367C434.335 366.799 436.293 365.194 442.325 361.808C448.356 358.422 447.894 346.366 446.086 342.184C444.278 338.002 436.174 333.613 439.249 324.303C442.325 314.994 446.086 283.945 446.086 269.932C446.086 255.919 454.33 230.646 456.886 222.527C449.573 217.027 417.85 199.521 411.808 197.697C409.446 204.004 397.961 207.174 396.069 205.493C394.178 203.811 395.3 217.356 395.3 217.356C395.3 217.356 393.027 222.527 390.898 227.955C388.77 233.383 383.859 241.887 383.859 247.74C379.373 243.224 384.829 230.206 383.859 225.161C382.743 219.359 384.975 213.877 387.432 206.261C383.859 205.421 383.545 206.852 382.437 205.334C379.542 201.366 378.146 201.366 378.146 201.366Z" fill="url(#paint37_linear)"/>
<mask id="mask7" mask-type="alpha" maskUnits="userSpaceOnUse" x="333" y="197" width="124" height="178">
<path fill-rule="evenodd" clip-rule="evenodd" d="M378.146 201.366C378.146 201.366 366.399 210.691 363.485 211.475C360.57 212.258 341.628 220.118 340.511 222.527C339.394 224.936 333.522 234.038 333.718 236.496C333.914 238.954 341.557 293.088 340.511 318.64C339.464 344.192 340.511 340.717 340.511 346.743C340.511 352.769 336.076 361.013 338.293 365.547C340.511 370.081 344.321 371.148 350.126 372.444C355.93 373.739 360.117 375.253 368.375 372.444C376.632 369.634 381.254 376.031 394.906 374.237C408.559 372.444 420.28 378.102 430.556 364.367C434.335 366.799 436.293 365.194 442.325 361.808C448.356 358.422 447.894 346.366 446.086 342.184C444.278 338.002 436.174 333.613 439.249 324.303C442.325 314.994 446.086 283.945 446.086 269.932C446.086 255.919 454.33 230.646 456.886 222.527C449.573 217.027 417.85 199.521 411.808 197.697C409.446 204.004 397.961 207.174 396.069 205.493C394.178 203.811 395.3 217.356 395.3 217.356C395.3 217.356 393.027 222.527 390.898 227.955C388.77 233.383 383.859 241.887 383.859 247.74C379.373 243.224 384.829 230.206 383.859 225.161C382.743 219.359 384.975 213.877 387.432 206.261C383.859 205.421 383.545 206.852 382.437 205.334C379.542 201.366 378.146 201.366 378.146 201.366Z" fill="white"/>
<path fill-rule="evenodd" clip-rule="evenodd" d="M378.146 201.366C378.146 201.366 366.399 210.691 363.485 211.475C360.57 212.258 341.628 220.118 340.511 222.527C339.394 224.936 333.522 234.038 333.718 236.496C333.914 238.954 341.557 293.088 340.511 318.64C339.464 344.192 340.511 340.717 340.511 346.743C340.511 352.769 336.076 361.013 338.293 365.547C340.511 370.081 344.321 371.148 350.126 372.444C355.93 373.739 360.117 375.253 368.375 372.444C376.632 369.634 381.254 376.031 394.906 374.237C408.559 372.444 420.28 378.102 430.556 364.367C434.335 366.799 436.293 365.194 442.325 361.808C448.356 358.422 447.894 346.366 446.086 342.184C444.278 338.002 436.174 333.613 439.249 324.303C442.325 314.994 446.086 283.945 446.086 269.932C446.086 255.919 454.33 230.646 456.886 222.527C449.573 217.027 417.85 199.521 411.808 197.697C409.446 204.004 397.961 207.174 396.069 205.493C394.178 203.811 395.3 217.356 395.3 217.356C395.3 217.356 393.027 222.527 390.898 227.955C388.77 233.383 383.859 241.887 383.859 247.74C379.373 243.224 384.829 230.206 383.859 225.161C382.743 219.359 384.975 213.877 387.432 206.261C383.859 205.421 383.545 206.852 382.437 205.334C379.542 201.366 378.146 201.366 378.146 201.366Z" stroke="white"/>
</mask>
<g mask="url(#mask7)">
<g opacity="0.2">
<mask id="path-58-outside-1" maskUnits="userSpaceOnUse" x="370.718" y="253.282" width="16" height="120" fill="black">
<rect fill="white" x="370.718" y="253.282" width="16" height="120"/>
<path fill-rule="evenodd" clip-rule="evenodd" d="M378.561 371.401C375.403 361.927 373.508 312.026 376.666 295.603C379.824 279.18 382.982 258.335 382.351 253.914"/>
</mask>
<path d="M376.666 295.603L380.594 296.358L380.594 296.358L376.666 295.603ZM382.356 370.136C381.736 368.277 381.05 363.843 380.472 357.506C379.908 351.338 379.478 343.783 379.243 335.987C378.768 320.244 379.109 304.079 380.594 296.358L372.738 294.848C371.064 303.55 370.774 320.547 371.247 336.228C371.485 344.145 371.923 351.868 372.505 358.234C373.071 364.432 373.807 369.788 374.766 372.666L382.356 370.136ZM380.594 296.358C382.184 288.092 383.774 278.709 384.89 270.818C385.448 266.876 385.892 263.27 386.157 260.345C386.407 257.583 386.545 254.989 386.311 253.348L378.391 254.48C378.472 255.049 378.452 256.719 378.189 259.623C377.941 262.363 377.517 265.823 376.969 269.698C375.874 277.44 374.306 286.691 372.738 294.848L380.594 296.358Z" fill="#6FA7FF" mask="url(#path-58-outside-1)"/>
</g>
<path fill-rule="evenodd" clip-rule="evenodd" d="M440.71 373.525C422.374 335.486 430.547 280.421 439.752 271.782C448.958 263.142 469.457 354.501 462.745 362.586C456.032 370.671 459.045 411.564 440.71 373.525Z" fill="url(#paint38_linear)" style="mix-blend-mode:multiply"/>
<path fill-rule="evenodd" clip-rule="evenodd" d="M376.485 221.284C380.713 217.189 387.779 211.903 387.779 211.903V202.584L379.454 209.315C379.454 209.315 372.258 225.379 376.485 221.284Z" fill="url(#paint39_linear)" style="mix-blend-mode:multiply"/>
<path fill-rule="evenodd" clip-rule="evenodd" d="M393.938 217.387C396.232 218.843 403.067 219.075 403.067 219.075C403.067 219.075 397.292 200.356 393.938 201.846C390.584 203.336 391.644 215.931 393.938 217.387Z" fill="url(#paint40_linear)" style="mix-blend-mode:multiply"/>
</g>
<path fill-rule="evenodd" clip-rule="evenodd" d="M398.699 258.337C403.63 258.337 421.87 261.328 429.094 258.337C429.094 273.914 427.601 287.263 426.836 293.576C420.976 299.18 411.853 300.026 411.853 300.026L397.417 292.028C397.417 292.028 395.89 280.148 398.699 258.337Z" fill="white"/>
<path fill-rule="evenodd" clip-rule="evenodd" d="M405.072 226.122C400.547 223.753 399.661 208.634 395.616 206.492C391.571 204.351 408.175 201.334 410.247 186.328C412.327 186.328 416.019 196.065 419.618 201.583C419.197 210.007 407.084 216.335 405.072 226.122Z" fill="white"/>
<path fill-rule="evenodd" clip-rule="evenodd" d="M381.033 189.486C381.033 193.301 378.998 203.994 386.773 206.411C383.807 206.894 381.391 208.61 380.141 211.21C378.47 214.685 376.498 221.662 374.118 224.227C374.118 218.285 372.746 206.545 374.118 202.044C375.49 197.543 379.91 191.908 381.033 189.486Z" fill="white"/>
<g filter="url(#filter6_i)">
<path fill-rule="evenodd" clip-rule="evenodd" d="M448.205 303.872C438.961 272.975 435.093 250.938 435.43 243.303C435.766 235.669 444.746 220.818 454.906 221.741C465.066 222.663 467.219 241.383 469.325 251.439C471.432 261.494 486.988 313.156 487.776 320.431C488.563 327.706 481.668 339.347 472.86 340.355C464.052 341.362 457.448 334.77 448.205 303.872Z" fill="url(#paint41_linear)"/>
<path fill-rule="evenodd" clip-rule="evenodd" d="M448.205 303.872C438.961 272.975 435.093 250.938 435.43 243.303C435.766 235.669 444.746 220.818 454.906 221.741C465.066 222.663 467.219 241.383 469.325 251.439C471.432 261.494 486.988 313.156 487.776 320.431C488.563 327.706 481.668 339.347 472.86 340.355C464.052 341.362 457.448 334.77 448.205 303.872Z" fill="url(#paint42_linear)"/>
</g>
<path fill-rule="evenodd" clip-rule="evenodd" d="M428.115 298.13C428.115 298.13 446.506 303.656 450.531 301.814C454.556 299.972 474.539 300.818 478.954 315.835C483.369 330.852 479.515 334.102 474.539 339.298C469.563 344.494 432.984 330.855 425.303 323.743C431.074 306.874 428.115 298.13 428.115 298.13Z" fill="url(#paint43_linear)"/>
<path fill-rule="evenodd" clip-rule="evenodd" d="M428.115 298.13C428.115 298.13 446.506 303.656 450.531 301.814C454.556 299.972 474.539 300.818 478.954 315.835C483.369 330.852 479.515 334.102 474.539 339.298C469.563 344.494 432.984 330.855 425.303 323.743C431.074 306.874 428.115 298.13 428.115 298.13Z" fill="url(#paint44_linear)"/>
<path fill-rule="evenodd" clip-rule="evenodd" d="M323.035 338.125C323.035 323.808 328.574 261.769 333.751 236.281C334.496 232.614 335.764 231.799 336.445 229.711C341.754 249.82 343.387 337.549 341.868 342.81C340.349 348.071 331.467 342.81 323.035 338.125Z" fill="url(#paint45_linear)"/>
<path fill-rule="evenodd" clip-rule="evenodd" d="M374.906 129.191C371.861 130.247 370.211 139.525 370.728 146.534C369.026 142.574 367.287 126.5 373.058 117.841C378.829 109.183 377.95 128.135 374.906 129.191Z" fill="#143B8C"/>
<path fill-rule="evenodd" clip-rule="evenodd" d="M377.959 114.042C366.6 121.406 371.764 131.091 383.406 132.725C395.048 134.358 396.305 134.792 403.458 132.725C405.057 137.944 400.086 142.919 403.458 146.742C406.161 149.793 406.986 150.931 407.148 154.385C407.308 157.839 408.607 158.536 408.607 158.536C408.607 158.536 408.761 148.927 411.872 148.633C414.983 148.339 417.384 150.315 419.11 154.385C419.606 155.557 418.948 153.153 419.11 150.908C419.267 148.72 420.25 146.745 420.25 143.669C420.25 138.106 417.216 131.69 413.988 127.806C406.509 118.808 385.995 112.039 377.959 114.042Z" fill="url(#paint46_linear)"/>
<path fill-rule="evenodd" clip-rule="evenodd" d="M238.548 223.786C257.093 235.616 275.607 244.149 300.155 237.332C324.704 230.516 333.866 235.096 348.542 238.832C363.218 242.569 374.309 249.727 419.36 219.688C418.032 249.104 413.66 300.67 418.202 311.462C407.023 318.551 390.164 340.201 373.521 340.008C356.878 339.815 348.185 324.274 321.115 328.03C294.045 331.787 294.842 342.476 277.339 338.503C259.837 334.529 238.382 316.755 235.555 314.579C235.216 308.108 239.635 244.54 238.548 223.786Z" fill="url(#paint47_linear)"/>
<mask id="mask8" mask-type="alpha" maskUnits="userSpaceOnUse" x="235" y="219" width="185" height="122">
<path fill-rule="evenodd" clip-rule="evenodd" d="M238.548 223.786C257.093 235.616 275.607 244.149 300.155 237.332C324.704 230.516 333.866 235.096 348.542 238.832C363.218 242.569 374.309 249.727 419.36 219.688C418.032 249.104 413.66 300.67 418.202 311.462C407.023 318.551 390.164 340.201 373.521 340.008C356.878 339.815 348.185 324.274 321.115 328.03C294.045 331.787 294.842 342.476 277.339 338.503C259.837 334.529 238.382 316.755 235.555 314.579C235.216 308.108 239.635 244.54 238.548 223.786Z" fill="white"/>
</mask>
<g mask="url(#mask8)">
<g style="mix-blend-mode:multiply" opacity="0.269085">
<path fill-rule="evenodd" clip-rule="evenodd" d="M286.97 229.28L326.133 224.6C326.133 224.6 326.133 242.915 326.133 287.157C326.133 331.399 326.133 368.875 326.133 368.875H282.192C282.192 368.875 281.124 326.121 282.192 294.914C283.26 263.707 286.97 229.28 286.97 229.28Z" fill="url(#paint48_linear)"/>
</g>
<g style="mix-blend-mode:multiply" opacity="0.269085">
<path fill-rule="evenodd" clip-rule="evenodd" d="M326.134 229.28L364.033 224.6C364.033 224.6 364.033 242.915 364.033 287.157C364.033 331.399 364.033 368.875 364.033 368.875H326.975C326.975 368.875 326.134 335.365 326.134 302.922C326.134 270.48 326.134 229.28 326.134 229.28Z" fill="url(#paint49_linear)"/>
</g>
</g>
<path fill-rule="evenodd" clip-rule="evenodd" d="M411.392 292.588C416.578 292.129 416.459 287.833 416.632 289.061C416.804 290.289 428.857 298.347 428.857 298.347C428.857 298.347 431.003 319.933 426.061 323.582C421.119 327.231 414.811 319.349 410.558 320.186C408.756 320.541 404.114 320.718 399.492 319.618C397.941 319.248 392.771 317.777 391.819 317.028C390.623 316.088 390.012 314.909 391.377 313.737C391.919 313.271 398.612 315.089 400.206 315.407C404.766 316.317 408.532 315.171 408.399 314.876C408.184 314.398 404.786 314.784 400.206 313.737C398.6 313.37 395.276 312.724 393.669 312.248C390.11 311.194 387.079 309.624 386.8 309.352C386.045 308.617 385.503 307.497 386.926 306.415C387.529 305.956 389.028 306.415 393.308 307.103C395.165 307.402 398.916 308.351 400.587 308.617C404.161 309.186 406.877 307.657 406.859 307.345C406.842 307.033 404.4 307.764 400.887 307.103C399.01 306.75 395.404 306.331 393.316 305.956C387.79 304.964 384.824 303 384.399 302.68C383.62 302.093 383.45 300.065 384.399 299.478C384.949 299.138 387.673 299.809 393.249 300.727C395.269 301.06 399.128 301.679 400.887 301.679C404.4 301.679 406.628 300.891 406.628 300.727C406.628 300.461 399.892 299.718 394.473 298.632C389.04 297.543 388.559 296.411 388.189 295.972C387.684 295.374 387.521 293.176 389.275 293.176C391.839 293.176 392.889 293.506 395.316 293.831C397.038 294.061 401.162 294.237 402.81 294.237C406.08 294.237 409.704 292.738 411.392 292.588Z" fill="url(#paint50_linear)"/>
</g>
<defs>
<filter id="filter0_i" x="111.791" y="92.957" width="330.134" height="186.057" filterUnits="userSpaceOnUse" color-interpolation-filters="sRGB">
<feFlood flood-opacity="0" result="BackgroundImageFix"/>
<feBlend mode="normal" in="SourceGraphic" in2="BackgroundImageFix" result="shape"/>
<feColorMatrix in="SourceAlpha" type="matrix" values="0 0 0 0 0 0 0 0 0 0 0 0 0 0 0 0 0 0 127 0" result="hardAlpha"/>
<feOffset dy="-14"/>
<feGaussianBlur stdDeviation="12.5"/>
<feComposite in2="hardAlpha" operator="arithmetic" k2="-1" k3="1"/>
<feColorMatrix type="matrix" values="0 0 0 0 0.788056 0 0 0 0 0.827193 0 0 0 0 0.89764 0 0 0 0.337126 0"/>
<feBlend mode="normal" in2="shape" result="effect1_innerShadow"/>
</filter>
<filter id="filter1_i" x="320.31" y="1.22949" width="326.197" height="190.81" filterUnits="userSpaceOnUse" color-interpolation-filters="sRGB">
<feFlood flood-opacity="0" result="BackgroundImageFix"/>
<feBlend mode="normal" in="SourceGraphic" in2="BackgroundImageFix" result="shape"/>
<feColorMatrix in="SourceAlpha" type="matrix" values="0 0 0 0 0 0 0 0 0 0 0 0 0 0 0 0 0 0 127 0" result="hardAlpha"/>
<feOffset dy="-14"/>
<feGaussianBlur stdDeviation="12.5"/>
<feComposite in2="hardAlpha" operator="arithmetic" k2="-1" k3="1"/>
<feColorMatrix type="matrix" values="0 0 0 0 0.788056 0 0 0 0 0.827193 0 0 0 0 0.89764 0 0 0 0.337126 0"/>
<feBlend mode="normal" in2="shape" result="effect1_innerShadow"/>
</filter>
<filter id="filter2_i" x="9.46582" y="328.195" width="533.766" height="204.935" filterUnits="userSpaceOnUse" color-interpolation-filters="sRGB">
<feFlood flood-opacity="0" result="BackgroundImageFix"/>
<feBlend mode="normal" in="SourceGraphic" in2="BackgroundImageFix" result="shape"/>
<feColorMatrix in="SourceAlpha" type="matrix" values="0 0 0 0 0 0 0 0 0 0 0 0 0 0 0 0 0 0 127 0" result="hardAlpha"/>
<feOffset dx="-16" dy="-6"/>
<feGaussianBlur stdDeviation="16"/>
<feComposite in2="hardAlpha" operator="arithmetic" k2="-1" k3="1"/>
<feColorMatrix type="matrix" values="0 0 0 0 0.839216 0 0 0 0 0.890196 0 0 0 0 0.980392 0 0 0 0.330248 0"/>
<feBlend mode="normal" in2="shape" result="effect1_innerShadow"/>
</filter>
<filter id="filter3_i" x="164.083" y="211.579" width="67.9258" height="138.674" filterUnits="userSpaceOnUse" color-interpolation-filters="sRGB">
<feFlood flood-opacity="0" result="BackgroundImageFix"/>
<feBlend mode="normal" in="SourceGraphic" in2="BackgroundImageFix" result="shape"/>
<feColorMatrix in="SourceAlpha" type="matrix" values="0 0 0 0 0 0 0 0 0 0 0 0 0 0 0 0 0 0 127 0" result="hardAlpha"/>
<feOffset/>
<feGaussianBlur stdDeviation="10.5"/>
<feComposite in2="hardAlpha" operator="arithmetic" k2="-1" k3="1"/>
<feColorMatrix type="matrix" values="0 0 0 0 0.683391 0 0 0 0 0.785331 0 0 0 0 0.962027 0 0 0 1 0"/>
<feBlend mode="normal" in2="shape" result="effect1_innerShadow"/>
</filter>
<filter id="filter4_i" x="40.2061" y="119.828" width="122.157" height="223.551" filterUnits="userSpaceOnUse" color-interpolation-filters="sRGB">
<feFlood flood-opacity="0" result="BackgroundImageFix"/>
<feBlend mode="normal" in="SourceGraphic" in2="BackgroundImageFix" result="shape"/>
<feColorMatrix in="SourceAlpha" type="matrix" values="0 0 0 0 0 0 0 0 0 0 0 0 0 0 0 0 0 0 127 0" result="hardAlpha"/>
<feOffset dx="-8" dy="-6"/>
<feGaussianBlur stdDeviation="15"/>
<feComposite in2="hardAlpha" operator="arithmetic" k2="-1" k3="1"/>
<feColorMatrix type="matrix" values="0 0 0 0 0.269084 0 0 0 0 0.79451 0 0 0 0 0.470313 0 0 0 0.5 0"/>
<feBlend mode="normal" in2="shape" result="effect1_innerShadow"/>
</filter>
<filter id="filter5_i" x="208.646" y="214.595" width="126.838" height="127.526" filterUnits="userSpaceOnUse" color-interpolation-filters="sRGB">
<feFlood flood-opacity="0" result="BackgroundImageFix"/>
<feBlend mode="normal" in="SourceGraphic" in2="BackgroundImageFix" result="shape"/>
<feColorMatrix in="SourceAlpha" type="matrix" values="0 0 0 0 0 0 0 0 0 0 0 0 0 0 0 0 0 0 127 0" result="hardAlpha"/>
<feOffset dy="-9"/>
<feGaussianBlur stdDeviation="5.5"/>
<feComposite in2="hardAlpha" operator="arithmetic" k2="-1" k3="1"/>
<feColorMatrix type="matrix" values="0 0 0 0 0.818241 0 0 0 0 0.879823 0 0 0 0 0.96604 0 0 0 1 0"/>
<feBlend mode="normal" in2="shape" result="effect1_innerShadow"/>
</filter>
<filter id="filter6_i" x="428.41" y="221.699" width="59.4272" height="121.751" filterUnits="userSpaceOnUse" color-interpolation-filters="sRGB">
<feFlood flood-opacity="0" result="BackgroundImageFix"/>
<feBlend mode="normal" in="SourceGraphic" in2="BackgroundImageFix" result="shape"/>
<feColorMatrix in="SourceAlpha" type="matrix" values="0 0 0 0 0 0 0 0 0 0 0 0 0 0 0 0 0 0 127 0" result="hardAlpha"/>
<feOffset dx="-8" dy="3"/>
<feGaussianBlur stdDeviation="3.5"/>
<feComposite in2="hardAlpha" operator="arithmetic" k2="-1" k3="1"/>
<feColorMatrix type="matrix" values="0 0 0 0 0.631373 0 0 0 0 0.721569 0 0 0 0 0.890196 0 0 0 0.137483 0"/>
<feBlend mode="normal" in2="shape" result="effect1_innerShadow"/>
</filter>
<radialGradient id="paint0_radial" cx="0" cy="0" r="1" gradientUnits="userSpaceOnUse" gradientTransform="translate(402.754 355.966) rotate(-112.466) scale(165.359 244.69)">
<stop stop-color="white"/>
<stop offset="1" stop-color="#D6E3FA"/>
</radialGradient>
<linearGradient id="paint1_linear" x1="331.243" y1="256.342" x2="348.672" y2="139.123" gradientUnits="userSpaceOnUse">
<stop stop-color="#ECF1FF"/>
<stop offset="1" stop-color="white"/>
</linearGradient>
<linearGradient id="paint2_linear" x1="536.942" y1="165.823" x2="554.867" y2="47.894" gradientUnits="userSpaceOnUse">
<stop stop-color="#ECF1FF"/>
<stop offset="1" stop-color="white"/>
</linearGradient>
<linearGradient id="paint3_linear" x1="148.395" y1="343.878" x2="165.052" y2="390.657" gradientUnits="userSpaceOnUse">
<stop stop-color="#EDF3FD" stop-opacity="0.01"/>
<stop offset="1" stop-color="#D6E3FA"/>
</linearGradient>
<linearGradient id="paint4_linear" x1="54.2186" y1="338.881" x2="72.917" y2="388.046" gradientUnits="userSpaceOnUse">
<stop stop-color="#EDF3FD" stop-opacity="0.01"/>
<stop offset="1" stop-color="#D6E3FA"/>
</linearGradient>
<linearGradient id="paint5_linear" x1="258.917" y1="237.77" x2="197.721" y2="237.77" gradientUnits="userSpaceOnUse">
<stop stop-color="#A0BDE6"/>
<stop offset="1" stop-color="#E3EDFC"/>
</linearGradient>
<linearGradient id="paint6_linear" x1="235.604" y1="194.781" x2="190.538" y2="194.346" gradientUnits="userSpaceOnUse">
<stop stop-color="#CFDDF3"/>
<stop offset="1" stop-color="#B2C7ED"/>
</linearGradient>
<linearGradient id="paint7_linear" x1="210.312" y1="314.406" x2="201.553" y2="293.158" gradientUnits="userSpaceOnUse">
<stop stop-color="#CFDDF3"/>
<stop offset="1" stop-color="#A1B8E3"/>
</linearGradient>
<linearGradient id="paint8_linear" x1="260.807" y1="316.675" x2="197.923" y2="308.408" gradientUnits="userSpaceOnUse">
<stop stop-color="#CFDDF3"/>
<stop offset="1" stop-color="#A1B8E3"/>
</linearGradient>
<linearGradient id="paint9_linear" x1="225.342" y1="249.496" x2="177.763" y2="245.14" gradientUnits="userSpaceOnUse">
<stop stop-color="#CFDDF3"/>
<stop offset="1" stop-color="#A1B8E3"/>
</linearGradient>
<radialGradient id="paint10_radial" cx="0" cy="0" r="1" gradientUnits="userSpaceOnUse" gradientTransform="translate(135.746 149.396) rotate(150.84) scale(135.538 418.913)">
<stop stop-color="#64CF9B"/>
<stop offset="1" stop-color="#ADF9A9"/>
</radialGradient>
<linearGradient id="paint11_linear" x1="88.6318" y1="153.482" x2="88.6318" y2="377.088" gradientUnits="userSpaceOnUse">
<stop stop-color="#80D4AE"/>
<stop offset="1" stop-color="#4CB67D"/>
</linearGradient>
<linearGradient id="paint12_linear" x1="87.3682" y1="226.755" x2="87.3682" y2="250.126" gradientUnits="userSpaceOnUse">
<stop stop-color="#64DEA8"/>
<stop offset="1" stop-color="#4CB67D"/>
</linearGradient>
<linearGradient id="paint13_linear" x1="67.1562" y1="288.025" x2="67.1562" y2="317.081" gradientUnits="userSpaceOnUse">
<stop stop-color="#64DEA8"/>
<stop offset="1" stop-color="#4CB67D"/>
</linearGradient>
<linearGradient id="paint14_linear" x1="93.0527" y1="269.075" x2="93.0527" y2="286.761" gradientUnits="userSpaceOnUse">
<stop stop-color="#64DEA8"/>
<stop offset="1" stop-color="#4CB67D"/>
</linearGradient>
<linearGradient id="paint15_linear" x1="111.372" y1="158.536" x2="111.372" y2="192.014" gradientUnits="userSpaceOnUse">
<stop stop-color="#64DEA8"/>
<stop offset="1" stop-color="#4CB67D"/>
</linearGradient>
<linearGradient id="paint16_linear" x1="266.081" y1="321.02" x2="259.056" y2="362.71" gradientUnits="userSpaceOnUse">
<stop stop-color="#577FBE"/>
<stop offset="1" stop-color="#A1B8E3"/>
</linearGradient>
<linearGradient id="paint17_linear" x1="249.222" y1="324.753" x2="247.668" y2="348.967" gradientUnits="userSpaceOnUse">
<stop stop-color="#577FBE"/>
<stop offset="1" stop-color="#A1B8E3" stop-opacity="0.262228"/>
</linearGradient>
<linearGradient id="paint18_linear" x1="331.226" y1="325.834" x2="208.438" y2="321.789" gradientUnits="userSpaceOnUse">
<stop stop-color="#0C1F63"/>
<stop offset="0.562912" stop-color="#102F7A"/>
<stop offset="1" stop-color="#3861B6"/>
</linearGradient>
<linearGradient id="paint19_linear" x1="283.338" y1="226.804" x2="283.338" y2="244.758" gradientUnits="userSpaceOnUse">
<stop stop-color="#6886B3"/>
<stop offset="1" stop-color="#90AADB"/>
</linearGradient>
<linearGradient id="paint20_linear" x1="249.614" y1="207.197" x2="278.421" y2="213.312" gradientUnits="userSpaceOnUse">
<stop stop-color="#CFDDF3"/>
<stop offset="1" stop-color="#A1B8E3"/>
</linearGradient>
<linearGradient id="paint21_linear" x1="283.634" y1="199.717" x2="263.883" y2="199.034" gradientUnits="userSpaceOnUse">
<stop stop-color="#072246"/>
<stop offset="1" stop-color="#143B8C"/>
</linearGradient>
<radialGradient id="paint22_radial" cx="0" cy="0" r="1" gradientUnits="userSpaceOnUse" gradientTransform="translate(268.021 170.608) rotate(-11.9377) scale(25.5018 106.581)">
<stop stop-color="#2D6DC0"/>
<stop offset="1" stop-color="#143B8C"/>
</radialGradient>
<linearGradient id="paint23_linear" x1="210.27" y1="231.232" x2="210.27" y2="272.878" gradientUnits="userSpaceOnUse">
<stop stop-color="#F4F8FF"/>
<stop offset="1" stop-color="#E5EFFD"/>
</linearGradient>
<linearGradient id="paint24_linear" x1="203.435" y1="243.491" x2="203.435" y2="264.652" gradientUnits="userSpaceOnUse">
<stop stop-color="#18407E"/>
<stop offset="1" stop-color="#90AADB"/>
</linearGradient>
<linearGradient id="paint25_linear" x1="185.823" y1="259.601" x2="193.82" y2="220.513" gradientUnits="userSpaceOnUse">
<stop stop-color="#577FBE"/>
<stop offset="1" stop-color="#B1C9F7"/>
</linearGradient>
<linearGradient id="paint26_linear" x1="199.397" y1="223.851" x2="199.397" y2="256.68" gradientUnits="userSpaceOnUse">
<stop stop-color="#A9C4E5"/>
<stop offset="1" stop-color="#7192C7"/>
</linearGradient>
<linearGradient id="paint27_linear" x1="398.391" y1="176.201" x2="385.33" y2="183.545" gradientUnits="userSpaceOnUse">
<stop stop-color="#6886B3"/>
<stop offset="1" stop-color="#90AADB"/>
</linearGradient>
<linearGradient id="paint28_linear" x1="379.132" y1="153.055" x2="379.132" y2="195.069" gradientUnits="userSpaceOnUse">
<stop stop-color="#A9C4E5"/>
<stop offset="1" stop-color="#7192C7"/>
</linearGradient>
<linearGradient id="paint29_linear" x1="353.743" y1="164.311" x2="385.921" y2="171.24" gradientUnits="userSpaceOnUse">
<stop stop-color="#CFDDF3"/>
<stop offset="1" stop-color="#A1B8E3"/>
</linearGradient>
<linearGradient id="paint30_linear" x1="433.22" y1="290.846" x2="353.596" y2="303.11" gradientUnits="userSpaceOnUse">
<stop stop-color="#2664C7"/>
<stop offset="1" stop-color="#3D82F0"/>
</linearGradient>
<linearGradient id="paint31_linear" x1="372.274" y1="417.924" x2="372.274" y2="594.837" gradientUnits="userSpaceOnUse">
<stop stop-color="#75A8D6"/>
<stop offset="1" stop-color="#92A8CA" stop-opacity="0.01"/>
</linearGradient>
<linearGradient id="paint32_linear" x1="324.779" y1="336.742" x2="320.42" y2="401.123" gradientUnits="userSpaceOnUse">
<stop stop-color="#75A8D6"/>
<stop offset="1" stop-color="#92A8CA" stop-opacity="0.01"/>
</linearGradient>
<linearGradient id="paint33_linear" x1="332.044" y1="327.236" x2="300.306" y2="373.071" gradientUnits="userSpaceOnUse">
<stop stop-color="#577FBE"/>
<stop offset="1" stop-color="#A1B8E3"/>
</linearGradient>
<linearGradient id="paint34_linear" x1="335.451" y1="340.56" x2="335.451" y2="387.854" gradientUnits="userSpaceOnUse">
<stop stop-color="#A9C4E5"/>
<stop offset="1" stop-color="#7192C7"/>
</linearGradient>
<linearGradient id="paint35_linear" x1="461.926" y1="367.982" x2="446.946" y2="233.341" gradientUnits="userSpaceOnUse">
<stop stop-color="#F4F8FF"/>
<stop offset="1" stop-color="#C3D8F5"/>
</linearGradient>
<linearGradient id="paint36_linear" x1="377.811" y1="318.438" x2="328.072" y2="332.06" gradientUnits="userSpaceOnUse">
<stop stop-color="white" stop-opacity="0.5"/>
<stop offset="1" stop-color="#AFC3E5"/>
</linearGradient>
<linearGradient id="paint37_linear" x1="371.21" y1="251.416" x2="329.601" y2="217.036" gradientUnits="userSpaceOnUse">
<stop stop-color="white" stop-opacity="0.01"/>
<stop offset="1" stop-color="#A1B8E3"/>
</linearGradient>
<linearGradient id="paint38_linear" x1="421.176" y1="437.685" x2="460.603" y2="436.617" gradientUnits="userSpaceOnUse">
<stop stop-color="#EAF0F7" stop-opacity="0.115546"/>
<stop offset="1" stop-color="#D1DDED"/>
</linearGradient>
<linearGradient id="paint39_linear" x1="371.717" y1="230.078" x2="386.436" y2="229.174" gradientUnits="userSpaceOnUse">
<stop stop-color="#EAF0F7" stop-opacity="0.115546"/>
<stop offset="1" stop-color="#D1DDED"/>
</linearGradient>
<linearGradient id="paint40_linear" x1="388.995" y1="226.143" x2="401.891" y2="225.362" gradientUnits="userSpaceOnUse">
<stop stop-color="#EAF0F7" stop-opacity="0.115546"/>
<stop offset="1" stop-color="#D1DDED"/>
</linearGradient>
<linearGradient id="paint41_linear" x1="444.002" y1="323.78" x2="484.947" y2="312.339" gradientUnits="userSpaceOnUse">
<stop stop-color="#E2E9F4"/>
<stop offset="1" stop-color="#E5EFFD"/>
</linearGradient>
<linearGradient id="paint42_linear" x1="446.603" y1="242.704" x2="416.618" y2="247.857" gradientUnits="userSpaceOnUse">
<stop stop-color="white" stop-opacity="0.01"/>
<stop offset="1" stop-color="white"/>
</linearGradient>
<linearGradient id="paint43_linear" x1="463.622" y1="351.219" x2="473.28" y2="318.813" gradientUnits="userSpaceOnUse">
<stop stop-color="#577FBE"/>
<stop offset="1" stop-color="#A1B8E3"/>
</linearGradient>
<linearGradient id="paint44_linear" x1="457.747" y1="301.327" x2="452.212" y2="318.724" gradientUnits="userSpaceOnUse">
<stop stop-color="white" stop-opacity="0.5"/>
<stop offset="1" stop-color="#A1B8E3" stop-opacity="0.01"/>
</linearGradient>
<linearGradient id="paint45_linear" x1="323.035" y1="229.711" x2="323.035" y2="345.004" gradientUnits="userSpaceOnUse">
<stop stop-color="#B5CCEF"/>
<stop offset="1" stop-color="#E5EFFD"/>
</linearGradient>
<linearGradient id="paint46_linear" x1="391.392" y1="145.578" x2="400.528" y2="128.418" gradientUnits="userSpaceOnUse">
<stop stop-color="#2D6DC0"/>
<stop offset="1" stop-color="#143B8C"/>
</linearGradient>
<linearGradient id="paint47_linear" x1="434.42" y1="299.779" x2="410.034" y2="271.058" gradientUnits="userSpaceOnUse">
<stop stop-color="#FF7F31"/>
<stop offset="1" stop-color="#FFD25F"/>
</linearGradient>
<linearGradient id="paint48_linear" x1="300.649" y1="406.281" x2="348.314" y2="402.039" gradientUnits="userSpaceOnUse">
<stop stop-color="#FF7F31"/>
<stop offset="1" stop-color="#FFD25F"/>
</linearGradient>
<linearGradient id="paint49_linear" x1="376.809" y1="301.844" x2="329.359" y2="285.037" gradientUnits="userSpaceOnUse">
<stop stop-color="#FF7F31"/>
<stop offset="1" stop-color="#FFC83A"/>
</linearGradient>
<linearGradient id="paint50_linear" x1="431.452" y1="335.903" x2="431.452" y2="301.808" gradientUnits="userSpaceOnUse">
<stop stop-color="#577FBE"/>
<stop offset="1" stop-color="#A1B8E3"/>
</linearGradient>
</defs>
</svg>
