<svg width="713" height="569" viewBox="0 0 713 569" fill="none" xmlns="http://www.w3.org/2000/svg">
<path d="M82.0002 344.5C224.529 158.872 715 265.267 715 265.267V550C715 550 4.70002 563.5 1.00027 550C-2.69948 536.5 23.8439 420.242 82.0002 344.5Z" fill="url(#paint0_linear)"/>
<path opacity="0.5" fill-rule="evenodd" clip-rule="evenodd" d="M36 324L188.331 269.351L409.499 349.506L260.5 429" fill="url(#paint1_linear)"/>
<path d="M253.532 310.13L289.135 324.371" stroke="url(#paint2_linear)" stroke-width="5.59483" stroke-linecap="round"/>
<path d="M203.177 332.51L262.177 305.553" stroke="url(#paint3_linear)" stroke-width="5.59483" stroke-linecap="round"/>
<path d="M250.479 361.501L298.289 315.725" stroke="url(#paint4_linear)" stroke-width="5.59483" stroke-linecap="round"/>
<path fill-rule="evenodd" clip-rule="evenodd" d="M529.569 269.488V290.32C529.569 293.102 526.302 298.637 523.687 299.587L413.926 347.11C403.817 350.78 392.804 351.151 382.471 348.17L183.57 275.02C181.175 274.33 179.526 272.138 179.526 269.645L179.526 248.304L299.126 245.294C303.916 244.604 308.781 244.6 313.572 245.283L529.569 269.488Z" fill="url(#paint5_linear)"/>
<g filter="url(#filter0_d)">
<path fill-rule="evenodd" clip-rule="evenodd" d="M529.569 243.039V267.431C529.569 270.213 527.828 272.697 525.213 273.647L413.926 320.661C403.817 324.331 392.804 324.702 382.471 321.721L183.57 250.098C181.175 249.407 179.526 247.215 179.526 244.722L179.526 221.856L299.126 218.846C303.916 218.155 308.781 218.151 313.572 218.835L529.569 243.039Z" fill="url(#paint6_linear)"/>
</g>
<g filter="url(#filter1_d)">
<path fill-rule="evenodd" clip-rule="evenodd" d="M529.569 217.1V241.492C529.569 244.274 527.828 246.758 525.213 247.708L413.926 294.722C403.817 298.392 392.804 298.763 382.471 295.782L183.57 224.159C181.175 223.468 179.526 221.276 179.526 218.783L179.526 195.917L299.126 192.907C303.916 192.216 308.781 192.212 313.572 192.896L529.569 217.1Z" fill="url(#paint7_linear)"/>
</g>
<g filter="url(#filter2_d)">
<path fill-rule="evenodd" clip-rule="evenodd" d="M529.569 189.635V214.027C529.569 216.808 527.828 219.293 525.213 220.242L413.926 267.256C403.817 270.926 392.804 271.298 382.471 268.316L183.57 196.693C181.175 196.002 179.526 193.81 179.526 191.317L179.526 168.451L299.126 165.441C303.916 164.75 308.781 164.746 313.572 165.43L529.569 189.635Z" fill="url(#paint8_linear)"/>
</g>
<g filter="url(#filter3_d)">
<path fill-rule="evenodd" clip-rule="evenodd" d="M529.569 163.186V187.578C529.569 190.36 527.828 192.844 525.213 193.794L413.926 240.808C403.817 244.478 392.804 244.849 382.471 241.868L183.57 170.245C181.175 169.554 179.526 167.362 179.526 164.869L179.526 142.003L299.126 138.993C303.916 138.302 308.781 138.298 313.572 138.982L529.569 163.186Z" fill="url(#paint9_linear)"/>
</g>
<g filter="url(#filter4_d)">
<path fill-rule="evenodd" clip-rule="evenodd" d="M529.569 137.755V164.182C529.569 166.963 527.828 169.447 525.213 170.397L413.926 214.868C403.817 218.538 392.804 218.909 382.471 215.928L183.57 148.882C181.175 148.191 179.526 145.999 179.526 143.507L179.526 116.063L299.126 113.053C303.916 112.362 308.781 112.358 313.572 113.042L529.569 137.755Z" fill="url(#paint10_linear)"/>
</g>
<g filter="url(#filter5_d)">
<path fill-rule="evenodd" clip-rule="evenodd" d="M529.47 117.249V141.133C529.47 143.914 527.729 146.398 525.114 147.348L413.828 188.259C403.718 191.929 392.706 192.3 382.372 189.319L183.472 126.342C181.077 125.651 179.428 123.459 179.428 120.966L179.428 98.6085L299.028 86.4434C303.818 85.7524 308.682 85.7487 313.473 86.4323L529.47 117.249Z" fill="url(#paint11_linear)"/>
</g>
<path fill-rule="evenodd" clip-rule="evenodd" d="M293.502 63.2663C301.661 61.0223 310.25 60.8494 318.493 62.7633L523.354 110.33C530.79 112.057 531.362 122.425 524.161 124.958L413.688 163.833C403.468 167.429 392.367 167.668 382.002 164.515L183.67 104.181C178.307 102.55 178.409 94.9206 183.815 93.434L293.502 63.2663Z" fill="url(#paint12_linear)"/>
<path fill-rule="evenodd" clip-rule="evenodd" d="M332.218 70.2646L502.595 110.553L374.409 156.385L210.553 107.087L332.218 70.2646Z" fill="white"/>
<path d="M263.194 287.751L294.305 298.446" stroke="#1B2B4F" stroke-width="5.59483" stroke-linecap="round"/>
<path d="M263.194 262.829L294.305 273.523" stroke="#1B2B4F" stroke-width="5.59483" stroke-linecap="round"/>
<path d="M263.194 236.381L294.305 247.075" stroke="#1B2B4F" stroke-width="5.59483" stroke-linecap="round"/>
<path d="M263.194 208.407L294.305 219.101" stroke="#1B2B4F" stroke-width="5.59483" stroke-linecap="round"/>
<path d="M262.686 178.398L294.729 188.062" stroke="#1B2B4F" stroke-width="5.59483" stroke-linecap="round"/>
<path d="M296.764 313.692V158.562" stroke="#1B2B4F" stroke-width="5.59483" stroke-linecap="round"/>
<path d="M260.142 300.467V148.389" stroke="#1B2B4F" stroke-width="5.59483" stroke-linecap="round"/>
<path fill-rule="evenodd" clip-rule="evenodd" d="M150.025 289.022C148.34 289.022 146.974 290.389 146.974 292.074V308.473C146.974 310.158 148.34 311.524 150.025 311.524H158.309L161.901 315.116C163.093 316.308 165.025 316.308 166.217 315.116L169.809 311.524H178.508C180.194 311.524 181.56 310.158 181.56 308.473V292.074C181.56 290.389 180.194 289.022 178.508 289.022H150.025Z" fill="url(#paint13_linear)"/>
<path fill-rule="evenodd" clip-rule="evenodd" d="M164.313 307.264C150.333 299.638 160.444 290.158 164.313 296.543C168.182 290.158 178.293 299.638 164.313 307.264Z" fill="white"/>
<path fill-rule="evenodd" clip-rule="evenodd" d="M99.1777 359.377C99.1777 364.525 94.9375 374.613 100.467 377.229C105.996 379.844 110.886 366.26 110.886 366.26C110.886 366.26 110.464 356.285 105.466 356.285C100.467 356.285 99.1777 354.229 99.1777 359.377Z" fill="url(#paint14_linear)"/>
<mask id="mask0" mask-type="alpha" maskUnits="userSpaceOnUse" x="97" y="355" width="14" height="23">
<path fill-rule="evenodd" clip-rule="evenodd" d="M99.1777 359.377C99.1777 364.525 94.9375 374.613 100.467 377.229C105.996 379.844 110.886 366.26 110.886 366.26C110.886 366.26 110.464 356.285 105.466 356.285C100.467 356.285 99.1777 354.229 99.1777 359.377Z" fill="white"/>
</mask>
<g mask="url(#mask0)">
<g opacity="0.5">
<path fill-rule="evenodd" clip-rule="evenodd" d="M98.8583 361.682C99.3042 362.588 105.381 367.382 106.385 368.515C107.39 369.648 107.62 372.611 108.197 372.305C108.774 371.999 108.197 363.309 108.197 363.309C108.197 363.309 98.4124 360.776 98.8583 361.682Z" fill="#3D82F0" style="mix-blend-mode:multiply"/>
</g>
</g>
<path fill-rule="evenodd" clip-rule="evenodd" d="M108.605 476.951C108.605 479.611 107.918 482.936 108.605 484.257C109.293 485.578 112.699 486.273 113.823 486.273C114.947 486.273 115.322 484.377 117.068 485.352C118.813 486.327 128.76 486.273 129.407 482.316C130.053 478.36 125.01 478.36 122.767 478.36C120.524 478.36 118.149 477.268 114.818 474.432C111.488 471.595 108.605 474.291 108.605 476.951Z" fill="url(#paint15_linear)"/>
<path d="M120.624 479.799C120.114 478.013 120.114 477.325 118.676 476.646" stroke="white" stroke-width="1.01724" stroke-linecap="round"/>
<path d="M123.505 480.376C122.995 478.59 122.272 477.992 120.356 478.59" stroke="white" stroke-width="1.01724" stroke-linecap="round"/>
<path fill-rule="evenodd" clip-rule="evenodd" d="M158.544 482.511C158.544 485.171 157.783 488.495 158.544 489.816C159.305 491.138 163.076 491.832 164.32 491.832C165.564 491.832 165.98 489.937 167.913 490.912C169.845 491.887 180.857 491.832 181.572 487.876C182.288 483.92 176.705 483.92 174.222 483.92C171.739 483.92 169.109 482.827 165.422 479.991C161.736 477.155 158.544 479.85 158.544 482.511Z" fill="url(#paint16_linear)"/>
<path d="M172.547 485.648C172.037 483.861 171.638 483.036 170.009 482.285" stroke="white" stroke-width="1.01724" stroke-linecap="round"/>
<path d="M175.14 485.935C174.63 484.149 173.907 483.552 171.991 484.149" stroke="white" stroke-width="1.01724" stroke-linecap="round"/>
<path fill-rule="evenodd" clip-rule="evenodd" d="M149.843 386.472C149.843 386.472 160.704 426.263 162.118 435.317C163.531 444.371 166.992 474.975 166.503 479.91C164.14 482.32 159.882 480.877 159.14 480.435C158.399 479.993 153.83 454.813 149.843 445.045C145.857 435.278 136.887 426.288 130.976 416.46C130.976 422.856 126.412 439.974 126.412 439.974C126.412 439.974 119.757 470.204 117.492 475.097C116.417 476.833 110.992 475.56 108.888 475.097C108.888 470.512 113.425 447.349 113.425 439.307C113.425 431.266 112.17 416.693 111.701 410.719C111.232 404.745 110.087 393.154 111.701 386.472C115.793 386.472 149.843 386.472 149.843 386.472Z" fill="url(#paint17_linear)"/>
<mask id="mask1" mask-type="alpha" maskUnits="userSpaceOnUse" x="108" y="386" width="59" height="96">
<path fill-rule="evenodd" clip-rule="evenodd" d="M149.843 386.472C149.843 386.472 160.704 426.263 162.118 435.317C163.531 444.371 166.992 474.975 166.503 479.91C164.14 482.32 159.882 480.877 159.14 480.435C158.399 479.993 153.83 454.813 149.843 445.045C145.857 435.278 136.887 426.288 130.976 416.46C130.976 422.856 126.412 439.974 126.412 439.974C126.412 439.974 119.757 470.204 117.492 475.097C116.417 476.833 110.992 475.56 108.888 475.097C108.888 470.512 113.425 447.349 113.425 439.307C113.425 431.266 112.17 416.693 111.701 410.719C111.232 404.745 110.087 393.154 111.701 386.472C115.793 386.472 149.843 386.472 149.843 386.472Z" fill="white"/>
</mask>
<g mask="url(#mask1)">
<g opacity="0.5">
<path fill-rule="evenodd" clip-rule="evenodd" d="M125.248 444.621C125.248 440.726 127.255 408.901 127.716 410.207C128.177 411.513 131.767 418.566 131.767 418.566C131.767 418.566 125.248 448.516 125.248 444.621Z" fill="#A1B8E3" style="mix-blend-mode:multiply"/>
</g>
<path d="M127.825 410.225C128.387 412.582 130.551 415.857 131.55 417.81" stroke="white" stroke-width="1.01724" stroke-linecap="round"/>
<g opacity="0.5">
<path fill-rule="evenodd" clip-rule="evenodd" d="M114.214 393.12C116.753 394.485 126.694 400.296 139.504 397.967C145.833 396.817 149.905 395.311 151.731 393.12C151.731 392.04 150.196 387.5 149.767 385.763C149.339 384.027 111.105 391.448 114.214 393.12Z" fill="url(#paint18_linear)" style="mix-blend-mode:multiply"/>
</g>
</g>
<path fill-rule="evenodd" clip-rule="evenodd" d="M130.635 301.891C130.635 301.891 132.102 304.734 134.588 305.941C137.074 307.147 138.316 307.738 138.316 307.738L137.259 311.837C137.259 311.837 139.229 317.864 138.316 319.896C137.403 321.928 134.588 323.278 132.95 325.09C131.311 326.901 129.797 333.048 129.797 333.048H118.998L118.509 325.09C118.509 325.09 115.63 313.606 120.515 307.738C125.401 301.87 130.635 301.891 130.635 301.891Z" fill="url(#paint19_linear)"/>
<mask id="mask2" mask-type="alpha" maskUnits="userSpaceOnUse" x="117" y="301" width="22" height="33">
<path fill-rule="evenodd" clip-rule="evenodd" d="M130.635 301.891C130.635 301.891 132.102 304.734 134.588 305.941C137.074 307.147 138.316 307.738 138.316 307.738L137.259 311.837C137.259 311.837 139.229 317.864 138.316 319.896C137.403 321.928 134.588 323.278 132.95 325.09C131.311 326.901 129.797 333.048 129.797 333.048H118.998L118.509 325.09C118.509 325.09 115.63 313.606 120.515 307.738C125.401 301.87 130.635 301.891 130.635 301.891Z" fill="white"/>
</mask>
<g mask="url(#mask2)">
<g opacity="0.5">
<path fill-rule="evenodd" clip-rule="evenodd" d="M134.295 324.008C131.569 324.008 127.317 321.594 126.499 320.77C125.681 319.945 133.313 328.866 132.676 330.286C132.174 331.407 130.379 331.75 131.511 331.75C135.592 331.75 137.021 324.008 134.295 324.008Z" fill="#3D82F0" style="mix-blend-mode:multiply"/>
</g>
</g>
<path fill-rule="evenodd" clip-rule="evenodd" d="M118.51 324.753C108.989 315.854 101.45 308.26 107.952 297.677C114.453 287.095 129.582 283.537 132.409 296.401C132.409 301.921 128.334 304.869 128.334 304.869C128.334 304.869 127.572 306.421 129.582 308.066C131.592 309.712 129.582 311.072 129.582 311.072C129.582 311.072 125.612 308.519 124.576 311.919C123.539 315.319 127.365 316.536 127.365 317.387C128.684 320.514 125.963 323.374 125.963 323.374C125.963 323.374 124.569 324.753 118.51 324.753Z" fill="url(#paint20_linear)"/>
<path fill-rule="evenodd" clip-rule="evenodd" d="M108.69 336.758C108.69 336.758 98.4978 354.637 97.2681 358.571C96.0384 362.505 108.69 364.781 108.69 364.781L113.969 342.29L108.69 336.758Z" fill="url(#paint21_linear)"/>
<path fill-rule="evenodd" clip-rule="evenodd" d="M130.708 330.603C130.708 330.603 138.384 332.629 142.907 337.982C147.43 343.334 146.422 359.438 147.704 369.023C148.985 378.608 154.559 385.575 145.949 390.984C137.338 396.393 112.993 395.164 111.002 390.984C109.011 386.803 106.741 361.108 106.741 361.108C106.741 361.108 106.741 337.982 109.461 336.032C112.18 334.083 118.529 330.315 118.529 330.315C118.529 330.315 118.386 330.888 121.449 331.456C124.511 332.024 130.708 330.603 130.708 330.603Z" fill="#D6E3FA"/>
<mask id="mask3" mask-type="alpha" maskUnits="userSpaceOnUse" x="106" y="330" width="45" height="65">
<path fill-rule="evenodd" clip-rule="evenodd" d="M130.708 330.603C130.708 330.603 138.384 332.629 142.907 337.982C147.43 343.334 146.422 359.438 147.704 369.023C148.985 378.608 154.559 385.575 145.949 390.984C137.338 396.393 112.993 395.164 111.002 390.984C109.011 386.803 106.741 361.108 106.741 361.108C106.741 361.108 106.741 337.982 109.461 336.032C112.18 334.083 118.529 330.315 118.529 330.315C118.529 330.315 118.386 330.888 121.449 331.456C124.511 332.024 130.708 330.603 130.708 330.603Z" fill="white"/>
</mask>
<g mask="url(#mask3)">
<path opacity="0.5" fill-rule="evenodd" clip-rule="evenodd" d="M137.083 348.897C137.083 348.897 141.224 368.251 143.715 371.878C146.207 375.506 147.827 386.483 149.821 387.792C151.815 389.101 154.68 374.127 153.248 369C151.815 363.873 145.359 351.315 145.359 351.315L137.083 348.897Z" fill="url(#paint22_linear)"/>
<path opacity="0.5" fill-rule="evenodd" clip-rule="evenodd" d="M120.352 331.641C122.194 332.863 126.996 333.524 131.032 333.524C135.068 333.524 136.33 333.567 138.261 332.979C140.192 332.392 139.444 331.641 138.261 331.641C137.079 331.641 133.412 330.779 131.438 330.779C129.464 330.779 118.509 330.418 120.352 331.641Z" fill="url(#paint23_linear)"/>
</g>
<path fill-rule="evenodd" clip-rule="evenodd" d="M118.179 330.602C118.179 330.602 117.941 327.642 117.941 326.687C117.941 325.733 125.892 327.081 131.614 327.616C132.235 329.998 132.125 330.155 132.125 330.602C132.125 330.826 130.696 332.742 123.008 332.121C120.202 331.894 118.179 330.602 118.179 330.602Z" fill="#E1ECFF"/>
<ellipse cx="156.015" cy="350.198" rx="7.79817" ry="3.09771" transform="rotate(-66 156.015 350.198)" fill="#A1B8E3"/>
<path fill-rule="evenodd" clip-rule="evenodd" d="M155.909 341.999L163.949 345.308C163.949 345.308 171.08 326.281 171.513 323.812C171.945 321.342 170.028 317.857 169.718 316.615C169.408 315.372 169.459 312.449 170.324 311.379C171.19 310.309 171.418 310.691 172.065 310.53C175.71 310.908 179.502 304.16 180.648 303.382C181.793 302.604 182.89 305.219 183.322 306.877C183.755 308.535 183.991 312.63 183.258 315.141C182.526 317.651 179.147 322.201 179.388 323.169C179.629 324.136 176.217 340.535 175.131 347.094C174.045 353.653 172.625 358.252 167.082 357.873C161.538 357.493 150.049 351.329 150.049 351.329C150.049 351.329 150.8 346.541 152.236 344.734C153.671 342.928 155.909 341.999 155.909 341.999Z" fill="url(#paint24_linear)"/>
<mask id="mask4" mask-type="alpha" maskUnits="userSpaceOnUse" x="140" y="302" width="55" height="60">
<path fill-rule="evenodd" clip-rule="evenodd" d="M155.909 341.999L163.949 345.308C163.949 345.308 171.08 326.281 171.513 323.812C171.945 321.342 170.028 317.857 169.718 316.615C169.408 315.372 169.459 312.449 170.324 311.379C171.19 310.309 171.418 310.691 172.065 310.53C175.71 310.908 179.502 304.16 180.648 303.382C181.793 302.604 182.89 305.219 183.322 306.877C183.755 308.535 183.991 312.63 183.258 315.141C182.526 317.651 179.147 322.201 179.388 323.169C179.629 324.136 176.217 340.535 175.131 347.094C174.045 353.653 172.625 358.252 167.082 357.873C161.538 357.493 150.049 351.329 150.049 351.329C150.049 351.329 150.8 346.541 152.236 344.734C153.671 342.928 155.909 341.999 155.909 341.999Z" fill="white"/>
</mask>
<g mask="url(#mask4)">
<g opacity="0.5">
<path fill-rule="evenodd" clip-rule="evenodd" d="M158.548 342.879C158.548 342.879 156.844 352.848 157.913 355.781C158.982 358.714 153.117 354.575 153.117 354.575C153.117 354.575 153.232 350.304 154.133 348.362C155.034 346.421 158.548 342.879 158.548 342.879Z" fill="#3D82F0" style="mix-blend-mode:multiply"/>
</g>
<path d="M163.78 345.072C164.233 345.28 165.091 345.604 165.86 346.669" stroke="#223762" stroke-width="1.01724" stroke-linecap="round"/>
</g>
<path fill-rule="evenodd" clip-rule="evenodd" d="M153.022 357.404C153.927 352.873 155.232 346.637 158.858 342.905C145.92 337.327 141.843 335.349 137.776 333.611C133.708 331.874 130.007 343.318 137.776 349.012C145.545 354.705 150.863 356.451 153.022 357.404Z" fill="url(#paint25_linear)"/>
<path opacity="0.5" fill-rule="evenodd" clip-rule="evenodd" d="M153.586 500.538L281.737 476.704L408.571 487.233L250.767 568.062" fill="url(#paint26_linear)"/>
<g filter="url(#filter6_d)">
<path fill-rule="evenodd" clip-rule="evenodd" d="M304.139 417.704C302.453 417.704 301.087 419.07 301.087 420.755V437.154C301.087 438.839 302.453 440.205 304.139 440.205H312.171L315.702 443.737C316.894 444.929 318.826 444.929 320.018 443.737L323.55 440.205H332.113C333.798 440.205 335.165 438.839 335.165 437.154V420.755C335.165 419.07 333.798 417.704 332.113 417.704H304.139Z" fill="#F05971"/>
<path fill-rule="evenodd" clip-rule="evenodd" d="M318.17 435.945C304.397 428.32 314.358 418.839 318.17 425.224C321.983 418.839 331.945 428.32 318.17 435.945Z" fill="white"/>
</g>
<path fill-rule="evenodd" clip-rule="evenodd" d="M282.823 400.053C281.174 400.403 280.122 402.023 280.472 403.672L283.882 419.712C284.232 421.361 285.853 422.413 287.501 422.063L295.357 420.393L299.546 423.113C300.96 424.031 302.85 423.629 303.768 422.216L306.488 418.027L314.864 416.247C316.513 415.896 317.565 414.276 317.215 412.627L313.805 396.587C313.455 394.938 311.834 393.886 310.186 394.236L282.823 400.053Z" fill="url(#paint27_linear)"/>
<path fill-rule="evenodd" clip-rule="evenodd" d="M300.34 414.979C285.281 410.384 293.054 399.039 298.11 404.492C300.512 397.454 312.228 404.656 300.34 414.979Z" fill="white"/>
<g filter="url(#filter7_d)">
<path fill-rule="evenodd" clip-rule="evenodd" d="M367.208 424.824C365.523 424.824 364.156 426.191 364.156 427.876V444.274C364.156 445.96 365.523 447.326 367.208 447.326H375.24L378.772 450.858C379.963 452.049 381.896 452.049 383.088 450.858L386.619 447.326H395.182C396.868 447.326 398.234 445.96 398.234 444.274V427.876C398.234 426.191 396.868 424.824 395.182 424.824H367.208Z" fill="url(#paint28_linear)"/>
<path fill-rule="evenodd" clip-rule="evenodd" d="M381.24 443.065C367.466 435.44 377.427 425.959 381.24 432.344C385.052 425.959 395.014 435.44 381.24 443.065Z" fill="white"/>
</g>
<g filter="url(#filter8_d)">
<path fill-rule="evenodd" clip-rule="evenodd" d="M324.483 420.247C322.798 420.247 321.432 421.613 321.432 423.299V439.697C321.432 441.383 322.798 442.749 324.483 442.749H332.515L336.046 446.28C337.238 447.472 339.17 447.472 340.362 446.28L343.893 442.749H352.458C354.143 442.749 355.509 441.383 355.509 439.697V423.299C355.509 421.613 354.143 420.247 352.458 420.247H324.483Z" fill="url(#paint29_linear)"/>
<path fill-rule="evenodd" clip-rule="evenodd" d="M338.514 438.489C324.74 430.863 334.702 421.383 338.514 427.767C342.327 421.383 352.289 430.863 338.514 438.489Z" fill="white"/>
</g>
<path fill-rule="evenodd" clip-rule="evenodd" d="M385.914 403.211C384.272 402.832 382.633 403.856 382.254 405.498L378.565 421.476C378.186 423.118 379.21 424.757 380.852 425.136L388.677 426.943L391.324 431.178C392.217 432.608 394.1 433.042 395.529 432.149L399.765 429.502L408.109 431.429C409.752 431.808 411.39 430.784 411.769 429.142L415.458 413.164C415.837 411.521 414.813 409.883 413.171 409.504L385.914 403.211Z" fill="url(#paint30_linear)"/>
<path fill-rule="evenodd" clip-rule="evenodd" d="M395.481 424.142C383.776 413.613 395.615 406.616 397.893 413.695C403.044 408.332 410.618 419.81 395.481 424.142Z" fill="white"/>
<path fill-rule="evenodd" clip-rule="evenodd" d="M316.307 386.578C314.679 386.142 313.006 387.108 312.57 388.736L308.325 404.575C307.889 406.203 308.855 407.877 310.483 408.313L318.242 410.392L320.739 414.717C321.582 416.177 323.448 416.677 324.908 415.834L329.233 413.337L337.504 415.553C339.132 415.99 340.806 415.023 341.242 413.395L345.486 397.556C345.922 395.928 344.956 394.254 343.328 393.818L316.307 386.578Z" fill="url(#paint31_linear)"/>
<path fill-rule="evenodd" clip-rule="evenodd" d="M325.14 407.829C313.809 396.898 325.885 390.319 327.915 397.473C333.25 392.293 340.419 404.029 325.14 407.829Z" fill="white"/>
<g filter="url(#filter9_d)">
<path fill-rule="evenodd" clip-rule="evenodd" d="M309.595 414.746C307.935 415.039 306.827 416.621 307.12 418.281L309.967 434.431C310.26 436.09 311.843 437.199 313.503 436.906L321.413 435.511L325.504 438.376C326.884 439.343 328.787 439.007 329.754 437.626L332.619 433.535L341.052 432.048C342.712 431.756 343.82 430.173 343.527 428.513L340.68 412.364C340.387 410.704 338.804 409.596 337.144 409.888L309.595 414.746Z" fill="url(#paint32_linear)"/>
<path fill-rule="evenodd" clip-rule="evenodd" d="M326.581 430.275C311.692 425.156 319.856 414.09 324.719 419.716C327.365 412.766 338.822 420.373 326.581 430.275Z" fill="white"/>
</g>
<path fill-rule="evenodd" clip-rule="evenodd" d="M364.958 416.202C366.339 417.168 368.242 416.833 369.208 415.452L378.614 402.02C379.581 400.639 379.245 398.736 377.865 397.769L371.286 393.163L370.419 388.244C370.126 386.585 368.543 385.476 366.884 385.769L361.965 386.636L354.95 381.724C353.569 380.757 351.666 381.093 350.699 382.473L341.294 395.906C340.327 397.287 340.662 399.19 342.043 400.156L364.958 416.202Z" fill="url(#paint33_linear)"/>
<path fill-rule="evenodd" clip-rule="evenodd" d="M363.927 393.21C370.836 407.357 357.238 409.41 357.778 401.993C350.992 405.036 348.27 391.556 363.927 393.21Z" fill="white"/>
<g filter="url(#filter10_d)">
<path fill-rule="evenodd" clip-rule="evenodd" d="M339.997 401.186C338.311 401.157 336.921 402.499 336.892 404.184L336.606 420.58C336.576 422.265 337.919 423.655 339.604 423.685L347.634 423.825L351.104 427.418C352.274 428.63 354.206 428.664 355.419 427.493L359.012 424.023L367.574 424.173C369.259 424.202 370.649 422.86 370.678 421.175L370.964 404.779C370.994 403.094 369.652 401.704 367.966 401.674L339.997 401.186Z" fill="url(#paint34_linear)"/>
<path fill-rule="evenodd" clip-rule="evenodd" d="M353.706 419.67C340.068 411.805 350.193 402.5 353.893 408.95C357.817 402.633 367.612 412.286 353.706 419.67Z" fill="white"/>
</g>
<g filter="url(#filter11_d)">
<path fill-rule="evenodd" clip-rule="evenodd" d="M340.734 417.27C339.052 417.152 337.594 418.42 337.477 420.101L336.333 436.46C336.215 438.141 337.483 439.599 339.164 439.717L347.176 440.277L350.453 444.047C351.559 445.319 353.486 445.454 354.758 444.348L358.528 441.071L367.07 441.668C368.751 441.786 370.21 440.518 370.327 438.837L371.471 422.479C371.589 420.797 370.321 419.339 368.64 419.221L340.734 417.27Z" fill="url(#paint35_linear)"/>
<path fill-rule="evenodd" clip-rule="evenodd" d="M353.458 436.447C340.25 427.879 350.848 419.116 354.205 425.751C358.454 419.648 367.731 429.8 353.458 436.447Z" fill="white"/>
</g>
<g filter="url(#filter12_d)">
<path fill-rule="evenodd" clip-rule="evenodd" d="M356.219 409.83C354.679 410.516 353.986 412.319 354.672 413.859L361.342 428.84C362.027 430.38 363.831 431.072 365.371 430.387L372.708 427.12L377.371 428.91C378.945 429.514 380.71 428.728 381.314 427.155L383.104 422.491L390.927 419.008C392.466 418.323 393.159 416.519 392.473 414.979L385.803 399.999C385.118 398.459 383.314 397.766 381.774 398.452L356.219 409.83Z" fill="url(#paint36_linear)"/>
<path fill-rule="evenodd" clip-rule="evenodd" d="M376.457 420.788C360.772 419.424 366.016 406.711 372.096 410.993C372.982 403.61 385.939 408.219 376.457 420.788Z" fill="white"/>
</g>
<path fill-rule="evenodd" clip-rule="evenodd" d="M280.233 413.126L341.777 440.688V506.712L282.235 475.89L280.233 413.126Z" fill="url(#paint37_linear)"/>
<path fill-rule="evenodd" clip-rule="evenodd" d="M412.982 425.333L341.776 440.723V506.712L411.643 486.41L412.982 425.333Z" fill="url(#paint38_linear)"/>
<mask id="mask5" mask-type="alpha" maskUnits="userSpaceOnUse" x="341" y="425" width="72" height="82">
<path fill-rule="evenodd" clip-rule="evenodd" d="M412.982 425.333L341.776 440.723V506.712L411.643 486.41L412.982 425.333Z" fill="white"/>
</mask>
<g mask="url(#mask5)">
<g opacity="0.218583">
<path fill-rule="evenodd" clip-rule="evenodd" d="M358.624 428.372L424.649 491.027L414.699 413.563L358.624 428.372Z" fill="url(#paint39_linear)" style="mix-blend-mode:multiply"/>
</g>
</g>
<path fill-rule="evenodd" clip-rule="evenodd" d="M280.34 412.618L255.819 437.972L316.622 468.057L341.268 440.521L280.34 412.618Z" fill="url(#paint40_linear)"/>
<path fill-rule="evenodd" clip-rule="evenodd" d="M412.344 425.333L438.415 452.743L367.973 468.566L341.777 440.502L412.344 425.333Z" fill="url(#paint41_linear)"/>
<path opacity="0.7" fill-rule="evenodd" clip-rule="evenodd" d="M125.878 247.999C135.644 247.999 143.561 251.285 143.561 255.34C143.561 259.394 135.644 262.681 125.878 262.681C116.112 262.681 108.195 259.394 108.195 255.34C108.195 251.285 116.112 247.999 125.878 247.999Z" fill="url(#paint42_linear)"/>
<path fill-rule="evenodd" clip-rule="evenodd" d="M149.442 231.573C150.773 233.904 151.518 236.516 151.518 239.274C151.518 249.122 142.018 257.104 130.298 257.104C118.579 257.104 109.079 249.122 109.079 239.274C109.079 236.356 109.913 233.601 111.393 231.169C120.793 232.657 139.503 232.561 149.442 231.573Z" fill="url(#paint43_linear)"/>
<mask id="mask6" mask-type="alpha" maskUnits="userSpaceOnUse" x="109" y="231" width="43" height="27">
<path fill-rule="evenodd" clip-rule="evenodd" d="M149.442 231.573C150.773 233.904 151.518 236.516 151.518 239.274C151.518 249.122 142.018 257.104 130.298 257.104C118.579 257.104 109.079 249.122 109.079 239.274C109.079 236.356 109.913 233.601 111.393 231.169C120.793 232.657 139.503 232.561 149.442 231.573Z" fill="white"/>
</mask>
<g mask="url(#mask6)">
</g>
<path fill-rule="evenodd" clip-rule="evenodd" d="M130.446 227.632C141.107 227.632 149.75 229.677 149.75 232.2C149.75 234.723 141.107 236.768 130.446 236.768C119.785 236.768 111.142 234.723 111.142 232.2C111.142 229.677 119.785 227.632 130.446 227.632Z" fill="url(#paint44_linear)"/>
<mask id="mask7" mask-type="alpha" maskUnits="userSpaceOnUse" x="111" y="227" width="39" height="10">
<path fill-rule="evenodd" clip-rule="evenodd" d="M130.446 227.632C141.107 227.632 149.75 229.677 149.75 232.2C149.75 234.723 141.107 236.768 130.446 236.768C119.785 236.768 111.142 234.723 111.142 232.2C111.142 229.677 119.785 227.632 130.446 227.632Z" fill="white"/>
</mask>
<g mask="url(#mask7)">
</g>
<g filter="url(#filter13_i)">
<path fill-rule="evenodd" clip-rule="evenodd" d="M128.826 228.811C127.771 221.515 124.871 210.981 116.153 199.634C111.017 192.95 111 176.673 110.259 174.878C114.289 176.264 121.528 179.836 128.826 189.908C136.476 200.467 131.623 222 128.826 228.811Z" fill="url(#paint45_linear)"/>
</g>
<mask id="mask8" mask-type="alpha" maskUnits="userSpaceOnUse" x="110" y="174" width="23" height="55">
<path fill-rule="evenodd" clip-rule="evenodd" d="M128.826 228.811C127.771 221.515 124.871 210.981 116.153 199.634C111.017 192.95 111 176.673 110.259 174.878C114.289 176.264 121.528 179.836 128.826 189.908C136.476 200.467 131.623 222 128.826 228.811Z" fill="white"/>
</mask>
<g mask="url(#mask8)">
<g style="mix-blend-mode:multiply" opacity="0.5">
<path d="M127.924 222.255L121.88 193.651C126.132 201.586 127.923 210.288 127.924 222.255Z" fill="black" fill-opacity="0.01"/>
<path d="M127.924 222.255L121.88 193.651C126.132 201.586 127.923 210.288 127.924 222.255Z" stroke="#489C71" stroke-width="1.52586"/>
</g>
</g>
<g filter="url(#filter14_i)">
<path fill-rule="evenodd" clip-rule="evenodd" d="M128.858 236.299C125.601 231.089 119.847 224.03 109.38 218.306C103.214 214.934 97.7294 202.526 96.5599 201.407C100.101 201.11 106.826 201.402 115.781 206.631C125.167 212.113 128.703 230.165 128.858 236.299Z" fill="url(#paint46_linear)"/>
</g>
<mask id="mask9" mask-type="alpha" maskUnits="userSpaceOnUse" x="96" y="201" width="33" height="36">
<path fill-rule="evenodd" clip-rule="evenodd" d="M128.858 236.299C125.601 231.089 119.847 224.03 109.38 218.306C103.214 214.934 97.7294 202.526 96.5599 201.407C100.101 201.11 106.826 201.402 115.781 206.631C125.167 212.113 128.703 230.165 128.858 236.299Z" fill="white"/>
</mask>
<g mask="url(#mask9)">
<g style="mix-blend-mode:multiply" opacity="0.5">
<path d="M125.338 230.509L112.384 212.496C117.662 216.826 121.634 222.398 125.338 230.509Z" fill="black" fill-opacity="0.01"/>
<path d="M125.338 230.509L112.384 212.496C117.662 216.826 121.634 222.398 125.338 230.509Z" stroke="#489C71" stroke-width="1.52586"/>
</g>
</g>
<g filter="url(#filter15_i)">
<path fill-rule="evenodd" clip-rule="evenodd" d="M131.197 237.013C133.765 231.406 138.58 223.635 148.263 216.585C153.967 212.432 157.82 199.371 158.84 198.105C155.274 198.266 148.613 199.424 140.373 205.786C131.734 212.455 130.555 230.886 131.197 237.013Z" fill="url(#paint47_linear)"/>
</g>
<mask id="mask10" mask-type="alpha" maskUnits="userSpaceOnUse" x="131" y="198" width="28" height="40">
<path fill-rule="evenodd" clip-rule="evenodd" d="M131.197 237.013C133.765 231.406 138.58 223.635 148.263 216.585C153.967 212.432 157.82 199.371 158.84 198.105C155.274 198.266 148.613 199.424 140.373 205.786C131.734 212.455 130.555 230.886 131.197 237.013Z" fill="white"/>
</mask>
<g mask="url(#mask10)">
<g style="mix-blend-mode:multiply" opacity="0.5">
<path d="M143.55 211.085L132.954 230.747C135.596 222.163 138.837 216.088 143.55 211.085Z" fill="black" fill-opacity="0.01"/>
<path d="M143.55 211.085L132.954 230.747C135.596 222.163 138.837 216.088 143.55 211.085Z" stroke="#489C71" stroke-width="1.52586"/>
</g>
</g>
<path d="M202.923 332.255L259.888 148.643" stroke="url(#paint48_linear)" stroke-width="6.10345" stroke-linecap="round"/>
<path d="M253.785 174.582L288.371 184.754" stroke="url(#paint49_linear)" stroke-width="6.10345" stroke-linecap="round"/>
<path d="M245.139 198.996L282.268 210.694" stroke="url(#paint50_linear)" stroke-width="6.10345" stroke-linecap="round"/>
<path d="M238.527 223.919L275.148 236.635" stroke="url(#paint51_linear)" stroke-width="6.10345" stroke-linecap="round"/>
<path d="M230.389 247.824L271.078 262.066" stroke="url(#paint52_linear)" stroke-width="6.10345" stroke-linecap="round"/>
<path d="M223.268 272.238L265.569 288.05" stroke="url(#paint53_linear)" stroke-width="6.10345" stroke-linecap="round"/>
<path d="M214.622 299.194L257.346 314.962" stroke="#223762" stroke-width="6.10345" stroke-linecap="round"/>
<path d="M250.225 361.246L295.25 156.343" stroke="url(#paint54_linear)" stroke-width="6.10345" stroke-linecap="round"/>
<path fill-rule="evenodd" clip-rule="evenodd" d="M277.843 33.1358C279.322 31.4118 279.885 27.9158 279.885 24.6848C279.885 21.4538 286.253 23.055 286.253 23.055C286.253 23.055 286.718 27.9443 287.617 29.4232C288.517 30.9021 292.682 31.3961 292.682 31.3961C292.682 31.3961 285.379 48.1695 282.104 45.703C278.828 43.2365 276.364 34.8599 277.843 33.1358Z" fill="url(#paint55_linear)"/>
<mask id="mask11" mask-type="alpha" maskUnits="userSpaceOnUse" x="277" y="22" width="16" height="24">
<path fill-rule="evenodd" clip-rule="evenodd" d="M277.843 33.1358C279.322 31.4118 279.885 27.9158 279.885 24.6848C279.885 21.4538 286.253 23.055 286.253 23.055C286.253 23.055 286.718 27.9443 287.617 29.4232C288.517 30.9021 292.682 31.3961 292.682 31.3961C292.682 31.3961 285.379 48.1695 282.104 45.703C278.828 43.2365 276.364 34.8599 277.843 33.1358Z" fill="white"/>
</mask>
<g mask="url(#mask11)">
<g opacity="0.5">
<path fill-rule="evenodd" clip-rule="evenodd" d="M278.752 26.771C278.752 26.771 283.854 31.0606 287.184 28.6499C290.513 26.2393 287.184 23.1387 287.184 23.1387L278.752 26.771Z" fill="#3D82F0" style="mix-blend-mode:multiply"/>
</g>
</g>
<path fill-rule="evenodd" clip-rule="evenodd" d="M274.663 10.3068C274.663 13.8048 275.38 20.9084 276.035 22.9712C276.69 25.034 280.338 28.269 283.606 27.274C286.874 26.279 288.415 22.1297 288.415 20.8248C288.415 19.5199 289.579 14.5194 289.579 14.5194C289.579 14.5194 291.055 7.76356 288.415 7.76356C285.775 7.76356 274.663 6.80889 274.663 10.3068Z" fill="url(#paint56_linear)"/>
<path fill-rule="evenodd" clip-rule="evenodd" d="M288.355 10.3674C284.299 13.053 271.829 13.4301 273.15 6.46452C274.471 -0.501074 284.67 -1.95467 289.968 2.67461C292.27 4.68589 293.965 10.3674 291.181 16.4574C290.315 18.3505 288.355 19.7832 288.355 19.7832C288.355 19.7832 288.952 13.6914 288.355 10.3674Z" fill="#223762"/>
<path fill-rule="evenodd" clip-rule="evenodd" d="M323.849 104.67C325.497 104.141 336.187 101.437 337.376 100.168C338.565 98.8997 338.048 97.0116 335.769 96.6961C333.49 96.3806 324.045 95.2559 323.128 95.2559C322.21 95.2559 320.261 98.8521 320.77 101.429C321.278 104.005 322.201 105.199 323.849 104.67Z" fill="#192A4D"/>
<path fill-rule="evenodd" clip-rule="evenodd" d="M279.967 110.366C281.276 109.945 289.767 107.797 290.711 106.79C291.656 105.782 291.245 104.282 289.435 104.032C287.625 103.781 280.123 102.888 279.394 102.888C278.665 102.888 277.117 105.744 277.521 107.791C277.925 109.837 278.658 110.786 279.967 110.366Z" fill="#192A4D"/>
<path fill-rule="evenodd" clip-rule="evenodd" d="M275.285 70.4913C274.044 72.6931 258.471 96.8043 257.17 102.36C255.869 107.917 258.191 111.972 261.222 111.972C264.252 111.972 279.98 112.307 281.635 110.87C283.291 109.433 283.503 100.926 281.635 100.926C279.768 100.926 270.297 100.926 270.297 100.926C270.297 100.926 280.424 87.5326 281.635 87.5326C282.847 87.5326 285.727 115.644 288.781 116.786C291.836 117.927 322.256 108.143 323.925 106.594C325.594 105.045 323.937 96.6989 318.739 96.6989C313.541 96.6989 299.902 103.619 299.902 101.932C299.902 100.245 299.39 76.6594 298.376 71.8066C297.362 66.9538 276.526 68.2894 275.285 70.4913Z" fill="url(#paint57_linear)"/>
<path fill-rule="evenodd" clip-rule="evenodd" d="M312.846 48.2926C310.093 46.8489 303.115 40.4634 294.983 32.4582C293.688 31.1833 288.696 30.186 288.696 30.186C288.696 30.186 287.716 33.4755 283.06 33.4755C278.404 33.4755 278.545 31.4181 278.545 31.4181C278.545 31.4181 274.47 32.9565 271.626 35.7755C268.783 38.5944 262.245 49.1895 258.503 50.8735C254.76 52.5575 243.65 58.8574 243.65 58.8574L250.257 60.6494C250.257 60.6494 257.74 58.3704 261.77 56.8634C265.8 55.3565 272.958 49.4835 272.958 49.4835C272.958 49.4835 267.597 72.2454 269.979 75.8394C272.36 79.4333 293.399 78.9821 296 75.8394C298.601 72.6966 296 46.372 296 46.372L306.98 53.828L319.063 57.9482L327.91 57.8807C327.91 57.8807 317.21 50.5811 312.846 48.2926Z" fill="url(#paint58_linear)"/>
<rect x="222.267" y="57.1626" width="112.405" height="34.0803" rx="4.57759" fill="url(#paint59_linear)"/>
<circle cx="239.306" cy="74.2024" r="12.5559" fill="#FFB417"/>
<rect x="256.346" y="63.1411" width="69.6553" height="5.08215" rx="2.54107" fill="#FFB417"/>
<rect x="256.346" y="71.5122" width="53.2131" height="5.08215" rx="2.54107" fill="#FFB417"/>
<rect opacity="0.5" x="256.346" y="81.6763" width="19.7307" height="3.5874" rx="1.7937" fill="#FFB417"/>
<path fill-rule="evenodd" clip-rule="evenodd" d="M403.601 93.9311C406.733 92.8723 410.099 92.7069 413.32 93.4532L483.754 109.774C485.241 110.119 485.356 112.193 483.916 112.7L379.028 149.63C375.17 150.989 370.979 151.088 367.061 149.914L303.223 130.784C301.799 130.357 301.764 128.352 303.173 127.876L403.601 93.9311Z" fill="url(#paint60_linear)"/>
<mask id="mask12" mask-type="alpha" maskUnits="userSpaceOnUse" x="302" y="92" width="183" height="59">
<path fill-rule="evenodd" clip-rule="evenodd" d="M403.601 93.9311C406.733 92.8723 410.099 92.7069 413.32 93.4532L483.754 109.774C485.241 110.119 485.356 112.193 483.916 112.7L379.028 149.63C375.17 150.989 370.979 151.088 367.061 149.914L303.223 130.784C301.799 130.357 301.764 128.352 303.173 127.876L403.601 93.9311Z" fill="white"/>
</mask>
<g mask="url(#mask12)">
<path fill-rule="evenodd" clip-rule="evenodd" d="M416.153 83.9113C418.457 93.1186 427.342 109.667 417.769 116.39C408.196 123.113 333.083 114.273 326.354 114.273C319.624 114.273 413.848 74.704 416.153 83.9113Z" fill="url(#paint61_linear)"/>
<ellipse cx="382.211" cy="131.858" rx="16.0216" ry="4.57759" fill="url(#paint62_linear)"/>
<path fill-rule="evenodd" clip-rule="evenodd" d="M349.013 98.1525C351.317 107.36 360.202 123.908 350.629 130.631C341.056 137.354 265.944 128.514 259.214 128.514C252.485 128.514 346.709 88.9452 349.013 98.1525Z" fill="url(#paint63_linear)"/>
</g>
<defs>
<filter id="filter0_d" x="179.526" y="218.325" width="350.042" height="110.476" filterUnits="userSpaceOnUse" color-interpolation-filters="sRGB">
<feFlood flood-opacity="0" result="BackgroundImageFix"/>
<feColorMatrix in="SourceAlpha" type="matrix" values="0 0 0 0 0 0 0 0 0 0 0 0 0 0 0 0 0 0 127 0" result="hardAlpha"/>
<feOffset dy="5.08621"/>
<feColorMatrix type="matrix" values="0 0 0 0 0.113091 0 0 0 0 0.194481 0 0 0 0 0.36352 0 0 0 0.513728 0"/>
<feBlend mode="normal" in2="BackgroundImageFix" result="effect1_dropShadow"/>
<feBlend mode="normal" in="SourceGraphic" in2="effect1_dropShadow" result="shape"/>
</filter>
<filter id="filter1_d" x="179.526" y="192.386" width="350.042" height="110.476" filterUnits="userSpaceOnUse" color-interpolation-filters="sRGB">
<feFlood flood-opacity="0" result="BackgroundImageFix"/>
<feColorMatrix in="SourceAlpha" type="matrix" values="0 0 0 0 0 0 0 0 0 0 0 0 0 0 0 0 0 0 127 0" result="hardAlpha"/>
<feOffset dy="5.08621"/>
<feColorMatrix type="matrix" values="0 0 0 0 0.113091 0 0 0 0 0.194481 0 0 0 0 0.36352 0 0 0 0.513728 0"/>
<feBlend mode="normal" in2="BackgroundImageFix" result="effect1_dropShadow"/>
<feBlend mode="normal" in="SourceGraphic" in2="effect1_dropShadow" result="shape"/>
</filter>
<filter id="filter2_d" x="179.526" y="164.92" width="350.042" height="110.476" filterUnits="userSpaceOnUse" color-interpolation-filters="sRGB">
<feFlood flood-opacity="0" result="BackgroundImageFix"/>
<feColorMatrix in="SourceAlpha" type="matrix" values="0 0 0 0 0 0 0 0 0 0 0 0 0 0 0 0 0 0 127 0" result="hardAlpha"/>
<feOffset dy="5.08621"/>
<feColorMatrix type="matrix" values="0 0 0 0 0.113091 0 0 0 0 0.194481 0 0 0 0 0.36352 0 0 0 0.513728 0"/>
<feBlend mode="normal" in2="BackgroundImageFix" result="effect1_dropShadow"/>
<feBlend mode="normal" in="SourceGraphic" in2="effect1_dropShadow" result="shape"/>
</filter>
<filter id="filter3_d" x="179.526" y="138.472" width="350.042" height="110.476" filterUnits="userSpaceOnUse" color-interpolation-filters="sRGB">
<feFlood flood-opacity="0" result="BackgroundImageFix"/>
<feColorMatrix in="SourceAlpha" type="matrix" values="0 0 0 0 0 0 0 0 0 0 0 0 0 0 0 0 0 0 127 0" result="hardAlpha"/>
<feOffset dy="5.08621"/>
<feColorMatrix type="matrix" values="0 0 0 0 0.113091 0 0 0 0 0.194481 0 0 0 0 0.36352 0 0 0 0.513728 0"/>
<feBlend mode="normal" in2="BackgroundImageFix" result="effect1_dropShadow"/>
<feBlend mode="normal" in="SourceGraphic" in2="effect1_dropShadow" result="shape"/>
</filter>
<filter id="filter4_d" x="179.526" y="112.532" width="350.042" height="110.476" filterUnits="userSpaceOnUse" color-interpolation-filters="sRGB">
<feFlood flood-opacity="0" result="BackgroundImageFix"/>
<feColorMatrix in="SourceAlpha" type="matrix" values="0 0 0 0 0 0 0 0 0 0 0 0 0 0 0 0 0 0 127 0" result="hardAlpha"/>
<feOffset dy="5.08621"/>
<feColorMatrix type="matrix" values="0 0 0 0 0.113091 0 0 0 0 0.194481 0 0 0 0 0.36352 0 0 0 0.513728 0"/>
<feBlend mode="normal" in2="BackgroundImageFix" result="effect1_dropShadow"/>
<feBlend mode="normal" in="SourceGraphic" in2="effect1_dropShadow" result="shape"/>
</filter>
<filter id="filter5_d" x="179.428" y="85.9224" width="350.042" height="110.476" filterUnits="userSpaceOnUse" color-interpolation-filters="sRGB">
<feFlood flood-opacity="0" result="BackgroundImageFix"/>
<feColorMatrix in="SourceAlpha" type="matrix" values="0 0 0 0 0 0 0 0 0 0 0 0 0 0 0 0 0 0 127 0" result="hardAlpha"/>
<feOffset dy="5.08621"/>
<feColorMatrix type="matrix" values="0 0 0 0 0.113091 0 0 0 0 0.194481 0 0 0 0 0.36352 0 0 0 0.513728 0"/>
<feBlend mode="normal" in2="BackgroundImageFix" result="effect1_dropShadow"/>
<feBlend mode="normal" in="SourceGraphic" in2="effect1_dropShadow" result="shape"/>
</filter>
<filter id="filter6_d" x="290.914" y="409.057" width="53.4052" height="46.2549" filterUnits="userSpaceOnUse" color-interpolation-filters="sRGB">
<feFlood flood-opacity="0" result="BackgroundImageFix"/>
<feColorMatrix in="SourceAlpha" type="matrix" values="0 0 0 0 0 0 0 0 0 0 0 0 0 0 0 0 0 0 127 0" result="hardAlpha"/>
<feOffset dx="-0.508621" dy="1.01724"/>
<feGaussianBlur stdDeviation="4.8319"/>
<feColorMatrix type="matrix" values="0 0 0 0 0.563271 0 0 0 0 0.0744316 0 0 0 0 0.0744316 0 0 0 0.5 0"/>
<feBlend mode="normal" in2="BackgroundImageFix" result="effect1_dropShadow"/>
<feBlend mode="normal" in="SourceGraphic" in2="effect1_dropShadow" result="shape"/>
</filter>
<filter id="filter7_d" x="353.984" y="416.178" width="53.4052" height="46.2547" filterUnits="userSpaceOnUse" color-interpolation-filters="sRGB">
<feFlood flood-opacity="0" result="BackgroundImageFix"/>
<feColorMatrix in="SourceAlpha" type="matrix" values="0 0 0 0 0 0 0 0 0 0 0 0 0 0 0 0 0 0 127 0" result="hardAlpha"/>
<feOffset dx="-0.508621" dy="1.01724"/>
<feGaussianBlur stdDeviation="4.8319"/>
<feColorMatrix type="matrix" values="0 0 0 0 0.563271 0 0 0 0 0.0744316 0 0 0 0 0.0744316 0 0 0 0.5 0"/>
<feBlend mode="normal" in2="BackgroundImageFix" result="effect1_dropShadow"/>
<feBlend mode="normal" in="SourceGraphic" in2="effect1_dropShadow" result="shape"/>
</filter>
<filter id="filter8_d" x="311.259" y="411.601" width="53.4052" height="46.2548" filterUnits="userSpaceOnUse" color-interpolation-filters="sRGB">
<feFlood flood-opacity="0" result="BackgroundImageFix"/>
<feColorMatrix in="SourceAlpha" type="matrix" values="0 0 0 0 0 0 0 0 0 0 0 0 0 0 0 0 0 0 127 0" result="hardAlpha"/>
<feOffset dx="-0.508621" dy="1.01724"/>
<feGaussianBlur stdDeviation="4.8319"/>
<feColorMatrix type="matrix" values="0 0 0 0 0.563271 0 0 0 0 0.0744316 0 0 0 0 0.0744316 0 0 0 0.5 0"/>
<feBlend mode="normal" in2="BackgroundImageFix" result="effect1_dropShadow"/>
<feBlend mode="normal" in="SourceGraphic" in2="effect1_dropShadow" result="shape"/>
</filter>
<filter id="filter9_d" x="296.901" y="401.195" width="55.8288" height="48.4141" filterUnits="userSpaceOnUse" color-interpolation-filters="sRGB">
<feFlood flood-opacity="0" result="BackgroundImageFix"/>
<feColorMatrix in="SourceAlpha" type="matrix" values="0 0 0 0 0 0 0 0 0 0 0 0 0 0 0 0 0 0 127 0" result="hardAlpha"/>
<feOffset dx="-0.508621" dy="1.01724"/>
<feGaussianBlur stdDeviation="4.8319"/>
<feColorMatrix type="matrix" values="0 0 0 0 0.563271 0 0 0 0 0.0744316 0 0 0 0 0.0744316 0 0 0 0.5 0"/>
<feBlend mode="normal" in2="BackgroundImageFix" result="effect1_dropShadow"/>
<feBlend mode="normal" in="SourceGraphic" in2="effect1_dropShadow" result="shape"/>
</filter>
<filter id="filter10_d" x="326.433" y="392.539" width="53.6871" height="46.4916" filterUnits="userSpaceOnUse" color-interpolation-filters="sRGB">
<feFlood flood-opacity="0" result="BackgroundImageFix"/>
<feColorMatrix in="SourceAlpha" type="matrix" values="0 0 0 0 0 0 0 0 0 0 0 0 0 0 0 0 0 0 127 0" result="hardAlpha"/>
<feOffset dx="-0.508621" dy="1.01724"/>
<feGaussianBlur stdDeviation="4.8319"/>
<feColorMatrix type="matrix" values="0 0 0 0 0.563271 0 0 0 0 0.0744316 0 0 0 0 0.0744316 0 0 0 0.5 0"/>
<feBlend mode="normal" in2="BackgroundImageFix" result="effect1_dropShadow"/>
<feBlend mode="normal" in="SourceGraphic" in2="effect1_dropShadow" result="shape"/>
</filter>
<filter id="filter11_d" x="326.153" y="408.616" width="54.4812" height="47.1617" filterUnits="userSpaceOnUse" color-interpolation-filters="sRGB">
<feFlood flood-opacity="0" result="BackgroundImageFix"/>
<feColorMatrix in="SourceAlpha" type="matrix" values="0 0 0 0 0 0 0 0 0 0 0 0 0 0 0 0 0 0 127 0" result="hardAlpha"/>
<feOffset dx="-0.508621" dy="1.01724"/>
<feGaussianBlur stdDeviation="4.8319"/>
<feColorMatrix type="matrix" values="0 0 0 0 0.563271 0 0 0 0 0.0744316 0 0 0 0 0.0744316 0 0 0 0.5 0"/>
<feBlend mode="normal" in2="BackgroundImageFix" result="effect1_dropShadow"/>
<feBlend mode="normal" in="SourceGraphic" in2="effect1_dropShadow" result="shape"/>
</filter>
<filter id="filter12_d" x="344.235" y="389.541" width="57.658" height="51.7914" filterUnits="userSpaceOnUse" color-interpolation-filters="sRGB">
<feFlood flood-opacity="0" result="BackgroundImageFix"/>
<feColorMatrix in="SourceAlpha" type="matrix" values="0 0 0 0 0 0 0 0 0 0 0 0 0 0 0 0 0 0 127 0" result="hardAlpha"/>
<feOffset dx="-0.508621" dy="1.01724"/>
<feGaussianBlur stdDeviation="4.8319"/>
<feColorMatrix type="matrix" values="0 0 0 0 0.563271 0 0 0 0 0.0744316 0 0 0 0 0.0744316 0 0 0 0.5 0"/>
<feBlend mode="normal" in2="BackgroundImageFix" result="effect1_dropShadow"/>
<feBlend mode="normal" in="SourceGraphic" in2="effect1_dropShadow" result="shape"/>
</filter>
<filter id="filter13_i" x="110.259" y="169.792" width="22.6773" height="59.019" filterUnits="userSpaceOnUse" color-interpolation-filters="sRGB">
<feFlood flood-opacity="0" result="BackgroundImageFix"/>
<feBlend mode="normal" in="SourceGraphic" in2="BackgroundImageFix" result="shape"/>
<feColorMatrix in="SourceAlpha" type="matrix" values="0 0 0 0 0 0 0 0 0 0 0 0 0 0 0 0 0 0 127 0" result="hardAlpha"/>
<feOffset dy="-5.08621"/>
<feGaussianBlur stdDeviation="5.59483"/>
<feComposite in2="hardAlpha" operator="arithmetic" k2="-1" k3="1"/>
<feColorMatrix type="matrix" values="0 0 0 0 0.221483 0 0 0 0 0.77854 0 0 0 0 0.610041 0 0 0 1 0"/>
<feBlend mode="normal" in2="shape" result="effect1_innerShadow"/>
</filter>
<filter id="filter14_i" x="96.5596" y="196.241" width="32.2983" height="40.0577" filterUnits="userSpaceOnUse" color-interpolation-filters="sRGB">
<feFlood flood-opacity="0" result="BackgroundImageFix"/>
<feBlend mode="normal" in="SourceGraphic" in2="BackgroundImageFix" result="shape"/>
<feColorMatrix in="SourceAlpha" type="matrix" values="0 0 0 0 0 0 0 0 0 0 0 0 0 0 0 0 0 0 127 0" result="hardAlpha"/>
<feOffset dy="-5.08621"/>
<feGaussianBlur stdDeviation="5.59483"/>
<feComposite in2="hardAlpha" operator="arithmetic" k2="-1" k3="1"/>
<feColorMatrix type="matrix" values="0 0 0 0 0.221483 0 0 0 0 0.77854 0 0 0 0 0.610041 0 0 0 1 0"/>
<feBlend mode="normal" in2="shape" result="effect1_innerShadow"/>
</filter>
<filter id="filter15_i" x="131.05" y="193.019" width="27.79" height="43.9943" filterUnits="userSpaceOnUse" color-interpolation-filters="sRGB">
<feFlood flood-opacity="0" result="BackgroundImageFix"/>
<feBlend mode="normal" in="SourceGraphic" in2="BackgroundImageFix" result="shape"/>
<feColorMatrix in="SourceAlpha" type="matrix" values="0 0 0 0 0 0 0 0 0 0 0 0 0 0 0 0 0 0 127 0" result="hardAlpha"/>
<feOffset dy="-5.08621"/>
<feGaussianBlur stdDeviation="5.59483"/>
<feComposite in2="hardAlpha" operator="arithmetic" k2="-1" k3="1"/>
<feColorMatrix type="matrix" values="0 0 0 0 0.221483 0 0 0 0 0.77854 0 0 0 0 0.610041 0 0 0 1 0"/>
<feBlend mode="normal" in2="shape" result="effect1_innerShadow"/>
</filter>
<linearGradient id="paint0_linear" x1="1.0007" y1="265.268" x2="1.0007" y2="550" gradientUnits="userSpaceOnUse">
<stop stop-color="white"/>
<stop offset="1" stop-color="#EAF0FD"/>
</linearGradient>
<linearGradient id="paint1_linear" x1="94.1285" y1="258.066" x2="85.194" y2="350.792" gradientUnits="userSpaceOnUse">
<stop stop-color="#D0DCF1"/>
<stop offset="1" stop-color="white"/>
</linearGradient>
<linearGradient id="paint2_linear" x1="261.06" y1="300.301" x2="254.28" y2="324.902" gradientUnits="userSpaceOnUse">
<stop stop-color="#CFDDF3"/>
<stop offset="1" stop-color="#A1B8E3"/>
</linearGradient>
<linearGradient id="paint3_linear" x1="215.748" y1="287.47" x2="201.755" y2="332.4" gradientUnits="userSpaceOnUse">
<stop stop-color="#CFDDF3"/>
<stop offset="1" stop-color="#A1B8E3"/>
</linearGradient>
<linearGradient id="paint4_linear" x1="260.639" y1="285.426" x2="222.771" y2="344.01" gradientUnits="userSpaceOnUse">
<stop stop-color="#CFDDF3"/>
<stop offset="1" stop-color="#A1B8E3"/>
</linearGradient>
<linearGradient id="paint5_linear" x1="427.574" y1="394.891" x2="385.944" y2="365.1" gradientUnits="userSpaceOnUse">
<stop stop-color="#283F6C"/>
<stop offset="0.518928" stop-color="#314A7B"/>
<stop offset="1" stop-color="#223762"/>
</linearGradient>
<linearGradient id="paint6_linear" x1="427.574" y1="368.442" x2="385.944" y2="338.651" gradientUnits="userSpaceOnUse">
<stop stop-color="#283F6C"/>
<stop offset="0.518928" stop-color="#314A7B"/>
<stop offset="1" stop-color="#223762"/>
</linearGradient>
<linearGradient id="paint7_linear" x1="427.574" y1="342.503" x2="385.944" y2="312.712" gradientUnits="userSpaceOnUse">
<stop stop-color="#283F6C"/>
<stop offset="0.518928" stop-color="#314A7B"/>
<stop offset="1" stop-color="#223762"/>
</linearGradient>
<linearGradient id="paint8_linear" x1="427.574" y1="315.037" x2="385.944" y2="285.246" gradientUnits="userSpaceOnUse">
<stop stop-color="#283F6C"/>
<stop offset="0.518928" stop-color="#314A7B"/>
<stop offset="1" stop-color="#223762"/>
</linearGradient>
<linearGradient id="paint9_linear" x1="427.574" y1="288.589" x2="385.944" y2="258.798" gradientUnits="userSpaceOnUse">
<stop stop-color="#283F6C"/>
<stop offset="0.518928" stop-color="#314A7B"/>
<stop offset="1" stop-color="#223762"/>
</linearGradient>
<linearGradient id="paint10_linear" x1="427.574" y1="262.649" x2="385.944" y2="232.858" gradientUnits="userSpaceOnUse">
<stop stop-color="#283F6C"/>
<stop offset="0.518928" stop-color="#314A7B"/>
<stop offset="1" stop-color="#223762"/>
</linearGradient>
<linearGradient id="paint11_linear" x1="427.476" y1="236.04" x2="385.846" y2="206.249" gradientUnits="userSpaceOnUse">
<stop stop-color="#283F6C"/>
<stop offset="0.518928" stop-color="#314A7B"/>
<stop offset="1" stop-color="#223762"/>
</linearGradient>
<linearGradient id="paint12_linear" x1="487.759" y1="180" x2="496.22" y2="68.6673" gradientUnits="userSpaceOnUse">
<stop stop-color="#142547"/>
<stop offset="1" stop-color="#223762"/>
</linearGradient>
<linearGradient id="paint13_linear" x1="184.231" y1="291.354" x2="159.817" y2="310.265" gradientUnits="userSpaceOnUse">
<stop stop-color="#FF6B67"/>
<stop offset="1" stop-color="#F05971"/>
</linearGradient>
<linearGradient id="paint14_linear" x1="108.179" y1="384.639" x2="114.986" y2="374.161" gradientUnits="userSpaceOnUse">
<stop stop-color="#70B8F9"/>
<stop offset="1" stop-color="#3D82F0"/>
</linearGradient>
<linearGradient id="paint15_linear" x1="110.201" y1="490.726" x2="118.091" y2="477.682" gradientUnits="userSpaceOnUse">
<stop stop-color="#47689B"/>
<stop offset="1" stop-color="#223762"/>
</linearGradient>
<linearGradient id="paint16_linear" x1="160.311" y1="496.286" x2="167.808" y2="482.565" gradientUnits="userSpaceOnUse">
<stop stop-color="#47689B"/>
<stop offset="1" stop-color="#223762"/>
</linearGradient>
<linearGradient id="paint17_linear" x1="139.669" y1="501.213" x2="179.627" y2="410.336" gradientUnits="userSpaceOnUse">
<stop stop-color="#CFDDF3"/>
<stop offset="1" stop-color="#A1B8E3"/>
</linearGradient>
<linearGradient id="paint18_linear" x1="158.53" y1="395.717" x2="158.097" y2="388.055" gradientUnits="userSpaceOnUse">
<stop stop-color="#CFDDF3" stop-opacity="0.477723"/>
<stop offset="1" stop-color="#A1B8E3"/>
</linearGradient>
<linearGradient id="paint19_linear" x1="137.293" y1="294.048" x2="122.748" y2="303.859" gradientUnits="userSpaceOnUse">
<stop stop-color="#70B8F9"/>
<stop offset="1" stop-color="#3D82F0"/>
</linearGradient>
<linearGradient id="paint20_linear" x1="111.377" y1="293.908" x2="124.405" y2="311.085" gradientUnits="userSpaceOnUse">
<stop stop-color="#164898"/>
<stop offset="1" stop-color="#223762"/>
</linearGradient>
<linearGradient id="paint21_linear" x1="98.5486" y1="361.35" x2="111.625" y2="359.632" gradientUnits="userSpaceOnUse">
<stop stop-color="#EDF3FD"/>
<stop offset="1" stop-color="#D6E3FA"/>
</linearGradient>
<linearGradient id="paint22_linear" x1="147.306" y1="375.839" x2="155.994" y2="370.3" gradientUnits="userSpaceOnUse">
<stop stop-color="#CFDDF3"/>
<stop offset="1" stop-color="#A1B8E3"/>
</linearGradient>
<linearGradient id="paint23_linear" x1="164.653" y1="336.796" x2="164.533" y2="328.641" gradientUnits="userSpaceOnUse">
<stop stop-color="#CFDDF3"/>
<stop offset="1" stop-color="#A1B8E3"/>
</linearGradient>
<linearGradient id="paint24_linear" x1="212.214" y1="381.468" x2="194.492" y2="310.388" gradientUnits="userSpaceOnUse">
<stop stop-color="#70B8F9"/>
<stop offset="1" stop-color="#3D82F0"/>
</linearGradient>
<linearGradient id="paint25_linear" x1="129.142" y1="340.597" x2="137.779" y2="358.305" gradientUnits="userSpaceOnUse">
<stop stop-color="#D6E3FA"/>
<stop offset="1" stop-color="#E3EDFE"/>
</linearGradient>
<linearGradient id="paint26_linear" x1="189.055" y1="464.354" x2="185.77" y2="549.298" gradientUnits="userSpaceOnUse">
<stop stop-color="#9CB4E0"/>
<stop offset="1" stop-color="white" stop-opacity="0.01"/>
</linearGradient>
<linearGradient id="paint27_linear" x1="316.229" y1="395.33" x2="296.339" y2="418.546" gradientUnits="userSpaceOnUse">
<stop stop-color="#FF6B67"/>
<stop offset="1" stop-color="#F05971"/>
</linearGradient>
<linearGradient id="paint28_linear" x1="400.866" y1="427.15" x2="376.584" y2="445.724" gradientUnits="userSpaceOnUse">
<stop stop-color="#FF6B67"/>
<stop offset="1" stop-color="#F05971"/>
</linearGradient>
<linearGradient id="paint29_linear" x1="358.141" y1="422.573" x2="333.86" y2="441.147" gradientUnits="userSpaceOnUse">
<stop stop-color="#FF6B67"/>
<stop offset="1" stop-color="#F05971"/>
</linearGradient>
<linearGradient id="paint30_linear" x1="418.186" y1="413.049" x2="390.348" y2="425.684" gradientUnits="userSpaceOnUse">
<stop stop-color="#FF6B67"/>
<stop offset="1" stop-color="#F05971"/>
</linearGradient>
<linearGradient id="paint31_linear" x1="348.216" y1="397.536" x2="319.955" y2="409.192" gradientUnits="userSpaceOnUse">
<stop stop-color="#FF6B67"/>
<stop offset="1" stop-color="#F05971"/>
</linearGradient>
<linearGradient id="paint32_linear" x1="343.146" y1="411.192" x2="322.458" y2="433.7" gradientUnits="userSpaceOnUse">
<stop stop-color="#FF6B67"/>
<stop offset="1" stop-color="#F05971"/>
</linearGradient>
<linearGradient id="paint33_linear" x1="338.722" y1="394.991" x2="369.265" y2="393.704" gradientUnits="userSpaceOnUse">
<stop stop-color="#FF6B67"/>
<stop offset="1" stop-color="#F05971"/>
</linearGradient>
<linearGradient id="paint34_linear" x1="373.609" y1="404.099" x2="349.006" y2="422.246" gradientUnits="userSpaceOnUse">
<stop stop-color="#FF6B67"/>
<stop offset="1" stop-color="#F05971"/>
</linearGradient>
<linearGradient id="paint35_linear" x1="374.147" y1="421.938" x2="348.629" y2="438.773" gradientUnits="userSpaceOnUse">
<stop stop-color="#FF6B67"/>
<stop offset="1" stop-color="#F05971"/>
</linearGradient>
<linearGradient id="paint36_linear" x1="387.913" y1="398.265" x2="373.284" y2="425.109" gradientUnits="userSpaceOnUse">
<stop stop-color="#FF6B67"/>
<stop offset="1" stop-color="#F05971"/>
</linearGradient>
<linearGradient id="paint37_linear" x1="254.949" y1="435.568" x2="323.95" y2="497.771" gradientUnits="userSpaceOnUse">
<stop stop-color="#85A6DB"/>
<stop offset="1" stop-color="#C6D4EE"/>
</linearGradient>
<linearGradient id="paint38_linear" x1="428.559" y1="468.433" x2="369.17" y2="528.241" gradientUnits="userSpaceOnUse">
<stop stop-color="#EDF3FD"/>
<stop offset="1" stop-color="#D0DAEA"/>
</linearGradient>
<linearGradient id="paint39_linear" x1="399.368" y1="438.076" x2="369.891" y2="472.296" gradientUnits="userSpaceOnUse">
<stop stop-color="#B4C9E7"/>
<stop offset="1" stop-color="#BECFEC" stop-opacity="0.101789"/>
</linearGradient>
<linearGradient id="paint40_linear" x1="255.819" y1="412.618" x2="255.819" y2="468.057" gradientUnits="userSpaceOnUse">
<stop stop-color="#EDF3FD"/>
<stop offset="1" stop-color="#D6E3FA"/>
</linearGradient>
<linearGradient id="paint41_linear" x1="460.122" y1="424.987" x2="453.514" y2="490.188" gradientUnits="userSpaceOnUse">
<stop stop-color="#E5ECF8"/>
<stop offset="1" stop-color="#C6D4EE"/>
</linearGradient>
<linearGradient id="paint42_linear" x1="142.331" y1="264.561" x2="144.449" y2="242.359" gradientUnits="userSpaceOnUse">
<stop stop-color="#D9E5F6" stop-opacity="0.01"/>
<stop offset="1" stop-color="#B2C6EA"/>
</linearGradient>
<linearGradient id="paint43_linear" x1="158.749" y1="247.104" x2="132.023" y2="229.097" gradientUnits="userSpaceOnUse">
<stop stop-color="#ACC5E9"/>
<stop offset="0.627469" stop-color="#D3E3FB"/>
<stop offset="1" stop-color="#EAF2FF"/>
</linearGradient>
<linearGradient id="paint44_linear" x1="112.323" y1="225.522" x2="111.381" y2="240.618" gradientUnits="userSpaceOnUse">
<stop stop-color="#86A8D9"/>
<stop offset="1" stop-color="#BCD0F2"/>
</linearGradient>
<linearGradient id="paint45_linear" x1="106.411" y1="189.508" x2="138.087" y2="222.674" gradientUnits="userSpaceOnUse">
<stop stop-color="#B1FFBE"/>
<stop offset="0.444207" stop-color="#5CDB8E"/>
<stop offset="1" stop-color="#149654"/>
</linearGradient>
<linearGradient id="paint46_linear" x1="105.951" y1="199.582" x2="110.505" y2="234.778" gradientUnits="userSpaceOnUse">
<stop stop-color="#B1FFBE"/>
<stop offset="0.444207" stop-color="#5CDB8E"/>
<stop offset="1" stop-color="#149654"/>
</linearGradient>
<linearGradient id="paint47_linear" x1="126.139" y1="208.404" x2="146.998" y2="241.142" gradientUnits="userSpaceOnUse">
<stop stop-color="#B1FFBE"/>
<stop offset="0.444207" stop-color="#5CDB8E"/>
<stop offset="1" stop-color="#149654"/>
</linearGradient>
<linearGradient id="paint48_linear" x1="271.938" y1="37.4179" x2="163.044" y2="65.3037" gradientUnits="userSpaceOnUse">
<stop stop-color="#47689B"/>
<stop offset="1" stop-color="#223762"/>
</linearGradient>
<linearGradient id="paint49_linear" x1="304.699" y1="184.186" x2="298.912" y2="165.611" gradientUnits="userSpaceOnUse">
<stop stop-color="#667FA7"/>
<stop offset="1" stop-color="#3D5586"/>
</linearGradient>
<linearGradient id="paint50_linear" x1="299.796" y1="210.041" x2="292.759" y2="188.954" gradientUnits="userSpaceOnUse">
<stop stop-color="#667FA7"/>
<stop offset="1" stop-color="#3D5586"/>
</linearGradient>
<linearGradient id="paint51_linear" x1="292.436" y1="235.925" x2="284.184" y2="213.487" gradientUnits="userSpaceOnUse">
<stop stop-color="#667FA7"/>
<stop offset="1" stop-color="#3D5586"/>
</linearGradient>
<linearGradient id="paint52_linear" x1="290.287" y1="261.27" x2="280.989" y2="236.187" gradientUnits="userSpaceOnUse">
<stop stop-color="#667FA7"/>
<stop offset="1" stop-color="#3D5586"/>
</linearGradient>
<linearGradient id="paint53_linear" x1="285.538" y1="287.167" x2="274.697" y2="259.783" gradientUnits="userSpaceOnUse">
<stop stop-color="#667FA7"/>
<stop offset="1" stop-color="#3D5586"/>
</linearGradient>
<linearGradient id="paint54_linear" x1="305.429" y1="31.3604" x2="215.236" y2="47.9449" gradientUnits="userSpaceOnUse">
<stop stop-color="#47689B"/>
<stop offset="1" stop-color="#223762"/>
</linearGradient>
<linearGradient id="paint55_linear" x1="288.428" y1="31.3497" x2="278.204" y2="25.4391" gradientUnits="userSpaceOnUse">
<stop stop-color="#004EC0"/>
<stop offset="1" stop-color="#3D82F0"/>
</linearGradient>
<linearGradient id="paint56_linear" x1="260.133" y1="30.1542" x2="284.25" y2="35.4522" gradientUnits="userSpaceOnUse">
<stop stop-color="#70B8F9"/>
<stop offset="1" stop-color="#3D82F0"/>
</linearGradient>
<linearGradient id="paint57_linear" x1="270.324" y1="122.655" x2="308.213" y2="95.9391" gradientUnits="userSpaceOnUse">
<stop stop-color="#CFDDF3"/>
<stop offset="1" stop-color="#A1B8E3"/>
</linearGradient>
<linearGradient id="paint58_linear" x1="312.85" y1="63.9728" x2="311.816" y2="29.22" gradientUnits="userSpaceOnUse">
<stop stop-color="white"/>
<stop offset="1" stop-color="#D6E3FA"/>
</linearGradient>
<linearGradient id="paint59_linear" x1="421.996" y1="68.5335" x2="398.735" y2="-2.3444" gradientUnits="userSpaceOnUse">
<stop stop-color="#FFE883"/>
<stop offset="1" stop-color="#FECC4C"/>
</linearGradient>
<linearGradient id="paint60_linear" x1="462.756" y1="150.97" x2="463.341" y2="93.1826" gradientUnits="userSpaceOnUse">
<stop stop-color="#EDF3FD"/>
<stop offset="1" stop-color="#D6E3FA"/>
</linearGradient>
<linearGradient id="paint61_linear" x1="411.892" y1="131.03" x2="410.604" y2="98.7281" gradientUnits="userSpaceOnUse">
<stop stop-color="#CFDDF3"/>
<stop offset="1" stop-color="#A1B8E3"/>
</linearGradient>
<linearGradient id="paint62_linear" x1="420.246" y1="141.163" x2="420.971" y2="118.33" gradientUnits="userSpaceOnUse">
<stop stop-color="#CFDDF3"/>
<stop offset="1" stop-color="#A1B8E3"/>
</linearGradient>
<linearGradient id="paint63_linear" x1="344.753" y1="145.272" x2="343.464" y2="112.969" gradientUnits="userSpaceOnUse">
<stop stop-color="#CFDDF3"/>
<stop offset="1" stop-color="#A1B8E3"/>
</linearGradient>
</defs>
</svg>
