<svg width="777" height="548" viewBox="0 0 777 548" fill="none" xmlns="http://www.w3.org/2000/svg">
<g opacity="0.5" filter="url(#filter0_i)">
<path fill-rule="evenodd" clip-rule="evenodd" d="M251.906 145.699C251.32 128.901 207.552 132.687 190.668 134.308C173.784 135.928 172.251 112.916 186.818 109.495C201.385 106.075 227.802 107.84 241.489 104.682C255.176 101.525 237.863 84.5906 256.512 82.5494C275.161 80.5084 313.724 82.3981 325.22 81.9835C343.277 81.3322 352.542 103.071 320.906 104.057C312.182 104.329 310.432 123.641 339.88 118.337C358.359 115.008 394.617 114.931 402.16 123.43C406.487 128.306 404.988 141.408 397.548 148.642C392.021 154.016 374.445 155.064 367.559 156.306C351.406 159.221 354.599 174.862 360.107 178.082C373.141 185.703 408.913 171.32 409.872 192.247C410.296 201.494 377.748 202.987 364.402 202.874C331.67 202.597 310.164 205.513 308.655 194.347C307.14 183.138 328.995 190.704 327.917 176.924C327.354 169.723 328.863 154.422 314.842 155.225C334.038 154.125 252.697 168.387 251.906 145.699Z" fill="url(#paint0_linear)"/>
</g>
<g opacity="0.5" filter="url(#filter1_i)">
<path fill-rule="evenodd" clip-rule="evenodd" d="M450.768 80.0907C450.811 63.2822 406.932 65.4274 389.999 66.4145C373.066 67.4018 372.396 44.3481 387.081 41.4753C401.767 38.6024 428.099 41.3556 441.894 38.7127C455.69 36.0699 439.023 18.4992 457.735 17.1578C476.448 15.8164 514.912 19.1487 526.416 19.1648C544.485 19.19 552.929 41.2603 521.279 41.0615C512.551 41.0067 510.078 60.2397 539.704 56.0413C558.296 53.4066 594.531 54.6873 601.75 63.463C605.892 68.4981 603.903 81.5339 596.197 88.4847C590.473 93.6484 572.87 94.0373 565.943 95.021C549.692 97.3286 552.297 113.078 557.681 116.502C570.42 124.606 606.706 111.573 606.88 132.52C606.958 141.777 574.376 142.05 561.044 141.437C528.346 139.935 506.746 142.044 505.655 130.83C504.561 119.572 526.117 127.95 525.557 114.14C525.263 106.923 527.344 91.6886 513.303 91.9662C532.527 91.5862 450.709 102.792 450.768 80.0907Z" fill="url(#paint1_linear)"/>
</g>
<path fill-rule="evenodd" clip-rule="evenodd" d="M766.5 376.152C735.91 304.27 646.791 332.878 571.198 332.878C495.604 332.878 401.897 382.192 341.424 387.788C280.952 393.384 125.395 397.26 125.395 397.26V472.423L738.5 468.5C738.5 468.5 781.222 410.746 766.5 376.152Z" fill="url(#paint2_linear)"/>
<path d="M572.45 376.532C572.45 354.24 591.084 285.255 616.236 247.508" stroke="url(#paint3_linear)" stroke-width="2.67499" stroke-linecap="round"/>
<ellipse cx="594.446" cy="240.436" rx="6.46455" ry="20.2853" transform="rotate(-30 594.446 240.436)" fill="url(#paint4_linear)"/>
<ellipse cx="631.304" cy="261.133" rx="6.46455" ry="20.2853" transform="rotate(88 631.304 261.133)" fill="url(#paint5_linear)"/>
<ellipse cx="619.266" cy="290.559" rx="6.46455" ry="20.2853" transform="rotate(91 619.266 290.559)" fill="url(#paint6_linear)"/>
<ellipse cx="609.458" cy="319.093" rx="6.46455" ry="20.2853" transform="rotate(91 609.458 319.093)" fill="url(#paint7_linear)"/>
<ellipse cx="629.414" cy="226.245" rx="6.46455" ry="20.2853" transform="rotate(33 629.414 226.245)" fill="url(#paint8_linear)"/>
<ellipse cx="578.408" cy="271.564" rx="6.46455" ry="20.2853" transform="rotate(-41 578.408 271.564)" fill="url(#paint9_linear)"/>
<ellipse cx="566.371" cy="302.773" rx="6.46455" ry="20.2853" transform="rotate(-47 566.371 302.773)" fill="url(#paint10_linear)"/>
<g opacity="0.3">
<path fill-rule="evenodd" clip-rule="evenodd" d="M165.48 334.946C160.882 339.013 143.396 330.878 136.464 318.251C129.531 305.625 142.391 301.13 124.899 280.935C107.406 260.74 96.1823 253.005 106.798 219.717C117.413 186.429 102.748 167.929 122.125 159.245C141.502 150.56 152.662 179.383 150.439 204.737C148.216 230.09 152.762 235.344 171.716 232.717C190.669 230.09 174.69 267.311 174.69 275.435C174.69 283.56 186.182 298.65 183.798 310.003C181.414 321.357 170.078 330.878 165.48 334.946Z" fill="url(#paint11_linear)"/>
<path d="M154.41 299.552C157.817 294.041 164.556 275.626 164.556 262.054" stroke="url(#paint12_linear)" stroke-width="2.67499" stroke-linecap="round"/>
<path d="M141.011 263.166C141.011 256.93 123.503 252.552 114.932 240.72" stroke="url(#paint13_linear)" stroke-width="2.67499" stroke-linecap="round"/>
<path d="M179.933 390.672C178.768 384.892 175.719 362.219 166.871 335.683C152.871 293.695 131.159 238.859 131.159 201.832" stroke="url(#paint14_linear)" stroke-width="2.67499" stroke-linecap="round"/>
</g>
<ellipse opacity="0.084933" cx="564.217" cy="377.906" rx="39.456" ry="2.22915" fill="#8699BF"/>
<path fill-rule="evenodd" clip-rule="evenodd" d="M-71 342.686C-30.3309 329.878 144.767 342.686 235.868 342.686C326.97 342.686 439.901 392 512.779 397.596C585.657 403.192 725.644 317.088 773.125 407.068C798.687 455.51 677.5 547.322 677.5 547.322H-77C-77 547.322 -71 391.778 -71 342.686Z" fill="url(#paint15_linear)"/>
<g opacity="0.3">
<path d="M569.067 377.898C574.233 361.998 576.873 308.454 567.605 275.675" stroke="url(#paint16_linear)" stroke-width="2.00624" stroke-linecap="round"/>
<ellipse rx="4.86904" ry="15.214" transform="matrix(-0.669131 -0.743145 -0.743145 0.669131 584.853 275.702)" fill="url(#paint17_linear)"/>
<ellipse rx="4.86904" ry="15.214" transform="matrix(-0.34202 0.939693 0.939693 0.34202 553.654 281.887)" fill="url(#paint18_linear)"/>
<ellipse rx="4.86904" ry="15.214" transform="matrix(-0.292372 0.956305 0.956305 0.292372 555.457 305.678)" fill="url(#paint19_linear)"/>
<ellipse rx="4.86904" ry="15.214" transform="matrix(-0.292372 0.956305 0.956305 0.292372 555.871 328.314)" fill="url(#paint20_linear)"/>
<ellipse rx="4.86904" ry="15.214" transform="matrix(-0.965926 0.258819 0.258819 0.965926 563.092 257.441)" fill="url(#paint21_linear)"/>
<ellipse rx="4.86904" ry="15.214" transform="matrix(-0.515038 -0.857167 -0.857167 0.515038 589.127 301.638)" fill="url(#paint22_linear)"/>
<ellipse rx="4.86904" ry="15.214" transform="matrix(-0.422618 -0.906308 -0.906308 0.422618 590.517 326.701)" fill="url(#paint23_linear)"/>
</g>
<path fill-rule="evenodd" clip-rule="evenodd" d="M204.639 375.58C203.157 374.666 168.117 359.366 171.352 356.093C174.588 352.82 190.37 352.82 190.37 352.82C190.37 352.82 206.12 376.494 204.639 375.58Z" fill="url(#paint24_linear)" style="mix-blend-mode:multiply"/>
<g filter="url(#filter2_i)">
<path fill-rule="evenodd" clip-rule="evenodd" d="M200.897 349.315C188.447 346.051 151.719 330.271 162.459 311.802C173.199 293.333 183.939 288.015 173.199 279.574C162.459 271.134 170.089 252.361 180.707 244.634C191.324 236.908 166.181 213.891 177.699 201.712C189.217 189.534 226.035 208.347 226.887 231.374C227.74 254.402 236.306 252.808 240.659 263.205C245.013 273.602 214.855 289.208 219.262 300.505C223.669 311.802 249.374 323.583 234.318 338.802C219.262 354.02 213.347 352.579 200.897 349.315Z" fill="url(#paint25_radial)"/>
</g>
<path fill-rule="evenodd" clip-rule="evenodd" d="M204.208 373.448C205.661 347.408 178.814 336.549 197.909 299.891C217.004 263.234 203.736 231.581 197.909 219.528" fill="black" fill-opacity="0.01"/>
<path d="M204.208 373.448C205.661 347.408 178.814 336.549 197.909 299.891C217.004 263.234 203.736 231.581 197.909 219.528" stroke="url(#paint26_linear)" stroke-width="2.67499" stroke-linecap="round" stroke-linejoin="round"/>
<g opacity="0.3">
<path fill-rule="evenodd" clip-rule="evenodd" d="M202.425 283.836C199.097 282.252 192.972 277.791 189.941 270.907L202.425 283.836Z" fill="black" fill-opacity="0.01"/>
<path d="M202.425 283.836C199.097 282.252 192.972 277.791 189.941 270.907" stroke="url(#paint27_linear)" stroke-width="2.22915" stroke-linecap="round" stroke-linejoin="round"/>
</g>
<g opacity="0.3">
<path fill-rule="evenodd" clip-rule="evenodd" d="M192.17 331.094C186.999 328.953 176.424 323.076 175.674 314.152L192.17 331.094Z" fill="black" fill-opacity="0.01"/>
<path d="M192.17 331.094C186.999 328.953 176.424 323.076 175.674 314.152" stroke="url(#paint28_linear)" stroke-width="2.22915" stroke-linecap="round" stroke-linejoin="round"/>
</g>
<g opacity="0.3">
<path fill-rule="evenodd" clip-rule="evenodd" d="M193.953 309.249C198.607 310.559 205.51 309.367 211.341 300.778L193.953 309.249Z" fill="black" fill-opacity="0.01"/>
<path d="M193.953 309.249C198.607 310.559 205.51 309.367 211.341 300.778" stroke="url(#paint29_linear)" stroke-width="2.22915" stroke-linecap="round" stroke-linejoin="round"/>
</g>
<g opacity="0.3">
<path fill-rule="evenodd" clip-rule="evenodd" d="M206.883 242.819C209.915 240.428 215.812 230.986 215.354 222.757L206.883 242.819Z" fill="black" fill-opacity="0.01"/>
<path d="M206.883 242.819C209.915 240.428 215.812 230.986 215.354 222.757" stroke="url(#paint30_linear)" stroke-width="2.22915" stroke-linecap="round" stroke-linejoin="round"/>
</g>
<path opacity="0.5" fill-rule="evenodd" clip-rule="evenodd" d="M183.7 441.829L320.994 388.606H511.386L409.522 456.819" fill="url(#paint31_linear)"/>
<ellipse cx="421.773" cy="389.498" rx="90.9495" ry="7.1333" fill="#8699BF"/>
<rect x="329.485" y="19.0127" width="201.961" height="372.715" rx="31.2082" fill="url(#paint32_linear)"/>
<rect x="312.991" y="19.0127" width="201.961" height="372.715" rx="31.2082" fill="url(#paint33_linear)"/>
<rect x="361.141" y="43.0874" width="106.108" height="6.68746" rx="3.34373" fill="url(#paint34_linear)"/>
<circle cx="413.748" cy="364.978" r="18.7249" fill="url(#paint35_linear)"/>
<g filter="url(#filter3_d)">
<rect x="321.461" y="72.5127" width="185.466" height="265.715" rx="5.34997" fill="white"/>
</g>
<mask id="mask0" mask-type="alpha" maskUnits="userSpaceOnUse" x="321" y="72" width="186" height="267">
<rect x="321.461" y="72.5127" width="185.466" height="265.715" rx="5.34997" fill="white"/>
</mask>
<g mask="url(#mask0)">
<g opacity="0.6">
<rect x="330.377" y="276.258" width="167.632" height="50.8247" rx="8.91662" fill="url(#paint36_linear)"/>
<circle cx="355.79" cy="301.67" r="18.7249" fill="#A1B8E3"/>
<rect x="381.203" y="285.174" width="103.879" height="7.57913" rx="3.78956" fill="#A1B8E3"/>
<rect x="381.203" y="297.657" width="79.3579" height="7.57913" rx="3.78956" fill="#A1B8E3"/>
<rect opacity="0.5" x="381.203" y="312.816" width="29.4248" height="5.34997" rx="2.67499" fill="#A1B8E3"/>
</g>
<g opacity="0.6">
<rect x="330.377" y="214.733" width="167.632" height="50.8247" rx="8.91662" fill="url(#paint37_linear)"/>
<circle cx="355.79" cy="240.145" r="18.7249" fill="#A1B8E3"/>
<rect x="381.203" y="223.649" width="103.879" height="7.57913" rx="3.78956" fill="#A1B8E3"/>
<rect x="381.203" y="236.133" width="79.3579" height="7.57913" rx="3.78956" fill="#A1B8E3"/>
<rect opacity="0.5" x="381.203" y="251.291" width="29.4248" height="5.34997" rx="2.67499" fill="#A1B8E3"/>
</g>
<g opacity="0.6">
<rect x="330.377" y="86.3335" width="167.632" height="50.8247" rx="8.91662" fill="url(#paint38_linear)"/>
<circle cx="355.79" cy="111.746" r="18.7249" fill="#A1B8E3"/>
<rect x="381.203" y="95.25" width="103.879" height="7.57913" rx="3.78956" fill="#A1B8E3"/>
<rect x="381.203" y="107.733" width="79.3579" height="7.57913" rx="3.78956" fill="#A1B8E3"/>
<rect opacity="0.5" x="381.203" y="122.892" width="29.4248" height="5.34997" rx="2.67499" fill="#A1B8E3"/>
</g>
</g>
<g filter="url(#filter4_d)">
<rect x="303.628" y="146.521" width="167.632" height="50.8247" rx="8.91662" fill="url(#paint39_linear)"/>
<circle cx="329.04" cy="171.933" r="18.7249" fill="#FFB417"/>
<rect x="354.453" y="155.438" width="103.879" height="7.57913" rx="3.78956" fill="#FFB417"/>
<rect x="354.453" y="167.921" width="79.3579" height="7.57913" rx="3.78956" fill="#FFB417"/>
<rect opacity="0.5" x="354.453" y="183.079" width="29.4248" height="5.34997" rx="2.67499" fill="#FFB417"/>
</g>
<path opacity="0.5" fill-rule="evenodd" clip-rule="evenodd" d="M190.501 486.671L371.381 475.063C367.191 478.794 361.966 481.162 356.398 481.853L224.064 498.279" fill="url(#paint40_linear)"/>
<path opacity="0.5" fill-rule="evenodd" clip-rule="evenodd" d="M114.555 469.163H293.038C289.98 472.025 285.992 473.688 281.807 473.845L157.907 478.5" fill="url(#paint41_linear)"/>
<path fill-rule="evenodd" clip-rule="evenodd" d="M247.054 277.826C247.054 285.793 240.492 301.405 249.049 305.453C257.606 309.501 265.173 288.478 265.173 288.478C265.173 288.478 264.521 273.04 256.785 273.04C249.049 273.04 247.054 269.859 247.054 277.826Z" fill="url(#paint42_linear)"/>
<mask id="mask1" mask-type="alpha" maskUnits="userSpaceOnUse" x="244" y="272" width="22" height="34">
<path fill-rule="evenodd" clip-rule="evenodd" d="M247.054 277.826C247.054 285.793 240.492 301.405 249.049 305.453C257.606 309.501 265.173 288.478 265.173 288.478C265.173 288.478 264.521 273.04 256.785 273.04C249.049 273.04 247.054 269.859 247.054 277.826Z" fill="white"/>
</mask>
<g mask="url(#mask1)">
<g opacity="0.5">
<path fill-rule="evenodd" clip-rule="evenodd" d="M246.562 281.393C247.252 282.796 256.656 290.214 258.211 291.968C259.766 293.722 260.122 298.307 261.014 297.833C261.907 297.36 261.014 283.911 261.014 283.911C261.014 283.911 245.872 279.991 246.562 281.393Z" fill="#3D82F0" style="mix-blend-mode:multiply"/>
</g>
</g>
<path fill-rule="evenodd" clip-rule="evenodd" d="M262.359 458.466C262.215 462.58 260.973 467.685 261.964 469.765C262.956 471.846 268.187 473.104 269.925 473.165C271.663 473.226 272.347 470.315 274.994 471.917C277.64 473.519 293.028 473.972 294.241 467.888C295.455 461.804 287.655 461.531 284.186 461.41C280.717 461.289 277.102 459.471 272.105 454.905C267.107 450.338 262.503 454.351 262.359 458.466Z" fill="url(#paint43_linear)"/>
<path d="M281.726 464.423C282.641 462.372 280.147 460 279.513 459.922" stroke="white" stroke-width="0.891662" stroke-linecap="round"/>
<path d="M285.906 464.37C286.207 461.92 284.48 461.061 283.79 460.977" stroke="white" stroke-width="0.891662" stroke-linecap="round"/>
<path fill-rule="evenodd" clip-rule="evenodd" d="M339.439 467.124C339.798 471.225 339.186 476.443 340.424 478.387C341.662 480.331 347.007 480.942 348.74 480.791C350.472 480.639 350.796 477.667 353.619 478.935C356.441 480.202 371.769 478.776 372.232 472.59C372.694 466.403 364.92 467.083 361.462 467.386C358.004 467.688 354.195 466.325 348.678 462.401C343.161 458.478 339.08 463.022 339.439 467.124Z" fill="url(#paint44_linear)"/>
<path d="M359.387 470.676C360.046 468.528 357.281 466.478 356.643 466.478" stroke="white" stroke-width="0.891662" stroke-linecap="round"/>
<path d="M363.528 470.113C363.528 467.645 361.71 467.003 361.014 467.003" stroke="white" stroke-width="0.891662" stroke-linecap="round"/>
<path fill-rule="evenodd" clip-rule="evenodd" d="M325.463 319.758C325.463 319.758 342.27 381.337 344.458 395.349C346.646 409.361 352.001 456.724 351.245 464.362C347.588 468.091 340.999 465.858 339.851 465.174C338.703 464.49 331.632 425.522 325.463 410.405C319.294 395.289 305.412 381.376 296.264 366.167C296.264 376.066 289.201 402.557 289.201 402.557C289.201 402.557 278.901 449.34 275.396 456.913C273.733 459.599 265.337 457.629 262.08 456.913C262.08 449.817 269.102 413.97 269.102 401.525C269.102 389.08 267.16 366.527 266.434 357.282C265.709 348.036 263.936 330.099 266.434 319.758C272.767 319.758 325.463 319.758 325.463 319.758Z" fill="url(#paint45_linear)"/>
<mask id="mask2" mask-type="alpha" maskUnits="userSpaceOnUse" x="262" y="319" width="90" height="148">
<path fill-rule="evenodd" clip-rule="evenodd" d="M325.463 319.758C325.463 319.758 342.27 381.337 344.458 395.349C346.646 409.361 352.001 456.724 351.245 464.362C347.588 468.091 340.999 465.858 339.851 465.174C338.703 464.49 331.632 425.522 325.463 410.405C319.294 395.289 305.412 381.376 296.264 366.167C296.264 376.066 289.201 402.557 289.201 402.557C289.201 402.557 278.901 449.34 275.396 456.913C273.733 459.599 265.337 457.629 262.08 456.913C262.08 449.817 269.102 413.97 269.102 401.525C269.102 389.08 267.16 366.527 266.434 357.282C265.709 348.036 263.936 330.099 266.434 319.758C272.767 319.758 325.463 319.758 325.463 319.758Z" fill="white"/>
</mask>
<g mask="url(#mask2)">
<g opacity="0.5">
<path fill-rule="evenodd" clip-rule="evenodd" d="M287.399 409.748C287.399 403.721 290.505 354.469 291.218 356.49C291.932 358.511 297.488 369.426 297.488 369.426C297.488 369.426 287.399 415.776 287.399 409.748Z" fill="#A1B8E3" style="mix-blend-mode:multiply"/>
</g>
<path d="M291.388 356.518C292.257 360.166 295.606 365.235 297.152 368.257" stroke="white" stroke-width="0.891662" stroke-linecap="round"/>
<g opacity="0.5">
<path fill-rule="evenodd" clip-rule="evenodd" d="M270.322 330.045C274.251 332.158 289.636 341.152 309.461 337.548C319.256 335.767 325.557 333.436 328.383 330.045C328.383 328.375 326.008 321.349 325.344 318.661C324.681 315.973 265.511 327.458 270.322 330.045Z" fill="url(#paint46_linear)" style="mix-blend-mode:multiply"/>
</g>
</g>
<path fill-rule="evenodd" clip-rule="evenodd" d="M295.736 188.859C295.736 188.859 298.007 193.259 301.853 195.126C305.7 196.994 307.622 197.908 307.622 197.908L305.987 204.251C305.987 204.251 309.035 213.579 307.622 216.723C306.21 219.868 301.853 221.957 299.318 224.761C296.782 227.565 294.438 237.077 294.438 237.077H277.727L276.97 224.761C276.97 224.761 272.513 206.99 280.075 197.908C287.636 188.826 295.736 188.859 295.736 188.859Z" fill="url(#paint47_linear)"/>
<mask id="mask3" mask-type="alpha" maskUnits="userSpaceOnUse" x="275" y="188" width="33" height="50">
<path fill-rule="evenodd" clip-rule="evenodd" d="M295.736 188.859C295.736 188.859 298.007 193.259 301.853 195.126C305.7 196.994 307.622 197.908 307.622 197.908L305.987 204.251C305.987 204.251 309.035 213.579 307.622 216.723C306.21 219.868 301.853 221.957 299.318 224.761C296.782 227.565 294.438 237.077 294.438 237.077H277.727L276.97 224.761C276.97 224.761 272.513 206.99 280.075 197.908C287.636 188.826 295.736 188.859 295.736 188.859Z" fill="white"/>
</mask>
<g mask="url(#mask3)">
<g opacity="0.5">
<path fill-rule="evenodd" clip-rule="evenodd" d="M301.401 223.087C297.182 223.087 290.602 219.351 289.335 218.075C288.069 216.799 299.881 230.605 298.895 232.803C298.117 234.538 295.34 235.069 297.092 235.069C303.408 235.069 305.619 223.087 301.401 223.087Z" fill="#3D82F0" style="mix-blend-mode:multiply"/>
</g>
</g>
<path fill-rule="evenodd" clip-rule="evenodd" d="M276.972 224.242C262.237 210.47 250.57 198.717 260.632 182.339C270.694 165.962 294.107 160.457 298.483 180.365C298.483 188.907 292.176 193.47 292.176 193.47C292.176 193.47 290.996 195.871 294.107 198.418C297.217 200.965 294.107 203.069 294.107 203.069C294.107 203.069 287.964 199.119 286.36 204.38C284.756 209.641 290.677 211.525 290.677 212.842C292.718 217.681 288.506 222.108 288.506 222.108C288.506 222.108 286.349 224.242 276.972 224.242Z" fill="url(#paint48_linear)"/>
<path fill-rule="evenodd" clip-rule="evenodd" d="M261.773 242.82C261.773 242.82 246 270.489 244.097 276.578C242.194 282.666 261.773 286.188 261.773 286.188L269.944 251.382L261.773 242.82Z" fill="url(#paint49_linear)"/>
<path fill-rule="evenodd" clip-rule="evenodd" d="M295.847 233.294C295.847 233.294 307.727 236.429 314.727 244.713C321.727 252.997 320.167 277.92 322.15 292.753C324.132 307.586 332.76 318.368 319.434 326.739C306.108 335.11 268.431 333.209 265.35 326.739C262.269 320.269 258.757 280.504 258.757 280.504C258.757 280.504 258.757 244.713 262.965 241.696C267.174 238.679 276.999 232.849 276.999 232.849C276.999 232.849 276.779 233.736 281.518 234.615C286.257 235.494 295.847 233.294 295.847 233.294Z" fill="#D6E3FA"/>
<mask id="mask4" mask-type="alpha" maskUnits="userSpaceOnUse" x="258" y="232" width="69" height="101">
<path fill-rule="evenodd" clip-rule="evenodd" d="M295.847 233.294C295.847 233.294 307.727 236.429 314.727 244.713C321.727 252.997 320.167 277.92 322.15 292.753C324.132 307.586 332.76 318.368 319.434 326.739C306.108 335.11 268.431 333.209 265.35 326.739C262.269 320.269 258.757 280.504 258.757 280.504C258.757 280.504 258.757 244.713 262.965 241.696C267.174 238.679 276.999 232.849 276.999 232.849C276.999 232.849 276.779 233.736 281.518 234.615C286.257 235.494 295.847 233.294 295.847 233.294Z" fill="white"/>
</mask>
<g mask="url(#mask4)">
<path opacity="0.5" fill-rule="evenodd" clip-rule="evenodd" d="M305.715 261.606C305.715 261.606 312.123 291.558 315.979 297.172C319.834 302.786 322.342 319.775 325.428 321.8C328.514 323.826 332.948 300.652 330.731 292.717C328.514 284.783 318.522 265.348 318.522 265.348L305.715 261.606Z" fill="url(#paint50_linear)"/>
<path opacity="0.5" fill-rule="evenodd" clip-rule="evenodd" d="M279.822 234.901C282.674 236.793 290.105 237.816 296.351 237.816C302.597 237.816 304.55 237.883 307.539 236.973C310.527 236.063 309.369 234.901 307.539 234.901C305.709 234.901 300.034 233.567 296.979 233.567C293.924 233.567 276.97 233.009 279.822 234.901Z" fill="url(#paint51_linear)"/>
</g>
<path fill-rule="evenodd" clip-rule="evenodd" d="M276.459 233.294C276.459 233.294 276.092 228.713 276.092 227.235C276.092 225.757 288.396 227.844 297.251 228.672C298.212 232.358 298.042 232.602 298.042 233.294C298.042 233.64 295.83 236.605 283.933 235.643C279.59 235.293 276.459 233.294 276.459 233.294Z" fill="#E1ECFF"/>
<ellipse cx="335.014" cy="263.619" rx="12.0684" ry="4.79398" transform="rotate(-66 335.014 263.619)" fill="#A1B8E3"/>
<path fill-rule="evenodd" clip-rule="evenodd" d="M334.848 250.928L347.291 256.05C347.291 256.05 358.326 226.604 358.996 222.782C359.666 218.961 356.699 213.567 356.219 211.644C355.74 209.722 355.817 205.197 357.157 203.541C358.497 201.885 358.85 202.477 359.851 202.227C360.852 201.978 366.79 189.242 367.464 187.642C368.137 186.041 369.338 185.037 370.559 185.571C371.78 186.104 371.666 187.527 371.184 188.786C370.702 190.045 367.993 197.109 368.299 198.339C368.606 199.569 373.377 201.16 374.709 201.977C376.04 202.793 378.307 205.478 377.174 209.363C376.041 213.248 370.811 220.289 371.184 221.787C371.557 223.285 366.276 248.664 364.596 258.814C362.915 268.964 360.718 276.082 352.139 275.495C343.559 274.907 325.78 265.368 325.78 265.368C325.78 265.368 326.942 257.957 329.163 255.162C331.384 252.366 334.848 250.928 334.848 250.928Z" fill="url(#paint52_linear)"/>
<mask id="mask5" mask-type="alpha" maskUnits="userSpaceOnUse" x="325" y="185" width="53" height="91">
<path fill-rule="evenodd" clip-rule="evenodd" d="M334.848 250.928L347.291 256.05C347.291 256.05 358.326 226.604 358.996 222.782C359.666 218.961 356.699 213.567 356.219 211.644C355.74 209.722 355.817 205.197 357.157 203.541C358.497 201.885 358.85 202.477 359.851 202.227C360.852 201.978 366.79 189.242 367.464 187.642C368.137 186.041 369.338 185.037 370.559 185.571C371.78 186.104 371.666 187.527 371.184 188.786C370.702 190.045 367.993 197.109 368.299 198.339C368.606 199.569 373.377 201.16 374.709 201.977C376.04 202.793 378.307 205.478 377.174 209.363C376.041 213.248 370.811 220.289 371.184 221.787C371.557 223.285 366.276 248.664 364.596 258.814C362.915 268.964 360.718 276.082 352.139 275.495C343.559 274.907 325.78 265.368 325.78 265.368C325.78 265.368 326.942 257.957 329.163 255.162C331.384 252.366 334.848 250.928 334.848 250.928Z" fill="white"/>
</mask>
<g mask="url(#mask5)">
<g opacity="0.5">
<path fill-rule="evenodd" clip-rule="evenodd" d="M338.931 252.291C338.931 252.291 336.294 267.719 337.949 272.258C339.604 276.797 330.527 270.392 330.527 270.392C330.527 270.392 330.704 263.781 332.099 260.776C333.494 257.772 338.931 252.291 338.931 252.291Z" fill="#3D82F0" style="mix-blend-mode:multiply"/>
</g>
<path d="M347.029 255.685C347.73 256.006 349.058 256.507 350.248 258.156" stroke="#223762" stroke-width="0.891662" stroke-linecap="round"/>
</g>
<path fill-rule="evenodd" clip-rule="evenodd" d="M330.38 274.77C331.782 267.758 333.801 258.108 339.412 252.332C319.39 243.698 313.081 240.637 306.786 237.948C300.491 235.259 294.763 252.971 306.786 261.782C318.808 270.592 327.039 273.294 330.38 274.77Z" fill="url(#paint53_linear)"/>
<path d="M409.473 495.197H603.02V498.32C603.02 503.244 599.028 507.237 594.104 507.237H418.389C413.465 507.237 409.473 503.244 409.473 498.32V495.197Z" fill="#CAD7F1"/>
<path fill-rule="evenodd" clip-rule="evenodd" d="M432.275 458.074H581.09C585.982 458.074 591.199 461.376 592.743 465.449L603.084 492.734C604.627 496.806 601.154 500.108 595.326 500.108H418.039C412.211 500.108 408.738 496.806 410.282 492.734L420.622 465.449C422.166 461.376 427.383 458.074 432.275 458.074Z" fill="#EBF1FD"/>
<mask id="mask6" mask-type="alpha" maskUnits="userSpaceOnUse" x="409" y="458" width="195" height="43">
<path fill-rule="evenodd" clip-rule="evenodd" d="M432.275 458.074H581.09C585.982 458.074 591.199 461.376 592.743 465.449L603.084 492.734C604.627 496.806 601.154 500.108 595.326 500.108H418.039C412.211 500.108 408.738 496.806 410.282 492.734L420.622 465.449C422.166 461.376 427.383 458.074 432.275 458.074Z" fill="white"/>
</mask>
<g mask="url(#mask6)">
<path fill-rule="evenodd" clip-rule="evenodd" d="M438.832 494.564C450.813 494.564 461.769 487.631 463.303 479.078C464.838 470.525 457.544 463.592 447.011 463.592C436.479 463.592 425.523 470.525 422.541 479.078C419.558 487.631 426.852 494.564 438.832 494.564Z" fill="#CAD7F1"/>
<path fill-rule="evenodd" clip-rule="evenodd" d="M476.75 465.599H575.628C577.777 465.599 579.969 467.002 580.524 468.733C581.079 470.464 579.738 471.867 577.53 471.867H475.923C473.715 471.867 472.134 470.464 472.392 468.733C472.65 467.002 474.601 465.599 476.75 465.599Z" fill="#CAD7F1"/>
<path fill-rule="evenodd" clip-rule="evenodd" d="M475.155 476.133H552.206C554.453 476.133 556.568 477.536 556.931 479.267C557.294 480.998 555.719 482.401 553.413 482.401H474.327C472.021 482.401 470.361 480.998 470.619 479.267C470.877 477.536 472.908 476.133 475.155 476.133Z" fill="#CAD7F1"/>
<path opacity="0.5" fill-rule="evenodd" clip-rule="evenodd" d="M472.635 488.675H499.843C501.512 488.675 502.85 489.666 502.83 490.888C502.81 492.109 501.417 493.1 499.718 493.1H472.028C470.329 493.1 469.099 492.109 469.282 490.888C469.464 489.666 470.965 488.675 472.635 488.675Z" fill="#CAD7F1"/>
</g>
<g filter="url(#filter5_d)">
<path d="M402.402 478.293L595.921 481.671L595.866 484.794C595.78 489.718 591.719 493.64 586.795 493.554L411.107 490.487C406.184 490.401 402.262 486.34 402.348 481.416L402.402 478.293Z" fill="#CAD7F1"/>
<path fill-rule="evenodd" clip-rule="evenodd" d="M425.849 441.574L574.641 444.171C579.532 444.257 584.691 447.649 586.163 451.748L596.026 479.209C597.499 483.309 593.968 486.549 588.141 486.447L410.882 483.353C405.055 483.252 401.639 479.89 403.254 475.845L414.069 448.744C415.684 444.699 420.957 441.489 425.849 441.574Z" fill="#EBF1FD"/>
<mask id="mask7" mask-type="alpha" maskUnits="userSpaceOnUse" x="402" y="441" width="195" height="46">
<path fill-rule="evenodd" clip-rule="evenodd" d="M425.849 441.574L574.641 444.171C579.532 444.257 584.691 447.649 586.163 451.748L596.026 479.209C597.499 483.309 593.968 486.549 588.141 486.447L410.882 483.353C405.055 483.252 401.639 479.89 403.254 475.845L414.069 448.744C415.684 444.699 420.957 441.489 425.849 441.574Z" fill="white"/>
</mask>
<g mask="url(#mask7)">
<path fill-rule="evenodd" clip-rule="evenodd" d="M431.768 478.174C443.746 478.383 454.822 471.642 456.505 463.117C458.189 454.593 451.017 447.533 440.486 447.349C429.956 447.166 418.88 453.907 415.749 462.406C412.617 470.905 419.789 477.965 431.768 478.174Z" fill="#CAD7F1"/>
<path fill-rule="evenodd" clip-rule="evenodd" d="M470.185 449.874L569.048 451.6C571.197 451.638 573.364 453.079 573.888 454.819C574.413 456.559 573.048 457.939 570.84 457.9L469.248 456.127C467.04 456.089 465.484 454.658 465.773 452.932C466.061 451.206 468.037 449.837 470.185 449.874Z" fill="#CAD7F1"/>
<path fill-rule="evenodd" clip-rule="evenodd" d="M468.407 460.38L545.447 461.725C547.693 461.764 549.783 463.204 550.116 464.941C550.449 466.678 548.849 468.053 546.544 468.013L467.47 466.633C465.164 466.592 463.529 465.161 463.817 463.434C464.106 461.708 466.161 460.341 468.407 460.38Z" fill="#CAD7F1"/>
<path opacity="0.5" fill-rule="evenodd" clip-rule="evenodd" d="M465.668 472.876L492.872 473.351C494.542 473.38 495.862 474.393 495.821 475.615C495.78 476.836 494.369 477.802 492.67 477.772L464.985 477.289C463.286 477.259 462.074 476.248 462.277 475.029C462.481 473.811 463.999 472.847 465.668 472.876Z" fill="#CAD7F1"/>
</g>
</g>
<g filter="url(#filter6_d)">
<path d="M413.723 467.394L607.153 460.639L607.262 463.761C607.433 468.682 603.583 472.811 598.662 472.983L423.054 479.115C418.133 479.287 414.004 475.437 413.832 470.515L413.723 467.394Z" fill="#CAD7F1"/>
<path fill-rule="evenodd" clip-rule="evenodd" d="M435.216 429.498L583.94 424.304C588.829 424.134 594.158 427.251 595.843 431.268L607.13 458.175C608.814 462.192 605.458 465.612 599.634 465.816L422.456 472.003C416.631 472.206 413.045 469.028 414.445 464.904L423.827 437.274C425.228 433.15 430.326 429.669 435.216 429.498Z" fill="#EBF1FD"/>
<mask id="mask8" mask-type="alpha" maskUnits="userSpaceOnUse" x="412" y="423" width="196" height="50">
<path fill-rule="evenodd" clip-rule="evenodd" d="M435.216 429.498L583.94 424.304C588.829 424.134 594.158 427.251 595.843 431.268L607.13 458.175C608.814 462.192 605.458 465.612 599.634 465.816L422.456 472.003C416.631 472.206 413.045 469.028 414.445 464.904L423.827 437.274C425.228 433.15 430.326 429.669 435.216 429.498Z" fill="white"/>
</mask>
<g mask="url(#mask8)">
<path fill-rule="evenodd" clip-rule="evenodd" d="M443.042 465.737C455.016 465.319 465.723 458.007 466.958 449.406C468.193 440.805 460.662 434.131 450.136 434.498C439.61 434.866 428.903 442.177 426.22 450.829C423.538 459.481 431.069 466.155 443.042 465.737Z" fill="#CAD7F1"/>
<path fill-rule="evenodd" clip-rule="evenodd" d="M479.926 435.466L578.744 432.015C580.892 431.94 583.131 433.266 583.746 434.976C584.361 436.687 583.07 438.136 580.863 438.213L479.318 441.759C477.111 441.836 475.482 440.489 475.68 438.75C475.878 437.011 477.779 435.541 479.926 435.466Z" fill="#CAD7F1"/>
<path fill-rule="evenodd" clip-rule="evenodd" d="M478.699 446.05L555.703 443.361C557.948 443.282 560.112 444.611 560.535 446.328C560.958 448.045 559.433 449.503 557.128 449.583L478.09 452.343C475.786 452.424 474.078 451.079 474.275 449.34C474.473 447.601 476.454 446.128 478.699 446.05Z" fill="#CAD7F1"/>
<path opacity="0.5" fill-rule="evenodd" clip-rule="evenodd" d="M476.619 458.671L503.81 457.722C505.479 457.664 506.85 458.607 506.873 459.829C506.896 461.05 505.538 462.089 503.84 462.148L476.167 463.114C474.469 463.174 473.206 462.227 473.345 460.999C473.485 459.772 474.95 458.73 476.619 458.671Z" fill="#CAD7F1"/>
</g>
</g>
<path d="M395.915 449.603H589.387V452.806C589.387 457.73 585.395 461.722 580.471 461.722H404.832C399.907 461.722 395.915 457.73 395.915 452.806V449.603Z" fill="#C6D5EF"/>
<path fill-rule="evenodd" clip-rule="evenodd" d="M418.709 412.235H567.466C572.356 412.235 577.571 415.559 579.114 419.658L589.451 447.124C590.994 451.223 587.522 454.547 581.696 454.547H404.479C398.653 454.547 395.181 451.223 396.724 447.124L407.061 419.658C408.603 415.559 413.819 412.235 418.709 412.235Z" fill="#EBF1FD"/>
<mask id="mask9" mask-type="alpha" maskUnits="userSpaceOnUse" x="396" y="412" width="194" height="43">
<path fill-rule="evenodd" clip-rule="evenodd" d="M418.713 412.235H567.469C572.36 412.235 577.575 415.559 579.118 419.658L589.455 447.124C590.997 451.223 587.525 454.547 581.7 454.547H404.483C398.657 454.547 395.185 451.223 396.728 447.124L407.064 419.658C408.607 415.559 413.822 412.235 418.713 412.235Z" fill="white"/>
</mask>
<g mask="url(#mask9)">
<path opacity="0.5" fill-rule="evenodd" clip-rule="evenodd" d="M425.263 448.967C437.239 448.967 448.191 441.988 449.724 433.378C451.258 424.769 443.967 417.79 433.439 417.79C422.911 417.79 411.959 424.769 408.978 433.378C405.996 441.988 413.287 448.967 425.263 448.967Z" fill="#AABFE5"/>
<path opacity="0.5" fill-rule="evenodd" clip-rule="evenodd" d="M463.166 419.81H562.005C564.153 419.81 566.344 421.222 566.899 422.964C567.453 424.707 566.113 426.119 563.906 426.119H462.338C460.131 426.119 458.551 424.707 458.809 422.964C459.067 421.222 461.018 419.81 463.166 419.81Z" fill="#AABFE5"/>
<path opacity="0.5" fill-rule="evenodd" clip-rule="evenodd" d="M461.571 430.414H538.592C540.838 430.414 542.953 431.827 543.315 433.569C543.678 435.311 542.103 436.724 539.798 436.724H460.744C458.438 436.724 456.779 435.311 457.037 433.569C457.295 431.827 459.325 430.414 461.571 430.414Z" fill="#AABFE5"/>
<path opacity="0.3" fill-rule="evenodd" clip-rule="evenodd" d="M459.052 443.039H486.25C487.919 443.039 489.256 444.036 489.236 445.265C489.216 446.495 487.823 447.492 486.125 447.492H458.446C456.748 447.492 455.518 446.495 455.701 445.265C455.883 444.036 457.383 443.039 459.052 443.039Z" fill="#A1B8E3"/>
</g>
<defs>
<filter id="filter0_i" x="176.862" y="75.3409" width="233.014" height="127.682" filterUnits="userSpaceOnUse" color-interpolation-filters="sRGB">
<feFlood flood-opacity="0" result="BackgroundImageFix"/>
<feBlend mode="normal" in="SourceGraphic" in2="BackgroundImageFix" result="shape"/>
<feColorMatrix in="SourceAlpha" type="matrix" values="0 0 0 0 0 0 0 0 0 0 0 0 0 0 0 0 0 0 127 0" result="hardAlpha"/>
<feOffset dy="-6.24163"/>
<feGaussianBlur stdDeviation="5.57289"/>
<feComposite in2="hardAlpha" operator="arithmetic" k2="-1" k3="1"/>
<feColorMatrix type="matrix" values="0 0 0 0 0.788056 0 0 0 0 0.827193 0 0 0 0 0.89764 0 0 0 0.337126 0"/>
<feBlend mode="normal" in2="shape" result="effect1_innerShadow"/>
</filter>
<filter id="filter1_i" x="376.646" y="10.5977" width="230.235" height="131.037" filterUnits="userSpaceOnUse" color-interpolation-filters="sRGB">
<feFlood flood-opacity="0" result="BackgroundImageFix"/>
<feBlend mode="normal" in="SourceGraphic" in2="BackgroundImageFix" result="shape"/>
<feColorMatrix in="SourceAlpha" type="matrix" values="0 0 0 0 0 0 0 0 0 0 0 0 0 0 0 0 0 0 127 0" result="hardAlpha"/>
<feOffset dy="-6.24163"/>
<feGaussianBlur stdDeviation="5.57289"/>
<feComposite in2="hardAlpha" operator="arithmetic" k2="-1" k3="1"/>
<feColorMatrix type="matrix" values="0 0 0 0 0.788056 0 0 0 0 0.827193 0 0 0 0 0.89764 0 0 0 0.337126 0"/>
<feBlend mode="normal" in2="shape" result="effect1_innerShadow"/>
</filter>
<filter id="filter2_i" x="156.95" y="195.214" width="84.1404" height="156.226" filterUnits="userSpaceOnUse" color-interpolation-filters="sRGB">
<feFlood flood-opacity="0" result="BackgroundImageFix"/>
<feBlend mode="normal" in="SourceGraphic" in2="BackgroundImageFix" result="shape"/>
<feColorMatrix in="SourceAlpha" type="matrix" values="0 0 0 0 0 0 0 0 0 0 0 0 0 0 0 0 0 0 127 0" result="hardAlpha"/>
<feOffset dx="-3.56665" dy="-2.67499"/>
<feGaussianBlur stdDeviation="6.68746"/>
<feComposite in2="hardAlpha" operator="arithmetic" k2="-1" k3="1"/>
<feColorMatrix type="matrix" values="0 0 0 0 0.269084 0 0 0 0 0.79451 0 0 0 0 0.470313 0 0 0 0.5 0"/>
<feBlend mode="normal" in2="shape" result="effect1_innerShadow"/>
</filter>
<filter id="filter3_d" x="249.236" y="0.288078" width="329.915" height="410.165" filterUnits="userSpaceOnUse" color-interpolation-filters="sRGB">
<feFlood flood-opacity="0" result="BackgroundImageFix"/>
<feColorMatrix in="SourceAlpha" type="matrix" values="0 0 0 0 0 0 0 0 0 0 0 0 0 0 0 0 0 0 127 0" result="hardAlpha"/>
<feOffset/>
<feGaussianBlur stdDeviation="36.1123"/>
<feColorMatrix type="matrix" values="0 0 0 0 1 0 0 0 0 1 0 0 0 0 1 0 0 0 1 0"/>
<feBlend mode="normal" in2="BackgroundImageFix" result="effect1_dropShadow"/>
<feBlend mode="normal" in="SourceGraphic" in2="effect1_dropShadow" result="shape"/>
</filter>
<filter id="filter4_d" x="303.628" y="146.521" width="175.212" height="58.4039" filterUnits="userSpaceOnUse" color-interpolation-filters="sRGB">
<feFlood flood-opacity="0" result="BackgroundImageFix"/>
<feColorMatrix in="SourceAlpha" type="matrix" values="0 0 0 0 0 0 0 0 0 0 0 0 0 0 0 0 0 0 127 0" result="hardAlpha"/>
<feOffset dx="7.57913" dy="7.57913"/>
<feColorMatrix type="matrix" values="0 0 0 0 1 0 0 0 0 0.706613 0 0 0 0 0.0893703 0 0 0 0.173347 0"/>
<feBlend mode="normal" in2="BackgroundImageFix" result="effect1_dropShadow"/>
<feBlend mode="normal" in="SourceGraphic" in2="effect1_dropShadow" result="shape"/>
</filter>
<filter id="filter5_d" x="391.938" y="436.726" width="209.964" height="67.6835" filterUnits="userSpaceOnUse" color-interpolation-filters="sRGB">
<feFlood flood-opacity="0" result="BackgroundImageFix"/>
<feColorMatrix in="SourceAlpha" type="matrix" values="0 0 0 0 0 0 0 0 0 0 0 0 0 0 0 0 0 0 127 0" result="hardAlpha"/>
<feOffset dx="-2.67499" dy="3.12082"/>
<feGaussianBlur stdDeviation="3.78956"/>
<feColorMatrix type="matrix" values="0 0 0 0 0.260846 0 0 0 0 0.436705 0 0 0 0 0.80195 0 0 0 0.186 0"/>
<feBlend mode="normal" in2="BackgroundImageFix" result="effect1_dropShadow"/>
<feBlend mode="normal" in="SourceGraphic" in2="effect1_dropShadow" result="shape"/>
</filter>
<filter id="filter6_d" x="402.615" y="419.066" width="210.042" height="71.0607" filterUnits="userSpaceOnUse" color-interpolation-filters="sRGB">
<feFlood flood-opacity="0" result="BackgroundImageFix"/>
<feColorMatrix in="SourceAlpha" type="matrix" values="0 0 0 0 0 0 0 0 0 0 0 0 0 0 0 0 0 0 127 0" result="hardAlpha"/>
<feOffset dx="-2.67499" dy="3.12082"/>
<feGaussianBlur stdDeviation="3.78956"/>
<feColorMatrix type="matrix" values="0 0 0 0 0.260846 0 0 0 0 0.436705 0 0 0 0 0.80195 0 0 0 0.186 0"/>
<feBlend mode="normal" in2="BackgroundImageFix" result="effect1_dropShadow"/>
<feBlend mode="normal" in="SourceGraphic" in2="effect1_dropShadow" result="shape"/>
</filter>
<linearGradient id="paint0_linear" x1="331.755" y1="187.021" x2="344.057" y2="104.286" gradientUnits="userSpaceOnUse">
<stop stop-color="#ECF1FF"/>
<stop offset="1" stop-color="white"/>
</linearGradient>
<linearGradient id="paint1_linear" x1="529.548" y1="123.131" x2="542.2" y2="39.8948" gradientUnits="userSpaceOnUse">
<stop stop-color="#ECF1FF"/>
<stop offset="1" stop-color="white"/>
</linearGradient>
<linearGradient id="paint2_linear" x1="1069.25" y1="319.186" x2="1066.77" y2="485.296" gradientUnits="userSpaceOnUse">
<stop stop-color="white"/>
<stop offset="1" stop-color="#D6E3FA"/>
</linearGradient>
<linearGradient id="paint3_linear" x1="572.45" y1="247.508" x2="572.45" y2="376.532" gradientUnits="userSpaceOnUse">
<stop stop-color="#CFDDF3"/>
<stop offset="1" stop-color="#A1B8E3"/>
</linearGradient>
<linearGradient id="paint4_linear" x1="608.988" y1="171.844" x2="575.502" y2="179.671" gradientUnits="userSpaceOnUse">
<stop stop-color="#CFDDF3"/>
<stop offset="1" stop-color="#A1B8E3"/>
</linearGradient>
<linearGradient id="paint5_linear" x1="645.846" y1="192.542" x2="612.36" y2="200.369" gradientUnits="userSpaceOnUse">
<stop stop-color="#CFDDF3"/>
<stop offset="1" stop-color="#A1B8E3"/>
</linearGradient>
<linearGradient id="paint6_linear" x1="633.808" y1="221.967" x2="600.322" y2="229.794" gradientUnits="userSpaceOnUse">
<stop stop-color="#CFDDF3"/>
<stop offset="1" stop-color="#A1B8E3"/>
</linearGradient>
<linearGradient id="paint7_linear" x1="623.999" y1="250.501" x2="590.513" y2="258.328" gradientUnits="userSpaceOnUse">
<stop stop-color="#CFDDF3"/>
<stop offset="1" stop-color="#A1B8E3"/>
</linearGradient>
<linearGradient id="paint8_linear" x1="643.956" y1="157.654" x2="610.47" y2="165.481" gradientUnits="userSpaceOnUse">
<stop stop-color="#CFDDF3"/>
<stop offset="1" stop-color="#A1B8E3"/>
</linearGradient>
<linearGradient id="paint9_linear" x1="592.95" y1="202.972" x2="559.463" y2="210.799" gradientUnits="userSpaceOnUse">
<stop stop-color="#CFDDF3"/>
<stop offset="1" stop-color="#A1B8E3"/>
</linearGradient>
<linearGradient id="paint10_linear" x1="580.912" y1="234.181" x2="547.426" y2="242.008" gradientUnits="userSpaceOnUse">
<stop stop-color="#CFDDF3"/>
<stop offset="1" stop-color="#A1B8E3"/>
</linearGradient>
<linearGradient id="paint11_linear" x1="94.1779" y1="212.264" x2="205.578" y2="266.039" gradientUnits="userSpaceOnUse">
<stop stop-color="#CFDDF3"/>
<stop offset="1" stop-color="#7FA1E0"/>
</linearGradient>
<linearGradient id="paint12_linear" x1="154.41" y1="262.054" x2="154.41" y2="299.552" gradientUnits="userSpaceOnUse">
<stop stop-color="#CFDDF3"/>
<stop offset="1" stop-color="#A1B8E3"/>
</linearGradient>
<linearGradient id="paint13_linear" x1="141.011" y1="240.72" x2="141.011" y2="263.166" gradientUnits="userSpaceOnUse">
<stop stop-color="#CFDDF3"/>
<stop offset="1" stop-color="#A1B8E3"/>
</linearGradient>
<linearGradient id="paint14_linear" x1="131.159" y1="201.832" x2="131.159" y2="390.672" gradientUnits="userSpaceOnUse">
<stop stop-color="#CFDDF3"/>
<stop offset="1" stop-color="#A1B8E3"/>
</linearGradient>
<linearGradient id="paint15_linear" x1="923.725" y1="494.952" x2="923.321" y2="213.581" gradientUnits="userSpaceOnUse">
<stop stop-color="white"/>
<stop offset="1" stop-color="#D6E3FA"/>
</linearGradient>
<linearGradient id="paint16_linear" x1="598.97" y1="285.866" x2="569.067" y2="377.898" gradientUnits="userSpaceOnUse">
<stop stop-color="#CFDDF3"/>
<stop offset="1" stop-color="#A1B8E3"/>
</linearGradient>
<linearGradient id="paint17_linear" x1="15.8216" y1="-36.2298" x2="-9.38871" y2="-30.3121" gradientUnits="userSpaceOnUse">
<stop stop-color="#CFDDF3"/>
<stop offset="1" stop-color="#A1B8E3"/>
</linearGradient>
<linearGradient id="paint18_linear" x1="15.8216" y1="-36.2298" x2="-9.38871" y2="-30.3121" gradientUnits="userSpaceOnUse">
<stop stop-color="#CFDDF3"/>
<stop offset="1" stop-color="#A1B8E3"/>
</linearGradient>
<linearGradient id="paint19_linear" x1="15.8216" y1="-36.2298" x2="-9.38871" y2="-30.3121" gradientUnits="userSpaceOnUse">
<stop stop-color="#CFDDF3"/>
<stop offset="1" stop-color="#A1B8E3"/>
</linearGradient>
<linearGradient id="paint20_linear" x1="15.8216" y1="-36.2298" x2="-9.38871" y2="-30.3121" gradientUnits="userSpaceOnUse">
<stop stop-color="#CFDDF3"/>
<stop offset="1" stop-color="#A1B8E3"/>
</linearGradient>
<linearGradient id="paint21_linear" x1="15.8216" y1="-36.2298" x2="-9.38871" y2="-30.3121" gradientUnits="userSpaceOnUse">
<stop stop-color="#CFDDF3"/>
<stop offset="1" stop-color="#A1B8E3"/>
</linearGradient>
<linearGradient id="paint22_linear" x1="15.8216" y1="-36.2298" x2="-9.38871" y2="-30.3121" gradientUnits="userSpaceOnUse">
<stop stop-color="#CFDDF3"/>
<stop offset="1" stop-color="#A1B8E3"/>
</linearGradient>
<linearGradient id="paint23_linear" x1="15.8216" y1="-36.2298" x2="-9.38871" y2="-30.3121" gradientUnits="userSpaceOnUse">
<stop stop-color="#CFDDF3"/>
<stop offset="1" stop-color="#A1B8E3"/>
</linearGradient>
<linearGradient id="paint24_linear" x1="170.289" y1="355.395" x2="178.872" y2="381.999" gradientUnits="userSpaceOnUse">
<stop stop-color="#EDF3FD" stop-opacity="0.01"/>
<stop offset="1" stop-color="#D6E3FA"/>
</linearGradient>
<radialGradient id="paint25_radial" cx="0" cy="0" r="1" gradientUnits="userSpaceOnUse" gradientTransform="translate(222.303 214.523) rotate(150.84) scale(95.6646 295.675)">
<stop stop-color="#64CF9B"/>
<stop offset="1" stop-color="#ADF9A9"/>
</radialGradient>
<linearGradient id="paint26_linear" x1="189.05" y1="217.407" x2="189.05" y2="375.231" gradientUnits="userSpaceOnUse">
<stop stop-color="#80D4AE"/>
<stop offset="1" stop-color="#4CB67D"/>
</linearGradient>
<linearGradient id="paint27_linear" x1="188.158" y1="269.124" x2="188.158" y2="285.619" gradientUnits="userSpaceOnUse">
<stop stop-color="#64DEA8"/>
<stop offset="1" stop-color="#4CB67D"/>
</linearGradient>
<linearGradient id="paint28_linear" x1="173.891" y1="312.369" x2="173.891" y2="332.877" gradientUnits="userSpaceOnUse">
<stop stop-color="#64DEA8"/>
<stop offset="1" stop-color="#4CB67D"/>
</linearGradient>
<linearGradient id="paint29_linear" x1="192.17" y1="298.995" x2="192.17" y2="311.478" gradientUnits="userSpaceOnUse">
<stop stop-color="#64DEA8"/>
<stop offset="1" stop-color="#4CB67D"/>
</linearGradient>
<linearGradient id="paint30_linear" x1="205.1" y1="220.974" x2="205.1" y2="244.603" gradientUnits="userSpaceOnUse">
<stop stop-color="#64DEA8"/>
<stop offset="1" stop-color="#4CB67D"/>
</linearGradient>
<linearGradient id="paint31_linear" x1="270.615" y1="392.446" x2="270.267" y2="441.679" gradientUnits="userSpaceOnUse">
<stop stop-color="#D0DCF1"/>
<stop offset="1" stop-color="white"/>
</linearGradient>
<linearGradient id="paint32_linear" x1="597.411" y1="-28.4802" x2="376.101" y2="25.1825" gradientUnits="userSpaceOnUse">
<stop stop-color="#47689B"/>
<stop offset="1" stop-color="#223762"/>
</linearGradient>
<linearGradient id="paint33_linear" x1="439.148" y1="-100.796" x2="158.166" y2="28.4395" gradientUnits="userSpaceOnUse">
<stop stop-color="#47689B"/>
<stop offset="1" stop-color="#223762"/>
</linearGradient>
<linearGradient id="paint34_linear" x1="377.902" y1="55.667" x2="518.963" y2="55.667" gradientUnits="userSpaceOnUse">
<stop stop-color="#365383"/>
<stop offset="1" stop-color="#1C2C4C"/>
</linearGradient>
<linearGradient id="paint35_linear" x1="420.252" y1="405.464" x2="447.568" y2="366.838" gradientUnits="userSpaceOnUse">
<stop stop-color="#365383"/>
<stop offset="1" stop-color="#1C2C4C"/>
</linearGradient>
<linearGradient id="paint36_linear" x1="545.122" y1="383.516" x2="539.987" y2="306.11" gradientUnits="userSpaceOnUse">
<stop stop-color="#EDF3FD"/>
<stop offset="1" stop-color="#D6E3FA"/>
</linearGradient>
<linearGradient id="paint37_linear" x1="545.122" y1="321.991" x2="539.987" y2="244.585" gradientUnits="userSpaceOnUse">
<stop stop-color="#EDF3FD"/>
<stop offset="1" stop-color="#D6E3FA"/>
</linearGradient>
<linearGradient id="paint38_linear" x1="545.122" y1="193.592" x2="539.987" y2="116.186" gradientUnits="userSpaceOnUse">
<stop stop-color="#EDF3FD"/>
<stop offset="1" stop-color="#D6E3FA"/>
</linearGradient>
<linearGradient id="paint39_linear" x1="558.389" y1="219.662" x2="547.76" y2="145.033" gradientUnits="userSpaceOnUse">
<stop stop-color="#FFE883"/>
<stop offset="1" stop-color="#FECC4C"/>
</linearGradient>
<linearGradient id="paint40_linear" x1="357.078" y1="462.758" x2="107.243" y2="462.758" gradientUnits="userSpaceOnUse">
<stop stop-color="#D0DCF1"/>
<stop offset="1" stop-color="white" stop-opacity="0.01"/>
</linearGradient>
<linearGradient id="paint41_linear" x1="278.925" y1="464.214" x2="32.4001" y2="464.214" gradientUnits="userSpaceOnUse">
<stop stop-color="#D0DCF1"/>
<stop offset="1" stop-color="white" stop-opacity="0.01"/>
</linearGradient>
<linearGradient id="paint42_linear" x1="260.984" y1="316.921" x2="271.519" y2="300.706" gradientUnits="userSpaceOnUse">
<stop stop-color="#70B8F9"/>
<stop offset="1" stop-color="#3D82F0"/>
</linearGradient>
<linearGradient id="paint43_linear" x1="264.083" y1="479.857" x2="276.991" y2="460.109" gradientUnits="userSpaceOnUse">
<stop stop-color="#47689B"/>
<stop offset="1" stop-color="#223762"/>
</linearGradient>
<linearGradient id="paint44_linear" x1="343.757" y1="488.145" x2="354.162" y2="466.971" gradientUnits="userSpaceOnUse">
<stop stop-color="#47689B"/>
<stop offset="1" stop-color="#223762"/>
</linearGradient>
<linearGradient id="paint45_linear" x1="309.717" y1="497.33" x2="371.555" y2="356.689" gradientUnits="userSpaceOnUse">
<stop stop-color="#CFDDF3"/>
<stop offset="1" stop-color="#A1B8E3"/>
</linearGradient>
<linearGradient id="paint46_linear" x1="338.905" y1="334.065" x2="338.235" y2="322.207" gradientUnits="userSpaceOnUse">
<stop stop-color="#CFDDF3" stop-opacity="0.477723"/>
<stop offset="1" stop-color="#A1B8E3"/>
</linearGradient>
<linearGradient id="paint47_linear" x1="306.04" y1="176.721" x2="283.529" y2="191.906" gradientUnits="userSpaceOnUse">
<stop stop-color="#70B8F9"/>
<stop offset="1" stop-color="#3D82F0"/>
</linearGradient>
<linearGradient id="paint48_linear" x1="265.934" y1="176.506" x2="286.096" y2="203.088" gradientUnits="userSpaceOnUse">
<stop stop-color="#164898"/>
<stop offset="1" stop-color="#223762"/>
</linearGradient>
<linearGradient id="paint49_linear" x1="246.079" y1="280.878" x2="266.316" y2="278.22" gradientUnits="userSpaceOnUse">
<stop stop-color="#EDF3FD"/>
<stop offset="1" stop-color="#D6E3FA"/>
</linearGradient>
<linearGradient id="paint50_linear" x1="321.536" y1="303.302" x2="334.982" y2="294.73" gradientUnits="userSpaceOnUse">
<stop stop-color="#CFDDF3"/>
<stop offset="1" stop-color="#A1B8E3"/>
</linearGradient>
<linearGradient id="paint51_linear" x1="348.382" y1="242.88" x2="348.197" y2="230.259" gradientUnits="userSpaceOnUse">
<stop stop-color="#CFDDF3"/>
<stop offset="1" stop-color="#A1B8E3"/>
</linearGradient>
<linearGradient id="paint52_linear" x1="420.383" y1="316.759" x2="390.719" y2="197.783" gradientUnits="userSpaceOnUse">
<stop stop-color="#70B8F9"/>
<stop offset="1" stop-color="#3D82F0"/>
</linearGradient>
<linearGradient id="paint53_linear" x1="293.424" y1="248.76" x2="306.79" y2="276.164" gradientUnits="userSpaceOnUse">
<stop stop-color="#D6E3FA"/>
<stop offset="1" stop-color="#E3EDFE"/>
</linearGradient>
</defs>
</svg>
