<svg width="656" height="420" viewBox="0 0 656 420" fill="none" xmlns="http://www.w3.org/2000/svg">
<g opacity="0.6">
<path fill-rule="evenodd" clip-rule="evenodd" d="M571.156 0.455584C586.755 0.455584 599.4 13.101 599.4 28.7C599.4 44.299 586.755 56.9444 571.156 56.9444C555.557 56.9444 542.911 44.299 542.911 28.7C542.911 13.101 555.557 0.455584 571.156 0.455584Z" fill="url(#paint0_radial)"/>
<mask id="mask0" mask-type="alpha" maskUnits="userSpaceOnUse" x="542" y="0" width="58" height="57">
<path fill-rule="evenodd" clip-rule="evenodd" d="M571.156 0.455584C586.755 0.455584 599.4 13.101 599.4 28.7C599.4 44.299 586.755 56.9444 571.156 56.9444C555.557 56.9444 542.911 44.299 542.911 28.7C542.911 13.101 555.557 0.455584 571.156 0.455584Z" fill="white"/>
</mask>
<g mask="url(#mask0)">
<mask id="path-3-inside-1" fill="white">
<path fill-rule="evenodd" clip-rule="evenodd" d="M571.5 9.4113V29.7335L580.8 39.0335"/>
</mask>
<path d="M571.5 29.7335H565.5V32.2187L567.257 33.9761L571.5 29.7335ZM565.5 9.4113V29.7335H577.5V9.4113H565.5ZM567.257 33.9761L576.557 43.2761L585.043 34.7909L575.743 25.4908L567.257 33.9761Z" fill="white" mask="url(#path-3-inside-1)"/>
</g>
</g>
<g clip-path="url(#clip0)">
<rect y="263.744" width="656" height="155.8" fill="url(#paint1_linear)"/>
<path opacity="0.2" fill-rule="evenodd" clip-rule="evenodd" d="M434.001 63.1885C394.283 18.6465 311.094 2.06979 225.605 26.6439C119.574 57.1234 50.1569 139.364 70.5573 210.333C87.2946 268.559 159.29 301.109 243.161 294.089C283.376 326.269 351.085 336.896 420.122 317.051C516.965 289.213 579.751 211.956 560.358 144.493C546.754 97.1676 496.325 67.2333 434.001 63.1885Z" fill="#D4E1F8"/>
<mask id="mask1" mask-type="alpha" maskUnits="userSpaceOnUse" x="67" y="15" width="497" height="313">
<path fill-rule="evenodd" clip-rule="evenodd" d="M434.001 63.1885C394.283 18.6465 311.094 2.06979 225.605 26.6439C119.574 57.1234 50.1569 139.364 70.5573 210.333C87.2946 268.559 159.29 301.109 243.161 294.089C283.376 326.269 351.085 336.896 420.122 317.051C516.965 289.213 579.751 211.956 560.358 144.493C546.754 97.1676 496.325 67.2333 434.001 63.1885Z" fill="white"/>
</mask>
<g mask="url(#mask1)">
<path fill-rule="evenodd" clip-rule="evenodd" d="M357.606 90.7049C357.007 73.5401 312.284 77.4093 295.032 79.0652C277.779 80.7211 276.213 57.2067 291.098 53.7114C305.983 50.2161 332.976 52.0199 346.962 48.7935C360.947 45.5671 343.256 28.2634 362.312 26.1777C381.368 24.0922 420.772 26.0231 432.518 25.5994C450.97 24.9339 460.436 47.1466 428.111 48.1546C419.196 48.4325 417.408 68.166 447.498 62.7454C466.381 59.3438 503.43 59.2653 511.137 67.9499C515.559 72.9328 514.026 86.3198 506.424 93.712C500.777 99.2035 482.817 100.274 475.782 101.544C459.276 104.522 462.539 120.503 468.167 123.794C481.485 131.581 518.037 116.885 519.017 138.268C519.45 147.716 486.192 149.242 472.555 149.126C439.11 148.844 417.134 151.823 415.592 140.414C414.044 128.961 436.376 136.691 435.274 122.611C434.699 115.253 436.241 99.6177 421.914 100.438C441.529 99.3147 358.414 113.888 357.606 90.7049Z" fill="url(#paint2_linear)"/>
<g opacity="0.3">
<path fill-rule="evenodd" clip-rule="evenodd" d="M232.002 274.596C237.664 275.646 247.793 260.656 247.267 247.153C246.74 233.65 234.228 236.249 238.535 211.558C242.843 186.867 248.131 175.225 223.511 153.586C198.892 131.946 201.745 109.985 181.968 112.363C162.191 114.741 167.145 143.31 181.182 162.624C195.219 181.937 194.103 188.359 177.594 195.403C161.084 202.448 191.917 224.658 195.843 231.191C199.768 237.724 197.818 255.412 205.221 263.389C212.624 271.367 226.339 273.547 232.002 274.596Z" fill="url(#paint3_linear)"/>
<path d="M223.801 240.786C220.788 235.772 210.134 220.909 197.525 215.535" stroke="url(#paint4_linear)" stroke-width="6" stroke-linecap="round"/>
<path d="M216.994 205.054C213.981 200.039 225.943 188.06 227.118 174.404" stroke="url(#paint5_linear)" stroke-width="6" stroke-linecap="round"/>
<path d="M237.81 303.072C236.528 300.939 234.424 289.114 231.239 275.862C221.267 234.363 213.171 180.748 195.281 150.974" stroke="url(#paint6_linear)" stroke-width="6" stroke-linecap="round"/>
</g>
<g opacity="0.3">
<path d="M435.416 321.251C435.095 302.838 449.492 245.586 469.724 214.043" stroke="url(#paint7_linear)" stroke-width="6" stroke-linecap="round"/>
<ellipse cx="451.623" cy="208.516" rx="5.34066" ry="16.7586" transform="rotate(-31 451.623 208.516)" fill="url(#paint8_linear)"/>
<ellipse cx="482.366" cy="225.082" rx="5.34066" ry="16.7586" transform="rotate(87 482.366 225.082)" fill="url(#paint9_linear)"/>
<ellipse cx="472.848" cy="249.561" rx="5.34066" ry="16.7586" transform="rotate(90 472.848 249.561)" fill="url(#paint10_linear)"/>
<ellipse cx="465.156" cy="273.272" rx="5.34066" ry="16.7586" transform="rotate(90 465.156 273.272)" fill="url(#paint11_linear)"/>
<ellipse cx="480.303" cy="196.29" rx="5.34066" ry="16.7586" transform="rotate(32 480.303 196.29)" fill="url(#paint12_linear)"/>
<ellipse cx="438.823" cy="234.46" rx="5.34066" ry="16.7586" transform="rotate(-42 438.823 234.46)" fill="url(#paint13_linear)"/>
<ellipse cx="429.331" cy="260.412" rx="5.34066" ry="16.7586" transform="rotate(-48 429.331 260.412)" fill="url(#paint14_linear)"/>
</g>
<path opacity="0.472712" d="M220.262 97.694L266.501 62.3105" stroke="url(#paint15_linear)" stroke-width="8" stroke-linecap="round" stroke-linejoin="round"/>
<path opacity="0.472712" d="M220.717 115.461L257.188 87.5522" stroke="url(#paint16_linear)" stroke-width="8" stroke-linecap="round" stroke-linejoin="round"/>
<path opacity="0.472712" d="M416.605 170.583L462.845 135.2" stroke="url(#paint17_linear)" stroke-width="8" stroke-linecap="round" stroke-linejoin="round"/>
<path opacity="0.472712" d="M417.061 188.35L453.532 160.441" stroke="url(#paint18_linear)" stroke-width="8" stroke-linecap="round" stroke-linejoin="round"/>
</g>
<path fill-rule="evenodd" clip-rule="evenodd" d="M330.737 330.252C388.604 330.252 435.515 322.298 435.515 312.485C435.515 302.673 388.604 294.719 330.737 294.719C272.87 294.719 225.959 302.673 225.959 312.485C225.959 322.298 272.87 330.252 330.737 330.252Z" fill="#E8EFFA"/>
<mask id="mask2" mask-type="alpha" maskUnits="userSpaceOnUse" x="225" y="294" width="211" height="37">
<path fill-rule="evenodd" clip-rule="evenodd" d="M330.737 330.252C388.604 330.252 435.515 322.298 435.515 312.485C435.515 302.673 388.604 294.719 330.737 294.719C272.87 294.719 225.959 302.673 225.959 312.485C225.959 322.298 272.87 330.252 330.737 330.252Z" fill="white"/>
</mask>
<g mask="url(#mask2)">
<path fill-rule="evenodd" clip-rule="evenodd" d="M324.719 320.331C326.986 320.891 336.435 315.56 338.74 315.808C349.706 316.985 358.001 313.348 367.782 310.796C384.888 306.331 402.691 295.481 402.691 288.418C402.691 276.466 370.372 271.485 333.074 271.485C295.776 271.485 262.419 274.411 262.419 286.362C262.419 294.589 279.511 303.251 298.895 310.796C307.67 314.211 314.773 317.875 324.719 320.331Z" fill="#DBE5F6" style="mix-blend-mode:multiply"/>
</g>
<path fill-rule="evenodd" clip-rule="evenodd" d="M374.019 333.828C377.157 335.869 406.066 343.43 409.971 344.744C413.877 346.059 425.446 345.04 427.12 336.229C428.793 327.418 425.433 323.041 416.055 319.662C406.676 316.283 381.454 312.722 378.589 312.851C375.724 312.98 370.232 317.393 370.303 321.676C370.375 325.96 370.881 331.788 374.019 333.828Z" fill="url(#paint19_radial)"/>
<path fill-rule="evenodd" clip-rule="evenodd" d="M374.019 333.828C377.157 335.869 406.066 343.43 409.971 344.744C413.877 346.059 425.446 345.04 427.12 336.229C428.793 327.418 425.433 323.041 416.055 319.662C406.676 316.283 381.454 312.722 378.589 312.851C375.724 312.98 370.232 317.393 370.303 321.676C370.375 325.96 370.881 331.788 374.019 333.828Z" fill="url(#paint20_linear)"/>
<mask id="mask3" mask-type="alpha" maskUnits="userSpaceOnUse" x="370" y="312" width="58" height="34">
<path fill-rule="evenodd" clip-rule="evenodd" d="M374.019 333.828C377.157 335.869 406.066 343.43 409.971 344.744C413.877 346.059 425.446 345.04 427.12 336.229C428.793 327.418 425.433 323.041 416.055 319.662C406.676 316.283 381.454 312.722 378.589 312.851C375.724 312.98 370.232 317.393 370.303 321.676C370.375 325.96 370.881 331.788 374.019 333.828Z" fill="white"/>
<path fill-rule="evenodd" clip-rule="evenodd" d="M374.019 333.828C377.157 335.869 406.066 343.43 409.971 344.744C413.877 346.059 425.446 345.04 427.12 336.229C428.793 327.418 425.433 323.041 416.055 319.662C406.676 316.283 381.454 312.722 378.589 312.851C375.724 312.98 370.232 317.393 370.303 321.676C370.375 325.96 370.881 331.788 374.019 333.828Z" stroke="white"/>
</mask>
<g mask="url(#mask3)">
<g opacity="0.142411">
<path fill-rule="evenodd" clip-rule="evenodd" d="M376.605 339.979C383.422 337.498 411.006 324.531 411.006 318.554C411.006 312.578 376.876 304.484 374.002 311.519C371.128 318.554 369.787 342.461 376.605 339.979Z" fill="#20355F" style="mix-blend-mode:multiply"/>
</g>
</g>
<path fill-rule="evenodd" clip-rule="evenodd" d="M364.243 331.284L380.743 334.461C387.588 328.893 388.559 322.54 383.657 315.404C379.145 313.835 374.03 312.473 368.31 311.316L364.243 331.284Z" fill="url(#paint21_linear)"/>
<mask id="mask4" mask-type="alpha" maskUnits="userSpaceOnUse" x="364" y="311" width="23" height="24">
<path fill-rule="evenodd" clip-rule="evenodd" d="M364.243 331.284L380.743 334.461C387.588 328.893 388.559 322.54 383.657 315.404C379.145 313.835 374.03 312.473 368.31 311.316L364.243 331.284Z" fill="white"/>
</mask>
<g mask="url(#mask4)">
<path fill-rule="evenodd" clip-rule="evenodd" d="M376.138 315.64C376.138 315.64 378.93 325.269 376.512 335.755C374.094 346.242 357.436 328.038 357.436 328.038L376.138 315.64Z" fill="url(#paint22_linear)" style="mix-blend-mode:multiply"/>
</g>
<path fill-rule="evenodd" clip-rule="evenodd" d="M297.588 334.098C294.381 336.028 265.226 342.575 261.277 343.753C257.328 344.93 245.801 343.509 244.436 334.644C243.071 325.78 246.582 321.523 256.072 318.473C265.563 315.424 290.894 312.745 293.753 312.974C296.612 313.203 301.946 317.805 301.725 322.083C301.504 326.361 300.795 332.169 297.588 334.098Z" fill="url(#paint23_radial)"/>
<path fill-rule="evenodd" clip-rule="evenodd" d="M297.588 334.098C294.381 336.028 265.226 342.575 261.277 343.753C257.328 344.93 245.801 343.509 244.436 334.644C243.071 325.78 246.582 321.523 256.072 318.473C265.563 315.424 290.894 312.745 293.753 312.974C296.612 313.203 301.946 317.805 301.725 322.083C301.504 326.361 300.795 332.169 297.588 334.098Z" fill="url(#paint24_linear)"/>
<mask id="mask5" mask-type="alpha" maskUnits="userSpaceOnUse" x="244" y="312" width="58" height="33">
<path fill-rule="evenodd" clip-rule="evenodd" d="M297.588 334.098C294.381 336.028 265.226 342.575 261.277 343.753C257.328 344.93 245.801 343.509 244.436 334.644C243.071 325.78 246.582 321.523 256.072 318.473C265.563 315.424 290.894 312.745 293.753 312.974C296.612 313.203 301.946 317.805 301.725 322.083C301.504 326.361 300.795 332.169 297.588 334.098Z" fill="white"/>
<path fill-rule="evenodd" clip-rule="evenodd" d="M297.588 334.098C294.381 336.028 265.226 342.575 261.277 343.753C257.328 344.93 245.801 343.509 244.436 334.644C243.071 325.78 246.582 321.523 256.072 318.473C265.563 315.424 290.894 312.745 293.753 312.974C296.612 313.203 301.946 317.805 301.725 322.083C301.504 326.361 300.795 332.169 297.588 334.098Z" stroke="white"/>
</mask>
<g mask="url(#mask5)">
<g opacity="0.142411">
<path fill-rule="evenodd" clip-rule="evenodd" d="M259.504 316.718C259.504 316.718 286.901 342.435 296.258 339.061C305.615 335.687 303.47 305.472 293.76 305.472C284.05 305.472 259.504 316.718 259.504 316.718Z" fill="#20355F" style="mix-blend-mode:multiply"/>
</g>
</g>
<path fill-rule="evenodd" clip-rule="evenodd" d="M307.445 331.897L290.844 334.497C284.199 328.693 283.45 322.31 288.598 315.349C293.161 313.939 298.322 312.756 304.078 311.8L307.445 331.897Z" fill="url(#paint25_linear)"/>
<mask id="mask6" mask-type="alpha" maskUnits="userSpaceOnUse" x="285" y="311" width="23" height="24">
<path fill-rule="evenodd" clip-rule="evenodd" d="M307.445 331.897L290.844 334.497C284.199 328.693 283.45 322.31 288.598 315.349C293.161 313.939 298.322 312.756 304.078 311.8L307.445 331.897Z" fill="white"/>
</mask>
<g mask="url(#mask6)">
<path fill-rule="evenodd" clip-rule="evenodd" d="M293.135 337.368C293.135 337.368 293.135 323.906 293.135 319.508C293.135 315.109 314.118 328.198 314.118 328.198C314.118 328.198 305.309 335.937 301.313 337.368C297.317 338.799 293.135 337.368 293.135 337.368Z" fill="url(#paint26_linear)" style="mix-blend-mode:multiply"/>
</g>
<path fill-rule="evenodd" clip-rule="evenodd" d="M279.438 240.454C279.438 241.276 278.062 254.202 272.72 260.764C266.003 269.014 244.619 264.116 247.641 270.588C256.972 290.574 302.871 314.234 333.919 314.234C359.094 314.234 392.686 303.085 420.557 273.409C425.073 268.6 393.958 269.568 377.517 257.904C374.426 255.711 371.416 250.538 368.488 242.384C309.121 238.203 279.438 237.56 279.438 240.454Z" fill="url(#paint27_linear)"/>
<mask id="mask7" mask-type="alpha" maskUnits="userSpaceOnUse" x="247" y="238" width="174" height="77">
<path fill-rule="evenodd" clip-rule="evenodd" d="M279.438 240.454C279.438 241.276 278.062 254.202 272.72 260.764C266.003 269.014 244.619 264.116 247.641 270.588C256.972 290.574 302.871 314.234 333.919 314.234C359.094 314.234 392.686 303.085 420.557 273.409C425.073 268.6 393.958 269.568 377.517 257.904C374.426 255.711 371.416 250.538 368.488 242.384C309.121 238.203 279.438 237.56 279.438 240.454Z" fill="white"/>
</mask>
<g mask="url(#mask7)">
<path fill-rule="evenodd" clip-rule="evenodd" d="M309.899 259.351C314.893 262.161 345.034 269.594 352.061 255.224C359.088 240.855 309.899 250.065 309.899 250.065C309.899 250.065 304.904 256.541 309.899 259.351Z" fill="url(#paint28_linear)" style="mix-blend-mode:multiply"/>
<g opacity="0.3">
<path fill-rule="evenodd" clip-rule="evenodd" d="M337.579 281.68C337.579 274.265 340.637 265.903 349.072 256.624C357.506 247.345 364.738 281.68 364.738 281.68C364.738 281.68 337.579 289.094 337.579 281.68Z" fill="url(#paint29_linear)" style="mix-blend-mode:multiply"/>
</g>
<g opacity="0.3">
<path fill-rule="evenodd" clip-rule="evenodd" d="M326.926 281.68C326.926 274.265 323.868 265.903 315.433 256.624C306.999 247.345 299.767 281.68 299.767 281.68C299.767 281.68 326.926 289.094 326.926 281.68Z" fill="url(#paint30_linear)" style="mix-blend-mode:multiply"/>
</g>
</g>
<path fill-rule="evenodd" clip-rule="evenodd" d="M350.724 119.186H299.246V86.8416H350.724V119.186Z" fill="#051D4E"/>
<path fill-rule="evenodd" clip-rule="evenodd" d="M312.436 105.369C312.436 110.254 312.803 112.603 310.237 116.887C307.672 121.171 294.543 146.979 303.49 158.515C312.436 170.051 349.204 170.975 350.762 155.757C352.32 140.54 342.534 120.142 339.644 114.367C336.754 108.593 337.506 101.777 338.575 99.2737C339.644 96.77 312.436 100.484 312.436 105.369Z" fill="url(#paint31_linear)"/>
<mask id="mask8" mask-type="alpha" maskUnits="userSpaceOnUse" x="300" y="98" width="51" height="70">
<path fill-rule="evenodd" clip-rule="evenodd" d="M312.436 105.369C312.436 110.254 312.803 112.603 310.237 116.887C307.672 121.171 294.543 146.979 303.49 158.515C312.436 170.051 349.204 170.975 350.762 155.757C352.32 140.54 342.534 120.142 339.644 114.367C336.754 108.593 337.506 101.777 338.575 99.2737C339.644 96.77 312.436 100.484 312.436 105.369Z" fill="white"/>
</mask>
<g mask="url(#mask8)">
<path fill-rule="evenodd" clip-rule="evenodd" d="M327.698 164.229C335.397 151.868 337.911 145.278 337.911 135.008C337.911 124.738 352.116 164.229 352.116 164.229C352.116 164.229 319.999 176.589 327.698 164.229Z" fill="url(#paint32_linear)" style="mix-blend-mode:multiply"/>
<path fill-rule="evenodd" clip-rule="evenodd" d="M312.25 106.438C312.25 106.438 341.554 129.926 346.191 129.926C350.827 129.926 339.426 101.022 339.426 101.022L312.25 106.438Z" fill="url(#paint33_linear)" style="mix-blend-mode:multiply"/>
</g>
<path fill-rule="evenodd" clip-rule="evenodd" d="M325.813 109.62H320.97C312.303 109.62 302.279 100.85 301.392 90.031L299.487 66.7977C298.599 55.979 306.65 47.2088 317.469 47.2088H329.769C340.588 47.2088 348.639 55.979 347.751 66.7977L345.846 90.031C344.96 100.834 334.509 109.595 325.813 109.62Z" fill="url(#paint34_linear)"/>
<mask id="mask9" mask-type="alpha" maskUnits="userSpaceOnUse" x="299" y="47" width="49" height="63">
<path fill-rule="evenodd" clip-rule="evenodd" d="M325.813 109.62H320.97C312.303 109.62 302.279 100.85 301.392 90.031L299.487 66.7977C298.599 55.979 306.65 47.2088 317.469 47.2088H329.769C340.588 47.2088 348.639 55.979 347.751 66.7977L345.846 90.031C344.96 100.834 334.509 109.595 325.813 109.62Z" fill="white"/>
</mask>
<g mask="url(#mask9)">
<g style="mix-blend-mode:multiply" opacity="0.15">
<path fill-rule="evenodd" clip-rule="evenodd" d="M308.867 78.3335C310.689 79.4724 313.65 81.7501 318.433 78.789L308.867 78.3335Z" fill="black" fill-opacity="0.01"/>
<path d="M308.867 78.3335C310.689 79.4724 313.65 81.7501 318.433 78.789" stroke="#1E3159" stroke-width="3" stroke-linecap="round" stroke-linejoin="round"/>
</g>
<g style="mix-blend-mode:multiply" opacity="0.3">
<path fill-rule="evenodd" clip-rule="evenodd" d="M319.345 99.2895C322.407 100.105 325.157 100.384 328.912 99.2895H319.345Z" fill="black" fill-opacity="0.01"/>
<path d="M319.345 99.2895C322.407 100.105 325.157 100.384 328.912 99.2895" stroke="#1E3159" stroke-width="3" stroke-linecap="round" stroke-linejoin="round"/>
</g>
<g style="mix-blend-mode:multiply" opacity="0.15">
<path fill-rule="evenodd" clip-rule="evenodd" d="M328.912 78.3335C330.734 79.4724 333.695 81.7501 338.478 78.789L328.912 78.3335Z" fill="black" fill-opacity="0.01"/>
<path d="M328.912 78.3335C330.734 79.4724 333.695 81.7501 338.478 78.789" stroke="#1E3159" stroke-width="3" stroke-linecap="round" stroke-linejoin="round"/>
</g>
<g style="mix-blend-mode:multiply" opacity="0.1">
<path fill-rule="evenodd" clip-rule="evenodd" d="M318.888 92.4562C319.719 92.0682 322.077 93.3673 322.077 93.3673C322.077 93.3673 323.969 92.4943 323.899 91.0895C323.829 89.6847 324.679 79.5285 324.81 78.3339C324.942 77.1393 326.674 89.6553 326.633 90.1784C326.592 90.7015 328.455 92.9117 328.455 92.9117C328.455 92.9117 324.904 95.1937 323.899 95.1895C322.894 95.1853 318.057 92.8442 318.888 92.4562Z" fill="#233A67"/>
</g>
<g opacity="0.3">
<path fill-rule="evenodd" clip-rule="evenodd" d="M305.436 58.4487C305.436 58.4487 304.276 89.3606 308.878 96.8138C313.479 104.267 312.522 108.793 312.522 108.793L298.288 96.8138L305.436 58.4487Z" fill="#5679B0" style="mix-blend-mode:multiply"/>
</g>
<g opacity="0.2">
<path fill-rule="evenodd" clip-rule="evenodd" d="M318.89 93.3667C319.854 93.6887 320.736 93.5904 321.623 94.2778C322.509 94.9652 323.473 95.2069 324.356 95.1889C325.172 95.1722 325.787 93.9494 326.634 93.8222C327.481 93.695 328.611 93.5128 328.912 92.9111" fill="black" fill-opacity="0.01"/>
<path d="M318.89 93.3667C319.854 93.6887 320.736 93.5904 321.623 94.2778C322.509 94.9652 323.473 95.2069 324.356 95.1889C325.172 95.1722 325.787 93.9494 326.634 93.8222C327.481 93.695 328.611 93.5128 328.912 92.9111" stroke="#1E3159"/>
</g>
</g>
<path fill-rule="evenodd" clip-rule="evenodd" d="M306.922 52.9941L307.049 55.9721C307.232 60.2533 310.757 63.6298 315.042 63.6298H331.336C335.754 63.6298 339.336 60.0476 339.336 55.6294C339.336 54.3086 339.336 53.1661 339.336 52.5385C340.591 55.5343 344.711 75.5701 344.711 86.9044C344.711 98.2386 346.839 116.171 347.078 120.635C347.318 125.098 363.615 134.525 366.44 131.567C369.265 128.609 358.167 81.971 355.193 64.7236C352.22 47.4764 341.782 31.9137 320.883 32.6543C299.983 33.3949 292.128 55.4476 290.741 66.3603C289.354 77.273 281.951 127.819 284.47 131.567C286.989 135.314 302.358 124.65 302.358 120.635C302.358 116.619 302.358 98.2386 302.358 86.9044C302.358 75.5701 306.922 52.9941 306.922 52.9941Z" fill="url(#paint35_linear)"/>
<mask id="mask10" mask-type="alpha" maskUnits="userSpaceOnUse" x="283" y="32" width="84" height="101">
<path fill-rule="evenodd" clip-rule="evenodd" d="M306.922 52.9941L307.049 55.9721C307.232 60.2533 310.757 63.6298 315.042 63.6298H331.336C335.754 63.6298 339.336 60.0476 339.336 55.6294C339.336 54.3086 339.336 53.1661 339.336 52.5385C340.591 55.5343 344.711 75.5701 344.711 86.9044C344.711 98.2386 346.839 116.171 347.078 120.635C347.318 125.098 363.615 134.525 366.44 131.567C369.265 128.609 358.167 81.971 355.193 64.7236C352.22 47.4764 341.782 31.9137 320.883 32.6543C299.983 33.3949 292.128 55.4476 290.741 66.3603C289.354 77.273 281.951 127.819 284.47 131.567C286.989 135.314 302.358 124.65 302.358 120.635C302.358 116.619 302.358 98.2386 302.358 86.9044C302.358 75.5701 306.922 52.9941 306.922 52.9941Z" fill="white"/>
</mask>
<g mask="url(#mask10)">
<g opacity="0.483817" filter="url(#filter0_f)">
<ellipse cx="323.444" cy="32.5498" rx="24.6" ry="9.79445" fill="#3D82F0"/>
</g>
</g>
<path fill-rule="evenodd" clip-rule="evenodd" d="M305.12 145.332C305.12 155.622 313.606 162.221 326.906 162.221C340.206 162.221 348.52 156.358 349.2 145.126C353.472 156.385 354.674 191.546 352.804 250.608C345.145 254.561 337.461 256.472 329.754 256.344C318.193 256.15 305.676 251.473 302.482 244.853C299.288 238.233 305.12 135.042 305.12 145.332Z" fill="white"/>
<mask id="mask11" mask-type="alpha" maskUnits="userSpaceOnUse" x="301" y="144" width="53" height="113">
<path fill-rule="evenodd" clip-rule="evenodd" d="M305.12 145.332C305.12 155.622 313.606 162.221 326.906 162.221C340.206 162.221 348.52 156.358 349.2 145.126C353.472 156.385 354.674 191.546 352.804 250.608C345.145 254.561 337.461 256.472 329.754 256.344C318.193 256.15 305.676 251.473 302.482 244.853C299.288 238.233 305.12 135.042 305.12 145.332Z" fill="white"/>
</mask>
<g mask="url(#mask11)">
<g opacity="0.328292">
<path fill-rule="evenodd" clip-rule="evenodd" d="M342.834 176.558C339.351 189.406 330.895 204.852 322.471 210.679C314.046 216.505 329.957 220.547 327.576 223.729C325.196 226.912 316.13 236.514 311.06 240.703C305.989 244.892 311.06 258.029 311.06 258.029C311.06 258.029 355.282 274.547 357.606 258.029C359.93 241.511 346.318 163.71 342.834 176.558Z" fill="url(#paint36_linear)"/>
<path fill-rule="evenodd" clip-rule="evenodd" d="M342.834 176.558C339.351 189.406 330.895 204.852 322.471 210.679C314.046 216.505 329.957 220.547 327.576 223.729C325.196 226.912 316.13 236.514 311.06 240.703C305.989 244.892 311.06 258.029 311.06 258.029C311.06 258.029 355.282 274.547 357.606 258.029C359.93 241.511 346.318 163.71 342.834 176.558Z" fill="url(#paint37_linear)"/>
</g>
</g>
<path fill-rule="evenodd" clip-rule="evenodd" d="M229.885 223.186C224.106 228.118 221.899 229.676 220.689 234.132C219.48 238.587 224.748 251.396 231.735 257.122C238.722 262.847 239.842 254.383 239.774 254.383C239.705 254.383 235.994 241.822 237.193 238.585C238.392 235.347 242.188 233.014 242.968 230.857C243.748 228.7 235.664 218.255 229.885 223.186Z" fill="url(#paint38_linear)"/>
<path fill-rule="evenodd" clip-rule="evenodd" d="M439.109 223.186C444.888 228.118 447.095 229.676 448.305 234.132C449.514 238.587 444.246 251.396 437.259 257.122C430.272 262.847 429.152 254.383 429.22 254.383C429.289 254.383 433 241.822 431.801 238.585C430.602 235.347 426.806 233.014 426.026 230.857C425.246 228.7 433.33 218.255 439.109 223.186Z" fill="url(#paint39_linear)"/>
<g filter="url(#filter1_i)">
<path fill-rule="evenodd" clip-rule="evenodd" d="M227.936 224.334C236.802 218.142 246.258 208.463 247.798 207.023C249.375 205.549 264.42 145.683 269.812 139.379C275.203 133.075 308.499 115.563 312.042 112.441C311.782 115.581 302.998 126.942 321.018 131.157C305.83 145.557 310.935 158.061 312.042 168.559C313.149 179.057 310.935 195.669 310.935 211.448C310.935 227.226 310.935 234.254 312.042 257.273C313.149 280.291 320.486 285.269 316.264 289.474C312.042 293.68 285.407 283.957 279.324 281.508C273.241 279.06 271.771 263.505 275.547 248.478C279.324 233.45 280.769 220.472 280.769 214.659C280.769 208.847 282.346 189.778 279.324 197.707C276.302 205.635 272.545 222.499 267.337 229.721C262.129 236.944 254.235 233.484 243.772 233.484C239.582 220.747 231.387 222.105 227.936 224.334L227.311 224.789C227.496 224.636 227.705 224.483 227.936 224.334Z" fill="#DFEBFF"/>
</g>
<mask id="mask12" mask-type="alpha" maskUnits="userSpaceOnUse" x="227" y="112" width="95" height="179">
<path fill-rule="evenodd" clip-rule="evenodd" d="M227.936 224.334C236.802 218.142 246.258 208.463 247.798 207.023C249.375 205.549 264.42 145.683 269.812 139.379C275.203 133.075 308.499 115.563 312.042 112.441C311.782 115.581 302.998 126.942 321.018 131.157C305.83 145.557 310.935 158.061 312.042 168.559C313.149 179.057 310.935 195.669 310.935 211.448C310.935 227.226 310.935 234.254 312.042 257.273C313.149 280.291 320.486 285.269 316.264 289.474C312.042 293.68 285.407 283.957 279.324 281.508C273.241 279.06 271.771 263.505 275.547 248.478C279.324 233.45 280.769 220.472 280.769 214.659C280.769 208.847 282.346 189.778 279.324 197.707C276.302 205.635 272.545 222.499 267.337 229.721C262.129 236.944 254.235 233.484 243.772 233.484C239.582 220.747 231.387 222.105 227.936 224.334L227.311 224.789C227.496 224.636 227.705 224.483 227.936 224.334Z" fill="white"/>
</mask>
<g mask="url(#mask12)">
<circle cx="260.579" cy="204.067" r="2.27778" fill="white"/>
<circle cx="270.145" cy="189.945" r="2.27778" fill="white"/>
<circle cx="276.067" cy="167.167" r="2.27778" fill="white"/>
<circle cx="286.09" cy="175.367" r="2.27778" fill="white"/>
<circle cx="301.579" cy="175.823" r="2.27778" fill="white"/>
<circle cx="300.211" cy="158.967" r="2.27778" fill="white"/>
<circle cx="284.723" cy="149.401" r="2.27778" fill="white"/>
<circle cx="303.856" cy="143.023" r="2.27778" fill="white"/>
<circle cx="292.467" cy="133" r="2.27778" fill="white"/>
<circle cx="273.789" cy="135.278" r="2.27778" fill="white"/>
<circle cx="269.69" cy="151.223" r="2.27778" fill="white"/>
<circle cx="260.579" cy="161.701" r="2.27778" fill="white"/>
<circle cx="260.579" cy="177.645" r="2.27778" fill="white"/>
<circle cx="251.467" cy="193.134" r="2.27778" fill="white"/>
<circle cx="248.735" cy="218.189" r="2.27778" fill="white"/>
<circle cx="234.157" cy="219.1" r="2.27778" fill="white"/>
<circle cx="249.645" cy="228.667" r="2.27778" fill="white"/>
<circle cx="265.59" cy="221.378" r="2.27778" fill="white"/>
<circle cx="301.579" cy="194.045" r="2.27778" fill="white"/>
<circle cx="285.635" cy="190.856" r="2.27778" fill="white"/>
<circle cx="291.557" cy="213.178" r="2.27778" fill="white"/>
<circle cx="306.135" cy="211.356" r="2.27778" fill="white"/>
<circle cx="306.135" cy="235.5" r="2.27778" fill="white"/>
<circle cx="286.545" cy="238.234" r="2.27778" fill="white"/>
<circle cx="295.202" cy="225.934" r="2.27778" fill="white"/>
<circle cx="302.491" cy="251.901" r="2.27778" fill="white"/>
<g opacity="0.6">
<path fill-rule="evenodd" clip-rule="evenodd" d="M311.119 125.85C291.426 125.85 278.64 134.906 273.144 125.85C267.648 116.794 311.119 95.041 311.119 95.041C311.119 95.041 330.813 125.85 311.119 125.85Z" fill="url(#paint40_linear)" style="mix-blend-mode:multiply"/>
</g>
<path fill-rule="evenodd" clip-rule="evenodd" d="M289.532 252.17C283.737 229.392 286.731 202.533 281.901 196.368C277.072 190.204 279.414 217.622 279.414 217.622L273.543 245.592C273.543 245.592 295.327 274.948 289.532 252.17Z" fill="url(#paint41_linear)"/>
<path opacity="0.5" fill-rule="evenodd" clip-rule="evenodd" d="M279.163 198.142C271.594 205.198 268.265 218.026 264.105 221.636C259.946 225.246 244.347 233.362 244.347 233.362L270.603 238.444C270.603 238.444 286.732 191.086 279.163 198.142Z" fill="url(#paint42_linear)"/>
</g>
<g filter="url(#filter2_i)">
<path fill-rule="evenodd" clip-rule="evenodd" d="M338.66 111.841C342.203 114.963 375.796 133.075 381.188 139.379C386.58 145.682 402.941 209.973 404.518 211.447C406.095 212.921 431.28 220.129 437.971 222.297C435.385 222.297 427.128 225.414 432.192 236.554C437.573 238.174 391.604 243.777 386.396 236.554C381.188 229.332 374.698 205.635 371.676 197.706C368.654 189.778 371.676 205.635 371.676 211.447C371.676 217.26 371.676 236.554 375.453 248.477C379.229 260.4 377.759 279.059 371.676 281.508C365.593 283.956 351.001 289.627 351.001 281.508C351.001 281.508 345.263 262.047 345.197 251.509C345.146 243.359 342.524 211.231 341.698 201.243C339.55 175.264 337.655 174.652 338.243 169.073C339.35 158.575 345.17 145.556 329.981 131.157C348.002 126.941 339.268 114.941 338.66 111.841Z" fill="#DFEBFF"/>
</g>
<mask id="mask13" mask-type="alpha" maskUnits="userSpaceOnUse" x="329" y="111" width="109" height="175">
<path fill-rule="evenodd" clip-rule="evenodd" d="M338.66 111.841C342.203 114.963 375.796 133.075 381.188 139.379C386.58 145.682 402.941 209.973 404.518 211.447C406.095 212.921 431.28 220.129 437.971 222.297C435.385 222.297 427.128 225.414 432.192 236.554C437.573 238.174 391.604 243.777 386.396 236.554C381.188 229.332 374.698 205.635 371.676 197.706C368.654 189.778 371.676 205.635 371.676 211.447C371.676 217.26 371.676 236.554 375.453 248.477C379.229 260.4 377.759 279.059 371.676 281.508C365.593 283.956 351.001 289.627 351.001 281.508C351.001 281.508 345.263 262.047 345.197 251.509C345.146 243.359 342.524 211.231 341.698 201.243C339.55 175.264 337.655 174.652 338.243 169.073C339.35 158.575 345.17 145.556 329.981 131.157C348.002 126.941 339.268 114.941 338.66 111.841Z" fill="white"/>
</mask>
<g mask="url(#mask13)">
<circle cx="355.789" cy="135.732" r="2.27778" fill="white"/>
<circle cx="374.922" cy="134.366" r="2.27778" fill="white"/>
<circle cx="379.934" cy="151.678" r="2.27778" fill="white"/>
<circle cx="364.901" cy="151.678" r="2.27778" fill="white"/>
<circle cx="344.856" cy="146.666" r="2.27778" fill="white"/>
<circle cx="350.323" cy="162.61" r="2.27778" fill="white"/>
<circle cx="374.467" cy="168.533" r="2.27778" fill="white"/>
<circle cx="390.868" cy="161.244" r="2.27778" fill="white"/>
<circle cx="390.411" cy="178.1" r="2.27778" fill="white"/>
<circle cx="364.901" cy="177.643" r="2.27778" fill="white"/>
<circle cx="349.411" cy="179.011" r="2.27778" fill="white"/>
<circle cx="351.69" cy="197.688" r="2.27778" fill="white"/>
<circle cx="348.5" cy="215" r="2.27778" fill="white"/>
<circle cx="362.166" cy="215" r="2.27778" fill="white"/>
<circle cx="360.344" cy="228.211" r="2.27778" fill="white"/>
<circle cx="350.778" cy="238.688" r="2.27778" fill="white"/>
<circle cx="354.877" cy="255.544" r="2.27778" fill="white"/>
<circle cx="370.823" cy="251.444" r="2.27778" fill="white"/>
<circle cx="371.733" cy="237.777" r="2.27778" fill="white"/>
<circle cx="366.266" cy="192.678" r="2.27778" fill="white"/>
<circle cx="381.756" cy="191.31" r="2.27778" fill="white"/>
<circle cx="398.157" cy="189.944" r="2.27778" fill="white"/>
<circle cx="392.233" cy="204.066" r="2.27778" fill="white"/>
<circle cx="388.588" cy="221.833" r="2.27778" fill="white"/>
<circle cx="405.446" cy="216.821" r="2.27778" fill="white"/>
<circle cx="405.901" cy="227.755" r="2.27778" fill="white"/>
<circle cx="424.123" cy="224.11" r="2.27778" fill="white"/>
<path fill-rule="evenodd" clip-rule="evenodd" d="M354.747 266.92C354.747 253.777 367.691 216.33 368.333 211.71C368.975 207.089 370.611 196.03 370.611 196.03L381.035 241.694V254.701C381.035 254.701 354.747 280.063 354.747 266.92Z" fill="url(#paint43_linear)"/>
<g opacity="0.6">
<path fill-rule="evenodd" clip-rule="evenodd" d="M335.624 125.849C355.317 125.849 368.103 134.905 373.599 125.849C379.096 116.793 335.624 95.04 335.624 95.04C335.624 95.04 315.93 125.849 335.624 125.849Z" fill="url(#paint44_linear)" style="mix-blend-mode:multiply"/>
</g>
<path fill-rule="evenodd" clip-rule="evenodd" d="M370.828 196.611C374.677 203.315 388.762 225.235 393.413 228.347C398.063 231.459 410.528 234.706 410.528 234.706L386.784 242.691L380.944 232.001C380.944 232.001 366.978 189.906 370.828 196.611Z" fill="url(#paint45_linear)"/>
</g>
<path fill-rule="evenodd" clip-rule="evenodd" d="M295.802 311.125C302.929 303.633 376.363 246.756 391.256 239.503C406.148 232.249 428.231 225.075 435.569 237.413C442.908 249.751 435.07 260.778 418.39 275.785C401.709 290.793 320.967 326.251 309.086 331.177C297.206 336.103 288.676 318.618 295.802 311.125Z" fill="#A1B8E3"/>
<path fill-rule="evenodd" clip-rule="evenodd" d="M295.802 311.125C302.929 303.633 376.363 246.756 391.256 239.503C406.148 232.249 428.231 225.075 435.569 237.413C442.908 249.751 435.07 260.778 418.39 275.785C401.709 290.793 320.967 326.251 309.086 331.177C297.206 336.103 288.676 318.618 295.802 311.125Z" fill="url(#paint46_linear)"/>
<path fill-rule="evenodd" clip-rule="evenodd" d="M295.802 311.125C302.929 303.633 376.363 246.756 391.256 239.503C406.148 232.249 428.231 225.075 435.569 237.413C442.908 249.751 435.07 260.778 418.39 275.785C401.709 290.793 320.967 326.251 309.086 331.177C297.206 336.103 288.676 318.618 295.802 311.125Z" fill="url(#paint47_linear)"/>
<mask id="mask14" mask-type="alpha" maskUnits="userSpaceOnUse" x="293" y="230" width="146" height="103">
<path fill-rule="evenodd" clip-rule="evenodd" d="M295.802 311.125C302.929 303.633 376.363 246.756 391.256 239.503C406.148 232.249 428.231 225.075 435.569 237.413C442.908 249.751 435.07 260.778 418.39 275.785C401.709 290.793 320.967 326.251 309.086 331.177C297.206 336.103 288.676 318.618 295.802 311.125Z" fill="white"/>
<path fill-rule="evenodd" clip-rule="evenodd" d="M295.802 311.125C302.929 303.633 376.363 246.756 391.256 239.503C406.148 232.249 428.231 225.075 435.569 237.413C442.908 249.751 435.07 260.778 418.39 275.785C401.709 290.793 320.967 326.251 309.086 331.177C297.206 336.103 288.676 318.618 295.802 311.125Z" stroke="white"/>
</mask>
<g mask="url(#mask14)">
<g opacity="0.3">
<path fill-rule="evenodd" clip-rule="evenodd" d="M334.686 321.794C317.821 320.234 293.229 306.984 293.229 306.984L308.965 296.333L337.899 316.65C337.899 316.65 351.552 323.353 334.686 321.794Z" fill="url(#paint48_linear)" style="mix-blend-mode:multiply"/>
</g>
<g filter="url(#filter3_f)">
<path fill-rule="evenodd" clip-rule="evenodd" d="M329.323 279.827C335.053 281.417 367.391 300.304 375.441 303.034C383.49 305.764 370.194 314.491 364.563 316.851C358.932 319.211 325.357 291.109 327.053 286.766C328.75 282.424 323.593 278.237 329.323 279.827Z" fill="#738FC4"/>
</g>
</g>
<path fill-rule="evenodd" clip-rule="evenodd" d="M373.771 311.125C366.644 303.633 293.21 246.756 278.318 239.503C263.425 232.249 241.343 225.075 234.004 237.413C226.666 249.751 234.503 260.778 251.184 275.785C267.864 290.793 348.606 326.251 360.487 331.177C372.367 336.103 380.898 318.618 373.771 311.125Z" fill="#A1B8E3"/>
<path fill-rule="evenodd" clip-rule="evenodd" d="M373.771 311.125C366.644 303.633 293.21 246.756 278.318 239.503C263.425 232.249 241.343 225.075 234.004 237.413C226.666 249.751 234.503 260.778 251.184 275.785C267.864 290.793 348.606 326.251 360.487 331.177C372.367 336.103 380.898 318.618 373.771 311.125Z" fill="url(#paint49_linear)"/>
<path fill-rule="evenodd" clip-rule="evenodd" d="M373.771 311.125C366.644 303.633 293.21 246.756 278.318 239.503C263.425 232.249 241.343 225.075 234.004 237.413C226.666 249.751 234.503 260.778 251.184 275.785C267.864 290.793 348.606 326.251 360.487 331.177C372.367 336.103 380.898 318.618 373.771 311.125Z" fill="url(#paint50_linear)"/>
<path fill-rule="evenodd" clip-rule="evenodd" d="M373.771 311.125C366.644 303.633 293.21 246.756 278.318 239.503C263.425 232.249 241.343 225.075 234.004 237.413C226.666 249.751 234.503 260.778 251.184 275.785C267.864 290.793 348.606 326.251 360.487 331.177C372.367 336.103 380.898 318.618 373.771 311.125Z" fill="url(#paint51_linear)"/>
<path fill-rule="evenodd" clip-rule="evenodd" d="M373.771 311.125C366.644 303.633 293.21 246.756 278.318 239.503C263.425 232.249 241.343 225.075 234.004 237.413C226.666 249.751 234.503 260.778 251.184 275.785C267.864 290.793 348.606 326.251 360.487 331.177C372.367 336.103 380.898 318.618 373.771 311.125Z" fill="url(#paint52_linear)"/>
<path fill-rule="evenodd" clip-rule="evenodd" d="M312.11 112.448C305.429 117.7 304.368 127.733 305.032 132.418C305.475 135.541 307.309 141.226 310.533 149.473C312.622 141.478 316.199 135.406 321.263 131.258C315.363 129.025 308.799 124.816 312.11 112.448Z" fill="url(#paint53_linear)"/>
<path fill-rule="evenodd" clip-rule="evenodd" d="M338.616 111.992C345.296 117.244 346.357 127.277 345.693 131.962C345.25 135.085 343.416 140.77 340.192 149.017C338.103 141.022 334.526 134.95 329.463 130.802C335.362 128.568 341.926 124.36 338.616 111.992Z" fill="url(#paint54_linear)"/>
<mask id="mask15" mask-type="alpha" maskUnits="userSpaceOnUse" x="329" y="111" width="17" height="39">
<path fill-rule="evenodd" clip-rule="evenodd" d="M338.616 111.992C345.296 117.244 346.357 127.277 345.693 131.962C345.25 135.085 343.416 140.77 340.192 149.017C338.103 141.022 334.526 134.95 329.463 130.802C335.362 128.568 341.926 124.36 338.616 111.992Z" fill="white"/>
</mask>
<g mask="url(#mask15)">
<path opacity="0.225391" fill-rule="evenodd" clip-rule="evenodd" d="M332.765 139.421C337.642 134.729 349.355 115.857 335.539 111.313C321.722 106.768 324.63 133.053 324.63 133.053C324.63 133.053 327.888 144.113 332.765 139.421Z" fill="#A1B8E4"/>
</g>
<path fill-rule="evenodd" clip-rule="evenodd" d="M508.794 357.488L463.931 337.722C462.78 337.215 462.258 335.87 462.765 334.719C463.046 334.081 463.604 333.607 464.278 333.433L550.166 311.179L596.45 332.258L508.794 357.488Z" fill="url(#paint55_linear)"/>
<path fill-rule="evenodd" clip-rule="evenodd" d="M613.625 264.646L532.287 280.304C529.66 280.81 527.57 282.802 526.939 285.402L509.383 357.701L592.867 336.906C594.889 336.402 596.498 334.873 597.103 332.879L616.758 268.124C617.196 266.679 616.381 265.153 614.936 264.714C614.512 264.585 614.061 264.562 613.625 264.646Z" fill="url(#paint56_linear)"/>
<path fill-rule="evenodd" clip-rule="evenodd" d="M568.957 316.749C565.07 319.309 560.695 319.871 558.412 316.404C556.128 312.937 558.842 308.328 562.73 305.768C566.617 303.208 570.54 302.704 572.823 306.171C575.107 309.638 572.845 314.189 568.957 316.749Z" fill="#D6E3FA"/>
<path fill-rule="evenodd" clip-rule="evenodd" d="M143.524 144.838C173.099 153.133 194.652 154.367 208.184 148.542C193.919 160.951 182.556 166.47 174.095 165.1C161.404 163.045 148.398 148.542 143.524 144.838Z" fill="#A1B8E3"/>
<path fill-rule="evenodd" clip-rule="evenodd" d="M106.148 120.238C128.828 120.238 133.56 120.238 159.394 120.238C159.394 148.058 174.507 158.111 190.628 161.506C171.793 172.116 136.489 166.111 126.492 157.34C116.494 148.57 110.545 145.104 106.148 120.238Z" fill="url(#paint57_linear)"/>
<path fill-rule="evenodd" clip-rule="evenodd" d="M564.586 178.362C566.353 180.1 567.86 181.786 569.105 183.418C571.698 186.817 572.473 191.515 572.292 191.634C571.309 192.281 565.685 188.547 564.586 185.514C563.927 183.696 563.927 181.312 564.586 178.362Z" fill="#A1B8E3"/>
<path fill-rule="evenodd" clip-rule="evenodd" d="M517.457 208.182C530.384 199.356 537.16 188.36 537.787 175.194C541.182 174.688 547.738 175.32 564.189 178.18C565.721 178.447 565.856 180.877 564.595 185.471C570.142 187.505 572.683 189.443 572.22 191.284C568.199 207.245 562.881 214.522 554.855 217.942C545.648 219.111 533.182 215.857 517.457 208.182Z" fill="url(#paint58_linear)"/>
<path fill-rule="evenodd" clip-rule="evenodd" d="M456.104 66.8848C451.452 79.837 436.304 87.3128 421.01 90.1495C427.187 99.8036 439.517 115.319 450.228 126.522C450.737 127.055 452.801 127.889 453.344 128.327C456.626 130.975 460.138 129.478 461.962 129.453C470.982 126.63 478.989 125.418 486.496 118.606C490.345 115.114 493.204 111.908 494.112 110.354C491.869 103.508 480.764 97.5113 456.104 66.8848Z" fill="url(#paint59_linear)"/>
<path fill-rule="evenodd" clip-rule="evenodd" d="M459.714 122.188C459.885 125.982 453.21 129.456 449.396 125.73C453.486 129.648 457.124 130.226 460.141 130.216C463.158 130.206 477.249 130.241 494.054 110.363C479.186 126.551 467.915 130.711 459.714 122.188Z" fill="#FF9600"/>
<path opacity="0.7" fill-rule="evenodd" clip-rule="evenodd" d="M127.555 352.578C142.65 352.578 154.888 355.229 154.888 358.5C154.888 361.771 142.65 364.422 127.555 364.422C112.459 364.422 100.221 361.771 100.221 358.5C100.221 355.229 112.459 352.578 127.555 352.578Z" fill="url(#paint60_linear)"/>
<path fill-rule="evenodd" clip-rule="evenodd" d="M163.98 324.046C166.036 327.649 167.188 331.686 167.188 335.95C167.188 351.171 152.503 363.511 134.388 363.511C116.273 363.511 101.588 351.171 101.588 335.95C101.588 331.438 102.878 327.18 105.165 323.421C119.695 325.722 148.617 325.574 163.98 324.046Z" fill="url(#paint61_linear)"/>
<mask id="mask16" mask-type="alpha" maskUnits="userSpaceOnUse" x="101" y="323" width="67" height="41">
<path fill-rule="evenodd" clip-rule="evenodd" d="M163.98 324.046C166.036 327.649 167.188 331.686 167.188 335.95C167.188 351.171 152.503 363.511 134.388 363.511C116.273 363.511 101.588 351.171 101.588 335.95C101.588 331.438 102.878 327.18 105.165 323.421C119.695 325.722 148.617 325.574 163.98 324.046Z" fill="white"/>
</mask>
<g mask="url(#mask16)">
</g>
<path fill-rule="evenodd" clip-rule="evenodd" d="M134.615 317.956C151.095 317.956 164.454 321.117 164.454 325.017C164.454 328.916 151.095 332.078 134.615 332.078C118.136 332.078 104.776 328.916 104.776 325.017C104.776 321.117 118.136 317.956 134.615 317.956Z" fill="url(#paint62_linear)"/>
<mask id="mask17" mask-type="alpha" maskUnits="userSpaceOnUse" x="104" y="317" width="61" height="16">
<path fill-rule="evenodd" clip-rule="evenodd" d="M134.615 317.956C151.095 317.956 164.454 321.117 164.454 325.017C164.454 328.916 151.095 332.078 134.615 332.078C118.136 332.078 104.776 328.916 104.776 325.017C104.776 321.117 118.136 317.956 134.615 317.956Z" fill="white"/>
</mask>
<g mask="url(#mask17)">
</g>
<g filter="url(#filter4_i)">
<path fill-rule="evenodd" clip-rule="evenodd" d="M132.111 319.777C130.481 308.501 125.998 292.217 112.522 274.677C104.583 264.345 104.557 239.185 103.411 236.411C109.64 238.553 120.83 244.075 132.111 259.644C143.936 275.965 136.434 309.25 132.111 319.777Z" fill="url(#paint63_linear)"/>
</g>
<mask id="mask18" mask-type="alpha" maskUnits="userSpaceOnUse" x="103" y="236" width="36" height="84">
<path fill-rule="evenodd" clip-rule="evenodd" d="M132.111 319.777C130.481 308.501 125.998 292.217 112.522 274.677C104.583 264.345 104.557 239.185 103.411 236.411C109.64 238.553 120.83 244.075 132.111 259.644C143.936 275.965 136.434 309.25 132.111 319.777Z" fill="white"/>
</mask>
<g mask="url(#mask18)">
<g style="mix-blend-mode:multiply" opacity="0.5">
<path d="M130.369 306.436L122.182 267.694C127.583 278.614 130.076 290.636 130.369 306.436Z" fill="black" fill-opacity="0.01"/>
<path d="M130.369 306.436L122.182 267.694C127.583 278.614 130.076 290.636 130.369 306.436Z" stroke="#489C71" stroke-width="3"/>
</g>
</g>
<g filter="url(#filter5_i)">
<path fill-rule="evenodd" clip-rule="evenodd" d="M132.162 331.353C127.128 323.3 118.233 312.388 102.053 303.54C92.5222 298.328 84.0445 279.149 82.2368 277.418C87.7104 276.959 98.1056 277.411 111.947 285.494C126.457 293.968 131.922 321.872 132.162 331.353Z" fill="url(#paint64_linear)"/>
</g>
<mask id="mask19" mask-type="alpha" maskUnits="userSpaceOnUse" x="82" y="277" width="51" height="55">
<path fill-rule="evenodd" clip-rule="evenodd" d="M132.162 331.353C127.128 323.3 118.233 312.388 102.053 303.54C92.5222 298.328 84.0445 279.149 82.2368 277.418C87.7104 276.959 98.1056 277.411 111.947 285.494C126.457 293.968 131.922 321.872 132.162 331.353Z" fill="white"/>
</mask>
<g mask="url(#mask19)">
<g style="mix-blend-mode:multiply" opacity="0.5">
<path d="M124.93 319.365L108.524 296.554C114.967 302.346 120.134 309.567 124.93 319.365Z" fill="black" fill-opacity="0.01"/>
<path d="M124.93 319.365L108.524 296.554C114.967 302.346 120.134 309.567 124.93 319.365Z" stroke="#489C71" stroke-width="3"/>
</g>
</g>
<g filter="url(#filter6_i)">
<path fill-rule="evenodd" clip-rule="evenodd" d="M135.777 332.456C139.747 323.788 147.19 311.776 162.158 300.879C170.975 294.46 176.93 274.27 178.506 272.313C172.995 272.562 162.699 274.352 149.961 284.186C136.608 294.495 134.786 322.984 135.777 332.456Z" fill="url(#paint65_linear)"/>
</g>
<mask id="mask20" mask-type="alpha" maskUnits="userSpaceOnUse" x="135" y="272" width="44" height="61">
<path fill-rule="evenodd" clip-rule="evenodd" d="M135.777 332.456C139.747 323.788 147.19 311.776 162.158 300.879C170.975 294.46 176.93 274.27 178.506 272.313C172.995 272.562 162.699 274.352 149.961 284.186C136.608 294.495 134.786 322.984 135.777 332.456Z" fill="white"/>
</mask>
<g mask="url(#mask20)">
<g style="mix-blend-mode:multiply" opacity="0.5">
<path d="M153.322 294.577L139.871 319.537C143.39 309.096 147.619 301.202 153.322 294.577Z" fill="black" fill-opacity="0.01"/>
<path d="M153.322 294.577L139.871 319.537C143.39 309.096 147.619 301.202 153.322 294.577Z" stroke="#489C71" stroke-width="3"/>
</g>
</g>
<path fill-rule="evenodd" clip-rule="evenodd" d="M249.54 31.0779C249.649 32.8766 249.643 34.5199 249.521 36.0079C249.269 39.1056 247.402 42.0202 247.247 41.9967C246.401 41.8679 245.179 37.1148 246.06 34.9419C246.589 33.6392 247.749 32.3513 249.54 31.0779Z" fill="#A1B8E3"/>
<path fill-rule="evenodd" clip-rule="evenodd" d="M209.573 24.2627C220.85 25.7828 229.86 23.1388 236.603 16.3308C238.683 17.7083 241.918 21.2391 249.414 30.7868C250.112 31.676 249.003 33.0548 246.086 34.9235C248.093 38.7203 248.524 41.0033 247.378 41.7723C237.442 48.4399 231.029 49.7844 225.029 47.7275C219.487 43.8804 214.334 36.0588 209.573 24.2627Z" fill="url(#paint66_linear)"/>
</g>
<defs>
<filter id="filter0_f" x="263.506" y="-12.5823" width="119.875" height="90.2642" filterUnits="userSpaceOnUse" color-interpolation-filters="sRGB">
<feFlood flood-opacity="0" result="BackgroundImageFix"/>
<feBlend mode="normal" in="SourceGraphic" in2="BackgroundImageFix" result="shape"/>
<feGaussianBlur stdDeviation="17.6688" result="effect1_foregroundBlur"/>
</filter>
<filter id="filter1_i" x="227.311" y="112.441" width="102.708" height="192.075" filterUnits="userSpaceOnUse" color-interpolation-filters="sRGB">
<feFlood flood-opacity="0" result="BackgroundImageFix"/>
<feBlend mode="normal" in="SourceGraphic" in2="BackgroundImageFix" result="shape"/>
<feColorMatrix in="SourceAlpha" type="matrix" values="0 0 0 0 0 0 0 0 0 0 0 0 0 0 0 0 0 0 127 0" result="hardAlpha"/>
<feOffset dx="9" dy="14"/>
<feGaussianBlur stdDeviation="14"/>
<feComposite in2="hardAlpha" operator="arithmetic" k2="-1" k3="1"/>
<feColorMatrix type="matrix" values="0 0 0 0 0.741176 0 0 0 0 0.815686 0 0 0 0 0.941176 0 0 0 1 0"/>
<feBlend mode="normal" in2="shape" result="effect1_innerShadow"/>
</filter>
<filter id="filter2_i" x="327.981" y="111.841" width="109.989" height="187.884" filterUnits="userSpaceOnUse" color-interpolation-filters="sRGB">
<feFlood flood-opacity="0" result="BackgroundImageFix"/>
<feBlend mode="normal" in="SourceGraphic" in2="BackgroundImageFix" result="shape"/>
<feColorMatrix in="SourceAlpha" type="matrix" values="0 0 0 0 0 0 0 0 0 0 0 0 0 0 0 0 0 0 127 0" result="hardAlpha"/>
<feOffset dx="-2" dy="14"/>
<feGaussianBlur stdDeviation="14"/>
<feComposite in2="hardAlpha" operator="arithmetic" k2="-1" k3="1"/>
<feColorMatrix type="matrix" values="0 0 0 0 0.741176 0 0 0 0 0.815686 0 0 0 0 0.941176 0 0 0 1 0"/>
<feBlend mode="normal" in2="shape" result="effect1_innerShadow"/>
</filter>
<filter id="filter3_f" x="299.35" y="252.3" width="105.795" height="91.8743" filterUnits="userSpaceOnUse" color-interpolation-filters="sRGB">
<feFlood flood-opacity="0" result="BackgroundImageFix"/>
<feBlend mode="normal" in="SourceGraphic" in2="BackgroundImageFix" result="shape"/>
<feGaussianBlur stdDeviation="13.5914" result="effect1_foregroundBlur"/>
</filter>
<filter id="filter4_i" x="103.411" y="226.411" width="35.0535" height="93.3667" filterUnits="userSpaceOnUse" color-interpolation-filters="sRGB">
<feFlood flood-opacity="0" result="BackgroundImageFix"/>
<feBlend mode="normal" in="SourceGraphic" in2="BackgroundImageFix" result="shape"/>
<feColorMatrix in="SourceAlpha" type="matrix" values="0 0 0 0 0 0 0 0 0 0 0 0 0 0 0 0 0 0 127 0" result="hardAlpha"/>
<feOffset dy="-10"/>
<feGaussianBlur stdDeviation="11"/>
<feComposite in2="hardAlpha" operator="arithmetic" k2="-1" k3="1"/>
<feColorMatrix type="matrix" values="0 0 0 0 0.221483 0 0 0 0 0.77854 0 0 0 0 0.610041 0 0 0 1 0"/>
<feBlend mode="normal" in2="shape" result="effect1_innerShadow"/>
</filter>
<filter id="filter5_i" x="82.2373" y="267.295" width="49.925" height="64.0571" filterUnits="userSpaceOnUse" color-interpolation-filters="sRGB">
<feFlood flood-opacity="0" result="BackgroundImageFix"/>
<feBlend mode="normal" in="SourceGraphic" in2="BackgroundImageFix" result="shape"/>
<feColorMatrix in="SourceAlpha" type="matrix" values="0 0 0 0 0 0 0 0 0 0 0 0 0 0 0 0 0 0 127 0" result="hardAlpha"/>
<feOffset dy="-10"/>
<feGaussianBlur stdDeviation="11"/>
<feComposite in2="hardAlpha" operator="arithmetic" k2="-1" k3="1"/>
<feColorMatrix type="matrix" values="0 0 0 0 0.221483 0 0 0 0 0.77854 0 0 0 0 0.610041 0 0 0 1 0"/>
<feBlend mode="normal" in2="shape" result="effect1_innerShadow"/>
</filter>
<filter id="filter6_i" x="135.55" y="262.313" width="42.9564" height="70.1421" filterUnits="userSpaceOnUse" color-interpolation-filters="sRGB">
<feFlood flood-opacity="0" result="BackgroundImageFix"/>
<feBlend mode="normal" in="SourceGraphic" in2="BackgroundImageFix" result="shape"/>
<feColorMatrix in="SourceAlpha" type="matrix" values="0 0 0 0 0 0 0 0 0 0 0 0 0 0 0 0 0 0 127 0" result="hardAlpha"/>
<feOffset dy="-10"/>
<feGaussianBlur stdDeviation="11"/>
<feComposite in2="hardAlpha" operator="arithmetic" k2="-1" k3="1"/>
<feColorMatrix type="matrix" values="0 0 0 0 0.221483 0 0 0 0 0.77854 0 0 0 0 0.610041 0 0 0 1 0"/>
<feBlend mode="normal" in2="shape" result="effect1_innerShadow"/>
</filter>
<radialGradient id="paint0_radial" cx="0" cy="0" r="1" gradientUnits="userSpaceOnUse" gradientTransform="translate(587.542 13.6102) rotate(117.127) scale(49.2022 92.4564)">
<stop stop-color="#CBDAF1"/>
<stop offset="1" stop-color="#7089B9"/>
</radialGradient>
<linearGradient id="paint1_linear" x1="0" y1="263.744" x2="0" y2="419.544" gradientUnits="userSpaceOnUse">
<stop stop-color="white"/>
<stop offset="1" stop-color="#EAF0FD"/>
</linearGradient>
<linearGradient id="paint2_linear" x1="644.212" y1="166.474" x2="606.307" y2="-8.03421" gradientUnits="userSpaceOnUse">
<stop stop-color="#E3ECF9"/>
<stop offset="1" stop-color="#F6F8FE"/>
</linearGradient>
<linearGradient id="paint3_linear" x1="216.999" y1="138.288" x2="165.361" y2="205.809" gradientUnits="userSpaceOnUse">
<stop stop-color="#CFDDF3"/>
<stop offset="1" stop-color="#A1B8E3"/>
</linearGradient>
<linearGradient id="paint4_linear" x1="205.684" y1="210.633" x2="223.801" y2="240.786" gradientUnits="userSpaceOnUse">
<stop stop-color="#CFDDF3"/>
<stop offset="1" stop-color="#A1B8E3"/>
</linearGradient>
<linearGradient id="paint5_linear" x1="206.148" y1="187.004" x2="216.994" y2="205.054" gradientUnits="userSpaceOnUse">
<stop stop-color="#CFDDF3"/>
<stop offset="1" stop-color="#A1B8E3"/>
</linearGradient>
<linearGradient id="paint6_linear" x1="195.281" y1="150.974" x2="273.71" y2="281.501" gradientUnits="userSpaceOnUse">
<stop stop-color="#CFDDF3"/>
<stop offset="1" stop-color="#A1B8E3"/>
</linearGradient>
<linearGradient id="paint7_linear" x1="433.556" y1="214.675" x2="435.416" y2="321.251" gradientUnits="userSpaceOnUse">
<stop stop-color="#CFDDF3"/>
<stop offset="1" stop-color="#A1B8E3"/>
</linearGradient>
<linearGradient id="paint8_linear" x1="463.637" y1="151.849" x2="435.972" y2="158.316" gradientUnits="userSpaceOnUse">
<stop stop-color="#CFDDF3"/>
<stop offset="1" stop-color="#A1B8E3"/>
</linearGradient>
<linearGradient id="paint9_linear" x1="494.38" y1="168.415" x2="466.715" y2="174.881" gradientUnits="userSpaceOnUse">
<stop stop-color="#CFDDF3"/>
<stop offset="1" stop-color="#A1B8E3"/>
</linearGradient>
<linearGradient id="paint10_linear" x1="484.861" y1="192.894" x2="457.197" y2="199.36" gradientUnits="userSpaceOnUse">
<stop stop-color="#CFDDF3"/>
<stop offset="1" stop-color="#A1B8E3"/>
</linearGradient>
<linearGradient id="paint11_linear" x1="477.17" y1="216.605" x2="449.505" y2="223.071" gradientUnits="userSpaceOnUse">
<stop stop-color="#CFDDF3"/>
<stop offset="1" stop-color="#A1B8E3"/>
</linearGradient>
<linearGradient id="paint12_linear" x1="492.316" y1="139.623" x2="464.652" y2="146.09" gradientUnits="userSpaceOnUse">
<stop stop-color="#CFDDF3"/>
<stop offset="1" stop-color="#A1B8E3"/>
</linearGradient>
<linearGradient id="paint13_linear" x1="450.837" y1="177.793" x2="423.172" y2="184.26" gradientUnits="userSpaceOnUse">
<stop stop-color="#CFDDF3"/>
<stop offset="1" stop-color="#A1B8E3"/>
</linearGradient>
<linearGradient id="paint14_linear" x1="441.345" y1="203.745" x2="413.68" y2="210.212" gradientUnits="userSpaceOnUse">
<stop stop-color="#CFDDF3"/>
<stop offset="1" stop-color="#A1B8E3"/>
</linearGradient>
<linearGradient id="paint15_linear" x1="258.969" y1="-7.4597" x2="174.66" y2="100.299" gradientUnits="userSpaceOnUse">
<stop stop-color="#D2E0F9" stop-opacity="0.01"/>
<stop offset="1" stop-color="#B1C6E7" stop-opacity="0.464589"/>
</linearGradient>
<linearGradient id="paint16_linear" x1="251.247" y1="32.521" x2="184.749" y2="117.515" gradientUnits="userSpaceOnUse">
<stop stop-color="#D2E0F9" stop-opacity="0.01"/>
<stop offset="1" stop-color="#B1C6E7" stop-opacity="0.464589"/>
</linearGradient>
<linearGradient id="paint17_linear" x1="455.312" y1="65.4295" x2="371.004" y2="173.188" gradientUnits="userSpaceOnUse">
<stop stop-color="#D2E0F9" stop-opacity="0.01"/>
<stop offset="1" stop-color="#B1C6E7" stop-opacity="0.464589"/>
</linearGradient>
<linearGradient id="paint18_linear" x1="447.591" y1="105.41" x2="381.092" y2="190.404" gradientUnits="userSpaceOnUse">
<stop stop-color="#D2E0F9" stop-opacity="0.01"/>
<stop offset="1" stop-color="#B1C6E7" stop-opacity="0.464589"/>
</linearGradient>
<radialGradient id="paint19_radial" cx="0" cy="0" r="1" gradientUnits="userSpaceOnUse" gradientTransform="translate(427.324 320.322) rotate(162.551) scale(28.9837 19.7136)">
<stop stop-color="#3864B1"/>
<stop offset="1" stop-color="#223762"/>
</radialGradient>
<linearGradient id="paint20_linear" x1="411.714" y1="328.722" x2="407.456" y2="315.24" gradientUnits="userSpaceOnUse">
<stop stop-color="#223762" stop-opacity="0.01"/>
<stop offset="1" stop-opacity="0.5"/>
</linearGradient>
<linearGradient id="paint21_linear" x1="374.577" y1="337.422" x2="386.589" y2="328.492" gradientUnits="userSpaceOnUse">
<stop stop-color="#0640A2"/>
<stop offset="1" stop-color="#3D82F0"/>
</linearGradient>
<linearGradient id="paint22_linear" x1="377.634" y1="339.588" x2="377.634" y2="315.64" gradientUnits="userSpaceOnUse">
<stop stop-color="#70B8F9" stop-opacity="0.01"/>
<stop offset="1" stop-color="#3D82F0"/>
</linearGradient>
<radialGradient id="paint23_radial" cx="0" cy="0" r="1" gradientUnits="userSpaceOnUse" gradientTransform="translate(247.394 315.618) rotate(162.983) scale(28.916 19.2398)">
<stop stop-color="#3864B1"/>
<stop offset="1" stop-color="#223762"/>
</radialGradient>
<linearGradient id="paint24_linear" x1="271.493" y1="332.985" x2="282.427" y2="341.313" gradientUnits="userSpaceOnUse">
<stop stop-color="#223762" stop-opacity="0.01"/>
<stop offset="1" stop-opacity="0.5"/>
</linearGradient>
<linearGradient id="paint25_linear" x1="308.173" y1="327.973" x2="300.239" y2="314.601" gradientUnits="userSpaceOnUse">
<stop stop-color="#0640A2"/>
<stop offset="1" stop-color="#3D82F0"/>
</linearGradient>
<linearGradient id="paint26_linear" x1="314.118" y1="338.084" x2="314.118" y2="318.401" gradientUnits="userSpaceOnUse">
<stop stop-color="#70B8F9" stop-opacity="0.01"/>
<stop offset="1" stop-color="#3D82F0"/>
</linearGradient>
<linearGradient id="paint27_linear" x1="424.304" y1="334.067" x2="424.304" y2="257.568" gradientUnits="userSpaceOnUse">
<stop stop-color="#41679C"/>
<stop offset="1" stop-color="#89A3D0"/>
</linearGradient>
<linearGradient id="paint28_linear" x1="304.245" y1="247.008" x2="304.657" y2="266.779" gradientUnits="userSpaceOnUse">
<stop stop-color="#5E7FB1"/>
<stop offset="1" stop-color="#A1B8E3" stop-opacity="0.188689"/>
</linearGradient>
<linearGradient id="paint29_linear" x1="335.697" y1="255.608" x2="337.864" y2="290.577" gradientUnits="userSpaceOnUse">
<stop stop-color="#5E7FB1"/>
<stop offset="1" stop-color="#A1B8E3" stop-opacity="0.188689"/>
</linearGradient>
<linearGradient id="paint30_linear" x1="316.049" y1="281.765" x2="307.283" y2="265.136" gradientUnits="userSpaceOnUse">
<stop stop-color="#5E7FB1"/>
<stop offset="1" stop-color="#A1B8E3" stop-opacity="0.188689"/>
</linearGradient>
<linearGradient id="paint31_linear" x1="310.318" y1="96.0996" x2="310.318" y2="129.619" gradientUnits="userSpaceOnUse">
<stop stop-color="#092989"/>
<stop offset="1" stop-color="#3378E4"/>
</linearGradient>
<linearGradient id="paint32_linear" x1="343.363" y1="140" x2="326.88" y2="142.498" gradientUnits="userSpaceOnUse">
<stop stop-color="#70B8F9"/>
<stop offset="1" stop-color="#3D82F0" stop-opacity="0.01"/>
</linearGradient>
<linearGradient id="paint33_linear" x1="347.531" y1="129.926" x2="347.531" y2="101.022" gradientUnits="userSpaceOnUse">
<stop stop-color="#70B8F9" stop-opacity="0.01"/>
<stop offset="1" stop-color="#3D82F0"/>
</linearGradient>
<linearGradient id="paint34_linear" x1="362.615" y1="72.5783" x2="328.209" y2="72.5783" gradientUnits="userSpaceOnUse">
<stop stop-color="#70B8F9"/>
<stop offset="1" stop-color="#3D82F0"/>
</linearGradient>
<linearGradient id="paint35_linear" x1="366.896" y1="132.352" x2="366.896" y2="32.6289" gradientUnits="userSpaceOnUse">
<stop stop-color="#06275A"/>
<stop offset="1" stop-color="#223762"/>
</linearGradient>
<linearGradient id="paint36_linear" x1="291.987" y1="253.486" x2="342.61" y2="268.676" gradientUnits="userSpaceOnUse">
<stop stop-color="#E9F2FE"/>
<stop offset="1" stop-color="#BCD3F8"/>
</linearGradient>
<linearGradient id="paint37_linear" x1="325.061" y1="236.721" x2="348.577" y2="251.616" gradientUnits="userSpaceOnUse">
<stop stop-color="white" stop-opacity="0.01"/>
<stop offset="1" stop-color="#003BA0"/>
</linearGradient>
<linearGradient id="paint38_linear" x1="244.186" y1="228.977" x2="227.036" y2="226.522" gradientUnits="userSpaceOnUse">
<stop stop-color="#3158B2"/>
<stop offset="1" stop-color="#3D82F0"/>
</linearGradient>
<linearGradient id="paint39_linear" x1="430.316" y1="258.692" x2="446.396" y2="254.908" gradientUnits="userSpaceOnUse">
<stop stop-color="#3158B2"/>
<stop offset="1" stop-color="#3D82F0"/>
</linearGradient>
<linearGradient id="paint40_linear" x1="318.484" y1="115.704" x2="313.569" y2="143.117" gradientUnits="userSpaceOnUse">
<stop stop-color="#82ADF6"/>
<stop offset="1" stop-color="#ADBAD1" stop-opacity="0.01"/>
</linearGradient>
<linearGradient id="paint41_linear" x1="279.839" y1="284.978" x2="305.355" y2="280.175" gradientUnits="userSpaceOnUse">
<stop stop-color="#A9BFE4"/>
<stop offset="1" stop-color="#A9C1E8" stop-opacity="0.0935802"/>
</linearGradient>
<linearGradient id="paint42_linear" x1="267.957" y1="181.151" x2="228.171" y2="207.451" gradientUnits="userSpaceOnUse">
<stop stop-color="#A9BFE4"/>
<stop offset="1" stop-color="#A9C1E8" stop-opacity="0.0935802"/>
</linearGradient>
<linearGradient id="paint43_linear" x1="378.159" y1="162.076" x2="342.536" y2="167.712" gradientUnits="userSpaceOnUse">
<stop stop-color="#A9BFE4"/>
<stop offset="1" stop-color="#A9C1E8" stop-opacity="0.0935802"/>
</linearGradient>
<linearGradient id="paint44_linear" x1="328.259" y1="115.703" x2="333.174" y2="143.116" gradientUnits="userSpaceOnUse">
<stop stop-color="#82ADF6"/>
<stop offset="1" stop-color="#ADBAD1" stop-opacity="0.01"/>
</linearGradient>
<linearGradient id="paint45_linear" x1="375.099" y1="236.34" x2="393.88" y2="226.931" gradientUnits="userSpaceOnUse">
<stop stop-color="#A9BFE4"/>
<stop offset="1" stop-color="#A9C1E8" stop-opacity="0.0935802"/>
</linearGradient>
<linearGradient id="paint46_linear" x1="317.929" y1="290.212" x2="324.574" y2="320.903" gradientUnits="userSpaceOnUse">
<stop stop-color="#B2C7EE" stop-opacity="0.01"/>
<stop offset="1" stop-color="#1F54A6"/>
</linearGradient>
<linearGradient id="paint47_linear" x1="430.588" y1="239.341" x2="384.975" y2="246.276" gradientUnits="userSpaceOnUse">
<stop stop-color="white" stop-opacity="0.5"/>
<stop offset="1" stop-color="#B2C7EE" stop-opacity="0.01"/>
</linearGradient>
<linearGradient id="paint48_linear" x1="306.189" y1="321.029" x2="321.594" y2="306.425" gradientUnits="userSpaceOnUse">
<stop stop-color="#A1B8E3" stop-opacity="0.235083"/>
<stop offset="1" stop-color="#002B6F"/>
</linearGradient>
<linearGradient id="paint49_linear" x1="260.574" y1="262.891" x2="241.265" y2="300.817" gradientUnits="userSpaceOnUse">
<stop stop-color="#B2C7EE" stop-opacity="0.01"/>
<stop offset="1" stop-color="#1F54A6"/>
</linearGradient>
<linearGradient id="paint50_linear" x1="254.797" y1="227.59" x2="254.797" y2="272.077" gradientUnits="userSpaceOnUse">
<stop stop-color="white" stop-opacity="0.5"/>
<stop offset="1" stop-color="#B2C7EE" stop-opacity="0.01"/>
</linearGradient>
<linearGradient id="paint51_linear" x1="321.499" y1="297.329" x2="322.934" y2="341.355" gradientUnits="userSpaceOnUse">
<stop stop-color="#A1B8E3" stop-opacity="0.01"/>
<stop offset="1" stop-color="#1C2F84" stop-opacity="0.5"/>
</linearGradient>
<linearGradient id="paint52_linear" x1="302.619" y1="257.889" x2="293.151" y2="291.32" gradientUnits="userSpaceOnUse">
<stop stop-color="white" stop-opacity="0.5"/>
<stop offset="1" stop-color="#A1B8E3" stop-opacity="0.01"/>
</linearGradient>
<linearGradient id="paint53_linear" x1="311.937" y1="116.894" x2="302.468" y2="117.901" gradientUnits="userSpaceOnUse">
<stop stop-color="#DEEAFF"/>
<stop offset="1" stop-color="white"/>
</linearGradient>
<linearGradient id="paint54_linear" x1="336.001" y1="133.899" x2="343.992" y2="136.394" gradientUnits="userSpaceOnUse">
<stop stop-color="#DEEAFF"/>
<stop offset="1" stop-color="white"/>
</linearGradient>
<linearGradient id="paint55_linear" x1="432.149" y1="342.583" x2="440.914" y2="373.826" gradientUnits="userSpaceOnUse">
<stop stop-color="#47689B"/>
<stop offset="1" stop-color="#223762"/>
</linearGradient>
<linearGradient id="paint56_linear" x1="563.294" y1="221.352" x2="480.586" y2="327.564" gradientUnits="userSpaceOnUse">
<stop stop-color="#CFDDF3"/>
<stop offset="0.473556" stop-color="#B3C7E9"/>
<stop offset="1" stop-color="#728FC5"/>
</linearGradient>
<linearGradient id="paint57_linear" x1="146.742" y1="183.576" x2="164.825" y2="148.194" gradientUnits="userSpaceOnUse">
<stop stop-color="#ACC1E3"/>
<stop offset="1" stop-color="#D6E3FA"/>
</linearGradient>
<linearGradient id="paint58_linear" x1="541.577" y1="231.692" x2="565.371" y2="207.415" gradientUnits="userSpaceOnUse">
<stop stop-color="#ACC1E3"/>
<stop offset="1" stop-color="#D6E3FA"/>
</linearGradient>
<linearGradient id="paint59_linear" x1="444.864" y1="58.3735" x2="430.958" y2="100.615" gradientUnits="userSpaceOnUse">
<stop stop-color="#FF9D61"/>
<stop offset="1" stop-color="#FFD873"/>
</linearGradient>
<linearGradient id="paint60_linear" x1="155.799" y1="352.122" x2="99.7656" y2="352.122" gradientUnits="userSpaceOnUse">
<stop stop-color="#D9E5F6" stop-opacity="0.712636"/>
<stop offset="1" stop-color="#B2C6EA"/>
</linearGradient>
<linearGradient id="paint61_linear" x1="178.366" y1="348.053" x2="137.054" y2="320.218" gradientUnits="userSpaceOnUse">
<stop stop-color="#ACC5E9"/>
<stop offset="0.627469" stop-color="#D3E3FB"/>
<stop offset="1" stop-color="#EAF2FF"/>
</linearGradient>
<linearGradient id="paint62_linear" x1="106.601" y1="314.694" x2="105.146" y2="338.029" gradientUnits="userSpaceOnUse">
<stop stop-color="#86A8D9"/>
<stop offset="1" stop-color="#BCD0F2"/>
</linearGradient>
<linearGradient id="paint63_linear" x1="97.4639" y1="259.025" x2="146.426" y2="310.292" gradientUnits="userSpaceOnUse">
<stop stop-color="#B1FFBE"/>
<stop offset="0.444207" stop-color="#5CDB8E"/>
<stop offset="1" stop-color="#149654"/>
</linearGradient>
<linearGradient id="paint64_linear" x1="96.7525" y1="274.598" x2="103.792" y2="329.002" gradientUnits="userSpaceOnUse">
<stop stop-color="#B1FFBE"/>
<stop offset="0.444207" stop-color="#5CDB8E"/>
<stop offset="1" stop-color="#149654"/>
</linearGradient>
<linearGradient id="paint65_linear" x1="127.96" y1="288.233" x2="160.203" y2="338.837" gradientUnits="userSpaceOnUse">
<stop stop-color="#B1FFBE"/>
<stop offset="0.444207" stop-color="#5CDB8E"/>
<stop offset="1" stop-color="#149654"/>
</linearGradient>
<linearGradient id="paint66_linear" x1="206.684" y1="33.2632" x2="228.416" y2="45.906" gradientUnits="userSpaceOnUse">
<stop stop-color="#ACC1E3"/>
<stop offset="1" stop-color="#D6E3FA"/>
</linearGradient>
<clipPath id="clip0">
<rect y="10" width="656" height="409.544" rx="204.772" fill="white"/>
</clipPath>
</defs>
</svg>
